<svg width="21" height="26" viewBox="0 0 21 26" fill="none" xmlns="http://www.w3.org/2000/svg">
<path fill-rule="evenodd" clip-rule="evenodd" d="M10.5534 6.21675C11.6906 6.21675 13.1321 5.44793 13.981 4.42285C14.7498 3.49386 15.2944 2.19649 15.2944 0.899114C15.2944 0.722927 15.2784 0.546741 15.2463 0.402588C13.997 0.450639 12.4594 1.25149 11.5464 2.32462C10.8417 3.14149 10.1689 4.42285 10.1689 5.73624C10.1689 5.92844 10.201 6.12064 10.217 6.18471C10.2971 6.20073 10.4252 6.21675 10.5534 6.21675Z" fill="#F9F9F9"/>
<path fill-rule="evenodd" clip-rule="evenodd" d="M6.56534 25.5972C8.11899 25.5972 8.80772 24.5561 10.7458 24.5561C12.6998 24.5561 13.1483 25.5652 14.8621 25.5652C16.5759 25.5652 17.7132 23.9956 18.7863 22.4579C19.9715 20.6961 20.4841 18.9662 20.5001 18.8861C20.404 18.8541 17.1365 17.5247 17.1365 13.7927C17.1365 10.5573 19.6993 9.09978 19.8434 8.98766C18.1616 6.55308 15.5829 6.48901 14.8621 6.48901C12.9561 6.48901 11.4185 7.64223 10.4254 7.64223C9.38433 7.64223 7.99085 6.55308 6.3411 6.55308C3.20178 6.55308 0.0144043 9.14783 0.0144043 14.049C0.0144043 17.0922 1.19966 20.3117 2.6572 22.3939C3.89051 24.1557 4.99568 25.5972 6.56534 25.5972Z" fill="#F9F9F9"/>
</svg>
