<svg width="21" height="70" viewBox="0 0 21 70" fill="none" xmlns="http://www.w3.org/2000/svg">
<rect width="21" height="70" fill="#FFEFD8"/>
<path d="M8.15202 10.632C8.72802 10.712 9.17602 10.952 9.49602 11.352C9.83202 11.736 10 12.216 10 12.792C10 13.56 9.77602 14.144 9.32802 14.544C8.88002 14.944 8.32802 15.144 7.67202 15.144C6.95202 15.144 6.39202 14.92 5.99202 14.472C5.60802 14.008 5.41602 13.328 5.41602 12.432C5.41602 11.504 5.63202 10.6 6.06402 9.71996C6.49602 8.83996 7.08002 8.04796 7.81602 7.34396C8.08802 7.08796 8.37602 6.95996 8.68002 6.95996C8.96802 6.95996 9.21602 7.06396 9.42402 7.27196C9.63202 7.46396 9.73602 7.69596 9.73602 7.96796C9.73602 8.25596 9.62402 8.51196 9.40002 8.73596C8.79202 9.34396 8.37602 9.97596 8.15202 10.632ZM13.504 10.632C14.08 10.712 14.528 10.952 14.848 11.352C15.184 11.736 15.352 12.216 15.352 12.792C15.352 13.56 15.128 14.144 14.68 14.544C14.232 14.944 13.68 15.144 13.024 15.144C12.304 15.144 11.744 14.92 11.344 14.472C10.96 14.008 10.768 13.328 10.768 12.432C10.768 11.504 10.984 10.6 11.416 9.71996C11.848 8.83996 12.432 8.04796 13.168 7.34396C13.44 7.08796 13.728 6.95996 14.032 6.95996C14.32 6.95996 14.568 7.06396 14.776 7.27196C14.984 7.46396 15.088 7.69596 15.088 7.96796C15.088 8.25596 14.976 8.51196 14.752 8.73596C14.144 9.34396 13.728 9.97596 13.504 10.632Z" fill="#E3B002"/>
</svg>
