<svg width="280" height="216" viewBox="0 0 280 216" fill="none" xmlns="http://www.w3.org/2000/svg">
<mask id="mask0" mask-type="alpha" maskUnits="userSpaceOnUse" x="0" y="112" width="280" height="104">
<rect y="112" width="280" height="104" fill="#C4C4C4"/>
</mask>
<g mask="url(#mask0)">
<path fill-rule="evenodd" clip-rule="evenodd" d="M0 222.463C0 205.639 23.1919 186.124 52.6711 178.664C68.9036 174.547 87.1128 166.822 98.3538 156.505L139.995 168.307L181.637 156.505C192.872 166.819 211.076 174.542 227.329 178.664C256.808 186.124 280 205.628 280 222.441L279.95 230H0.0494954L0 222.463Z" fill="#FFD29B"/>
</g>
<g clip-path="url(#clip0)">
<path d="M140 146.827C155.989 146.827 161.462 129.597 161.462 129.597H118.538C118.538 129.597 124.598 146.827 140 146.827ZM233 173.463C214.021 186.008 194.24 182.641 184.053 162.571C172.092 173.587 157.541 180.775 140 180.775C121.901 180.775 107.686 174.114 95.7606 162.879C85.5235 182.656 65.8718 185.935 47 173.463C78.2981 160.654 27.4772 86.9981 76.3594 31.6485C92.6845 13.1669 115.505 5.16675 140 5.16675C164.495 5.16675 187.316 13.1669 203.641 31.6485C252.523 86.9981 201.702 160.654 233 173.463ZM192.452 128.734C193.325 127.255 194.684 126.143 196.279 125.586C213.785 119.526 214.55 93.6662 207.396 88.9012C205.715 87.7886 203.598 88.0595 202.589 88.5133C197.839 90.6725 192.531 87.0933 192.531 81.8233C192.531 78.3758 192.287 74.4965 191.844 71.0417H119.583C113.767 63.5686 114.067 49.486 116.75 37.5919C110.29 44.7796 104.639 61.3728 103.337 71.0417H88.1632C87.7197 74.4965 87.4765 78.3758 87.4765 81.8233C87.4765 87.0933 82.1683 90.6725 77.4182 88.5133C76.4095 88.0595 74.2991 87.7813 72.6108 88.9012C65.4569 93.6662 66.2224 119.526 83.7278 125.586C85.3303 126.143 86.6824 127.255 87.5552 128.734C99.7811 149.44 116.278 166.143 140.007 166.143C163.729 166.143 180.233 149.433 192.452 128.734Z" fill="#EF4623"/>
<path d="M93.5 91.755L99.3512 87.8335C99.3512 87.8335 103.25 95.1805 112.883 95.1805C122.237 95.1805 126.406 87.8335 126.406 87.8335L132.25 91.755C130.072 97.552 122.911 107.271 112.883 107.271C102.847 107.271 95.6933 97.552 93.5 91.755ZM147.75 91.755L153.601 87.8335C153.601 87.8335 157.5 95.1805 167.133 95.1805C176.487 95.1805 180.656 87.8335 180.656 87.8335L186.5 91.755C184.322 97.552 177.161 107.271 167.133 107.271C157.097 107.271 149.943 97.552 147.75 91.755Z" fill="#EF4623"/>
</g>
<path d="M199.367 83.7897L202.469 72.2129L209.565 82.4367L221 87.4587L209.471 90.1287L204.5 104.959L201.098 92.576L190.237 89.0606L199.367 83.7897Z" fill="#7CE6C6"/>
<path d="M87.9867 128.395L81.4009 117.106L77.7886 127.042L65.401 128.395L77.8825 134.734L81.4009 150.106L86.2554 137.182L97.4009 130.606L87.9867 128.395Z" fill="#7CE6C6"/>
<defs>
<clipPath id="clip0">
<rect width="186" height="175.667" fill="white" transform="translate(47 5.16675)"/>
</clipPath>
</defs>
</svg>
