<svg width="30" height="58" viewBox="0 0 30 58" fill="none" xmlns="http://www.w3.org/2000/svg">
    <mask id="mask0" mask-type="alpha" maskUnits="userSpaceOnUse" x="0" y="0" width="30" height="58">
        <path d="M21.9442 13.6011V1.73146C21.9442 1.46171 21.8342 1.203 21.6383 1.01226C21.4425 0.821514 21.1769 0.714355 20.8999 0.714355H3.77534C3.49839 0.714355 3.23279 0.821514 3.03696 1.01226C2.84112 1.203 2.73111 1.46171 2.73111 1.73146C2.73111 2.00121 2.84112 2.25992 3.03696 2.45066C3.23279 2.64141 3.49839 2.74857 3.77534 2.74857H8.23337V13.6011C6.00298 13.9342 3.9735 15.0472 2.52442 16.7319C1.07533 18.4167 0.305847 20.5578 0.359838 22.755V48.0403C0.359838 53.1258 4.30705 57.2858 9.16274 57.2858H21.0044C25.8601 57.2858 29.8177 53.136 29.8177 48.0403V22.7957C29.882 20.5916 29.1172 18.4406 27.6672 16.7472C26.2172 15.0539 24.1819 13.935 21.9442 13.6011Z" fill="#F19CB3" />
    </mask>
    <g mask="url(#mask0)">
        <path fill-rule="evenodd" clip-rule="evenodd" d="M21 38C21 41.3137 18.3137 44 15 44H1C-2.31371 44 -5 41.3137 -5 38V32C-5 28.6863 -2.31371 26 1 26H15C18.3137 26 21 28.6863 21 32V38Z" fill="#F2EAED" />
        <path fill-rule="evenodd" clip-rule="evenodd" d="M12.3308 34.8829C12.3308 37.4984 10.2319 39.6231 7.63902 39.6231C5.04609 39.6231 2.95044 37.4984 2.95044 34.8829C2.95044 32.2673 5.04932 30.1394 7.64225 30.1394C10.2352 30.1394 12.3308 32.2673 12.3308 34.8829Z" fill="#E85A81" stroke="#F2EAED" stroke-width="0.6" stroke-linecap="round" stroke-linejoin="round" />
        <path fill-rule="evenodd" clip-rule="evenodd" d="M-1.95459 30.4848L0.744893 27.3623L1.38747 27.9145L-1.31524 31.0402L-1.95459 30.4848ZM-1.06983 31.2501L1.62965 28.1276L2.27223 28.6765L-0.43048 31.8055L-1.06983 31.2501Z" fill="#393E46" />
        <path fill-rule="evenodd" clip-rule="evenodd" d="M-1.95459 30.4848L0.744891 27.3623L1.38747 27.9145L-1.31524 31.0402L-1.95459 30.4848Z" fill="#393E46" />
        <path fill-rule="evenodd" clip-rule="evenodd" d="M-1.95459 30.4848L0.744897 27.3623L1.38748 27.9145L-1.31524 31.0402L-1.95459 30.4848ZM-0.165695 32.0347L2.53379 28.9058L3.17637 29.4612L0.473657 32.5869L-0.165695 32.0347Z" fill="#393E46" />
        <path fill-rule="evenodd" clip-rule="evenodd" d="M-1.95459 30.4848L0.744891 27.3623L1.38747 27.9145L-1.31524 31.0402L-1.95459 30.4848Z" fill="#393E46" />
        <path fill-rule="evenodd" clip-rule="evenodd" d="M-1.95459 30.4846L0.744895 27.3621L1.38747 27.9143L-1.31524 31.04L-1.95459 30.4846ZM14.4748 27.3589L17.1549 30.504L16.5091 31.0529L13.829 27.9078L14.4748 27.3589ZM12.6762 28.8927L15.3563 32.0378L14.7105 32.5867L12.0304 29.4416L12.6762 28.8927Z" fill="#393E46" />
        <path fill-rule="evenodd" clip-rule="evenodd" d="M13.1251 30.7044L15.6567 28.5151L16.1314 29.0641L13.419 31.4988L13.1187 30.7044H13.1251Z" fill="#F2EAED" />
        <path fill-rule="evenodd" clip-rule="evenodd" d="M16.2445 38.4154L13.6483 41.5088L13.0122 40.9792L15.6083 37.8858L16.2445 38.4154ZM13.5837 28.1179L16.2638 31.263L15.6213 31.812L12.9444 28.6636L13.5837 28.1179ZM17.126 39.1483L14.5266 42.2418L13.8873 41.7122L16.4866 38.6188L17.126 39.1483ZM15.3468 37.6694L12.7506 40.7629L12.1145 40.2333L14.7107 37.1399L15.3468 37.6694Z" fill="#393E46" />
        <path fill-rule="evenodd" clip-rule="evenodd" d="M3.01842 34.0465C3.16695 35.2413 3.3833 36.5716 5.22063 36.7072C5.90841 36.7492 7.24847 36.5458 7.70699 34.6665C8.31405 32.8647 10.1288 32.348 11.3655 33.3232C12.0727 33.7817 12.2664 34.5083 12.3116 35.0572C12.2567 36.8009 11.2493 38.3185 9.96086 38.9966C8.4755 39.8782 6.42183 39.8975 4.62325 38.5607C3.81276 37.8019 2.67937 36.3973 3.01842 34.0465Z" fill="#5A81E8" stroke="#F2EAED" stroke-width="0.6" stroke-linecap="round" stroke-linejoin="round" />
        <path fill-rule="evenodd" clip-rule="evenodd" d="M13.7193 38.3701L16.2573 40.5529L15.7859 41.1019L12.9734 38.7834L13.7161 38.3701H13.7193Z" fill="#F2EAED" />
        <path fill-rule="evenodd" clip-rule="evenodd" d="M-0.420598 37.9375L2.25951 41.0794L1.6137 41.6283L-1.06641 38.4864L-0.420598 37.9375Z" fill="#393E46" />
        <path fill-rule="evenodd" clip-rule="evenodd" d="M-0.882568 40.5241L1.65546 38.3315L2.13013 38.8805L-0.582267 41.3184L-0.882568 40.5208V40.5241Z" fill="#F2EAED" />
        <path fill-rule="evenodd" clip-rule="evenodd" d="M0.470513 37.1787L3.15062 40.3206L2.50481 40.8695L-0.175297 37.7276L0.470513 37.1787ZM-1.32807 38.7125L1.35204 41.8544L0.706234 42.4033L-1.97388 39.2614L-1.32807 38.7125Z" fill="#393E46" />
    </g>
    <line x1="8" y1="12" x2="22" y2="12" stroke="#E85A81" stroke-width="2" />
</svg>
