<svg width="26" height="20" viewBox="0 0 26 20" fill="none" xmlns="http://www.w3.org/2000/svg">
<g clip-path="url(#clip0)">
<mask id="mask0" mask-type="alpha" maskUnits="userSpaceOnUse" x="-11" y="-15" width="30" height="63">
<path d="M17.7678 -13.8007C17.6625 -13.9144 17.5341 -14.0055 17.3906 -14.0679C17.2472 -14.1303 17.0919 -14.1627 16.9349 -14.1631H-8.95219C-9.10925 -14.1627 -9.2645 -14.1303 -9.40794 -14.0679C-9.55138 -14.0055 -9.67985 -13.9144 -9.78508 -13.8007C-9.89129 -13.6853 -9.97128 -13.5494 -10.0198 -13.4017C-10.0683 -13.2541 -10.0842 -13.0981 -10.0665 -12.944L-4.59641 32.7771C-4.56323 33.0449 -4.43016 33.2915 -4.22257 33.4698C-4.01498 33.648 -3.7474 33.7455 -3.47089 33.7435V42.5956C-3.47089 45.1326 -1.71507 47.2083 0.44594 47.2083H7.19909C9.34884 47.2083 11.1047 45.1326 11.1047 42.5956V33.7435H11.4423C11.7188 33.7455 11.9864 33.648 12.194 33.4698C12.4016 33.2915 12.5347 33.0449 12.5678 32.7771L14.1436 19.8174C14.1814 19.7565 14.208 19.6896 14.2224 19.6198C14.2449 19.4815 14.2449 19.3407 14.2224 19.2024L18.0491 -12.955C18.0653 -13.1073 18.0485 -13.2612 18.0001 -13.4068C17.9516 -13.5525 17.8725 -13.6866 17.7678 -13.8007Z" fill="#F19CB3"/>
</mask>
<g mask="url(#mask0)">
<path fill-rule="evenodd" clip-rule="evenodd" d="M-1.59814 0.25L27.1697 0.25V19.4286H-1.59814L-1.59814 0.25Z" fill="#E85A81"/>
<path fill-rule="evenodd" clip-rule="evenodd" d="M16.2918 14.5216L12.9356 12.0231L9.60181 14.544L10.8379 10.4386L7.50415 7.90271L11.6283 7.86525L12.9094 3.76733L14.2092 7.85402L18.3333 7.85776L15.0183 10.4199L16.2881 14.5253L16.2918 14.5216Z" fill="#F0D060"/>
</g>
</g>
<defs>
<clipPath id="clip0">
<rect y="0.25" width="25.5714" height="19.1786" rx="6" fill="white"/>
</clipPath>
</defs>
</svg>
