<svg width="36" height="36" viewBox="0 0 36 36" fill="none" xmlns="http://www.w3.org/2000/svg">
<g clip-path="url(#clip0)">
<path d="M24.2308 18.7083C24.2308 19.8813 23.4554 20.8333 22.5 20.8333C21.5446 20.8333 20.7692 19.8813 20.7692 18.7083C20.7692 17.5353 21.5446 16.5833 22.5 16.5833C23.4554 16.5833 24.2308 17.5353 24.2308 18.7083ZM13.5 16.5833C12.5446 16.5833 11.7692 17.5353 11.7692 18.7083C11.7692 19.8813 12.5446 20.8333 13.5 20.8333C14.4554 20.8333 15.2308 19.8813 15.2308 18.7083C15.2308 17.5353 14.4554 16.5833 13.5 16.5833ZM18 28.4182C21.0946 28.4182 22.1538 25.0833 22.1538 25.0833H13.8462C13.8462 25.0833 15.0189 28.4182 18 28.4182ZM36 33.5734C32.3266 36.0016 28.4982 35.3499 26.5265 31.4654C24.2114 33.5975 21.3951 34.9887 18 34.9887C14.4969 34.9887 11.7457 33.6995 9.43754 31.5249C7.45615 35.3528 3.65262 35.9874 0 33.5734C6.05769 31.0943 -3.77862 16.8383 5.68246 6.1255C8.84215 2.54842 13.2591 1 18 1C22.7409 1 27.1578 2.54842 30.3175 6.1255C39.7786 16.8383 29.9423 31.0943 36 33.5734ZM28.152 24.9162C28.3209 24.63 28.584 24.4147 28.8928 24.307C32.2809 23.134 32.4291 18.1289 31.0445 17.2067C30.7191 16.9913 30.3092 17.0438 30.114 17.1316C29.1946 17.5495 28.1672 16.8568 28.1672 15.8368C28.1672 15.1695 28.1202 14.4187 28.0343 13.75H14.0483C12.9226 12.3036 12.9808 9.57792 13.5 7.27583C12.2497 8.667 11.1558 11.8786 10.9038 13.75H7.96708C7.88123 14.4187 7.83415 15.1695 7.83415 15.8368C7.83415 16.8568 6.80677 17.5495 5.88738 17.1316C5.69215 17.0438 5.28369 16.9899 4.95692 17.2067C3.57231 18.1289 3.72046 23.134 7.10862 24.307C7.41877 24.4147 7.68046 24.63 7.84939 24.9162C10.2157 28.9239 13.4086 32.1568 18.0014 32.1568C22.5928 32.1568 25.7871 28.9225 28.152 24.9162Z" fill="#E3B002"/>
</g>
<defs>
<clipPath id="clip0">
<rect width="36" height="34" fill="white" transform="translate(0 1)"/>
</clipPath>
</defs>
</svg>
