<svg width="91" height="32" viewBox="0 0 91 32" fill="none" xmlns="http://www.w3.org/2000/svg">
    <rect width="91" height="32" fill="white" />
    <path d="M22.9771 14.9441L22.9771 14.9442L22.9788 14.945C23.3283 15.1219 23.656 15.3595 23.9619 15.6594C24.4071 16.0959 25.128 16.2398 25.6543 15.8424L26.0272 15.5609C26.5089 15.1971 26.6456 14.4965 26.2251 14.0246C25.6827 13.4158 25.0383 12.9101 24.2931 12.5074C23.2628 11.9403 22.2108 11.6545 21.1389 11.6545C19.3163 11.6545 17.6449 12.3454 16.1285 13.7144C14.6061 15.088 13.85 16.9546 13.85 19.2961C13.85 21.1543 14.4415 22.6636 15.6331 23.8087L15.6334 23.809C16.831 24.9533 18.4034 25.5198 20.3356 25.5198C22.0521 25.5198 23.5814 24.8614 24.9185 23.5565C26.0655 22.4371 26.7022 20.9538 26.8367 19.1197C26.8836 18.4804 26.3533 17.9796 25.7318 17.9796H21.7473C21.1121 17.9796 20.5973 18.4945 20.5973 19.1296V19.4525C20.5973 20.0876 21.1121 20.6025 21.7473 20.6025H23.0644C23.3265 20.6025 23.4685 20.8615 23.3517 21.0556C23.0336 21.5843 22.6595 21.9866 22.2312 22.2679C21.6314 22.662 21.0004 22.8567 20.3356 22.8567C19.428 22.8567 18.6393 22.5162 17.9629 21.8259C17.2865 21.129 16.9513 20.3148 16.9513 19.3765C16.9513 17.8958 17.3449 16.7132 18.1196 15.8144C18.8995 14.9172 19.9083 14.4684 21.1589 14.4684C21.761 14.4684 22.3666 14.6254 22.9771 14.9441ZM40.5219 24.1519L40.5223 24.1515C41.4817 23.246 41.965 22.1478 41.965 20.8648C41.965 19.5407 41.5226 18.4508 40.6332 17.6086C39.751 16.7669 38.6108 16.3506 37.2265 16.3506C35.9524 16.3506 34.8372 16.8309 33.8873 17.7823C32.9371 18.7339 32.4578 19.854 32.4578 21.1363C32.4578 22.3449 32.9071 23.3793 33.7994 24.2314L33.7999 24.2318C34.6923 25.0771 35.7772 25.4997 37.0457 25.4997C38.401 25.4997 39.5627 25.0505 40.5219 24.1519ZM38.5634 19.4998L38.5634 19.4998L38.5653 19.5017C38.9149 19.8581 39.0946 20.3276 39.0946 20.9251C39.0946 21.47 38.9085 21.9396 38.5327 22.3411C38.1576 22.7418 37.7179 22.9372 37.2064 22.9372C36.6761 22.9372 36.2365 22.7578 35.8777 22.3988C35.5258 22.0336 35.3483 21.5795 35.3483 21.0257C35.3483 20.4435 35.5303 19.9572 35.8919 19.5576C36.2602 19.1512 36.6959 18.9534 37.2064 18.9534C37.7725 18.9534 38.2201 19.1375 38.5634 19.4998ZM30.7962 10.85C30.2266 10.85 29.7429 11.2669 29.6588 11.8302L27.8388 24.019C27.7351 24.7141 28.2735 25.3388 28.9762 25.3388H29.4128C29.9829 25.3388 30.467 24.9211 30.5504 24.3571L32.3531 12.1683C32.4558 11.4737 31.9176 10.85 31.2155 10.85H30.7962ZM44.0826 16.5316C43.3297 16.5316 42.7798 17.2432 42.9699 17.9718L44.6672 24.4791C44.7993 24.9855 45.2566 25.3388 45.78 25.3388H45.8799C46.2883 25.3388 46.6659 25.1223 46.8723 24.77L49.0394 21.0696C49.1966 20.8013 49.5994 20.8558 49.6796 21.1562L50.5682 24.4854C50.7025 24.9887 51.1584 25.3388 51.6793 25.3388H51.7134C52.1218 25.3388 52.4995 25.1222 52.7059 24.7698L56.5152 18.2625C56.964 17.4959 56.4111 16.5316 55.5227 16.5316H55.45C55.042 16.5316 54.6645 16.7478 54.458 17.0997L52.6272 20.2208C52.4695 20.4898 52.0654 20.4338 51.9867 20.1321L51.2715 17.3912C51.1393 16.8849 50.682 16.5316 50.1587 16.5316H49.6132C49.2072 16.5316 48.8312 16.7457 48.6241 17.095L46.7613 20.236C46.603 20.5029 46.2015 20.4471 46.122 20.1472L45.3897 17.3867C45.256 16.8826 44.7997 16.5316 44.2782 16.5316H44.0826ZM59.0046 16.5316C58.226 16.5316 57.6725 17.2889 57.9089 18.0307L59.9825 24.538C60.1345 25.015 60.5776 25.3388 61.0782 25.3388H61.382C61.8018 25.3388 62.1882 25.1101 62.3902 24.7421L65.9614 18.2348C66.382 17.4685 65.8275 16.5316 64.9533 16.5316H64.6857C64.2651 16.5316 63.8781 16.7612 63.6765 17.1304L61.8947 20.3927C61.7467 20.6638 61.3457 20.6242 61.2535 20.3294L60.3183 17.3384C60.1682 16.8584 59.7236 16.5316 59.2207 16.5316H59.0046ZM68.3782 16.5316C67.6009 16.5316 67.0475 17.2867 67.2816 18.0279L69.0896 23.7524L66.9299 27.416C66.478 28.1826 67.0307 29.15 67.9206 29.15H68.1114C68.5171 29.15 68.8928 28.9362 69.1 28.5874L75.2312 18.269C75.6867 17.5024 75.1343 16.5316 74.2426 16.5316H74.0012C73.5939 16.5316 73.217 16.747 73.0103 17.098L71.194 20.1821C71.0409 20.4423 70.6523 20.3994 70.5594 20.1122L69.6594 17.3279C69.506 16.8532 69.064 16.5316 68.5652 16.5316H68.3782Z" fill="#393E46" stroke="#393E46" stroke-width="0.3" stroke-linecap="round" stroke-linejoin="round" />
    <path d="M58.3194 13.6987L58.3194 13.6987L58.3212 13.7005C58.6388 14.001 59.0314 14.15 59.4888 14.15C59.942 14.15 60.3348 13.9829 60.6599 13.6549C60.9844 13.3274 61.15 12.9355 61.15 12.4859C61.15 12.0099 60.996 11.6124 60.6806 11.3083C60.3708 11 59.9687 10.85 59.4888 10.85C59.0349 10.85 58.6438 11.0201 58.3235 11.3539L58.3234 11.354C58.0077 11.6835 57.85 12.0874 57.85 12.5563C57.85 13.0078 58.0063 13.3922 58.3194 13.6987Z" fill="#393E46" stroke="#393E46" stroke-width="0.3" stroke-linecap="round" stroke-linejoin="round" />
    <path d="M64.3194 13.6987L64.3194 13.6987L64.3212 13.7005C64.6388 14.001 65.0314 14.15 65.4888 14.15C65.942 14.15 66.3348 13.9829 66.6599 13.6549C66.9844 13.3274 67.15 12.9355 67.15 12.4859C67.15 12.0099 66.996 11.6124 66.6806 11.3083C66.3708 11 65.9687 10.85 65.4888 10.85C65.0349 10.85 64.6438 11.0201 64.3235 11.3539L64.3234 11.354C64.0077 11.6835 63.85 12.0874 63.85 12.5563C63.85 13.0078 64.0063 13.3922 64.3194 13.6987Z" fill="#393E46" stroke="#393E46" stroke-width="0.3" stroke-linecap="round" stroke-linejoin="round" />
</svg>
