<svg width="82" height="74" viewBox="0 0 82 74" fill="none" xmlns="http://www.w3.org/2000/svg">
<path d="M0 58H82V74H0V58Z" fill="black" fill-opacity="0.05"/>
<path d="M82 58C82 62.9706 63.6437 67 41 67C18.3563 67 0 62.9706 0 58C0 53.0294 18.3563 49 41 49C63.6437 49 82 53.0294 82 58Z" fill="#8FE8CD"/>
<path d="M33.9444 17.6011V5.73146C33.9444 5.46171 33.8344 5.203 33.6386 5.01226C33.4427 4.82151 33.1771 4.71436 32.9002 4.71436H15.7756C15.4986 4.71436 15.233 4.82151 15.0372 5.01226C14.8414 5.203 14.7314 5.46171 14.7314 5.73146C14.7314 6.00121 14.8414 6.25992 15.0372 6.45066C15.233 6.64141 15.4986 6.74857 15.7756 6.74857H20.2336V17.6011C18.0032 17.9342 15.9737 19.0472 14.5247 20.7319C13.0756 22.4167 12.3061 24.5578 12.3601 26.755V52.0403C12.3601 57.1258 16.3073 61.2858 21.163 61.2858H33.0046C37.8603 61.2858 41.818 57.136 41.818 52.0403V26.7957C41.8823 24.5916 41.1175 22.4406 39.6675 20.7472C38.2174 19.0539 36.1821 17.935 33.9444 17.6011Z" fill="#76DABC"/>
<mask id="mask0" mask-type="alpha" maskUnits="userSpaceOnUse" x="12" y="4" width="30" height="58">
<path d="M33.9444 17.6011V5.73146C33.9444 5.46171 33.8344 5.203 33.6386 5.01226C33.4427 4.82151 33.1771 4.71436 32.9002 4.71436H15.7756C15.4986 4.71436 15.233 4.82151 15.0372 5.01226C14.8414 5.203 14.7313 5.46171 14.7313 5.73146C14.7313 6.00121 14.8414 6.25992 15.0372 6.45066C15.233 6.64141 15.4986 6.74857 15.7756 6.74857H20.2336V17.6011C18.0032 17.9342 15.9737 19.0472 14.5247 20.7319C13.0756 22.4167 12.3061 24.5578 12.3601 26.755V52.0403C12.3601 57.1258 16.3073 61.2858 21.163 61.2858H33.0046C37.8603 61.2858 41.818 57.136 41.818 52.0403V26.7957C41.8823 24.5916 41.1175 22.4406 39.6675 20.7472C38.2174 19.0539 36.1821 17.935 33.9444 17.6011Z" fill="#F19CB3"/>
</mask>
<g mask="url(#mask0)">
<path fill-rule="evenodd" clip-rule="evenodd" d="M33 42C33 45.3137 30.3137 48 27 48H13C9.68629 48 7 45.3137 7 42V36C7 32.6863 9.68629 30 13 30H27C30.3137 30 33 32.6863 33 36V42Z" fill="#8FE8CD"/>
<path fill-rule="evenodd" clip-rule="evenodd" d="M24.3306 38.8829C24.3306 41.4984 22.2317 43.6231 19.6388 43.6231C17.0458 43.6231 14.9502 41.4984 14.9502 38.8829C14.9502 36.2673 17.0491 34.1394 19.642 34.1394C22.2349 34.1394 24.3306 36.2673 24.3306 38.8829Z" fill="#EF3441" stroke="#8FE8CD" stroke-width="0.6" stroke-linecap="round" stroke-linejoin="round"/>
<path fill-rule="evenodd" clip-rule="evenodd" d="M10.0454 34.4848L12.7449 31.3623L13.3875 31.9145L10.6848 35.0402L10.0454 34.4848ZM10.9302 35.2501L13.6297 32.1276L14.2722 32.6765L11.5695 35.8055L10.9302 35.2501Z" fill="#393E46"/>
<path fill-rule="evenodd" clip-rule="evenodd" d="M10.0454 34.4848L12.7449 31.3623L13.3875 31.9145L10.6848 35.0402L10.0454 34.4848Z" fill="#393E46"/>
<path fill-rule="evenodd" clip-rule="evenodd" d="M10.0454 34.4848L12.7449 31.3623L13.3875 31.9145L10.6848 35.0402L10.0454 34.4848ZM11.8343 36.0347L14.5338 32.9058L15.1764 33.4612L12.4737 36.5869L11.8343 36.0347Z" fill="#393E46"/>
<path fill-rule="evenodd" clip-rule="evenodd" d="M10.0454 34.4848L12.7449 31.3623L13.3875 31.9145L10.6848 35.0402L10.0454 34.4848Z" fill="#393E46"/>
<path fill-rule="evenodd" clip-rule="evenodd" d="M10.0454 34.4846L12.7449 31.3621L13.3875 31.9143L10.6848 35.04L10.0454 34.4846ZM26.4748 31.3589L29.1549 34.504L28.5091 35.0529L25.829 31.9078L26.4748 31.3589ZM24.6762 32.8927L27.3563 36.0378L26.7105 36.5867L24.0304 33.4416L24.6762 32.8927Z" fill="#393E46"/>
<path fill-rule="evenodd" clip-rule="evenodd" d="M25.1251 34.7044L27.6567 32.5151L28.1314 33.0641L25.419 35.4988L25.1187 34.7044H25.1251Z" fill="#8FE8CD"/>
<path fill-rule="evenodd" clip-rule="evenodd" d="M28.2447 42.4154L25.6485 45.5088L25.0124 44.9792L27.6086 41.8858L28.2447 42.4154ZM25.584 32.1179L28.2641 35.263L27.6215 35.812L24.9446 32.6636L25.584 32.1179ZM29.1262 43.1483L26.5269 46.2418L25.8875 45.7122L28.4869 42.6188L29.1262 43.1483ZM27.347 41.6694L24.7509 44.7629L24.1147 44.2333L26.7109 41.1399L27.347 41.6694Z" fill="#393E46"/>
<path fill-rule="evenodd" clip-rule="evenodd" d="M15.0182 38.0465C15.1667 39.2413 15.3831 40.5716 17.2204 40.7072C17.9082 40.7492 19.2482 40.5458 19.7067 38.6665C20.3138 36.8647 22.1285 36.348 23.3653 37.3232C24.0724 37.7817 24.2662 38.5083 24.3114 39.0572C24.2565 40.8009 23.249 42.3185 21.9606 42.9966C20.4753 43.8782 18.4216 43.8975 16.623 42.5607C15.8125 41.8019 14.6791 40.3973 15.0182 38.0465Z" fill="#5A81E8" stroke="#8FE8CD" stroke-width="0.6" stroke-linecap="round" stroke-linejoin="round"/>
<path fill-rule="evenodd" clip-rule="evenodd" d="M25.7195 42.3701L28.2576 44.5529L27.7861 45.1019L24.9736 42.7834L25.7163 42.3701H25.7195Z" fill="#8FE8CD"/>
<path fill-rule="evenodd" clip-rule="evenodd" d="M11.5794 41.9375L14.2595 45.0794L13.6137 45.6283L10.9336 42.4864L11.5794 41.9375Z" fill="#393E46"/>
<path fill-rule="evenodd" clip-rule="evenodd" d="M11.1177 44.5241L13.6557 42.3315L14.1304 42.8805L11.418 45.3184L11.1177 44.5208V44.5241Z" fill="#8FE8CD"/>
<path fill-rule="evenodd" clip-rule="evenodd" d="M12.4703 41.1787L15.1504 44.3206L14.5046 44.8695L11.8245 41.7276L12.4703 41.1787ZM10.6717 42.7125L13.3518 45.8544L12.706 46.4033L10.0259 43.2614L10.6717 42.7125Z" fill="#393E46"/>
</g>
<line x1="20" y1="16" x2="34" y2="16" stroke="#6AC4A9" stroke-width="2"/>
<path d="M73.3786 5.04844C73.2816 4.94356 73.1632 4.85966 73.0309 4.80212C72.8987 4.74459 72.7556 4.71469 72.6108 4.71436H48.7484C48.6037 4.71469 48.4606 4.74459 48.3283 4.80212C48.1961 4.85966 48.0777 4.94356 47.9807 5.04844C47.8828 5.15474 47.8091 5.28006 47.7644 5.41616C47.7196 5.55226 47.705 5.69606 47.7213 5.83809L52.7635 47.9832C52.7941 48.2301 52.9168 48.4574 53.1081 48.6217C53.2995 48.7861 53.5462 48.8759 53.801 48.8741V57.0338C53.801 59.3724 55.4195 61.2858 57.4115 61.2858H63.6365C65.6181 61.2858 67.2366 59.3724 67.2366 57.0338V48.8741H67.5478C67.8027 48.8759 68.0494 48.7861 68.2407 48.6217C68.4321 48.4574 68.5548 48.2301 68.5853 47.9832L70.0378 36.0372C70.0727 35.981 70.0973 35.9194 70.1105 35.855C70.1312 35.7275 70.1312 35.5977 70.1105 35.4703L73.6379 5.82797C73.6528 5.68757 73.6374 5.54569 73.5927 5.41145C73.548 5.2772 73.4751 5.15355 73.3786 5.04844Z" fill="#76DABC"/>
<g clip-path="url(#clip0)">
<mask id="mask1" mask-type="alpha" maskUnits="userSpaceOnUse" x="45" y="2" width="30" height="63">
<path d="M73.7675 3.19934C73.6623 3.08557 73.5338 2.99455 73.3904 2.93213C73.2469 2.86971 73.0917 2.83728 72.9346 2.83691H47.0476C46.8905 2.83728 46.7353 2.86971 46.5918 2.93213C46.4484 2.99455 46.3199 3.08557 46.2147 3.19934C46.1085 3.31466 46.0285 3.45062 45.98 3.59827C45.9315 3.74592 45.9156 3.90192 45.9333 4.056L51.4033 49.7771C51.4365 50.0449 51.5696 50.2915 51.7772 50.4698C51.9848 50.648 52.2524 50.7455 52.5289 50.7435V59.5956C52.5289 62.1326 54.2847 64.2083 56.4457 64.2083H63.1988C65.3486 64.2083 67.1044 62.1326 67.1044 59.5956V50.7435H67.4421C67.7186 50.7455 67.9862 50.648 68.1938 50.4698C68.4013 50.2915 68.5344 50.0449 68.5676 49.7771L70.1433 36.8174C70.1811 36.7565 70.2078 36.6896 70.2221 36.6198C70.2446 36.4815 70.2446 36.3407 70.2221 36.2024L74.0489 4.04501C74.065 3.8927 74.0483 3.73879 73.9998 3.59315C73.9514 3.44752 73.8722 3.31338 73.7675 3.19934Z" fill="#F19CB3"/>
</mask>
<g mask="url(#mask1)">
<path fill-rule="evenodd" clip-rule="evenodd" d="M54.4019 17.25H83.1697V36.4286H54.4019V17.25Z" fill="#EF3441"/>
<path fill-rule="evenodd" clip-rule="evenodd" d="M72.2921 31.5216L68.9358 29.0231L65.6021 31.544L66.8382 27.4386L63.5044 24.9027L67.6285 24.8653L68.9096 20.7673L70.2094 24.854L74.3335 24.8578L71.0185 27.4199L72.2883 31.5253L72.2921 31.5216Z" fill="#FAD23D"/>
</g>
</g>
<line x1="54" y1="50.0002" x2="67" y2="50.0002" stroke="#6AC4A9" stroke-width="2"/>
<defs>
<clipPath id="clip0">
<rect x="56" y="17.25" width="25.5714" height="19.1786" rx="6" fill="white"/>
</clipPath>
</defs>
</svg>
