<svg width="30" height="30" viewBox="0 0 30 30" fill="none" xmlns="http://www.w3.org/2000/svg">
<path d="M15.0001 23.0002C19.4184 23.0002 23.0002 19.4184 23.0002 15.0001C23.0002 10.5818 19.4184 7 15.0001 7C10.5818 7 7 10.5818 7 15.0001C7 19.4184 10.5818 23.0002 15.0001 23.0002Z" fill="#FFEFD8"/>
<path d="M15 25C13.6167 25 12.3199 24.7406 11.1095 24.2219C9.91835 23.7032 8.86167 22.9923 7.93948 22.0893C7.01729 21.1671 6.29683 20.1009 5.7781 18.8905C5.25937 17.6801 5 16.3833 5 15C5 13.6167 5.25937 12.3295 5.7781 11.1383C6.29683 9.92795 7.00768 8.86167 7.91066 7.93948C8.83285 7.01729 9.89914 6.29683 11.1095 5.7781C12.3199 5.25937 13.6167 5 15 5C16.3833 5 17.6801 5.25937 18.8905 5.7781C20.1009 6.29683 21.1575 7.01729 22.0605 7.93948C22.9827 8.84246 23.7032 9.89914 24.2219 11.1095C24.7406 12.3199 25 13.6167 25 15C25 16.3833 24.7406 17.6801 24.2219 18.8905C23.7032 20.1009 22.9827 21.1671 22.0605 22.0893C21.1575 22.9923 20.1009 23.7032 18.8905 24.2219C17.6801 24.7406 16.3833 25 15 25ZM11.5418 14.3372C11.9837 14.3372 12.3583 14.1931 12.6657 13.9049C12.9731 13.5975 13.1268 13.2133 13.1268 12.7522C13.1268 12.3103 12.9731 11.9356 12.6657 11.6282C12.3775 11.3016 12.0029 11.1383 11.5418 11.1383C11.0615 11.1383 10.6676 11.3016 10.3602 11.6282C10.072 11.9356 9.92795 12.3103 9.92795 12.7522C9.92795 13.2133 10.0817 13.5975 10.389 13.9049C10.6964 14.1931 11.0807 14.3372 11.5418 14.3372ZM18.4582 14.3372C18.9001 14.3372 19.2747 14.1931 19.5821 13.9049C19.9087 13.5975 20.072 13.2133 20.072 12.7522C20.072 12.2911 19.9183 11.9068 19.611 11.5994C19.3036 11.292 18.9193 11.1383 18.4582 11.1383C17.9779 11.1383 17.5841 11.3016 17.2767 11.6282C16.9885 11.9356 16.8444 12.3103 16.8444 12.7522C16.8444 13.2133 16.9981 13.5975 17.3055 13.9049C17.6321 14.1931 18.0163 14.3372 18.4582 14.3372ZM14.9712 20.8501C16.95 20.8501 18.5447 19.8319 19.755 17.7954L17.9971 16.8444C17.1902 18.074 16.1816 18.6888 14.9712 18.6888C13.7416 18.6888 12.7329 18.074 11.9452 16.8444L10.2161 17.7954C11.4073 19.8319 12.9923 20.8501 14.9712 20.8501Z" fill="#EF4623"/>
</svg>
