<svg width="72" height="66" viewBox="0 0 72 66" fill="none" xmlns="http://www.w3.org/2000/svg">
    <path d="M23.9444 17.6011V5.73146C23.9444 5.46171 23.8344 5.203 23.6386 5.01226C23.4427 4.82151 23.1771 4.71436 22.9002 4.71436H5.77559C5.49864 4.71436 5.23303 4.82151 5.0372 5.01226C4.84137 5.203 4.73135 5.46171 4.73135 5.73146C4.73135 6.00121 4.84137 6.25992 5.0372 6.45066C5.23303 6.64141 5.49864 6.74857 5.77559 6.74857H10.2336V17.6011C8.00322 17.9342 5.97375 19.0472 4.52466 20.7319C3.07558 22.4167 2.30609 24.5578 2.36008 26.755V52.0403C2.36008 57.1258 6.30729 61.2858 11.163 61.2858H23.0046C27.8603 61.2858 31.818 57.136 31.818 52.0403V26.7957C31.8823 24.5916 31.1175 22.4406 29.6675 20.7472C28.2174 19.0539 26.1821 17.935 23.9444 17.6011Z" fill="#63DAC8" />
    <mask id="mask0" mask-type="alpha" maskUnits="userSpaceOnUse" x="2" y="4" width="30" height="58">
        <path d="M23.9444 17.6011V5.73146C23.9444 5.46171 23.8344 5.203 23.6386 5.01226C23.4427 4.82151 23.1771 4.71436 22.9002 4.71436H5.77558C5.49864 4.71436 5.23303 4.82151 5.0372 5.01226C4.84137 5.203 4.73135 5.46171 4.73135 5.73146C4.73135 6.00121 4.84137 6.25992 5.0372 6.45066C5.23303 6.64141 5.49864 6.74857 5.77558 6.74857H10.2336V17.6011C8.00322 17.9342 5.97375 19.0472 4.52466 20.7319C3.07558 22.4167 2.30609 24.5578 2.36008 26.755V52.0403C2.36008 57.1258 6.30729 61.2858 11.163 61.2858H23.0046C27.8603 61.2858 31.818 57.136 31.818 52.0403V26.7957C31.8823 24.5916 31.1175 22.4406 29.6675 20.7472C28.2174 19.0539 26.1821 17.935 23.9444 17.6011Z" fill="#63DAC8" />
    </mask>
    <g mask="url(#mask0)">
        <path fill-rule="evenodd" clip-rule="evenodd" d="M23 42C23 45.3137 20.3137 48 17 48H3C-0.313709 48 -3 45.3137 -3 42L-3 36C-3 32.6863 -0.313708 30 3 30H17C20.3137 30 23 32.6863 23 36V42Z" fill="#F2EAED" />
        <path fill-rule="evenodd" clip-rule="evenodd" d="M14.3306 38.8829C14.3306 41.4984 12.2317 43.6231 9.63877 43.6231C7.04585 43.6231 4.9502 41.4984 4.9502 38.8829C4.9502 36.2673 7.04908 34.1394 9.642 34.1394C12.2349 34.1394 14.3306 36.2673 14.3306 38.8829Z" fill="#21CAB0" stroke="#F2EAED" stroke-width="0.6" stroke-linecap="round" stroke-linejoin="round" />
        <path fill-rule="evenodd" clip-rule="evenodd" d="M0.0454102 34.4848L2.74489 31.3623L3.38747 31.9145L0.684761 35.0402L0.0454102 34.4848ZM0.930169 35.2501L3.62965 32.1276L4.27223 32.6765L1.56952 35.8055L0.930169 35.2501Z" fill="#393E46" />
        <path fill-rule="evenodd" clip-rule="evenodd" d="M0.0454102 34.4848L2.74489 31.3623L3.38747 31.9145L0.684761 35.0402L0.0454102 34.4848Z" fill="#393E46" />
        <path fill-rule="evenodd" clip-rule="evenodd" d="M0.0454102 34.4848L2.7449 31.3623L3.38748 31.9145L0.684762 35.0402L0.0454102 34.4848ZM1.8343 36.0347L4.53379 32.9058L5.17637 33.4612L2.47366 36.5869L1.8343 36.0347Z" fill="#393E46" />
        <path fill-rule="evenodd" clip-rule="evenodd" d="M0.0454102 34.4848L2.74489 31.3623L3.38747 31.9145L0.684761 35.0402L0.0454102 34.4848Z" fill="#393E46" />
        <path fill-rule="evenodd" clip-rule="evenodd" d="M0.0454102 34.4846L2.74489 31.3621L3.38747 31.9143L0.684762 35.04L0.0454102 34.4846ZM16.4748 31.3589L19.1549 34.504L18.5091 35.0529L15.829 31.9078L16.4748 31.3589ZM14.6762 32.8927L17.3563 36.0378L16.7105 36.5867L14.0304 33.4416L14.6762 32.8927Z" fill="#393E46" />
        <path fill-rule="evenodd" clip-rule="evenodd" d="M15.1251 34.7044L17.6567 32.5151L18.1314 33.0641L15.419 35.4988L15.1187 34.7044H15.1251Z" fill="#F2EAED" />
        <path fill-rule="evenodd" clip-rule="evenodd" d="M18.2447 42.4154L15.6485 45.5088L15.0124 44.9792L17.6086 41.8858L18.2447 42.4154ZM15.584 32.1179L18.2641 35.263L17.6215 35.812L14.9446 32.6636L15.584 32.1179ZM19.1262 43.1483L16.5269 46.2418L15.8875 45.7122L18.4869 42.6188L19.1262 43.1483ZM17.347 41.6694L14.7509 44.7629L14.1147 44.2333L16.7109 41.1399L17.347 41.6694Z" fill="#393E46" />
        <path fill-rule="evenodd" clip-rule="evenodd" d="M5.01817 38.0465C5.16671 39.2413 5.38306 40.5716 7.22038 40.7072C7.90817 40.7492 9.24822 40.5458 9.70675 38.6665C10.3138 36.8647 12.1285 36.348 13.3653 37.3232C14.0724 37.7817 14.2662 38.5083 14.3114 39.0572C14.2565 40.8009 13.249 42.3185 11.9606 42.9966C10.4753 43.8782 8.42159 43.8975 6.62301 42.5607C5.81252 41.8019 4.67912 40.3973 5.01817 38.0465Z" fill="#5A81E8" stroke="#F2EAED" stroke-width="0.6" stroke-linecap="round" stroke-linejoin="round" />
        <path fill-rule="evenodd" clip-rule="evenodd" d="M15.7195 42.3701L18.2576 44.5529L17.7861 45.1019L14.9736 42.7834L15.7163 42.3701H15.7195Z" fill="#F2EAED" />
        <path fill-rule="evenodd" clip-rule="evenodd" d="M1.5794 41.9375L4.25951 45.0794L3.6137 45.6283L0.933594 42.4864L1.5794 41.9375Z" fill="#393E46" />
        <path fill-rule="evenodd" clip-rule="evenodd" d="M1.11768 44.5241L3.6557 42.3315L4.13037 42.8805L1.41798 45.3184L1.11768 44.5208V44.5241Z" fill="#F2EAED" />
        <path fill-rule="evenodd" clip-rule="evenodd" d="M2.47027 41.1787L5.15038 44.3206L4.50457 44.8695L1.82446 41.7276L2.47027 41.1787ZM0.671689 42.7125L3.3518 45.8544L2.70599 46.4033L0.0258789 43.2614L0.671689 42.7125Z" fill="#393E46" />
    </g>
    <line x1="10" y1="16" x2="24" y2="16" stroke="#21CAB0" stroke-width="2" />
    <path d="M63.3786 5.04844C63.2816 4.94356 63.1632 4.85966 63.0309 4.80212C62.8987 4.74459 62.7556 4.71469 62.6108 4.71436H38.7484C38.6037 4.71469 38.4606 4.74459 38.3283 4.80212C38.1961 4.85966 38.0777 4.94356 37.9807 5.04844C37.8828 5.15474 37.8091 5.28006 37.7644 5.41616C37.7196 5.55226 37.705 5.69606 37.7213 5.83809L42.7635 47.9832C42.7941 48.2301 42.9168 48.4574 43.1081 48.6217C43.2995 48.7861 43.5462 48.8759 43.801 48.8741V57.0338C43.801 59.3724 45.4195 61.2858 47.4115 61.2858H53.6365C55.6181 61.2858 57.2366 59.3724 57.2366 57.0338V48.8741H57.5478C57.8027 48.8759 58.0494 48.7861 58.2407 48.6217C58.4321 48.4574 58.5548 48.2301 58.5853 47.9832L60.0378 36.0372C60.0727 35.981 60.0973 35.9194 60.1105 35.855C60.1312 35.7275 60.1312 35.5977 60.1105 35.4703L63.6379 5.82797C63.6528 5.68757 63.6374 5.54569 63.5927 5.41145C63.548 5.2772 63.4751 5.15355 63.3786 5.04844Z" fill="#63DAC8" />
    <g clip-path="url(#clip0)">
        <mask id="mask1" mask-type="alpha" maskUnits="userSpaceOnUse" x="35" y="2" width="30" height="63">
            <path d="M63.7675 3.19934C63.6623 3.08557 63.5338 2.99455 63.3904 2.93213C63.2469 2.86971 63.0917 2.83728 62.9346 2.83691H37.0476C36.8905 2.83728 36.7353 2.86971 36.5918 2.93213C36.4484 2.99455 36.3199 3.08557 36.2147 3.19934C36.1085 3.31466 36.0285 3.45062 35.98 3.59827C35.9315 3.74592 35.9156 3.90192 35.9333 4.056L41.4033 49.7771C41.4365 50.0449 41.5696 50.2915 41.7772 50.4698C41.9848 50.648 42.2524 50.7455 42.5289 50.7435V59.5956C42.5289 62.1326 44.2847 64.2083 46.4457 64.2083H53.1988C55.3486 64.2083 57.1044 62.1326 57.1044 59.5956V50.7435H57.4421C57.7186 50.7455 57.9862 50.648 58.1938 50.4698C58.4013 50.2915 58.5344 50.0449 58.5676 49.7771L60.1433 36.8174C60.1811 36.7565 60.2078 36.6896 60.2221 36.6198C60.2446 36.4815 60.2446 36.3407 60.2221 36.2024L64.0489 4.04501C64.065 3.8927 64.0483 3.73879 63.9998 3.59315C63.9514 3.44752 63.8722 3.31338 63.7675 3.19934Z" fill="#63DAC8" />
        </mask>
        <g mask="url(#mask1)">
            <path fill-rule="evenodd" clip-rule="evenodd" d="M44.4019 17.25H73.1697V36.4286H44.4019V17.25Z" fill="#21CAB0" />
            <path fill-rule="evenodd" clip-rule="evenodd" d="M62.2921 31.5216L58.9358 29.0231L55.6021 31.544L56.8382 27.4386L53.5044 24.9027L57.6285 24.8653L58.9096 20.7673L60.2094 24.854L64.3335 24.8578L61.0185 27.4199L62.2883 31.5253L62.2921 31.5216Z" fill="#F0D060" />
        </g>
    </g>
    <line x1="44" y1="50.0002" x2="57" y2="50.0002" stroke="#21CAB0" stroke-width="2" />
    <defs>
        <clipPath id="clip0">
            <rect x="46" y="17.25" width="25.5714" height="19.1786" rx="6" fill="white" />
        </clipPath>
    </defs>
</svg>
