<svg width="81" height="70" viewBox="0 0 81 70" fill="none" xmlns="http://www.w3.org/2000/svg">
<rect x="0.5" width="80" height="70" fill="#FEFEFE"/>
<path d="M66.3893 50.5263L63.2873 62.1031L56.1912 51.8793L45.8035 50.5263L56.2851 44.1873L61.2562 29.3572L64.6581 41.74L76.8035 46.8573L66.3893 50.5263Z" fill="#EF4623"/>
<path d="M14.3171 21.2193L6.3732 18.2141L13.5078 15.1198L15.8734 10.7141L18.1084 15.176L23.8734 17.7141L19.5722 20.1838L17.4696 26.6797L14.3171 21.2193Z" fill="#EF4623"/>
<rect x="18.5005" y="20" width="30.1017" height="30.1017" rx="15.0508" fill="#FEEBEC"/>
<mask id="mask0" mask-type="alpha" maskUnits="userSpaceOnUse" x="18" y="20" width="31" height="31">
<rect x="18.5005" y="20" width="30.1017" height="30.1017" rx="15.0508" fill="#FEFEFE"/>
</mask>
<g mask="url(#mask0)">
<path d="M29.6368 33.7096C28.8582 33.7096 28.3047 34.467 28.5411 35.2088L30.9261 42.6933C31.0781 43.1703 31.5212 43.4942 32.0218 43.4942H32.5125C32.9323 43.4942 33.3187 43.2655 33.5206 42.8975L37.6282 35.4129C38.0488 34.6465 37.4943 33.7096 36.6201 33.7096H36.0596C35.639 33.7096 35.2519 33.9393 35.0503 34.3084L32.9664 38.1241C32.8183 38.3952 32.4173 38.3556 32.3251 38.0608L31.2169 34.5164C31.0668 34.0364 30.6222 33.7096 30.1193 33.7096H29.6368ZM41.3419 33.7096C40.5646 33.7096 40.0112 34.4648 40.2453 35.206L42.3119 41.7495L37.8021 50.454C37.4055 51.2194 37.9611 52.133 38.8232 52.133H39.3875C39.806 52.133 40.1915 51.9056 40.394 51.5394L49.307 35.416C49.7307 34.6495 49.1763 33.7096 48.3006 33.7096H47.7019C47.2946 33.7096 46.9177 33.9251 46.711 34.2761L44.5879 37.8812C44.4347 38.1413 44.0462 38.0985 43.9533 37.8112L42.8849 34.5059C42.7315 34.0312 42.2895 33.7096 41.7907 33.7096H41.3419Z" fill="#EF4623" stroke="#EF4623" stroke-width="0.3" stroke-linecap="round" stroke-linejoin="round"/>
<path d="M29.0419 30.5218L29.0419 30.5218L29.0438 30.5236C29.3945 30.8554 29.8278 31.02 30.3337 31.02C30.8341 31.02 31.2678 30.8357 31.627 30.4731C31.9857 30.1112 32.1685 29.6785 32.1685 29.182C32.1685 28.6552 31.9983 28.2168 31.6504 27.8815C31.3086 27.5413 30.8649 27.3754 30.3337 27.3754C29.8324 27.3754 29.4008 27.5631 29.047 27.9319L29.0469 27.932C28.6981 28.296 28.5238 28.7419 28.5238 29.2605C28.5238 29.7595 28.6964 30.1834 29.0419 30.5218Z" fill="#EF4623" stroke="#EF4623" stroke-width="0.3" stroke-linecap="round" stroke-linejoin="round"/>
<path d="M35.7314 30.5218L35.7314 30.5218L35.7333 30.5236C36.0839 30.8554 36.5172 31.02 37.0231 31.02C37.5236 31.02 37.9572 30.8357 38.3165 30.4731C38.6752 30.1112 38.8579 29.6785 38.8579 29.182C38.8579 28.6552 38.6877 28.2168 38.3398 27.8815C37.998 27.5413 37.5544 27.3754 37.0231 27.3754C36.5218 27.3754 36.0903 27.5631 35.7364 27.9319L35.7363 27.932C35.3876 28.296 35.2133 28.7419 35.2133 29.2605C35.2133 29.7595 35.3858 30.1834 35.7314 30.5218Z" fill="#EF4623" stroke="#EF4623" stroke-width="0.3" stroke-linecap="round" stroke-linejoin="round"/>
</g>
<mask id="mask1" mask-type="alpha" maskUnits="userSpaceOnUse" x="21" y="26" width="35" height="18">
<rect x="21.6362" y="26.2712" width="33.8644" height="16.9322" fill="#C4C4C4"/>
</mask>
<g mask="url(#mask1)">
<path d="M41.3417 33.7096C40.5644 33.7096 40.011 34.4648 40.2451 35.206L42.3118 41.7495L37.802 50.454C37.4054 51.2194 37.9609 52.133 38.8231 52.133H39.3874C39.8059 52.133 40.1914 51.9056 40.3938 51.5394L49.3069 35.416C49.7306 34.6495 49.1762 33.7096 48.3004 33.7096H47.7018C47.2945 33.7096 46.9176 33.9251 46.7109 34.2761L44.5878 37.8812C44.4346 38.1413 44.046 38.0985 43.9532 37.8112L42.8848 34.5059C42.7314 34.0312 42.2894 33.7096 41.7905 33.7096H41.3417Z" fill="#EF4623" stroke="#EF4623" stroke-width="0.3" stroke-linecap="round" stroke-linejoin="round"/>
</g>
</svg>
