<svg width="22" height="24" viewBox="0 0 22 24" fill="none" xmlns="http://www.w3.org/2000/svg">
<path fill-rule="evenodd" clip-rule="evenodd" d="M0 15C4.075 13.879 9.51 15.505 11 21C12.985 15.061 18.953 13.949 22 15C19.533 16.524 18.503 24 11 24C3.497 24 2.513 16.529 0 15ZM8.203 2.919C8.211 1.307 9.522 0 11.136 0C12.751 0 14.062 1.307 14.07 2.919C15.47 2.12 17.257 2.602 18.065 4C18.872 5.398 18.396 7.187 17.003 8C18.396 8.813 18.872 10.602 18.065 12C17.257 13.398 15.47 13.88 14.07 13.081C14.062 14.693 12.751 16 11.136 16C9.522 16 8.211 14.693 8.203 13.081C6.803 13.88 5.015 13.398 4.208 12C3.401 10.602 3.877 8.813 5.27 8C3.877 7.187 3.401 5.398 4.208 4C5.015 2.602 6.803 2.12 8.203 2.919Z" fill="#FFEFD8"/>
</svg>
