<svg width="76" height="36" viewBox="0 0 76 36" fill="none" xmlns="http://www.w3.org/2000/svg">
    <path d="M25.4605 1.4C26.2584 0.466666 27.1894 0 28.2533 0C29.151 0 29.9323 0.349999 30.5973 1.05C31.2955 1.71667 31.6446 2.51667 31.6446 3.45C31.6446 4.31667 31.3121 5.15 30.6471 5.95L18.9772 19.7L18.0297 32.05C17.9299 33.2833 17.4811 34.2333 16.6831 34.9C15.9184 35.5667 14.9875 35.9 13.8903 35.9C12.7267 35.9 11.7957 35.5667 11.0975 34.9C10.4326 34.2333 10.15 33.2667 10.2497 32L11.1973 19.7L1.57209 5.75C1.17312 5.21667 0.973633 4.6 0.973633 3.9C0.973633 2.9 1.3726 2.01666 2.17055 1.25C2.96849 0.483331 3.86618 0.0999985 4.8636 0.0999985C5.96078 0.0999985 6.82521 0.583331 7.45692 1.55L15.4862 13.4L25.4605 1.4Z" fill="#9EE1B1" />
    <path d="M51.6761 22.45C51.6761 23.1833 51.4766 23.75 51.0777 24.15C50.6787 24.55 50.1467 24.75 49.4818 24.75H35.5676C35.8669 28.4833 37.9116 30.35 41.7018 30.35C42.7658 30.35 43.6967 30.2333 44.4946 30C45.2926 29.7667 46.1736 29.4 47.1378 28.9C47.6033 28.6667 48.0521 28.55 48.4843 28.55C49.1161 28.55 49.6148 28.8 49.9805 29.3C50.3795 29.8 50.5789 30.4 50.5789 31.1C50.5789 31.6667 50.446 32.2167 50.18 32.75C49.9472 33.25 49.5649 33.6667 49.0329 34C48.1352 34.6 46.9716 35.0833 45.5419 35.45C44.1123 35.8167 42.6494 36 41.1532 36C38.5932 36 36.349 35.5 34.4206 34.5C32.4922 33.5 30.9961 32.1 29.9322 30.3C28.8683 28.4667 28.3363 26.35 28.3363 23.95C28.3363 21.35 28.8683 19.0333 29.9322 17C30.9961 14.9333 32.459 13.3333 34.3209 12.2C36.216 11.0333 38.3604 10.45 40.7543 10.45C44.2453 10.45 46.9383 11.5 48.8334 13.6C50.7286 15.7 51.6761 18.65 51.6761 22.45ZM41.0036 15.65C38.0446 15.65 36.2825 17.4333 35.7173 21H45.3923C45.3923 19.2667 45.01 17.95 44.2453 17.05C43.5138 16.1167 42.4333 15.65 41.0036 15.65Z" fill="#9EE1B1" />
    <path d="M64.6029 36C61.5109 36 58.6516 35.3833 56.0251 34.15C55.3269 33.8167 54.7949 33.4 54.4292 32.9C54.0967 32.3667 53.9305 31.8 53.9305 31.2C53.9305 30.4667 54.1632 29.8167 54.6287 29.25C55.1274 28.6833 55.7425 28.4 56.4739 28.4C57.0059 28.4 57.488 28.5333 57.9202 28.8C58.9841 29.3667 60.1478 29.8167 61.4112 30.15C62.7078 30.4833 63.9712 30.65 65.2014 30.65C67.7282 30.65 68.9916 29.9833 68.9916 28.65C68.9916 27.95 68.6093 27.4167 67.8446 27.05C67.1131 26.6833 65.9162 26.25 64.2538 25.75C62.4917 25.2833 61.0288 24.8 59.8652 24.3C58.7347 23.8 57.7539 23.0667 56.9227 22.1C56.0916 21.1333 55.676 19.8833 55.676 18.35C55.676 16.8167 56.1414 15.45 57.0724 14.25C58.0033 13.05 59.3166 12.1167 61.0122 11.45C62.7078 10.7833 64.6694 10.45 66.897 10.45C68.1272 10.45 69.4405 10.6333 70.8369 11C72.2333 11.3333 73.3803 11.7667 74.278 12.3C74.8432 12.6333 75.2588 13.05 75.5248 13.55C75.824 14.05 75.9736 14.5667 75.9736 15.1C75.9736 15.8333 75.7575 16.4667 75.3253 17C74.8931 17.5333 74.3445 17.8 73.6795 17.8C73.2806 17.8 72.8151 17.6667 72.2831 17.4C70.255 16.3333 68.2602 15.8 66.2986 15.8C65.0352 15.8 64.071 15.9833 63.406 16.35C62.7411 16.7167 62.4086 17.2333 62.4086 17.9C62.4086 18.6 62.7743 19.15 63.5058 19.55C64.2705 19.9167 65.484 20.3333 67.1464 20.8C68.9085 21.2667 70.3548 21.75 71.4852 22.25C72.6489 22.75 73.6463 23.4833 74.4775 24.45C75.3087 25.4167 75.7243 26.6667 75.7243 28.2C75.7243 30.6333 74.7435 32.55 72.7819 33.95C70.8535 35.3167 68.1272 36 64.6029 36Z" fill="#9EE1B1" />
</svg>
