<svg width="80" height="70" viewBox="0 0 80 70" fill="none" xmlns="http://www.w3.org/2000/svg">
<path d="M65.8896 50.5268L62.7876 62.1036L55.6914 51.8798L45.3037 50.5268L55.7854 44.1878L60.7565 29.3577L64.1583 41.7405L76.3038 46.8577L65.8896 50.5268Z" fill="#EF4623"/>
<path d="M13.8171 21.2193L5.8732 18.2141L13.0078 15.1198L15.3734 10.7141L17.6084 15.176L23.3734 17.7141L19.0722 20.1838L16.9696 26.6797L13.8171 21.2193Z" fill="#EF4623"/>
<rect x="18.0005" y="20" width="30.1017" height="30.1017" rx="15.0508" fill="#FAC1C5"/>
<mask id="mask0" mask-type="alpha" maskUnits="userSpaceOnUse" x="18" y="20" width="31" height="31">
<rect x="18.0005" y="20" width="30.1017" height="30.1017" rx="15.0508" fill="#FEFEFE"/>
</mask>
<g mask="url(#mask0)">
<path d="M29.1368 33.7094C28.3582 33.7094 27.8047 34.4668 28.0411 35.2085L30.4261 42.6931C30.5781 43.1701 31.0212 43.4939 31.5218 43.4939H32.0125C32.4323 43.4939 32.8187 43.2652 33.0206 42.8972L37.1282 35.4127C37.5488 34.6463 36.9943 33.7094 36.1201 33.7094H35.5596C35.139 33.7094 34.7519 33.939 34.5503 34.3082L32.4664 38.1239C32.3183 38.395 31.9173 38.3554 31.8251 38.0606L30.7169 34.5162C30.5668 34.0362 30.1222 33.7094 29.6193 33.7094H29.1368ZM40.8419 33.7094C40.0646 33.7094 39.5112 34.4645 39.7453 35.2057L41.8119 41.7492L37.3021 50.4537C36.9055 51.2192 37.4611 52.1327 38.3232 52.1327H38.8875C39.306 52.1327 39.6915 51.9054 39.894 51.5391L48.807 35.4157C49.2307 34.6493 48.6763 33.7094 47.8006 33.7094H47.2019C46.7946 33.7094 46.4177 33.9248 46.211 34.2758L44.0879 37.8809C43.9347 38.1411 43.5462 38.0982 43.4533 37.811L42.3849 34.5057C42.2315 34.031 41.7895 33.7094 41.2907 33.7094H40.8419Z" fill="#EF4623" stroke="#EF4623" stroke-width="0.3" stroke-linecap="round" stroke-linejoin="round"/>
<path d="M28.5419 30.5218L28.5419 30.5218L28.5438 30.5236C28.8945 30.8554 29.3278 31.02 29.8337 31.02C30.3341 31.02 30.7678 30.8357 31.127 30.4731C31.4857 30.1112 31.6685 29.6785 31.6685 29.182C31.6685 28.6552 31.4983 28.2168 31.1504 27.8815C30.8086 27.5413 30.3649 27.3754 29.8337 27.3754C29.3324 27.3754 28.9008 27.5631 28.547 27.9319L28.5469 27.932C28.1981 28.296 28.0238 28.7419 28.0238 29.2605C28.0238 29.7595 28.1964 30.1834 28.5419 30.5218Z" fill="#EF4623" stroke="#EF4623" stroke-width="0.3" stroke-linecap="round" stroke-linejoin="round"/>
<path d="M35.2314 30.5218L35.2314 30.5218L35.2333 30.5236C35.5839 30.8554 36.0172 31.02 36.5231 31.02C37.0236 31.02 37.4572 30.8357 37.8165 30.4731C38.1752 30.1112 38.3579 29.6785 38.3579 29.182C38.3579 28.6552 38.1877 28.2168 37.8398 27.8815C37.498 27.5413 37.0544 27.3754 36.5231 27.3754C36.0218 27.3754 35.5903 27.5631 35.2364 27.9319L35.2363 27.932C34.8876 28.296 34.7133 28.7419 34.7133 29.2605C34.7133 29.7595 34.8858 30.1834 35.2314 30.5218Z" fill="#EF4623" stroke="#EF4623" stroke-width="0.3" stroke-linecap="round" stroke-linejoin="round"/>
</g>
<mask id="mask1" mask-type="alpha" maskUnits="userSpaceOnUse" x="21" y="26" width="35" height="18">
<rect x="21.1362" y="26.2715" width="33.8644" height="16.9322" fill="#C4C4C4"/>
</mask>
<g mask="url(#mask1)">
<path d="M40.8417 33.7094C40.0644 33.7094 39.511 34.4645 39.7451 35.2057L41.8118 41.7492L37.302 50.4537C36.9054 51.2192 37.4609 52.1327 38.3231 52.1327H38.8874C39.3059 52.1327 39.6914 51.9054 39.8938 51.5391L48.8069 35.4157C49.2306 34.6493 48.6762 33.7094 47.8004 33.7094H47.2018C46.7945 33.7094 46.4176 33.9248 46.2109 34.2758L44.0878 37.8809C43.9346 38.1411 43.546 38.0982 43.4532 37.811L42.3848 34.5057C42.2314 34.031 41.7894 33.7094 41.2905 33.7094H40.8417Z" fill="#EF4623" stroke="#EF4623" stroke-width="0.3" stroke-linecap="round" stroke-linejoin="round"/>
</g>
</svg>
