<svg width="375" height="478" viewBox="0 0 375 478" fill="none" xmlns="http://www.w3.org/2000/svg">
<mask id="mask0" mask-type="alpha" maskUnits="userSpaceOnUse" x="0" y="0" width="375" height="478">
<path d="M375 0H0V478H375V0Z" fill="#C4C4C4"/>
</mask>
<g mask="url(#mask0)">
<path d="M375 0H0V478H375V0Z" fill="#FFE0B7"/>
<path d="M-276.231 526.494C-285.3 477.794 -286.646 427.969 -280.221 378.85L187.868 440.077L-276.231 526.494Z" fill="#FFD29B"/>
<path d="M-257.262 282.867C-240.765 236.157 -217.019 192.334 -186.895 153.008L187.869 440.077L-257.262 282.867Z" fill="#FFD29B"/>
<path d="M-119.021 81.3637C-81.3789 49.1601 -38.903 23.0819 6.84787 4.08643L187.869 440.077L-119.021 81.3637Z" fill="#FFD29B"/>
<path d="M101.452 -24.0225C150.152 -33.0907 199.977 -34.4371 249.096 -28.0122L187.869 440.077L101.452 -24.0225Z" fill="#FFD29B"/>
<path d="M345.079 -5.05371C391.789 11.4432 435.612 35.1894 474.937 65.3131L187.869 440.077L345.079 -5.05371Z" fill="#FFD29B"/>
<path d="M546.582 133.187C578.786 170.829 604.864 213.305 623.86 259.056L187.869 440.077L546.582 133.187Z" fill="#FFD29B"/>
<path d="M651.968 353.659C661.037 402.36 662.383 452.184 655.958 501.303L187.869 440.077L651.968 353.659Z" fill="#FFD29B"/>
<path d="M204.455 317.84C189.394 317.55 165.334 331.101 169.429 338.912C173.524 346.723 205.541 326.727 204.455 317.84Z" fill="#FFC583"/>
<path d="M145.734 308.026C159.581 312.567 177.22 333.088 170.983 339.171C164.745 345.255 141.901 316.09 145.734 308.026Z" fill="#FFC583"/>
<path d="M177.495 300C177.495 300 155.543 333.805 186.78 369.488C218.017 405.171 183.686 445.549 186.781 454" stroke="#FFC583" stroke-width="5"/>
<path fill-rule="evenodd" clip-rule="evenodd" d="M185.998 257.25C179.836 257.25 174.83 262.274 174.799 268.47C169.454 265.399 162.627 267.251 159.546 272.625C156.465 277.999 158.282 284.875 163.601 288C158.282 291.125 156.465 298.001 159.546 303.375C162.627 308.749 169.454 310.601 174.799 307.53C174.83 313.726 179.836 318.75 185.998 318.75C192.165 318.75 197.17 313.726 197.201 307.53C202.546 310.601 209.369 308.749 212.454 303.375C215.536 298.001 213.718 291.125 208.4 288C213.718 284.875 215.536 277.999 212.454 272.625C209.369 267.251 202.546 265.399 197.201 268.47C197.17 262.274 192.165 257.25 185.998 257.25ZM186 296.386C190.632 296.386 194.386 292.632 194.386 288C194.386 283.368 190.632 279.614 186 279.614C181.368 279.614 177.614 283.368 177.614 288C177.614 292.632 181.368 296.386 186 296.386Z" fill="#EF4623"/>
<rect x="121" y="220" width="40" height="22" rx="11" fill="#FFEFD8"/>
<path d="M130 236.333H128.667C128.49 236.333 128.321 236.263 128.196 236.138C128.071 236.013 128 235.843 128 235.667V231C128 230.823 128.071 230.653 128.196 230.528C128.321 230.403 128.49 230.333 128.667 230.333H130.667C131.374 230.333 132.053 230.052 132.553 229.552C133.053 229.052 133.334 228.374 133.334 227.667V227C133.334 226.646 133.474 226.307 133.724 226.057C133.974 225.807 134.314 225.667 134.667 225.667C135.021 225.667 135.36 225.807 135.61 226.057C135.86 226.307 136 226.646 136 227V230.333H138C138.354 230.333 138.693 230.474 138.943 230.724C139.193 230.974 139.334 231.313 139.334 231.667L138.667 235C138.571 235.409 138.389 235.76 138.149 236C137.908 236.241 137.622 236.358 137.334 236.333H132.667H130Z" fill="#FFC583"/>
<path d="M130.667 230.333H128.667C128.49 230.333 128.321 230.403 128.196 230.528C128.071 230.653 128 230.823 128 231V235.667C128 235.843 128.071 236.013 128.196 236.138C128.321 236.263 128.49 236.333 128.667 236.333H130M130.667 230.333C131.374 230.333 132.053 230.052 132.553 229.552C133.053 229.052 133.334 228.374 133.334 227.667V227C133.334 226.646 133.474 226.307 133.724 226.057C133.974 225.807 134.314 225.667 134.667 225.667C135.021 225.667 135.36 225.807 135.61 226.057C135.86 226.307 136 226.646 136 227V230.333H138C138.354 230.333 138.693 230.474 138.943 230.724C139.193 230.974 139.334 231.313 139.334 231.667L138.667 235C138.571 235.409 138.389 235.76 138.149 236C137.908 236.241 137.622 236.358 137.334 236.333H132.667C132.137 236.333 130 236.333 130 236.333M130.667 230.333V233V235.667C130.667 235.843 130.597 236.013 130.472 236.138C130.347 236.263 130 236.333 130 236.333" stroke="#FFC583" stroke-linecap="round" stroke-linejoin="round"/>
<path d="M130.667 231.4L130.667 232.9V235.3" stroke="#FFE0B7" stroke-linecap="round" stroke-linejoin="round"/>
<path d="M128.667 236.333H130H132.667H137.334C137.622 236.358 137.908 236.241 138.149 236C138.389 235.76 138.571 235.409 138.667 235L139.334 231.667C139.334 231.313 139.193 230.974 138.943 230.724C138.693 230.474 138.354 230.333 138 230.333H136V227C136 226.646 135.86 226.307 135.61 226.057C135.36 225.807 135.021 225.667 134.667 225.667C134.314 225.667 133.974 225.807 133.724 226.057C133.474 226.307 133.334 226.646 133.334 227V227.667C133.334 228.374 133.053 229.052 132.553 229.552C132.053 230.052 131.374 230.333 130.667 230.333H128.667C128.49 230.333 128.321 230.403 128.196 230.528C128.071 230.653 128 230.823 128 231V235.667C128 235.843 128.071 236.013 128.196 236.138C128.321 236.263 128.49 236.333 128.667 236.333Z" stroke="#FFC583" stroke-linecap="round" stroke-linejoin="round"/>
<path d="M149.042 231.6C149.266 231.6 149.453 231.675 149.602 231.824C149.752 231.964 149.826 232.146 149.826 232.37C149.826 232.594 149.752 232.781 149.602 232.93C149.453 233.07 149.266 233.14 149.042 233.14H147.082V234.974C147.082 235.235 146.994 235.45 146.816 235.618C146.648 235.786 146.434 235.87 146.172 235.87C145.911 235.87 145.692 235.786 145.514 235.618C145.346 235.45 145.262 235.235 145.262 234.974V233.14H143.344C143.12 233.14 142.934 233.065 142.784 232.916C142.635 232.767 142.56 232.58 142.56 232.356C142.56 232.132 142.635 231.95 142.784 231.81C142.934 231.67 143.12 231.6 143.344 231.6H145.262V229.514C145.262 229.253 145.346 229.038 145.514 228.87C145.692 228.702 145.916 228.618 146.186 228.618C146.448 228.618 146.662 228.702 146.83 228.87C146.998 229.038 147.082 229.253 147.082 229.514V231.6H149.042ZM153.314 226.7C153.548 226.7 153.744 226.784 153.902 226.952C154.061 227.111 154.14 227.311 154.14 227.554V235.646C154.14 235.889 154.052 236.094 153.874 236.262C153.697 236.421 153.478 236.5 153.216 236.5C152.955 236.5 152.74 236.421 152.572 236.262C152.404 236.094 152.32 235.889 152.32 235.646V229.01L151.452 229.542C151.312 229.626 151.163 229.668 151.004 229.668C150.771 229.668 150.57 229.579 150.402 229.402C150.244 229.225 150.164 229.029 150.164 228.814C150.164 228.665 150.202 228.525 150.276 228.394C150.36 228.263 150.468 228.161 150.598 228.086L152.712 226.826C152.871 226.742 153.072 226.7 153.314 226.7Z" fill="#FFC583"/>
<rect x="231" y="231" width="42" height="22" rx="11" fill="#FFEFD8"/>
<path d="M244 236L247.333 239.333C247.976 239.99 248.411 240.821 248.584 241.724C248.756 242.627 248.658 243.56 248.302 244.407C247.946 245.254 247.348 245.978 246.583 246.486C245.817 246.995 244.919 247.266 244 247.266C243.081 247.266 242.183 246.995 241.417 246.486C240.652 245.978 240.054 245.254 239.698 244.407C239.342 243.56 239.244 242.627 239.416 241.724C239.589 240.821 240.024 239.99 240.667 239.333L244 236Z" fill="#FFC583" stroke="#FFC583" stroke-width="2" stroke-linecap="round" stroke-linejoin="round"/>
<path d="M259.042 242.6C259.266 242.6 259.453 242.675 259.602 242.824C259.751 242.964 259.826 243.146 259.826 243.37C259.826 243.594 259.751 243.781 259.602 243.93C259.453 244.07 259.266 244.14 259.042 244.14H257.082V245.974C257.082 246.235 256.993 246.45 256.816 246.618C256.648 246.786 256.433 246.87 256.172 246.87C255.911 246.87 255.691 246.786 255.514 246.618C255.346 246.45 255.262 246.235 255.262 245.974V244.14H253.344C253.12 244.14 252.933 244.065 252.784 243.916C252.635 243.767 252.56 243.58 252.56 243.356C252.56 243.132 252.635 242.95 252.784 242.81C252.933 242.67 253.12 242.6 253.344 242.6H255.262V240.514C255.262 240.253 255.346 240.038 255.514 239.87C255.691 239.702 255.915 239.618 256.186 239.618C256.447 239.618 256.662 239.702 256.83 239.87C256.998 240.038 257.082 240.253 257.082 240.514V242.6H259.042ZM264.168 241.144C264.653 241.144 265.129 241.293 265.596 241.592C266.072 241.881 266.459 242.278 266.758 242.782C267.056 243.277 267.206 243.813 267.206 244.392C267.206 244.98 267.056 245.526 266.758 246.03C266.468 246.525 266.076 246.917 265.582 247.206C265.087 247.495 264.541 247.64 263.944 247.64C263.3 247.64 262.726 247.463 262.222 247.108C261.718 246.744 261.33 246.273 261.06 245.694C260.789 245.106 260.654 244.481 260.654 243.818C260.654 243.137 260.77 242.39 261.004 241.578C261.246 240.757 261.68 239.982 262.306 239.254C262.94 238.526 263.799 238.008 264.882 237.7C264.994 237.672 265.101 237.658 265.204 237.658C265.446 237.658 265.647 237.723 265.806 237.854C265.964 237.975 266.044 238.171 266.044 238.442C266.044 238.647 265.974 238.829 265.834 238.988C265.703 239.137 265.526 239.245 265.302 239.31C264.714 239.478 264.168 239.777 263.664 240.206C263.169 240.635 262.805 241.149 262.572 241.746C263.038 241.345 263.57 241.144 264.168 241.144ZM263.944 246.1C264.382 246.1 264.756 245.937 265.064 245.61C265.372 245.283 265.526 244.877 265.526 244.392C265.526 243.907 265.372 243.501 265.064 243.174C264.756 242.847 264.382 242.684 263.944 242.684C263.496 242.684 263.118 242.847 262.81 243.174C262.511 243.501 262.362 243.907 262.362 244.392C262.362 244.877 262.511 245.283 262.81 245.61C263.118 245.937 263.496 246.1 263.944 246.1Z" fill="#FFC583"/>
<g filter="url(#filter0_f)">
<rect x="252" y="279" width="26" height="22" rx="11" fill="#FFDDB3"/>
<path d="M265 296C251.994 288.865 261.4 279.994 265 285.968C268.6 279.994 278.007 288.865 265 296Z" fill="#FFC583"/>
</g>
<g filter="url(#filter1_f)">
<rect x="74" y="250" width="26" height="22" rx="11" fill="#FFDDB3"/>
<path fill-rule="evenodd" clip-rule="evenodd" d="M87 265.515L83.3032 267.401C82.9356 267.589 82.5118 267.275 82.5836 266.869L83.2857 262.895L80.3254 260.095C80.0212 259.807 80.1845 259.295 80.5992 259.237L84.7044 258.658L86.5543 255.02C86.7396 254.655 87.2603 254.655 87.4457 255.02L89.2956 258.658L93.4008 259.237C93.8155 259.295 93.9788 259.807 93.6746 260.095L90.7143 262.895L91.4164 266.869C91.4882 267.275 91.0644 267.589 90.6968 267.401L87 265.515Z" fill="#FFC583"/>
</g>
<g filter="url(#filter2_f)">
<rect x="93" y="296" width="26" height="22" rx="11" fill="#FFDDB3"/>
<path d="M102 312.333H100.667C100.49 312.333 100.32 312.263 100.195 312.138C100.07 312.013 100 311.843 100 311.667V307C100 306.823 100.07 306.653 100.195 306.528C100.32 306.403 100.49 306.333 100.667 306.333H102.667C103.374 306.333 104.052 306.052 104.552 305.552C105.052 305.052 105.333 304.374 105.333 303.667V303C105.333 302.646 105.474 302.307 105.724 302.057C105.974 301.807 106.313 301.667 106.667 301.667C107.02 301.667 107.359 301.807 107.609 302.057C107.86 302.307 108 302.646 108 303V306.333H110C110.354 306.333 110.693 306.474 110.943 306.724C111.193 306.974 111.333 307.313 111.333 307.667L110.667 311C110.571 311.409 110.389 311.76 110.148 312C109.908 312.241 109.622 312.358 109.333 312.333H104.667H102Z" fill="#FFC583"/>
<path d="M102.667 306.333H100.667C100.49 306.333 100.32 306.403 100.195 306.528C100.07 306.653 100 306.823 100 307V311.667C100 311.843 100.07 312.013 100.195 312.138C100.32 312.263 100.49 312.333 100.667 312.333H102M102.667 306.333C103.374 306.333 104.052 306.052 104.552 305.552C105.052 305.052 105.333 304.374 105.333 303.667V303C105.333 302.646 105.474 302.307 105.724 302.057C105.974 301.807 106.313 301.667 106.667 301.667C107.02 301.667 107.359 301.807 107.609 302.057C107.86 302.307 108 302.646 108 303V306.333H110C110.354 306.333 110.693 306.474 110.943 306.724C111.193 306.974 111.333 307.313 111.333 307.667L110.667 311C110.571 311.409 110.389 311.76 110.148 312C109.908 312.241 109.622 312.358 109.333 312.333H104.667C104.136 312.333 102 312.333 102 312.333M102.667 306.333V309V311.667C102.667 311.843 102.596 312.013 102.471 312.138C102.346 312.263 102 312.333 102 312.333" stroke="#FFC583" stroke-linecap="round" stroke-linejoin="round"/>
<path d="M102.667 307.4L102.667 308.9V311.3" stroke="#FFE0B7" stroke-linecap="round" stroke-linejoin="round"/>
<path d="M100.667 312.333H102H104.667H109.333C109.622 312.358 109.908 312.241 110.148 312C110.389 311.76 110.571 311.409 110.667 311L111.333 307.667C111.333 307.313 111.193 306.974 110.943 306.724C110.693 306.474 110.354 306.333 110 306.333H108V303C108 302.646 107.86 302.307 107.609 302.057C107.359 301.807 107.02 301.667 106.667 301.667C106.313 301.667 105.974 301.807 105.724 302.057C105.474 302.307 105.333 302.646 105.333 303V303.667C105.333 304.374 105.052 305.052 104.552 305.552C104.052 306.052 103.374 306.333 102.667 306.333H100.667C100.49 306.333 100.32 306.403 100.195 306.528C100.07 306.653 100 306.823 100 307V311.667C100 311.843 100.07 312.013 100.195 312.138C100.32 312.263 100.49 312.333 100.667 312.333Z" stroke="#FFC583" stroke-linecap="round" stroke-linejoin="round"/>
</g>
<path d="M81 426H301V478H81V426Z" fill="#FFC583"/>
<path d="M301 426C301 432.075 251.751 437 191 437C130.249 437 81 432.075 81 426C81 419.925 130.249 415 191 415C251.751 415 301 419.925 301 426Z" fill="#FFDDB3"/>
<path d="M179.12 371.611V355.688C179.12 355.326 178.972 354.979 178.709 354.723C178.447 354.467 178.09 354.324 177.719 354.324H154.747C154.375 354.324 154.019 354.467 153.756 354.723C153.494 354.979 153.346 355.326 153.346 355.688C153.346 356.05 153.494 356.397 153.756 356.653C154.019 356.909 154.375 357.053 154.747 357.053H160.727V371.611C157.735 372.058 155.013 373.551 153.069 375.811C151.125 378.071 150.093 380.943 150.165 383.89V417.81C150.165 424.632 155.46 430.212 161.974 430.212H177.859C184.373 430.212 189.682 424.645 189.682 417.81V383.945C189.768 380.988 188.742 378.103 186.797 375.831C184.852 373.56 182.122 372.059 179.12 371.611Z" fill="#FFC583"/>
<path fill-rule="evenodd" clip-rule="evenodd" d="M177.853 406.39C177.853 409.704 175.167 412.39 171.853 412.39H148.975C145.661 412.39 142.975 409.704 142.975 406.39V394.244C142.975 390.93 145.661 388.244 148.975 388.244H171.853C175.167 388.244 177.853 390.93 177.853 394.244V406.39Z" fill="#FFEFD8"/>
<path fill-rule="evenodd" clip-rule="evenodd" d="M166.224 400.16C166.224 403.668 163.408 406.518 159.93 406.518C156.452 406.518 153.64 403.668 153.64 400.16C153.64 396.651 156.456 393.796 159.934 393.796C163.413 393.796 166.224 396.651 166.224 400.16Z" fill="#DB3022"/>
<path fill-rule="evenodd" clip-rule="evenodd" d="M147.06 394.26L150.682 390.071L151.544 390.812L147.918 395.005L147.06 394.26ZM148.247 395.287L151.868 391.098L152.73 391.834L149.105 396.032L148.247 395.287Z" fill="#393E46"/>
<path fill-rule="evenodd" clip-rule="evenodd" d="M147.06 394.26L150.682 390.071L151.544 390.812L147.918 395.005L147.06 394.26Z" fill="#393E46"/>
<path fill-rule="evenodd" clip-rule="evenodd" d="M147.06 394.26L150.682 390.071L151.544 390.812L147.918 395.005L147.06 394.26ZM149.46 396.339L153.081 392.142L153.943 392.887L150.318 397.08L149.46 396.339Z" fill="#393E46"/>
<path fill-rule="evenodd" clip-rule="evenodd" d="M147.06 394.26L150.682 390.071L151.544 390.812L147.918 395.005L147.06 394.26Z" fill="#393E46"/>
<path fill-rule="evenodd" clip-rule="evenodd" d="M147.06 394.259L150.682 390.071L151.544 390.811L147.918 395.004L147.06 394.259ZM169.1 390.066L172.695 394.285L171.829 395.022L168.233 390.803L169.1 390.066ZM166.687 392.124L170.282 396.343L169.416 397.079L165.821 392.86L166.687 392.124Z" fill="#393E46"/>
<path fill-rule="evenodd" clip-rule="evenodd" d="M167.29 394.555L170.686 391.618L171.323 392.354L167.684 395.62L167.281 394.555H167.29Z" fill="#FFEFD8"/>
<path fill-rule="evenodd" clip-rule="evenodd" d="M171.474 404.899L167.992 409.048L167.138 408.338L170.621 404.188L171.474 404.899ZM167.905 391.085L171.5 395.304L170.638 396.04L167.047 391.817L167.905 391.085ZM172.657 405.882L169.17 410.032L168.312 409.321L171.799 405.171L172.657 405.882ZM170.27 403.898L166.787 408.048L165.934 407.337L169.417 403.188L170.27 403.898Z" fill="#393E46"/>
<path fill-rule="evenodd" clip-rule="evenodd" d="M153.732 399.038C153.931 400.64 154.221 402.425 156.686 402.607C157.609 402.663 159.406 402.39 160.021 399.869C160.836 397.452 163.27 396.759 164.929 398.067C165.878 398.682 166.138 399.657 166.198 400.393C166.125 402.733 164.773 404.768 163.045 405.678C161.052 406.861 158.297 406.887 155.885 405.093C154.797 404.075 153.277 402.191 153.732 399.038Z" fill="#393E46"/>
<path fill-rule="evenodd" clip-rule="evenodd" d="M168.087 404.838L171.491 407.766L170.859 408.502L167.086 405.392L168.082 404.838H168.087Z" fill="#FFEFD8"/>
<path fill-rule="evenodd" clip-rule="evenodd" d="M149.118 404.257L152.714 408.472L151.847 409.208L148.252 404.994L149.118 404.257Z" fill="#393E46"/>
<path fill-rule="evenodd" clip-rule="evenodd" d="M148.497 407.727L151.902 404.786L152.539 405.523L148.9 408.793L148.497 407.723V407.727Z" fill="#FFEFD8"/>
<path fill-rule="evenodd" clip-rule="evenodd" d="M150.314 403.239L153.909 407.454L153.043 408.19L149.447 403.976L150.314 403.239ZM147.901 405.297L151.496 409.511L150.63 410.248L147.035 406.033L147.901 405.297Z" fill="#393E46"/>
<path d="M232.018 354.448C231.888 354.307 231.729 354.195 231.552 354.118C231.375 354.041 231.183 354 230.988 354H195.978C195.784 354 195.592 354.041 195.414 354.118C195.237 354.195 195.078 354.307 194.948 354.448C194.817 354.591 194.718 354.759 194.658 354.941C194.598 355.124 194.578 355.317 194.6 355.507L201.364 412.044C201.405 412.375 201.57 412.68 201.826 412.9C202.083 413.121 202.414 413.241 202.756 413.239V424.185C202.756 427.322 204.927 429.888 207.599 429.888H218.95C221.608 429.888 223.779 427.322 223.779 424.185V413.239H224.197C224.539 413.241 224.869 413.121 225.126 412.9C225.383 412.68 225.547 412.375 225.588 412.044L227.537 396.018C227.584 395.943 227.617 395.86 227.634 395.774C227.662 395.603 227.662 395.429 227.634 395.258L232.366 355.494C232.386 355.306 232.365 355.115 232.306 354.935C232.246 354.755 232.148 354.589 232.018 354.448Z" fill="#FFC583"/>
<path fill-rule="evenodd" clip-rule="evenodd" d="M237.879 390.146C237.879 393.46 235.192 396.146 231.879 396.146H209C205.687 396.146 203 393.46 203 390.146V378C203 374.686 205.687 372 209 372H231.879C235.192 372 237.879 374.686 237.879 378V390.146Z" fill="#DB3022"/>
<path fill-rule="evenodd" clip-rule="evenodd" d="M224.789 390.926L220.287 387.575L215.814 390.957L217.473 385.449L213 382.047L218.533 381.997L220.251 376.5L221.995 381.982L227.527 381.987L223.08 385.424L224.784 390.931L224.789 390.926Z" fill="#FDD13C"/>
<path d="M268.476 408.4H260.601V401.867H262.176C262.594 401.867 262.994 401.695 263.29 401.388C263.585 401.082 263.751 400.667 263.751 400.233V397.375H268.826V395.375H263.751V391.25H268.826V389.25H263.751V385.125H268.826V383.125H263.751V380.633C263.751 380.2 263.585 379.785 263.29 379.478C262.994 379.172 262.594 379 262.176 379H255.876C255.458 379 255.058 379.172 254.762 379.478C254.467 379.785 254.301 380.2 254.301 380.633V383.125H249.226V385.125H254.301V389.25H249.226V391.25H254.301V395.375H249.226V397.375H254.301V400.233C254.301 400.667 254.467 401.082 254.762 401.388C255.058 401.695 255.458 401.867 255.876 401.867H257.451V408.4H249.576C249.158 408.4 248.758 408.572 248.462 408.878C248.167 409.185 248.001 409.6 248.001 410.033L248.001 422C248.001 425.314 250.687 428 254.001 428L264.051 428C267.365 428 270.051 425.314 270.051 422V410.033C270.051 409.6 269.885 409.185 269.59 408.878C269.294 408.572 268.894 408.4 268.476 408.4Z" fill="#FFC583"/>
<path fill-rule="evenodd" clip-rule="evenodd" d="M296.879 413.146C296.879 416.46 294.192 419.146 290.879 419.146H268C264.687 419.146 262 416.46 262 413.146V401C262 397.686 264.687 395 268 395H290.879C294.192 395 296.879 397.686 296.879 401V413.146Z" fill="#FFEFD8"/>
<circle cx="279" cy="407" r="7" fill="#DB3022"/>
<path d="M115.853 395.333H117.617V380.604C117.617 380.287 117.703 379.977 117.865 379.713C118.026 379.449 118.256 379.243 118.524 379.122C118.793 379.001 119.088 378.969 119.373 379.031C119.659 379.093 119.92 379.245 120.126 379.47L126.006 385.887C126.282 386.187 126.437 386.595 126.437 387.021V395.333H128.201C128.61 395.333 129.002 395.518 129.292 395.846C129.581 396.174 129.744 396.619 129.744 397.083V404.667H133.051V422C133.051 425.314 130.365 428 127.051 428L117.001 428C113.687 428 111.001 425.314 111.001 422L111.001 404.667H114.309V397.083C114.309 396.619 114.472 396.174 114.761 395.846C115.051 395.518 115.443 395.333 115.853 395.333Z" fill="#FFC583"/>
<mask id="mask1" mask-type="alpha" maskUnits="userSpaceOnUse" x="84" y="400" width="36" height="24">
<rect x="84.0005" y="400" width="35" height="24" rx="6" fill="#C4C4C4"/>
</mask>
<g mask="url(#mask1)">
</g>
<g clip-path="url(#clip0)">
<path fill-rule="evenodd" clip-rule="evenodd" d="M84.0005 400H133.704V402.013H84.0005V400ZM84.0005 404.026H133.704V406.039H84.0005V404.026ZM84.0005 408.047H133.704V410.065H84.0005V408.047ZM84.0005 412.073H133.704V414.087H84.0005V412.073ZM84.0005 416.1H133.704V418.113H84.0005V416.1ZM84.0005 420.121H133.704V422.134H84.0005V420.121Z" fill="#D54343"/>
<path fill-rule="evenodd" clip-rule="evenodd" d="M84.0005 402.013H133.704V404.026H84.0005V402.013ZM84.0005 406.039H133.704V408.047H84.0005V406.039ZM84.0005 410.06H133.704V412.074H84.0005V410.06ZM84.0005 414.087H133.704V416.1H84.0005V414.087ZM84.0005 418.113H133.704V420.126H84.0005V418.113ZM84.0005 422.134H133.704V424.147H84.0005V422.134Z" fill="#FFEFD8"/>
<path fill-rule="evenodd" clip-rule="evenodd" d="M84.0005 400H103.881V414.087H84.0005V400Z" fill="#393E46"/>
<path fill-rule="evenodd" clip-rule="evenodd" d="M85.6559 400.603L85.8399 401.16H86.4223L85.9523 401.502L86.1311 402.064L85.6559 401.717L85.1859 402.059L85.3647 401.502L84.8895 401.16H85.4822L85.6559 400.603ZM88.9719 400.603L89.1507 401.16H89.7383L89.2631 401.502L89.442 402.064L88.9719 401.717L88.4967 402.059L88.6756 401.502L88.2055 401.16H88.788L88.9719 400.603ZM92.2828 400.603L92.4667 401.16H93.0441L92.574 401.502L92.7528 402.064L92.2777 401.717L91.8076 402.059L91.9864 401.502L91.5113 401.16H92.0988L92.2828 400.603ZM95.5988 400.603L95.7776 401.16H96.3652L95.89 401.502L96.0739 402.064L95.5988 401.717L95.1236 402.059L95.3075 401.502L94.8324 401.16H95.4148L95.5988 400.603ZM98.9096 400.603L99.0936 401.16H99.676L99.206 401.502L99.3848 402.064L98.9096 401.717L98.4396 402.059L98.6184 401.502L98.1483 401.16H98.7308L98.9096 400.603ZM102.226 400.603L102.404 401.16H102.992L102.517 401.502L102.701 402.064L102.226 401.717L101.75 402.059L101.934 401.502L101.459 401.16H102.047L102.226 400.603ZM87.3165 402.013L87.4953 402.57H88.0829L87.6077 402.912L87.7814 403.469L87.3216 403.127L86.8464 403.469L87.015 402.912L86.5552 402.57H87.1376L87.3165 402.013ZM90.6273 402.013L90.8113 402.57H91.3937L90.9186 402.912L91.1025 403.469L90.6273 403.127L90.1522 403.469L90.3361 402.912L89.8609 402.57H90.4485L90.6273 402.013ZM93.9433 402.013L94.1222 402.57H94.7097L94.2346 402.912L94.4134 403.469L93.9433 403.127L93.4682 403.469L93.647 402.912L93.1769 402.57H93.7594L93.9433 402.013ZM97.2542 402.013L97.4381 402.57H98.0206L97.5454 402.912L97.7294 403.469L97.2542 403.127L96.7841 403.469L96.963 402.912L96.4878 402.57H97.0805L97.2542 402.013ZM100.57 402.013L100.749 402.57H101.337L100.861 402.912L101.04 403.469L100.57 403.127L100.095 403.469L100.274 402.912L99.8038 402.57H100.386L100.57 402.013ZM85.6559 403.418L85.8399 403.985H86.4223L85.9523 404.328L86.1311 404.885L85.6559 404.537L85.1859 404.885L85.3647 404.323L84.8895 403.98H85.4822L85.6559 403.418ZM88.9719 403.418L89.1507 403.98H89.7383L89.2631 404.323L89.442 404.88L88.9719 404.532L88.4967 404.88L88.6756 404.318L88.2055 403.975H88.788L88.9719 403.418ZM92.2828 403.418L92.4667 403.98H93.0441L92.574 404.323L92.7528 404.88L92.2777 404.532L91.8076 404.88L91.9864 404.318L91.5113 403.975H92.0988L92.2828 403.418ZM95.5988 403.418L95.7776 403.98H96.3652L95.89 404.323L96.0739 404.88L95.5988 404.532L95.1236 404.88L95.3075 404.318L94.8324 403.975H95.4148L95.5988 403.418ZM98.9096 403.418L99.0936 403.98H99.676L99.206 404.323L99.3848 404.88L98.9096 404.532L98.4396 404.88L98.6184 404.318L98.1483 403.975H98.7308L98.9096 403.418ZM102.226 403.418L102.404 403.98H102.992L102.517 404.323L102.701 404.88L102.226 404.532L101.75 404.88L101.934 404.318L101.459 403.975H102.047L102.226 403.418ZM87.3165 404.828L87.4953 405.385H88.0829L87.6077 405.728L87.7865 406.29L87.3165 405.942L86.8413 406.285L87.0201 405.728L86.5501 405.385H87.1325L87.3165 404.828ZM90.6273 404.828L90.8113 405.385H91.3937L90.9186 405.728L91.1025 406.29L90.6273 405.942L90.1522 406.285L90.3361 405.728L89.8609 405.385H90.4485L90.6273 404.828ZM93.9433 404.828L94.1222 405.385H94.7097L94.2346 405.728L94.4134 406.29L93.9433 405.942L93.4682 406.285L93.647 405.728L93.1769 405.385H93.7594L93.9433 404.828ZM97.2542 404.828L97.4381 405.385H98.0206L97.5505 405.728L97.7294 406.29L97.2542 405.942L96.7841 406.285L96.963 405.728L96.4878 405.385H97.0805L97.2542 404.828ZM100.57 404.828L100.749 405.385H101.337L100.861 405.728L101.04 406.29L100.57 405.942L100.095 406.285L100.274 405.728L99.8038 405.385H100.386L100.57 404.828ZM85.6559 406.239L85.8399 406.796H86.4223L85.9523 407.138L86.1311 407.7L85.6559 407.353L85.1859 407.695L85.3647 407.138L84.8895 406.796H85.4822L85.6559 406.239ZM88.9719 406.239L89.1507 406.796H89.7383L89.2631 407.138L89.442 407.695L88.9719 407.353L88.4967 407.695L88.6756 407.138L88.2055 406.796H88.788L88.9719 406.239ZM92.2828 406.239L92.4667 406.796H93.0441L92.574 407.138L92.7528 407.7L92.2777 407.353L91.8076 407.695L91.9864 407.138L91.5113 406.796H92.0988L92.2828 406.239ZM95.5988 406.239L95.7776 406.796H96.3652L95.89 407.138L96.0739 407.7L95.5988 407.353L95.1236 407.695L95.3075 407.138L94.8324 406.796H95.4148L95.5988 406.239ZM98.9096 406.239L99.0936 406.796H99.676L99.206 407.138L99.3848 407.7L98.9096 407.353L98.4396 407.695L98.6184 407.138L98.1483 406.796H98.7308L98.9096 406.239ZM102.226 406.239L102.404 406.796H102.992L102.517 407.138L102.701 407.7L102.226 407.353L101.75 407.695L101.934 407.138L101.459 406.796H102.047L102.226 406.239ZM87.3165 407.649L87.4953 408.206H88.0829L87.6077 408.548L87.7865 409.105L87.3165 408.758L86.8413 409.105L87.0201 408.543L86.5501 408.201H87.1325L87.3165 407.649ZM90.6273 407.649L90.8113 408.206H91.3937L90.9186 408.548L91.1025 409.105L90.6273 408.758L90.1522 409.105L90.3361 408.543L89.8609 408.201H90.4485L90.6273 407.649ZM93.9433 407.649L94.1222 408.206H94.7097L94.2346 408.548L94.4134 409.105L93.9433 408.758L93.4682 409.105L93.647 408.543L93.1769 408.201H93.7594L93.9433 407.649ZM97.2542 407.649L97.4381 408.206H98.0206L97.5505 408.548L97.7294 409.105L97.2542 408.758L96.7841 409.105L96.963 408.543L96.4878 408.201H97.0805L97.2542 407.649ZM100.57 407.649L100.749 408.206H101.337L100.861 408.548L101.04 409.105L100.57 408.758L100.095 409.105L100.274 408.543L99.8038 408.201H100.386L100.57 407.649ZM85.6559 409.054L85.8399 409.616H86.4223L85.9523 409.958L86.1311 410.51L85.6559 410.168L85.1859 410.51L85.3647 409.953L84.8895 409.611H85.4822L85.6559 409.054ZM88.9719 409.054L89.1507 409.616H89.7383L89.2631 409.958L89.4471 410.51L88.9719 410.168L88.4967 410.51L88.6807 409.953L88.2055 409.611H88.788L88.9719 409.054ZM92.2828 409.054L92.4667 409.616H93.0441L92.574 409.958L92.7528 410.51L92.2777 410.168L91.8076 410.51L91.9864 409.953L91.5113 409.611H92.0988L92.2828 409.054ZM95.5988 409.054L95.7776 409.616H96.3652L95.89 409.958L96.0739 410.51L95.5988 410.168L95.1236 410.51L95.3075 409.953L94.8324 409.611H95.4148L95.5988 409.054ZM98.9096 409.054L99.0936 409.616H99.676L99.206 409.958L99.3848 410.51L98.9096 410.168L98.4396 410.51L98.6184 409.953L98.1483 409.611H98.7308L98.9096 409.054ZM102.226 409.054L102.404 409.616H102.992L102.517 409.958L102.701 410.51L102.226 410.168L101.75 410.51L101.934 409.953L101.459 409.611H102.047L102.226 409.054ZM87.3165 410.464L87.4953 411.021H88.0829L87.6077 411.363L87.7865 411.925L87.3165 411.578L86.8413 411.92L87.0201 411.363L86.5501 411.021H87.1325L87.3165 410.464ZM90.6273 410.464L90.8113 411.021H91.3937L90.9186 411.363L91.1025 411.925L90.6273 411.578L90.1522 411.92L90.3361 411.363L89.8609 411.021H90.4485L90.6273 410.464ZM93.9433 410.464L94.1222 411.021H94.7097L94.2346 411.363L94.4134 411.925L93.9433 411.578L93.4682 411.92L93.647 411.363L93.1769 411.021H93.7594L93.9433 410.464ZM97.2542 410.464L97.4381 411.021H98.0206L97.5505 411.363L97.7294 411.925L97.2542 411.578L96.7841 411.92L96.963 411.363L96.4878 411.021H97.0805L97.2542 410.464ZM100.57 410.464L100.749 411.021H101.337L100.861 411.363L101.04 411.925L100.57 411.578L100.095 411.92L100.274 411.363L99.8038 411.021H100.386L100.57 410.464ZM85.6559 411.874L85.8399 412.431H86.4223L85.9523 412.774L86.1311 413.33L85.6559 412.988L85.1859 413.33L85.3647 412.768L84.8895 412.426H85.4822L85.6559 411.874ZM88.9719 411.874L89.1507 412.431H89.7383L89.2631 412.774L89.4471 413.33L88.9719 412.988L88.4967 413.33L88.6807 412.768L88.2055 412.426H88.788L88.9719 411.874ZM92.2828 411.874L92.4667 412.431H93.0441L92.5842 412.774L92.7631 413.33L92.2879 412.988L91.8178 413.33L91.9967 412.768L91.5215 412.426H92.1091L92.2828 411.874ZM95.5988 411.874L95.7776 412.431H96.3652L95.89 412.774L96.0739 413.33L95.5988 412.988L95.1236 413.33L95.3075 412.768L94.8324 412.426H95.4148L95.5988 411.874ZM98.9096 411.874L99.0936 412.431H99.676L99.206 412.774L99.3848 413.33L98.9096 412.988L98.4396 413.33L98.6184 412.768L98.1483 412.426H98.7308L98.9096 411.874ZM102.226 411.874L102.404 412.431H102.992L102.517 412.774L102.701 413.33L102.226 412.988L101.75 413.33L101.934 412.768L101.459 412.426H102.047L102.226 411.874Z" fill="#FFEFD8"/>
</g>
</g>
<defs>
<filter id="filter0_f" x="249" y="276" width="32" height="28" filterUnits="userSpaceOnUse" color-interpolation-filters="sRGB">
<feFlood flood-opacity="0" result="BackgroundImageFix"/>
<feBlend mode="normal" in="SourceGraphic" in2="BackgroundImageFix" result="shape"/>
<feGaussianBlur stdDeviation="1.5" result="effect1_foregroundBlur"/>
</filter>
<filter id="filter1_f" x="71" y="247" width="32" height="28" filterUnits="userSpaceOnUse" color-interpolation-filters="sRGB">
<feFlood flood-opacity="0" result="BackgroundImageFix"/>
<feBlend mode="normal" in="SourceGraphic" in2="BackgroundImageFix" result="shape"/>
<feGaussianBlur stdDeviation="1.5" result="effect1_foregroundBlur"/>
</filter>
<filter id="filter2_f" x="90" y="293" width="32" height="28" filterUnits="userSpaceOnUse" color-interpolation-filters="sRGB">
<feFlood flood-opacity="0" result="BackgroundImageFix"/>
<feBlend mode="normal" in="SourceGraphic" in2="BackgroundImageFix" result="shape"/>
<feGaussianBlur stdDeviation="1.5" result="effect1_foregroundBlur"/>
</filter>
<clipPath id="clip0">
<rect x="84.0005" y="400" width="35" height="24" rx="6" fill="white"/>
</clipPath>
</defs>
</svg>
