<svg width="1024" height="1024" viewBox="0 0 1024 1024" fill="none" xmlns="http://www.w3.org/2000/svg">
<rect width="1024" height="1024" rx="512" fill="white"/>
<path d="M516.043 271.523C495.4 271.523 493.106 288.726 494.539 297.327H537.546C538.98 288.726 536.686 271.523 516.043 271.523Z" fill="url(#paint0_linear)"/>
<path d="M355.543 428.24L514.323 343.088L673.791 428.24C673.791 389.535 635.135 303.521 514.667 303.521C389.948 303.521 355.543 389.535 355.543 428.24Z" fill="url(#paint1_linear)"/>
<path d="M678.092 438.56L514.667 348.246L355.543 438.56L368.445 705.2L467.36 812.717L445.857 571.88L427.389 556.491C423.478 561.382 404.167 601.163 395 620.442C395 610.053 410.59 569.229 420.053 550.377L394.249 528.874V481.566L447.556 502.426C465.156 474.99 485.295 452.746 493.164 445.053C478.806 471.942 462.887 496.897 456.723 506.013L493.164 520.272V619.187L516.559 640.519L540.471 619.187V520.272L639.386 481.566V528.874L587.778 571.88L566.275 812.717L665.19 705.2L678.092 438.56Z" fill="black" stroke="#0088FF" stroke-width="2.4"/>
<path d="M840.648 645.719L707.999 718.565V775L881.332 665.875V623.837L707.999 515V571.434L840.648 645.719Z" fill="#242424"/>
<path d="M183.684 515.719L316.333 588.565V645L143 535.875V493.837L316.333 385V441.434L183.684 515.719Z" fill="#020224"/>
<path d="M515.44 263.93C492.182 263.93 490.095 284.057 491.958 294.121C481.224 301.277 472.577 297.103 469.595 294.121C433.813 210.258 522.253 187.608 505.376 182.304C488.5 177 544.512 165.531 587.003 182.304C620.995 195.722 655.957 191.995 665.275 192.367C652.751 203.102 624.275 203.688 610.484 196.606C624.648 207.415 678.916 239.107 702.174 224.794C725.432 210.482 704.411 202.431 690.993 200.194C697.702 181.186 762.555 167.768 772.619 200.194C780.661 226.107 759.62 253.433 748.058 263.895C766.838 246.931 791.635 244.922 801.691 246.039C811.382 246.039 834.566 249.618 849.773 263.93C868.782 281.821 876.609 299.712 874.372 323.193C872.136 346.675 831.882 372.393 837.473 362.329C841.946 354.278 839.336 341.829 837.473 336.611C834.864 327.666 817.122 317.826 767.028 350.029C716.934 382.233 673.102 363.447 657.448 350.029C633.593 328.411 582.53 286.964 569.112 294.121C555.694 301.277 544.885 297.103 541.158 294.121C542.276 284.057 538.698 263.93 515.44 263.93Z" fill="url(#paint2_linear)"/>
<path d="M528.165 215.149C516.565 230.448 533.651 256.286 556.507 267.069C602.637 288.83 657.603 265.308 677.803 198.466C619.994 259.721 561.62 171.026 528.165 215.149Z" fill="url(#paint3_linear)"/>
<g filter="url(#filter0_i)">
<path d="M549.134 564.289V526.551L629.643 497.199L549.134 564.289Z" fill="#BE1D30"/>
<path d="M555.02 535.178C554.386 538.506 559.113 541.251 563.572 541.163C572.572 540.984 579.416 532.955 577.366 520.804C573.032 535.021 556.847 525.579 555.02 535.178Z" fill="url(#paint4_linear)"/>
</g>
<g filter="url(#filter1_i)">
<path d="M481.895 564.487V526.748L401.387 497.396L481.895 564.487Z" fill="#BE1D30"/>
<path d="M477.141 535.375C477.774 538.704 473.047 541.448 468.588 541.36C459.589 541.182 452.745 533.152 454.794 521.001C459.128 535.219 475.313 525.776 477.141 535.375Z" fill="url(#paint5_linear)"/>
</g>
<defs>
<filter id="filter0_i" x="549.135" y="497.199" width="80.5083" height="70.0902" filterUnits="userSpaceOnUse" color-interpolation-filters="sRGB">
<feFlood flood-opacity="0" result="BackgroundImageFix"/>
<feBlend mode="normal" in="SourceGraphic" in2="BackgroundImageFix" result="shape"/>
<feColorMatrix in="SourceAlpha" type="matrix" values="0 0 0 0 0 0 0 0 0 0 0 0 0 0 0 0 0 0 127 0" result="hardAlpha"/>
<feOffset dy="3"/>
<feGaussianBlur stdDeviation="1.5"/>
<feComposite in2="hardAlpha" operator="arithmetic" k2="-1" k3="1"/>
<feColorMatrix type="matrix" values="0 0 0 0 0 0 0 0 0 0 0 0 0 0 0 0 0 0 0.6 0"/>
<feBlend mode="normal" in2="shape" result="effect1_innerShadow"/>
</filter>
<filter id="filter1_i" x="401.387" y="497.396" width="80.5083" height="70.0902" filterUnits="userSpaceOnUse" color-interpolation-filters="sRGB">
<feFlood flood-opacity="0" result="BackgroundImageFix"/>
<feBlend mode="normal" in="SourceGraphic" in2="BackgroundImageFix" result="shape"/>
<feColorMatrix in="SourceAlpha" type="matrix" values="0 0 0 0 0 0 0 0 0 0 0 0 0 0 0 0 0 0 127 0" result="hardAlpha"/>
<feOffset dy="3"/>
<feGaussianBlur stdDeviation="1.5"/>
<feComposite in2="hardAlpha" operator="arithmetic" k2="-1" k3="1"/>
<feColorMatrix type="matrix" values="0 0 0 0 0 0 0 0 0 0 0 0 0 0 0 0 0 0 0.72 0"/>
<feBlend mode="normal" in2="shape" result="effect1_innerShadow"/>
</filter>
<linearGradient id="paint0_linear" x1="516" y1="310.131" x2="516" y2="261.388" gradientUnits="userSpaceOnUse">
<stop/>
<stop offset="1" stop-color="#100F0F"/>
</linearGradient>
<linearGradient id="paint1_linear" x1="355.282" y1="428.694" x2="674.084" y2="428.694" gradientUnits="userSpaceOnUse">
<stop stop-color="#100F0F"/>
<stop offset="1"/>
</linearGradient>
<linearGradient id="paint2_linear" x1="903.961" y1="210.67" x2="503.482" y2="294.323" gradientUnits="userSpaceOnUse">
<stop stop-color="#FFC041"/>
<stop offset="0.59116" stop-color="#FF4851"/>
</linearGradient>
<linearGradient id="paint3_linear" x1="677.406" y1="197.49" x2="534.191" y2="255.732" gradientUnits="userSpaceOnUse">
<stop stop-color="#FFC041"/>
<stop offset="1" stop-color="#FF4A51"/>
</linearGradient>
<linearGradient id="paint4_linear" x1="577.227" y1="520.681" x2="559.155" y2="541.121" gradientUnits="userSpaceOnUse">
<stop stop-color="#FFC041"/>
<stop offset="1" stop-color="#FF4A51"/>
</linearGradient>
<linearGradient id="paint5_linear" x1="454.933" y1="520.878" x2="473.005" y2="541.318" gradientUnits="userSpaceOnUse">
<stop stop-color="#FFC041"/>
<stop offset="1" stop-color="#FF4A51"/>
</linearGradient>
</defs>
</svg>
