<svg width="16" height="16" viewBox="0 0 16 16" fill="none" xmlns="http://www.w3.org/2000/svg">
<path fill-rule="evenodd" clip-rule="evenodd" d="M7.99992 8.33333C7.44859 8.33333 6.99992 8.782 6.99992 9.33333C6.99992 9.88467 7.44859 10.3333 7.99992 10.3333C8.55125 10.3333 8.99992 9.88467 8.99992 9.33333C8.99992 8.782 8.55125 8.33333 7.99992 8.33333ZM7.99992 11.6667C6.71325 11.6667 5.66658 10.62 5.66658 9.33333C5.66658 8.04667 6.71325 7 7.99992 7C9.28658 7 10.3333 8.04667 10.3333 9.33333C10.3333 10.62 9.28658 11.6667 7.99992 11.6667ZM6.66658 3.66667C6.66658 3.48267 6.81659 3.33333 6.99992 3.33333H8.99992C9.18325 3.33333 9.33325 3.48267 9.33325 3.66667V4.66667H6.66658V3.66667ZM12.6666 4.66667H10.6666V3.66667C10.6666 2.748 9.91925 2 8.99992 2H6.99992C6.08059 2 5.33325 2.748 5.33325 3.66667V4.66667H3.33325C2.23059 4.66667 1.33325 5.564 1.33325 6.66667V12C1.33325 13.1027 2.23059 14 3.33325 14H12.6666C13.7693 14 14.6666 13.1027 14.6666 12V6.66667C14.6666 5.564 13.7693 4.66667 12.6666 4.66667Z" fill="#808080"/>
</svg>
