<svg width="113" height="112" viewBox="0 0 113 112" fill="none" xmlns="http://www.w3.org/2000/svg">
<g clip-path="url(#clip0)">
<path fill-rule="evenodd" clip-rule="evenodd" d="M5.125 70.375C23.9719 65.1904 49.1087 72.7106 56 98.125C65.1806 70.6571 92.7826 65.5141 106.875 70.375C95.4651 77.4235 90.7014 112 56 112C21.2986 112 16.7476 77.4466 5.125 70.375ZM43.0639 14.5004C43.1009 7.04487 49.1642 1 56.629 1C64.0984 1 70.1618 7.04487 70.1987 14.5004C76.6738 10.805 84.9386 13.0343 88.6756 19.5C92.408 25.9657 90.2065 34.2399 83.7639 38C90.2065 41.7601 92.408 50.0342 88.6756 56.5C84.9386 62.9658 76.6738 65.195 70.1987 61.4996C70.1618 68.9551 64.0984 75 56.629 75C49.1642 75 43.1009 68.9551 43.0639 61.4996C36.5889 65.195 28.3194 62.9658 24.587 56.5C20.8546 50.0342 23.0561 41.7601 29.4988 38C23.0561 34.2399 20.8546 25.9657 24.587 19.5C28.3194 13.0343 36.5889 10.805 43.0639 14.5004Z" fill="#FAC1C5"/>
<circle cx="91.5" cy="21" r="21" fill="#EF4623"/>
<path d="M89.6246 20.726C89.9619 20.726 90.2456 20.841 90.4756 21.071C90.7056 21.2857 90.8206 21.5617 90.8206 21.899C90.8206 22.2363 90.7056 22.52 90.4756 22.75C90.2456 22.98 89.9619 23.095 89.6246 23.095H86.4046V26.338C86.4046 26.6753 86.2896 26.959 86.0596 27.189C85.8296 27.4037 85.5459 27.511 85.2086 27.511C84.8713 27.511 84.5876 27.4037 84.3576 27.189C84.1276 26.959 84.0126 26.6753 84.0126 26.338V23.095H80.7926C80.4553 23.095 80.1716 22.98 79.9416 22.75C79.7116 22.52 79.5966 22.2363 79.5966 21.899C79.5966 21.5617 79.7116 21.2857 79.9416 21.071C80.1716 20.841 80.4553 20.726 80.7926 20.726H84.0126V17.483C84.0126 17.1457 84.1276 16.862 84.3576 16.632C84.5876 16.402 84.8713 16.287 85.2086 16.287C85.5459 16.287 85.8296 16.402 86.0596 16.632C86.2896 16.862 86.4046 17.1457 86.4046 17.483V20.726H89.6246ZM102.726 25.875C103.748 25.875 104.259 26.309 104.259 27.177C104.259 28.059 103.748 28.5 102.726 28.5H95.5436C94.5076 28.5 93.9896 28.059 93.9896 27.177C93.9896 26.309 94.5076 25.875 95.5436 25.875H97.4966V17.286L95.6486 18.399C95.4386 18.525 95.2286 18.588 95.0186 18.588C94.6686 18.588 94.3676 18.441 94.1156 18.147C93.8776 17.853 93.7586 17.524 93.7586 17.16C93.7586 16.67 93.9756 16.299 94.4096 16.047L97.7276 14.052C98.2176 13.758 98.7076 13.611 99.1976 13.611C99.6596 13.611 100.038 13.758 100.332 14.052C100.626 14.332 100.773 14.717 100.773 15.207V25.875H102.726Z" fill="#FEFEFE"/>
</g>
<defs>
<clipPath id="clip0">
<rect width="112" height="112" fill="white" transform="translate(0.5)"/>
</clipPath>
</defs>
</svg>
