<svg width="16" height="16" viewBox="0 0 16 16" fill="none" xmlns="http://www.w3.org/2000/svg">
<path fill-rule="evenodd" clip-rule="evenodd" d="M8.00004 7.00192L13.6747 4.61659C13.5774 4.51726 13.4674 4.42859 13.334 4.36659L8.53404 2.11726C8.19737 1.96059 7.8027 1.96059 7.46604 2.11726L2.66604 4.36659C2.5327 4.42859 2.4227 4.51726 2.32537 4.61659L8.00004 7.00192ZM7.50003 7.88473L2.00003 5.57273V10.7254C1.9967 11.1527 2.2527 11.5447 2.66003 11.7374L7.46003 13.9861C7.46651 13.9891 7.47333 13.9911 7.48023 13.9932L7.48025 13.9932C7.48685 13.9952 7.49352 13.9971 7.50003 14.0001V7.88473ZM8.50003 13.9981V7.88473L14 5.57273V10.7314C14 11.1574 13.742 11.5474 13.334 11.7374L8.53403 13.9861C8.52799 13.9891 8.52153 13.991 8.515 13.993C8.51 13.9945 8.50495 13.996 8.50003 13.9981Z" fill="#808080"/>
</svg>
