<svg width="24" height="24" viewBox="0 0 24 24" fill="none" xmlns="http://www.w3.org/2000/svg">
<path fill-rule="evenodd" clip-rule="evenodd" d="M5 2H9C10.103 2 11 2.897 11 4V8C11 9.103 10.103 10 9 10H5C3.897 10 3 9.103 3 8V4C3 2.897 3.897 2 5 2ZM15 2H19C20.103 2 21 2.897 21 4V8C21 9.103 20.103 10 19 10H15C13.897 10 13 9.103 13 8V4C13 2.897 13.897 2 15 2ZM9 12H5C3.897 12 3 12.897 3 14V18C3 19.103 3.897 20 5 20H9C10.103 20 11 19.103 11 18V14C11 12.897 10.103 12 9 12ZM15 12H19C20.103 12 21 12.897 21 14V18C21 19.103 20.103 20 19 20H15C13.897 20 13 19.103 13 18V14C13 12.897 13.897 12 15 12Z" fill="#393E46"/>
</svg>
