<svg width="24" height="24" viewBox="0 0 24 24" fill="none" xmlns="http://www.w3.org/2000/svg">
<path d="M21 18V12.5925C21 10.8237 21 9.93935 20.649 9.15764C20.2979 8.37593 19.6369 7.78837 18.3149 6.61325L17.3149 5.72437C14.7855 3.476 13.5208 2.35182 12 2.35182C10.4792 2.35182 9.2145 3.476 6.68509 5.72437L5.68509 6.61325C4.36308 7.78837 3.70208 8.37593 3.35104 9.15764C3 9.93935 3 10.8237 3 12.5925V18C3 18.9319 3 19.3978 3.15224 19.7654C3.35523 20.2554 3.74458 20.6448 4.23463 20.8478C4.60218 21 5.06812 21 6 21H6.33333C6.95331 21 7.26331 21 7.51764 20.9319C8.20782 20.7469 8.74692 20.2078 8.93185 19.5176C9 19.2633 9 18.9533 9 18.3333V16C9 14.3431 10.3431 13 12 13C13.6569 13 15 14.3431 15 16V18.3333C15 18.9533 15 19.2633 15.0681 19.5176C15.2531 20.2078 15.7922 20.7469 16.4824 20.9319C16.7367 21 17.0467 21 17.6667 21H18C18.9319 21 19.3978 21 19.7654 20.8478C20.2554 20.6448 20.6448 20.2554 20.8478 19.7654C21 19.3978 21 18.9319 21 18Z" fill="#393E46"/>
</svg>
