<svg width="24" height="24" viewBox="0 0 24 24" fill="none" xmlns="http://www.w3.org/2000/svg">
    <g opacity="0.5">
        <path d="M20 18.5V10.3613C20 9.49622 19.6266 8.67324 18.9755 8.10358L13.9755 3.72857C12.8444 2.73888 11.1556 2.73888 10.0245 3.72857L5.02449 8.10357C4.37344 8.67324 4 9.49622 4 10.3613V18.5C4 19.3284 4.67157 20 5.5 20H7.5C8.32843 20 9 19.3284 9 18.5V16C9 14.3431 10.3431 13 12 13C13.6569 13 15 14.3431 15 16V18.5C15 19.3284 15.6716 20 16.5 20H18.5C19.3284 20 20 19.3284 20 18.5Z" stroke="#808080" stroke-width="2" />
    </g>
</svg>