<svg width="24" height="24" viewBox="0 0 24 24" fill="none" xmlns="http://www.w3.org/2000/svg">
<g opacity="0.5">
<path fill-rule="evenodd" clip-rule="evenodd" d="M12 1.5C9.51747 1.5 7.5 3.51747 7.5 6C7.5 8.48253 9.51747 10.5 12 10.5C14.4825 10.5 16.5 8.48253 16.5 6C16.5 3.51747 14.4825 1.5 12 1.5ZM9.5 6C9.5 4.62203 10.622 3.5 12 3.5C13.378 3.5 14.5 4.62203 14.5 6C14.5 7.37797 13.378 8.5 12 8.5C10.622 8.5 9.5 7.37797 9.5 6ZM12 12.5C7.23255 12.5 3 15.771 3 20C3 20.5523 3.44772 21 4 21C4.55228 21 5 20.5523 5 20C5 17.229 7.94688 14.5 12 14.5C16.0531 14.5 19 17.229 19 20C19 20.5523 19.4477 21 20 21C20.5523 21 21 20.5523 21 20C21 15.771 16.7675 12.5 12 12.5Z" fill="#808080"/>
</g>
</svg>
