<svg width="16" height="16" viewBox="0 0 16 16" fill="none" xmlns="http://www.w3.org/2000/svg">
<mask id="path-2-inside-1" fill="white">
<path fill-rule="evenodd" clip-rule="evenodd" d="M4 3C4 4.30622 3.16519 5.41746 2 5.82929V7C2.55228 7 3 7.44772 3 8C3 8.55228 2.55228 9 2 9V10.1707C3.16519 10.5825 4 11.6938 4 13H13C13.5523 13 14 12.5523 14 12V4C14 3.44772 13.5523 3 13 3H4ZM11.0938 8.72266C10.8984 8.60807 10.6901 8.55078 10.4688 8.55078C10.25 8.55078 10.0417 8.60807 9.84375 8.72266C9.64583 8.83464 9.48958 8.98958 9.375 9.1875C9.26042 9.38281 9.20312 9.59245 9.20312 9.81641C9.20312 10.0404 9.25911 10.25 9.37109 10.4453C9.48568 10.6406 9.64062 10.7943 9.83594 10.9062C10.0312 11.0156 10.2422 11.0703 10.4688 11.0703C10.6927 11.0703 10.901 11.0143 11.0938 10.9023C11.2891 10.7878 11.4427 10.6341 11.5547 10.4414C11.6667 10.2487 11.7227 10.0404 11.7227 9.81641C11.7227 9.58984 11.6667 9.38021 11.5547 9.1875C11.4453 8.99219 11.2917 8.83724 11.0938 8.72266ZM10.0469 10.2578C9.92708 10.1406 9.86719 9.99349 9.86719 9.81641C9.86719 9.64974 9.92578 9.50391 10.043 9.37891C10.1602 9.25391 10.3021 9.19141 10.4688 9.19141C10.6328 9.19141 10.7721 9.25521 10.8867 9.38281C11.0039 9.50781 11.0625 9.65234 11.0625 9.81641C11.0625 9.99609 11.0039 10.1445 10.8867 10.2617C10.7695 10.3763 10.6302 10.4336 10.4688 10.4336C10.3073 10.4336 10.1667 10.375 10.0469 10.2578ZM10.8906 5.47266L7.17188 11.0703H6.51562L10.2344 5.47266H10.8906ZM7.38672 5.64062C7.19401 5.52865 6.98698 5.47266 6.76562 5.47266C6.54427 5.47266 6.33464 5.52865 6.13672 5.64062C5.94141 5.75 5.78646 5.90365 5.67188 6.10156C5.55729 6.29688 5.5 6.50781 5.5 6.73438C5.5 6.95833 5.55599 7.16797 5.66797 7.36328C5.77995 7.55859 5.93359 7.71224 6.12891 7.82422C6.32682 7.9362 6.53906 7.99219 6.76562 7.99219C6.98698 7.99219 7.19531 7.9362 7.39062 7.82422C7.58594 7.70964 7.73958 7.55599 7.85156 7.36328C7.96354 7.16797 8.01953 6.95833 8.01953 6.73438C8.01953 6.51042 7.96224 6.30078 7.84766 6.10547C7.73568 5.90755 7.58203 5.7526 7.38672 5.64062ZM6.33984 7.17188C6.22266 7.04948 6.16406 6.90365 6.16406 6.73438C6.16406 6.5651 6.22266 6.41927 6.33984 6.29688C6.45964 6.17448 6.60156 6.11328 6.76562 6.11328C6.93229 6.11328 7.07161 6.17448 7.18359 6.29688C7.29818 6.41667 7.35547 6.5625 7.35547 6.73438C7.35547 6.90885 7.29818 7.05599 7.18359 7.17578C7.06901 7.29297 6.92969 7.35156 6.76562 7.35156C6.59896 7.35156 6.45703 7.29167 6.33984 7.17188Z"/>
</mask>
<path fill-rule="evenodd" clip-rule="evenodd" d="M4 3C4 4.30622 3.16519 5.41746 2 5.82929V7C2.55228 7 3 7.44772 3 8C3 8.55228 2.55228 9 2 9V10.1707C3.16519 10.5825 4 11.6938 4 13H13C13.5523 13 14 12.5523 14 12V4C14 3.44772 13.5523 3 13 3H4ZM11.0938 8.72266C10.8984 8.60807 10.6901 8.55078 10.4688 8.55078C10.25 8.55078 10.0417 8.60807 9.84375 8.72266C9.64583 8.83464 9.48958 8.98958 9.375 9.1875C9.26042 9.38281 9.20312 9.59245 9.20312 9.81641C9.20312 10.0404 9.25911 10.25 9.37109 10.4453C9.48568 10.6406 9.64062 10.7943 9.83594 10.9062C10.0312 11.0156 10.2422 11.0703 10.4688 11.0703C10.6927 11.0703 10.901 11.0143 11.0938 10.9023C11.2891 10.7878 11.4427 10.6341 11.5547 10.4414C11.6667 10.2487 11.7227 10.0404 11.7227 9.81641C11.7227 9.58984 11.6667 9.38021 11.5547 9.1875C11.4453 8.99219 11.2917 8.83724 11.0938 8.72266ZM10.0469 10.2578C9.92708 10.1406 9.86719 9.99349 9.86719 9.81641C9.86719 9.64974 9.92578 9.50391 10.043 9.37891C10.1602 9.25391 10.3021 9.19141 10.4688 9.19141C10.6328 9.19141 10.7721 9.25521 10.8867 9.38281C11.0039 9.50781 11.0625 9.65234 11.0625 9.81641C11.0625 9.99609 11.0039 10.1445 10.8867 10.2617C10.7695 10.3763 10.6302 10.4336 10.4688 10.4336C10.3073 10.4336 10.1667 10.375 10.0469 10.2578ZM10.8906 5.47266L7.17188 11.0703H6.51562L10.2344 5.47266H10.8906ZM7.38672 5.64062C7.19401 5.52865 6.98698 5.47266 6.76562 5.47266C6.54427 5.47266 6.33464 5.52865 6.13672 5.64062C5.94141 5.75 5.78646 5.90365 5.67188 6.10156C5.55729 6.29688 5.5 6.50781 5.5 6.73438C5.5 6.95833 5.55599 7.16797 5.66797 7.36328C5.77995 7.55859 5.93359 7.71224 6.12891 7.82422C6.32682 7.9362 6.53906 7.99219 6.76562 7.99219C6.98698 7.99219 7.19531 7.9362 7.39062 7.82422C7.58594 7.70964 7.73958 7.55599 7.85156 7.36328C7.96354 7.16797 8.01953 6.95833 8.01953 6.73438C8.01953 6.51042 7.96224 6.30078 7.84766 6.10547C7.73568 5.90755 7.58203 5.7526 7.38672 5.64062ZM6.33984 7.17188C6.22266 7.04948 6.16406 6.90365 6.16406 6.73438C6.16406 6.5651 6.22266 6.41927 6.33984 6.29688C6.45964 6.17448 6.60156 6.11328 6.76562 6.11328C6.93229 6.11328 7.07161 6.17448 7.18359 6.29688C7.29818 6.41667 7.35547 6.5625 7.35547 6.73438C7.35547 6.90885 7.29818 7.05599 7.18359 7.17578C7.06901 7.29297 6.92969 7.35156 6.76562 7.35156C6.59896 7.35156 6.45703 7.29167 6.33984 7.17188Z" fill="#7A5AE8"/>
<path d="M2 5.82929L1.66675 4.88645L1 5.12212V5.82929H2ZM4 3V2H3V3H4ZM2 7H1V8H2V7ZM2 9V8H1V9H2ZM2 10.1707H1V10.8779L1.66675 11.1135L2 10.1707ZM4 13H3V14H4V13ZM11.0938 8.72266L10.5877 9.5852L10.5927 9.58808L11.0938 8.72266ZM9.84375 8.72266L10.3362 9.59305L10.3448 9.58808L9.84375 8.72266ZM9.375 9.1875L10.2375 9.69352L10.2404 9.68854L9.375 9.1875ZM9.37109 10.4453L8.50352 10.9427L8.50857 10.9513L9.37109 10.4453ZM9.83594 10.9062L9.33853 11.7738L9.34733 11.7788L9.83594 10.9062ZM11.0938 10.9023L11.5962 11.767L11.5998 11.7649L11.0938 10.9023ZM11.5547 9.1875L10.6822 9.6761L10.6861 9.68304L10.6901 9.68992L11.5547 9.1875ZM10.0469 10.2578L9.34758 10.9726L9.34758 10.9726L10.0469 10.2578ZM10.8867 9.38281L10.1427 10.0509L10.1498 10.0589L10.1572 10.0668L10.8867 9.38281ZM10.8867 10.2617L11.5859 10.9768L11.5938 10.9688L10.8867 10.2617ZM7.17188 11.0703V12.0703H7.7081L8.00482 11.6237L7.17188 11.0703ZM10.8906 5.47266L11.7236 6.02601L12.7555 4.47266H10.8906V5.47266ZM6.51562 11.0703L5.68268 10.517L4.65072 12.0703H6.51562V11.0703ZM10.2344 5.47266V4.47266H9.69815L9.40143 4.9193L10.2344 5.47266ZM7.38672 5.64062L6.88429 6.50526L6.88933 6.50816L7.38672 5.64062ZM6.13672 5.64062L6.62533 6.51314L6.62915 6.51097L6.13672 5.64062ZM5.67188 6.10156L6.53441 6.60759L6.5373 6.6026L5.67188 6.10156ZM6.12891 7.82422L5.63151 8.69176L5.63647 8.69457L6.12891 7.82422ZM7.39062 7.82422L7.88803 8.69179L7.89664 8.68674L7.39062 7.82422ZM7.85156 7.36328L8.7162 7.86571L8.71909 7.86066L7.85156 7.36328ZM7.84766 6.10547L6.97731 6.5979L6.98117 6.60472L6.98513 6.61148L7.84766 6.10547ZM6.33984 7.17188L5.61749 7.86349L5.62501 7.87117L6.33984 7.17188ZM6.33984 6.29688L5.62513 5.59737L5.61754 5.6053L6.33984 6.29688ZM7.18359 6.29688L6.44579 6.97189L6.45328 6.98008L6.46095 6.9881L7.18359 6.29688ZM7.18359 7.17578L7.89864 7.87494L7.90623 7.867L7.18359 7.17578ZM2.33325 6.77213C3.88549 6.2235 5 4.74319 5 3H3C3 3.86925 2.4449 4.61142 1.66675 4.88645L2.33325 6.77213ZM3 7V5.82929H1V7H3ZM2 8H4C4 6.89543 3.10457 6 2 6V8ZM2 8V10C3.10457 10 4 9.10457 4 8H2ZM3 10.1707V9H1V10.1707H3ZM5 13C5 11.2568 3.88549 9.7765 2.33325 9.22787L1.66675 11.1135C2.4449 11.3886 3 12.1307 3 13H5ZM13 12H4V14H13V12ZM13 12V14C14.1046 14 15 13.1046 15 12H13ZM13 4V12H15V4H13ZM13 4H15C15 2.89543 14.1046 2 13 2V4ZM4 4H13V2H4V4ZM10.4688 9.55078C10.508 9.55078 10.5422 9.55845 10.5877 9.58518L11.5998 7.86013C11.2547 7.6577 10.8722 7.55078 10.4688 7.55078V9.55078ZM10.3448 9.58808C10.3976 9.55748 10.4341 9.55078 10.4688 9.55078V7.55078C10.0659 7.55078 9.68569 7.65867 9.34271 7.85723L10.3448 9.58808ZM10.2404 9.68854C10.2663 9.64382 10.2942 9.61676 10.3362 9.59301L9.35132 7.85231C8.99747 8.05251 8.71285 8.33535 8.50957 8.68646L10.2404 9.68854ZM10.2031 9.81641C10.2031 9.77241 10.2119 9.73718 10.2375 9.69352L8.51248 8.68148C8.30892 9.02845 8.20312 9.41249 8.20312 9.81641H10.2031ZM10.2386 9.94793C10.213 9.90317 10.2031 9.86489 10.2031 9.81641H8.20312C8.20312 10.2158 8.30526 10.5968 8.50356 10.9427L10.2386 9.94793ZM10.3333 10.0387C10.2901 10.0139 10.2606 9.98528 10.2336 9.9393L8.50857 10.9513C8.71076 11.296 8.9912 11.5746 9.33855 11.7738L10.3333 10.0387ZM10.4688 10.0703C10.4111 10.0703 10.3687 10.0585 10.3245 10.0337L9.34733 11.7788C9.69381 11.9728 10.0733 12.0703 10.4688 12.0703V10.0703ZM10.5913 10.0377C10.552 10.0606 10.5171 10.0703 10.4688 10.0703V12.0703C10.8683 12.0703 11.2501 11.9681 11.5962 11.767L10.5913 10.0377ZM10.6901 9.93899C10.6661 9.98031 10.637 10.0109 10.5877 10.0398L11.5998 11.7649C11.9411 11.5646 12.2194 11.2879 12.4193 10.9438L10.6901 9.93899ZM10.7227 9.81641C10.7227 9.86478 10.7129 9.89965 10.6901 9.93899L12.4193 10.9438C12.6204 10.5977 12.7227 10.216 12.7227 9.81641H10.7227ZM10.6901 9.68992C10.7118 9.72741 10.7227 9.76327 10.7227 9.81641H12.7227C12.7227 9.41642 12.6215 9.03301 12.4193 8.68508L10.6901 9.68992ZM10.5927 9.58808C10.6387 9.61473 10.6625 9.64099 10.6822 9.6761L12.4272 8.6989C12.2281 8.34338 11.9446 8.05975 11.5948 7.85723L10.5927 9.58808ZM8.86719 9.81641C8.86719 10.2455 9.02365 10.6558 9.34758 10.9726L10.7462 9.54298C10.7788 9.57488 10.8138 9.62223 10.8383 9.68253C10.8624 9.74169 10.8672 9.7905 10.8672 9.81641H8.86719ZM9.31343 8.69496C9.02788 8.99955 8.86719 9.38789 8.86719 9.81641H10.8672C10.8672 9.85299 10.8602 9.90219 10.839 9.95485C10.8181 10.007 10.7911 10.043 10.7725 10.0628L9.31343 8.69496ZM10.4688 8.19141C10.017 8.19141 9.61367 8.37471 9.31343 8.69496L10.7725 10.0628C10.7487 10.0883 10.705 10.125 10.6403 10.1535C10.575 10.1822 10.5137 10.1914 10.4688 10.1914V8.19141ZM11.6308 8.71469C11.3363 8.38672 10.931 8.19141 10.4688 8.19141V10.1914C10.4174 10.1914 10.35 10.1805 10.2799 10.1485C10.2109 10.1169 10.166 10.0769 10.1427 10.0509L11.6308 8.71469ZM12.0625 9.81641C12.0625 9.38611 11.8987 9.00014 11.6163 8.69887L10.1572 10.0668C10.1399 10.0484 10.1131 10.0131 10.0918 9.96067C10.0702 9.90744 10.0625 9.85636 10.0625 9.81641H12.0625ZM11.5938 10.9688C11.9153 10.6474 12.0625 10.2367 12.0625 9.81641H10.0625C10.0625 9.79631 10.0661 9.75183 10.0884 9.69533C10.1113 9.63724 10.1452 9.58905 10.1796 9.55461L11.5938 10.9688ZM10.4688 11.4336C10.8959 11.4336 11.285 11.2709 11.5858 10.9767L10.1876 9.54671C10.2127 9.52218 10.2549 9.4901 10.314 9.46577C10.3735 9.44132 10.4285 9.43359 10.4688 9.43359V11.4336ZM9.34758 10.9726C9.64636 11.2649 10.0351 11.4336 10.4688 11.4336V9.43359C10.512 9.43359 10.5681 9.4421 10.6268 9.46657C10.6848 9.49075 10.7244 9.52171 10.7462 9.54298L9.34758 10.9726ZM8.00482 11.6237L11.7236 6.02601L10.0577 4.9193L6.33893 10.517L8.00482 11.6237ZM6.51562 12.0703H7.17188V10.0703H6.51562V12.0703ZM9.40143 4.9193L5.68268 10.517L7.34857 11.6237L11.0673 6.02601L9.40143 4.9193ZM10.8906 4.47266H10.2344V6.47266H10.8906V4.47266ZM6.76562 6.47266C6.80922 6.47266 6.84308 6.4813 6.8843 6.50525L7.88914 4.776C7.54494 4.576 7.16474 4.47266 6.76562 4.47266V6.47266ZM6.62915 6.51097C6.68115 6.48156 6.72171 6.47266 6.76562 6.47266V4.47266C6.36683 4.47266 5.98812 4.57573 5.64428 4.77028L6.62915 6.51097ZM6.5373 6.6026C6.56395 6.55656 6.59021 6.53279 6.62532 6.51313L5.64812 4.76812C5.2926 4.96721 5.00896 5.25073 4.80645 5.60053L6.5373 6.6026ZM6.5 6.73438C6.5 6.68561 6.50989 6.64936 6.5344 6.60758L4.80935 5.59555C4.6047 5.94439 4.5 6.33001 4.5 6.73438H6.5ZM6.5355 6.8659C6.50984 6.82114 6.5 6.78286 6.5 6.73438H4.5C4.5 7.13381 4.60214 7.51479 4.80044 7.86067L6.5355 6.8659ZM6.62629 6.95669C6.58504 6.93304 6.55915 6.90715 6.5355 6.8659L4.80044 7.86067C5.00074 8.21004 5.28215 8.49144 5.63152 8.69175L6.62629 6.95669ZM6.76562 6.99219C6.71231 6.99219 6.66963 6.98119 6.62134 6.95387L5.63647 8.69457C5.98401 8.8912 6.36581 8.99219 6.76562 8.99219V6.99219ZM6.89324 6.95669C6.84661 6.98342 6.80937 6.99219 6.76562 6.99219V8.99219C7.16459 8.99219 7.54401 8.88897 7.88801 8.69175L6.89324 6.95669ZM6.98694 6.86086C6.96293 6.90218 6.93386 6.9328 6.88461 6.96169L7.89664 8.68674C8.23802 8.48647 8.51624 8.2098 8.71619 7.8657L6.98694 6.86086ZM7.01953 6.73438C7.01953 6.78286 7.00969 6.82114 6.98403 6.8659L8.71909 7.86066C8.91739 7.51479 9.01953 7.13381 9.01953 6.73438H7.01953ZM6.98513 6.61148C7.01075 6.65515 7.01953 6.69038 7.01953 6.73438H9.01953C9.01953 6.33046 8.91373 5.94642 8.71018 5.59945L6.98513 6.61148ZM6.88933 6.50816C6.92727 6.52991 6.95279 6.55457 6.97731 6.5979L8.71801 5.61303C8.51856 5.26053 8.23679 4.9753 7.8841 4.77309L6.88933 6.50816ZM5.16406 6.73438C5.16406 7.16165 5.32235 7.55514 5.61754 7.86345L7.06215 6.4803C7.08485 6.50401 7.11403 6.54342 7.13591 6.59788C7.1578 6.65236 7.16406 6.70119 7.16406 6.73438H5.16406ZM5.61754 5.6053C5.32235 5.91361 5.16406 6.30711 5.16406 6.73438H7.16406C7.16406 6.76756 7.1578 6.81638 7.13591 6.87087C7.11403 6.92533 7.08485 6.96474 7.06215 6.98845L5.61754 5.6053ZM6.76562 5.11328C6.3197 5.11328 5.92385 5.29224 5.62517 5.59741L7.05451 6.99634C7.03326 7.01805 6.99286 7.05124 6.93208 7.07745C6.87042 7.10404 6.81126 7.11328 6.76562 7.11328V5.11328ZM7.9214 5.62186C7.61897 5.2913 7.21144 5.11328 6.76562 5.11328V7.11328C6.7238 7.11328 6.66169 7.10494 6.59295 7.07475C6.5241 7.04451 6.47517 7.004 6.44579 6.97189L7.9214 5.62186ZM8.35547 6.73438C8.35547 6.31549 8.20597 5.91901 7.90624 5.60565L6.46095 6.9881C6.43365 6.95956 6.40336 6.91677 6.38175 6.86175C6.36039 6.80738 6.35547 6.76142 6.35547 6.73438H8.35547ZM7.90623 7.867C8.2089 7.55059 8.35547 7.15143 8.35547 6.73438H6.35547C6.35547 6.71052 6.35976 6.6664 6.38065 6.61274C6.4019 6.55816 6.43226 6.51456 6.46095 6.48456L7.90623 7.867ZM6.76562 8.35156C7.19849 8.35156 7.59566 8.18472 7.8986 7.8749L6.46859 6.47666C6.49654 6.44807 6.54225 6.41242 6.60549 6.38582C6.66871 6.35923 6.72599 6.35156 6.76562 6.35156V8.35156ZM5.62501 7.87117C5.92916 8.18208 6.32827 8.35156 6.76562 8.35156V6.35156C6.80481 6.35156 6.86112 6.35921 6.92299 6.38532C6.98475 6.41139 7.02863 6.44596 7.05468 6.47258L5.62501 7.87117Z" fill="#7A5AE8" mask="url(#path-2-inside-1)"/>
</svg>
