<svg width="14" height="14" viewBox="0 0 14 14" fill="none" xmlns="http://www.w3.org/2000/svg">
<path fill-rule="evenodd" clip-rule="evenodd" d="M0.666585 7.00004C0.666585 3.50224 3.50212 0.666707 6.99992 0.666707C10.4977 0.666708 13.3333 3.50224 13.3333 7.00004C13.3333 10.4978 10.4977 13.3334 6.99992 13.3334C3.50211 13.3334 0.666584 10.4978 0.666585 7.00004ZM1.66658 7.00004C1.66658 4.05452 4.0544 1.66671 6.99992 1.66671C9.94544 1.66671 12.3333 4.05452 12.3333 7.00004C12.3333 9.94556 9.94544 12.3334 6.99992 12.3334C4.0544 12.3334 1.66658 9.94556 1.66658 7.00004ZM7 10.55C6.69624 10.55 6.45 10.3038 6.45 10L6.45 6.9C6.45 6.59624 6.69624 6.35 7 6.35C7.30376 6.35 7.55 6.59624 7.55 6.9L7.55 10C7.55 10.3038 7.30376 10.55 7 10.55ZM7 4.99995C7.44183 4.99995 7.8 4.64178 7.8 4.19995C7.8 3.75812 7.44183 3.39995 7 3.39995L6.99467 3.39995C6.55284 3.39995 6.19467 3.75812 6.19467 4.19995C6.19467 4.64178 6.55284 4.99995 6.99467 4.99995L7 4.99995Z" fill="#808080"/>
</svg>
