<svg width="375" height="478" viewBox="0 0 375 478" fill="none" xmlns="http://www.w3.org/2000/svg">
<mask id="mask0" mask-type="alpha" maskUnits="userSpaceOnUse" x="0" y="0" width="375" height="478">
<rect width="375" height="478" fill="#C4C4C4"/>
</mask>
<g mask="url(#mask0)">
<rect width="375" height="478" fill="#FFE0B7"/>
<path d="M-276.231 526.494C-285.3 477.794 -286.646 427.969 -280.221 378.85L187.868 440.077L-276.231 526.494Z" fill="#FFD29B"/>
<path d="M-257.262 282.867C-240.765 236.157 -217.019 192.334 -186.895 153.008L187.869 440.077L-257.262 282.867Z" fill="#FFD29B"/>
<path d="M-119.021 81.3635C-81.3789 49.1599 -38.903 23.0817 6.84786 4.08624L187.869 440.077L-119.021 81.3635Z" fill="#FFD29B"/>
<path d="M101.452 -24.0227C150.152 -33.0909 199.977 -34.4373 249.096 -28.0124L187.869 440.077L101.452 -24.0227Z" fill="#FFD29B"/>
<path d="M345.079 -5.0539C391.789 11.443 435.612 35.1892 474.937 65.3129L187.869 440.077L345.079 -5.0539Z" fill="#FFD29B"/>
<path d="M546.582 133.187C578.786 170.829 604.864 213.305 623.86 259.056L187.869 440.077L546.582 133.187Z" fill="#FFD29B"/>
<path d="M651.968 353.659C661.037 402.36 662.383 452.184 655.958 501.303L187.869 440.077L651.968 353.659Z" fill="#FFD29B"/>
<path d="M78 426H298V478H78V426Z" fill="#FFC583"/>
<path d="M78 352H298V458H78V352Z" fill="url(#paint0_radial)"/>
<path d="M298 426C298 432.075 248.751 437 188 437C127.249 437 78 432.075 78 426C78 419.925 127.249 415 188 415C248.751 415 298 419.925 298 426Z" fill="#FFE0B7"/>
<path d="M176.12 371.611V355.688C176.12 355.326 175.973 354.979 175.71 354.723C175.447 354.467 175.091 354.324 174.719 354.324H151.747C151.376 354.324 151.019 354.467 150.757 354.723C150.494 354.979 150.346 355.326 150.346 355.688C150.346 356.05 150.494 356.397 150.757 356.653C151.019 356.909 151.376 357.053 151.747 357.053H157.728V371.611C154.736 372.058 152.013 373.551 150.069 375.811C148.125 378.071 147.093 380.943 147.165 383.89V417.81C147.165 424.632 152.461 430.212 158.974 430.212H174.859C181.373 430.212 186.682 424.645 186.682 417.81V383.945C186.768 380.988 185.742 378.103 183.797 375.831C181.852 373.56 179.122 372.059 176.12 371.611Z" fill="#FFC583"/>
<path fill-rule="evenodd" clip-rule="evenodd" d="M174.854 406.39C174.854 409.704 172.167 412.39 168.854 412.39H145.975C142.662 412.39 139.975 409.704 139.975 406.39V394.244C139.975 390.93 142.662 388.244 145.975 388.244H168.854C172.167 388.244 174.854 390.93 174.854 394.244V406.39Z" fill="#FFEFD8"/>
<path fill-rule="evenodd" clip-rule="evenodd" d="M163.224 400.16C163.224 403.668 160.409 406.518 156.93 406.518C153.452 406.518 150.641 403.668 150.641 400.16C150.641 396.651 153.456 393.796 156.935 393.796C160.413 393.796 163.224 396.651 163.224 400.16Z" fill="#EF4623"/>
<path fill-rule="evenodd" clip-rule="evenodd" d="M144.061 394.26L147.682 390.071L148.544 390.812L144.918 395.005L144.061 394.26ZM145.248 395.287L148.869 391.098L149.731 391.834L146.105 396.032L145.248 395.287Z" fill="#393E46"/>
<path fill-rule="evenodd" clip-rule="evenodd" d="M144.061 394.26L147.682 390.071L148.544 390.812L144.918 395.005L144.061 394.26Z" fill="#393E46"/>
<path fill-rule="evenodd" clip-rule="evenodd" d="M144.061 394.26L147.682 390.071L148.544 390.812L144.918 395.005L144.061 394.26ZM146.46 396.339L150.082 392.142L150.944 392.887L147.318 397.08L146.46 396.339Z" fill="#393E46"/>
<path fill-rule="evenodd" clip-rule="evenodd" d="M144.061 394.26L147.682 390.071L148.544 390.812L144.918 395.005L144.061 394.26Z" fill="#393E46"/>
<path fill-rule="evenodd" clip-rule="evenodd" d="M144.061 394.259L147.682 390.071L148.544 390.811L144.918 395.004L144.061 394.259ZM166.1 390.066L169.695 394.285L168.829 395.022L165.234 390.803L166.1 390.066ZM163.687 392.124L167.283 396.343L166.416 397.079L162.821 392.86L163.687 392.124Z" fill="#393E46"/>
<path fill-rule="evenodd" clip-rule="evenodd" d="M164.29 394.555L167.686 391.618L168.323 392.354L164.685 395.62L164.282 394.555H164.29Z" fill="#FFEFD8"/>
<path fill-rule="evenodd" clip-rule="evenodd" d="M168.475 404.899L164.992 409.048L164.139 408.338L167.621 404.188L168.475 404.899ZM164.905 391.085L168.501 395.304L167.639 396.04L164.048 391.817L164.905 391.085ZM169.657 405.882L166.17 410.032L165.312 409.321L168.799 405.171L169.657 405.882ZM167.27 403.898L163.788 408.048L162.934 407.337L166.417 403.188L167.27 403.898Z" fill="#393E46"/>
<path fill-rule="evenodd" clip-rule="evenodd" d="M150.732 399.038C150.931 400.64 151.222 402.425 153.686 402.607C154.609 402.663 156.407 402.39 157.022 399.869C157.836 397.452 160.27 396.759 161.929 398.067C162.878 398.682 163.138 399.657 163.199 400.393C163.125 402.733 161.773 404.768 160.045 405.678C158.053 406.861 155.298 406.887 152.885 405.093C151.798 404.075 150.277 402.191 150.732 399.038Z" fill="#5A81E8"/>
<path fill-rule="evenodd" clip-rule="evenodd" d="M165.087 404.838L168.492 407.766L167.859 408.502L164.086 405.392L165.083 404.838H165.087Z" fill="#FFEFD8"/>
<path fill-rule="evenodd" clip-rule="evenodd" d="M146.119 404.257L149.714 408.472L148.848 409.208L145.252 404.994L146.119 404.257Z" fill="#393E46"/>
<path fill-rule="evenodd" clip-rule="evenodd" d="M145.498 407.727L148.903 404.786L149.539 405.523L145.901 408.793L145.498 407.723V407.727Z" fill="#FFEFD8"/>
<path fill-rule="evenodd" clip-rule="evenodd" d="M147.314 403.239L150.909 407.454L150.043 408.19L146.448 403.976L147.314 403.239ZM144.901 405.297L148.497 409.511L147.63 410.248L144.035 406.033L144.901 405.297Z" fill="#393E46"/>
<line x1="157.414" y1="369.805" x2="176.195" y2="369.805" stroke="#FFE0B7" stroke-width="2"/>
<path d="M229.019 354.448C228.889 354.307 228.73 354.195 228.552 354.118C228.375 354.041 228.183 354 227.989 354H192.978C192.784 354 192.592 354.041 192.415 354.118C192.237 354.195 192.079 354.307 191.948 354.448C191.817 354.591 191.718 354.759 191.658 354.941C191.598 355.124 191.579 355.317 191.6 355.507L198.364 412.044C198.405 412.375 198.57 412.68 198.827 412.9C199.083 413.121 199.414 413.241 199.756 413.239V424.185C199.756 427.322 201.927 429.888 204.6 429.888H215.95C218.608 429.888 220.779 427.322 220.779 424.185V413.239H221.197C221.539 413.241 221.87 413.121 222.126 412.9C222.383 412.68 222.548 412.375 222.589 412.044L224.537 396.018C224.584 395.943 224.617 395.86 224.635 395.774C224.663 395.603 224.663 395.429 224.635 395.258L229.367 355.494C229.387 355.306 229.366 355.115 229.306 354.935C229.246 354.755 229.148 354.589 229.019 354.448Z" fill="#FFC583"/>
<path fill-rule="evenodd" clip-rule="evenodd" d="M234.879 390.146C234.879 393.46 232.193 396.146 228.879 396.146H206.001C202.687 396.146 200.001 393.46 200.001 390.146V378C200.001 374.686 202.687 372 206.001 372H228.879C232.193 372 234.879 374.686 234.879 378V390.146Z" fill="#EF4623"/>
<path fill-rule="evenodd" clip-rule="evenodd" d="M221.789 390.926L217.287 387.575L212.815 390.957L214.473 385.449L210.001 382.047L215.533 381.997L217.252 376.5L218.995 381.982L224.528 381.987L220.081 385.424L221.784 390.931L221.789 390.926Z" fill="#FDD13C"/>
<line x1="199.001" y1="415" x2="221.001" y2="415" stroke="#FFE0B7" stroke-width="2"/>
<line x1="246.226" y1="396.375" x2="265.826" y2="396.375" stroke="#FFEFD8" stroke-width="2"/>
<line x1="246.226" y1="390.25" x2="265.826" y2="390.25" stroke="#FFEFD8" stroke-width="2"/>
<line x1="246.226" y1="384.125" x2="265.826" y2="384.125" stroke="#FFEFD8" stroke-width="2"/>
<path d="M257.601 408.4H265.476C265.894 408.4 266.294 408.572 266.59 408.878C266.885 409.185 267.051 409.6 267.051 410.033V426.367C267.051 426.8 266.885 427.215 266.59 427.522C266.294 427.828 265.894 428 265.476 428H246.576C246.158 428 245.758 427.828 245.462 427.522C245.167 427.215 245.001 426.8 245.001 426.367V410.033C245.001 409.6 245.167 409.185 245.462 408.878C245.758 408.572 246.158 408.4 246.576 408.4H254.451V401.867H252.876C252.458 401.867 252.058 401.695 251.762 401.388C251.467 401.082 251.301 400.667 251.301 400.233V398.6V395.333V392.067V388.8V385.533V382.267V380.633C251.301 380.2 251.467 379.785 251.762 379.478C252.058 379.172 252.458 379 252.876 379H259.176C259.594 379 259.994 379.172 260.29 379.478C260.585 379.785 260.751 380.2 260.751 380.633V382.267V385.533V388.8V392.067V395.333V398.6V400.233C260.751 400.667 260.585 401.082 260.29 401.388C259.994 401.695 259.594 401.867 259.176 401.867H257.601V408.4Z" fill="#FFC583"/>
<path fill-rule="evenodd" clip-rule="evenodd" d="M293.879 413.146C293.879 416.46 291.193 419.146 287.879 419.146H265.001C261.687 419.146 259.001 416.46 259.001 413.146V401C259.001 397.686 261.687 395 265.001 395H287.879C291.193 395 293.879 397.686 293.879 401V413.146Z" fill="#FFEFD8"/>
<circle cx="276.001" cy="407" r="7" fill="#EF4623"/>
<path fill-rule="evenodd" clip-rule="evenodd" d="M112.852 395.333H114.616V380.604C114.616 380.287 114.703 379.977 114.864 379.713C115.026 379.449 115.255 379.243 115.524 379.122C115.792 379.001 116.088 378.969 116.373 379.031C116.658 379.093 116.92 379.245 117.126 379.47L123.006 385.887C123.281 386.187 123.436 386.595 123.436 387.021V395.333H125.2C125.609 395.333 126.002 395.518 126.292 395.846C126.581 396.174 126.744 396.619 126.744 397.083V404.667H130.051V426.333C130.051 426.775 129.885 427.199 129.59 427.512C129.294 427.824 128.894 428 128.476 428H109.576C109.158 428 108.758 427.824 108.462 427.512C108.167 427.199 108.001 426.775 108.001 426.333V404.667H111.309V397.083C111.309 396.619 111.471 396.174 111.761 395.846C112.05 395.518 112.443 395.333 112.852 395.333Z" fill="#FFC583"/>
<mask id="mask1" mask-type="alpha" maskUnits="userSpaceOnUse" x="108" y="379" width="23" height="49">
<path fill-rule="evenodd" clip-rule="evenodd" d="M112.852 395.333H114.616V380.604C114.616 380.287 114.703 379.977 114.864 379.713C115.026 379.449 115.255 379.243 115.524 379.122C115.792 379.001 116.088 378.969 116.373 379.031C116.658 379.093 116.92 379.245 117.126 379.47L123.006 385.887C123.281 386.187 123.436 386.595 123.436 387.021V395.333H125.2C125.609 395.333 126.002 395.518 126.292 395.846C126.581 396.174 126.744 396.619 126.744 397.083V404.667H130.051V426.333C130.051 426.775 129.885 427.199 129.59 427.512C129.294 427.824 128.894 428 128.476 428H109.576C109.158 428 108.758 427.824 108.462 427.512C108.167 427.199 108.001 426.775 108.001 426.333V404.667H111.309V397.083C111.309 396.619 111.471 396.174 111.761 395.846C112.05 395.518 112.443 395.333 112.852 395.333Z" fill="#FAC1C5"/>
</mask>
<g mask="url(#mask1)">
<line x1="110.316" y1="403.664" x2="127.68" y2="403.664" stroke="#FFE0B7" stroke-width="2"/>
<line x1="109.159" y1="394.317" x2="126.523" y2="394.317" stroke="#FFE0B7" stroke-width="2"/>
</g>
<g clip-path="url(#clip0)">
<path fill-rule="evenodd" clip-rule="evenodd" d="M81.0009 400H130.705V402.013H81.0009V400ZM81.0009 404.026H130.705V406.039H81.0009V404.026ZM81.0009 408.047H130.705V410.065H81.0009V408.047ZM81.0009 412.073H130.705V414.087H81.0009V412.073ZM81.0009 416.1H130.705V418.113H81.0009V416.1ZM81.0009 420.121H130.705V422.134H81.0009V420.121Z" fill="#D54343"/>
<path fill-rule="evenodd" clip-rule="evenodd" d="M81.0009 402.013H130.705V404.026H81.0009V402.013ZM81.0009 406.039H130.705V408.047H81.0009V406.039ZM81.0009 410.06H130.705V412.074H81.0009V410.06ZM81.0009 414.087H130.705V416.1H81.0009V414.087ZM81.0009 418.113H130.705V420.126H81.0009V418.113ZM81.0009 422.134H130.705V424.147H81.0009V422.134Z" fill="#FFEFD8"/>
<path fill-rule="evenodd" clip-rule="evenodd" d="M81.0009 400H100.881V414.087H81.0009V400Z" fill="#393E46"/>
<path fill-rule="evenodd" clip-rule="evenodd" d="M82.6563 400.603L82.8402 401.16H83.4227L82.9526 401.502L83.1315 402.064L82.6563 401.717L82.1862 402.059L82.3651 401.502L81.8899 401.16H82.4826L82.6563 400.603ZM85.9723 400.603L86.1511 401.16H86.7387L86.2635 401.502L86.4423 402.064L85.9723 401.717L85.4971 402.059L85.6759 401.502L85.2059 401.16H85.7883L85.9723 400.603ZM89.2832 400.603L89.4671 401.16H90.0445L89.5744 401.502L89.7532 402.064L89.278 401.717L88.808 402.059L88.9868 401.502L88.5116 401.16H89.0992L89.2832 400.603ZM92.5991 400.603L92.778 401.16H93.3656L92.8904 401.502L93.0743 402.064L92.5991 401.717L92.124 402.059L92.3079 401.502L91.8327 401.16H92.4152L92.5991 400.603ZM95.91 400.603L96.094 401.16H96.6764L96.2064 401.502L96.3852 402.064L95.91 401.717L95.44 402.059L95.6188 401.502L95.1487 401.16H95.7312L95.91 400.603ZM99.226 400.603L99.4048 401.16H99.9924L99.5172 401.502L99.7012 402.064L99.226 401.717L98.7508 402.059L98.9348 401.502L98.4596 401.16H99.0472L99.226 400.603ZM84.3168 402.013L84.4957 402.57H85.0833L84.6081 402.912L84.7818 403.469L84.322 403.127L83.8468 403.469L84.0154 402.912L83.5555 402.57H84.138L84.3168 402.013ZM87.6277 402.013L87.8117 402.57H88.3941L87.919 402.912L88.1029 403.469L87.6277 403.127L87.1525 403.469L87.3365 402.912L86.8613 402.57H87.4489L87.6277 402.013ZM90.9437 402.013L91.1225 402.57H91.7101L91.2349 402.912L91.4138 403.469L90.9437 403.127L90.4685 403.469L90.6474 402.912L90.1773 402.57H90.7598L90.9437 402.013ZM94.2546 402.013L94.4385 402.57H95.021L94.5458 402.912L94.7298 403.469L94.2546 403.127L93.7845 403.469L93.9633 402.912L93.4882 402.57H94.0809L94.2546 402.013ZM97.5706 402.013L97.7494 402.57H98.337L97.8618 402.912L98.0406 403.469L97.5706 403.127L97.0954 403.469L97.2742 402.912L96.8042 402.57H97.3866L97.5706 402.013ZM82.6563 403.418L82.8402 403.985H83.4227L82.9526 404.328L83.1315 404.885L82.6563 404.537L82.1862 404.885L82.3651 404.323L81.8899 403.98H82.4826L82.6563 403.418ZM85.9723 403.418L86.1511 403.98H86.7387L86.2635 404.323L86.4423 404.88L85.9723 404.532L85.4971 404.88L85.6759 404.318L85.2059 403.975H85.7883L85.9723 403.418ZM89.2832 403.418L89.4671 403.98H90.0445L89.5744 404.323L89.7532 404.88L89.278 404.532L88.808 404.88L88.9868 404.318L88.5116 403.975H89.0992L89.2832 403.418ZM92.5991 403.418L92.778 403.98H93.3656L92.8904 404.323L93.0743 404.88L92.5991 404.532L92.124 404.88L92.3079 404.318L91.8327 403.975H92.4152L92.5991 403.418ZM95.91 403.418L96.094 403.98H96.6764L96.2064 404.323L96.3852 404.88L95.91 404.532L95.44 404.88L95.6188 404.318L95.1487 403.975H95.7312L95.91 403.418ZM99.226 403.418L99.4048 403.98H99.9924L99.5172 404.323L99.7012 404.88L99.226 404.532L98.7508 404.88L98.9348 404.318L98.4596 403.975H99.0472L99.226 403.418ZM84.3168 404.828L84.4957 405.385H85.0833L84.6081 405.728L84.7869 406.29L84.3168 405.942L83.8417 406.285L84.0205 405.728L83.5504 405.385H84.1329L84.3168 404.828ZM87.6277 404.828L87.8117 405.385H88.3941L87.919 405.728L88.1029 406.29L87.6277 405.942L87.1525 406.285L87.3365 405.728L86.8613 405.385H87.4489L87.6277 404.828ZM90.9437 404.828L91.1225 405.385H91.7101L91.2349 405.728L91.4138 406.29L90.9437 405.942L90.4685 406.285L90.6474 405.728L90.1773 405.385H90.7598L90.9437 404.828ZM94.2546 404.828L94.4385 405.385H95.021L94.5509 405.728L94.7298 406.29L94.2546 405.942L93.7845 406.285L93.9633 405.728L93.4882 405.385H94.0809L94.2546 404.828ZM97.5706 404.828L97.7494 405.385H98.337L97.8618 405.728L98.0406 406.29L97.5706 405.942L97.0954 406.285L97.2742 405.728L96.8042 405.385H97.3866L97.5706 404.828ZM82.6563 406.239L82.8402 406.796H83.4227L82.9526 407.138L83.1315 407.7L82.6563 407.353L82.1862 407.695L82.3651 407.138L81.8899 406.796H82.4826L82.6563 406.239ZM85.9723 406.239L86.1511 406.796H86.7387L86.2635 407.138L86.4423 407.695L85.9723 407.353L85.4971 407.695L85.6759 407.138L85.2059 406.796H85.7883L85.9723 406.239ZM89.2832 406.239L89.4671 406.796H90.0445L89.5744 407.138L89.7532 407.7L89.278 407.353L88.808 407.695L88.9868 407.138L88.5116 406.796H89.0992L89.2832 406.239ZM92.5991 406.239L92.778 406.796H93.3656L92.8904 407.138L93.0743 407.7L92.5991 407.353L92.124 407.695L92.3079 407.138L91.8327 406.796H92.4152L92.5991 406.239ZM95.91 406.239L96.094 406.796H96.6764L96.2064 407.138L96.3852 407.7L95.91 407.353L95.44 407.695L95.6188 407.138L95.1487 406.796H95.7312L95.91 406.239ZM99.226 406.239L99.4048 406.796H99.9924L99.5172 407.138L99.7012 407.7L99.226 407.353L98.7508 407.695L98.9348 407.138L98.4596 406.796H99.0472L99.226 406.239ZM84.3168 407.649L84.4957 408.206H85.0833L84.6081 408.548L84.7869 409.105L84.3168 408.758L83.8417 409.105L84.0205 408.543L83.5504 408.201H84.1329L84.3168 407.649ZM87.6277 407.649L87.8117 408.206H88.3941L87.919 408.548L88.1029 409.105L87.6277 408.758L87.1525 409.105L87.3365 408.543L86.8613 408.201H87.4489L87.6277 407.649ZM90.9437 407.649L91.1225 408.206H91.7101L91.2349 408.548L91.4138 409.105L90.9437 408.758L90.4685 409.105L90.6474 408.543L90.1773 408.201H90.7598L90.9437 407.649ZM94.2546 407.649L94.4385 408.206H95.021L94.5509 408.548L94.7298 409.105L94.2546 408.758L93.7845 409.105L93.9633 408.543L93.4882 408.201H94.0809L94.2546 407.649ZM97.5706 407.649L97.7494 408.206H98.337L97.8618 408.548L98.0406 409.105L97.5706 408.758L97.0954 409.105L97.2742 408.543L96.8042 408.201H97.3866L97.5706 407.649ZM82.6563 409.054L82.8402 409.616H83.4227L82.9526 409.958L83.1315 410.51L82.6563 410.168L82.1862 410.51L82.3651 409.953L81.8899 409.611H82.4826L82.6563 409.054ZM85.9723 409.054L86.1511 409.616H86.7387L86.2635 409.958L86.4475 410.51L85.9723 410.168L85.4971 410.51L85.681 409.953L85.2059 409.611H85.7883L85.9723 409.054ZM89.2832 409.054L89.4671 409.616H90.0445L89.5744 409.958L89.7532 410.51L89.278 410.168L88.808 410.51L88.9868 409.953L88.5116 409.611H89.0992L89.2832 409.054ZM92.5991 409.054L92.778 409.616H93.3656L92.8904 409.958L93.0743 410.51L92.5991 410.168L92.124 410.51L92.3079 409.953L91.8327 409.611H92.4152L92.5991 409.054ZM95.91 409.054L96.094 409.616H96.6764L96.2064 409.958L96.3852 410.51L95.91 410.168L95.44 410.51L95.6188 409.953L95.1487 409.611H95.7312L95.91 409.054ZM99.226 409.054L99.4048 409.616H99.9924L99.5172 409.958L99.7012 410.51L99.226 410.168L98.7508 410.51L98.9348 409.953L98.4596 409.611H99.0472L99.226 409.054ZM84.3168 410.464L84.4957 411.021H85.0833L84.6081 411.363L84.7869 411.925L84.3168 411.578L83.8417 411.92L84.0205 411.363L83.5504 411.021H84.1329L84.3168 410.464ZM87.6277 410.464L87.8117 411.021H88.3941L87.919 411.363L88.1029 411.925L87.6277 411.578L87.1525 411.92L87.3365 411.363L86.8613 411.021H87.4489L87.6277 410.464ZM90.9437 410.464L91.1225 411.021H91.7101L91.2349 411.363L91.4138 411.925L90.9437 411.578L90.4685 411.92L90.6474 411.363L90.1773 411.021H90.7598L90.9437 410.464ZM94.2546 410.464L94.4385 411.021H95.021L94.5509 411.363L94.7298 411.925L94.2546 411.578L93.7845 411.92L93.9633 411.363L93.4882 411.021H94.0809L94.2546 410.464ZM97.5706 410.464L97.7494 411.021H98.337L97.8618 411.363L98.0406 411.925L97.5706 411.578L97.0954 411.92L97.2742 411.363L96.8042 411.021H97.3866L97.5706 410.464ZM82.6563 411.874L82.8402 412.431H83.4227L82.9526 412.774L83.1315 413.33L82.6563 412.988L82.1862 413.33L82.3651 412.768L81.8899 412.426H82.4826L82.6563 411.874ZM85.9723 411.874L86.1511 412.431H86.7387L86.2635 412.774L86.4475 413.33L85.9723 412.988L85.4971 413.33L85.681 412.768L85.2059 412.426H85.7883L85.9723 411.874ZM89.2832 411.874L89.4671 412.431H90.0445L89.5846 412.774L89.7634 413.33L89.2883 412.988L88.8182 413.33L88.997 412.768L88.5219 412.426H89.1094L89.2832 411.874ZM92.5991 411.874L92.778 412.431H93.3656L92.8904 412.774L93.0743 413.33L92.5991 412.988L92.124 413.33L92.3079 412.768L91.8327 412.426H92.4152L92.5991 411.874ZM95.91 411.874L96.094 412.431H96.6764L96.2064 412.774L96.3852 413.33L95.91 412.988L95.44 413.33L95.6188 412.768L95.1487 412.426H95.7312L95.91 411.874ZM99.226 411.874L99.4048 412.431H99.9924L99.5172 412.774L99.7012 413.33L99.226 412.988L98.7508 413.33L98.9348 412.768L98.4596 412.426H99.0472L99.226 411.874Z" fill="#FFEFD8"/>
</g>
</g>
<defs>
<radialGradient id="paint0_radial" cx="0" cy="0" r="1" gradientUnits="userSpaceOnUse" gradientTransform="translate(188 405) rotate(90) scale(53 116.21)">
<stop stop-color="#FFD29B"/>
<stop offset="1" stop-color="#FFD29B" stop-opacity="0"/>
</radialGradient>
<clipPath id="clip0">
<rect x="81.0009" y="400" width="35" height="24" rx="6" fill="white"/>
</clipPath>
</defs>
</svg>
