<svg width="220" height="130" viewBox="0 0 220 130" fill="none" xmlns="http://www.w3.org/2000/svg">
<path d="M0 78H220V130H0V78Z" fill="#FFC583"/>
<path d="M0 4H220V110H0V4Z" fill="url(#paint0_radial)"/>
<path d="M220 78C220 84.0751 170.751 89 110 89C49.2487 89 0 84.0751 0 78C0 71.9249 49.2487 67 110 67C170.751 67 220 71.9249 220 78Z" fill="#FFE0B7"/>
<path d="M98.1201 23.6108V7.68814C98.1201 7.32628 97.9725 6.97923 97.7098 6.72336C97.4471 6.46748 97.0908 6.32373 96.7193 6.32373H73.7473C73.3758 6.32373 73.0195 6.46748 72.7568 6.72336C72.494 6.97923 72.3465 7.32628 72.3465 7.68814C72.3465 8.05 72.494 8.39705 72.7568 8.65292C73.0195 8.9088 73.3758 9.05255 73.7473 9.05255H79.7276V23.6108C76.7356 24.0577 74.0131 25.5507 72.0692 27.8107C70.1253 30.0707 69.0931 32.943 69.1655 35.8905V69.8097C69.1655 76.6318 74.4605 82.2122 80.9743 82.2122H96.8594C103.373 82.2122 108.682 76.6454 108.682 69.8097V35.9451C108.768 32.9883 107.742 30.1028 105.797 27.8313C103.852 25.5597 101.122 24.0588 98.1201 23.6108Z" fill="#FFC583"/>
<path fill-rule="evenodd" clip-rule="evenodd" d="M96.8535 58.39C96.8535 61.7037 94.1672 64.39 90.8535 64.39H67.9755C64.6618 64.39 61.9755 61.7037 61.9755 58.39V46.2437C61.9755 42.93 64.6618 40.2437 67.9755 40.2437H90.8535C94.1672 40.2437 96.8535 42.9299 96.8535 46.2437V58.39Z" fill="#FFEFD8"/>
<path fill-rule="evenodd" clip-rule="evenodd" d="M85.2242 52.1596C85.2242 55.6682 82.4086 58.5185 78.9303 58.5185C75.452 58.5185 72.6407 55.6682 72.6407 52.1596C72.6407 48.6509 75.4563 45.7964 78.9346 45.7964C82.4129 45.7964 85.2242 48.6509 85.2242 52.1596Z" fill="#EF4623"/>
<path fill-rule="evenodd" clip-rule="evenodd" d="M66.0607 46.26L69.682 42.0713L70.544 42.812L66.9184 47.005L66.0607 46.26ZM67.2476 47.2866L70.8688 43.0979L71.7308 43.8343L68.1052 48.0317L67.2476 47.2866Z" fill="#393E46"/>
<path fill-rule="evenodd" clip-rule="evenodd" d="M66.0607 46.26L69.682 42.0713L70.544 42.812L66.9184 47.005L66.0607 46.26Z" fill="#393E46"/>
<path fill-rule="evenodd" clip-rule="evenodd" d="M66.0607 46.26L69.682 42.0713L70.544 42.812L66.9184 47.005L66.0607 46.26ZM68.4604 48.3392L72.0817 44.1418L72.9437 44.8869L69.3181 49.0799L68.4604 48.3392Z" fill="#393E46"/>
<path fill-rule="evenodd" clip-rule="evenodd" d="M66.0607 46.26L69.682 42.0713L70.544 42.812L66.9184 47.005L66.0607 46.26Z" fill="#393E46"/>
<path fill-rule="evenodd" clip-rule="evenodd" d="M66.0607 46.2594L69.682 42.0707L70.544 42.8114L66.9184 47.0045L66.0607 46.2594ZM88.1001 42.0664L91.6954 46.2854L90.8291 47.0218L87.2338 42.8028L88.1001 42.0664ZM85.6874 44.1239L89.2827 48.343L88.4163 49.0793L84.8211 44.8603L85.6874 44.1239Z" fill="#393E46"/>
<path fill-rule="evenodd" clip-rule="evenodd" d="M86.2904 46.5545L89.6864 43.6177L90.3232 44.3541L86.6846 47.6201L86.2817 46.5545H86.2904Z" fill="#FFEFD8"/>
<path fill-rule="evenodd" clip-rule="evenodd" d="M90.4746 56.8986L86.9919 61.0483L86.1386 60.3379L89.6212 56.1882L90.4746 56.8986ZM86.9053 43.085L90.5005 47.304L89.6385 48.0404L86.0476 43.817L86.9053 43.085ZM91.6571 57.8819L88.1701 62.0316L87.3124 61.3212L90.7994 57.1715L91.6571 57.8819ZM89.2703 55.898L85.7877 60.0477L84.9344 59.3373L88.417 55.1876L89.2703 55.898Z" fill="#393E46"/>
<path fill-rule="evenodd" clip-rule="evenodd" d="M72.7321 51.0377C72.9314 52.6404 73.2216 54.425 75.6863 54.6069C76.6089 54.6632 78.4066 54.3904 79.0217 51.8693C79.836 49.4523 82.2704 48.7592 83.9294 50.0674C84.8781 50.6825 85.138 51.6571 85.1986 52.3935C85.125 54.7326 83.7735 56.7684 82.0452 57.6781C80.0526 58.8606 77.2977 58.8866 74.8849 57.0933C73.7977 56.0754 72.2773 54.1911 72.7321 51.0377Z" fill="#5A81E8"/>
<path fill-rule="evenodd" clip-rule="evenodd" d="M87.0869 56.8379L90.4916 59.7661L89.8592 60.5025L86.0863 57.3923L87.0826 56.8379H87.0869Z" fill="#FFEFD8"/>
<path fill-rule="evenodd" clip-rule="evenodd" d="M68.1188 56.2573L71.714 60.472L70.8477 61.2084L67.2524 56.9937L68.1188 56.2573Z" fill="#393E46"/>
<path fill-rule="evenodd" clip-rule="evenodd" d="M67.4979 59.7273L70.9025 56.7861L71.5393 57.5225L67.9007 60.7929L67.4979 59.723V59.7273Z" fill="#FFEFD8"/>
<path fill-rule="evenodd" clip-rule="evenodd" d="M69.3141 55.2393L72.9094 59.454L72.043 60.1903L68.4478 55.9756L69.3141 55.2393ZM66.9014 57.2968L70.4966 61.5115L69.6303 62.2479L66.035 58.0332L66.9014 57.2968Z" fill="#393E46"/>
<line x1="79.4145" y1="21.8047" x2="98.1949" y2="21.8047" stroke="#FFE0B7" stroke-width="2"/>
<path d="M151.019 6.44816C150.889 6.30748 150.73 6.19492 150.552 6.11774C150.375 6.04055 150.183 6.00045 149.989 6H114.978C114.784 6.00045 114.592 6.04055 114.415 6.11774C114.237 6.19492 114.079 6.30748 113.948 6.44816C113.817 6.59076 113.718 6.75887 113.658 6.94145C113.598 7.12402 113.579 7.31692 113.6 7.50745L120.364 64.0436C120.405 64.3748 120.57 64.6797 120.827 64.9002C121.083 65.1206 121.414 65.2411 121.756 65.2387V76.1846C121.756 79.3218 123.927 81.8885 126.6 81.8885H137.95C140.608 81.8885 142.779 79.3218 142.779 76.1846V65.2387H143.197C143.539 65.2411 143.87 65.1206 144.126 64.9002C144.383 64.6797 144.548 64.3748 144.589 64.0436L146.537 48.0184C146.584 47.9431 146.617 47.8604 146.635 47.774C146.663 47.603 146.663 47.4289 146.635 47.2579L151.367 7.49387C151.387 7.30553 151.366 7.11521 151.306 6.93512C151.246 6.75504 151.148 6.58917 151.019 6.44816Z" fill="#FFC583"/>
<path fill-rule="evenodd" clip-rule="evenodd" d="M156.879 42.1463C156.879 45.46 154.193 48.1463 150.879 48.1463H128.001C124.687 48.1463 122.001 45.46 122.001 42.1463V30C122.001 26.6863 124.687 24 128.001 24L150.879 24C154.193 24 156.879 26.6863 156.879 30V42.1463Z" fill="#EF4623"/>
<path fill-rule="evenodd" clip-rule="evenodd" d="M143.789 42.9264L139.287 39.5748L134.815 42.9566L136.473 37.4493L132.001 34.0475L137.533 33.9972L139.252 28.5L140.995 33.9821L146.528 33.9872L142.081 37.4242L143.784 42.9314L143.789 42.9264Z" fill="#FDD13C"/>
<line x1="121.001" y1="67" x2="143.001" y2="67" stroke="#FFE0B7" stroke-width="2"/>
<line x1="168.226" y1="48.375" x2="187.826" y2="48.375" stroke="#FFEFD8" stroke-width="2"/>
<line x1="168.226" y1="42.25" x2="187.826" y2="42.25" stroke="#FFEFD8" stroke-width="2"/>
<line x1="168.226" y1="36.125" x2="187.826" y2="36.125" stroke="#FFEFD8" stroke-width="2"/>
<path d="M179.601 60.4H187.476C187.894 60.4 188.294 60.5721 188.59 60.8784C188.885 61.1847 189.051 61.6001 189.051 62.0333V78.3667C189.051 78.7999 188.885 79.2153 188.59 79.5216C188.294 79.8279 187.894 80 187.476 80H168.576C168.158 80 167.758 79.8279 167.462 79.5216C167.167 79.2153 167.001 78.7999 167.001 78.3667V62.0333C167.001 61.6001 167.167 61.1847 167.462 60.8784C167.758 60.5721 168.158 60.4 168.576 60.4H176.451V53.8667H174.876C174.458 53.8667 174.058 53.6946 173.762 53.3883C173.467 53.082 173.301 52.6665 173.301 52.2333V50.6V47.3333V44.0667V40.8V37.5333V34.2667V32.6333C173.301 32.2001 173.467 31.7847 173.762 31.4784C174.058 31.1721 174.458 31 174.876 31H181.176C181.594 31 181.994 31.1721 182.29 31.4784C182.585 31.7847 182.751 32.2001 182.751 32.6333V34.2667V37.5333V40.8V44.0667V47.3333V50.6V52.2333C182.751 52.6665 182.585 53.082 182.29 53.3883C181.994 53.6946 181.594 53.8667 181.176 53.8667H179.601V60.4Z" fill="#FFC583"/>
<path fill-rule="evenodd" clip-rule="evenodd" d="M215.879 65.1463C215.879 68.46 213.193 71.1463 209.879 71.1463H187.001C183.687 71.1463 181.001 68.46 181.001 65.1463V53C181.001 49.6863 183.687 47 187.001 47H209.879C213.193 47 215.879 49.6863 215.879 53V65.1463Z" fill="#FFEFD8"/>
<circle cx="198.001" cy="59" r="7" fill="#EF4623"/>
<path fill-rule="evenodd" clip-rule="evenodd" d="M34.8521 47.3332H36.6163V32.6039C36.6164 32.2866 36.7026 31.9765 36.8642 31.7128C37.0257 31.449 37.2553 31.2435 37.5238 31.1221C37.7924 31.0007 38.0879 30.9689 38.373 31.0308C38.6581 31.0927 38.92 31.2454 39.1256 31.4697L45.0056 37.8865C45.2813 38.1873 45.4362 38.5953 45.4363 39.0207V47.3332H47.2001C47.6095 47.3332 48.002 47.5176 48.2915 47.8458C48.581 48.174 48.7436 48.6191 48.7436 49.0832V56.6667H52.0509V78.3333C52.0509 78.7754 51.8849 79.1993 51.5895 79.5119C51.2942 79.8244 50.8936 80 50.4759 80H31.5759C31.1581 80 30.7575 79.8244 30.4622 79.5119C30.1668 79.1993 30.0009 78.7754 30.0009 78.3333V56.6667H33.3086V49.0832C33.3086 48.6191 33.4712 48.174 33.7607 47.8458C34.0501 47.5176 34.4427 47.3332 34.8521 47.3332Z" fill="#FFC583"/>
<mask id="mask0" mask-type="alpha" maskUnits="userSpaceOnUse" x="30" y="31" width="23" height="49">
<path fill-rule="evenodd" clip-rule="evenodd" d="M34.8521 47.3332H36.6163V32.6039C36.6164 32.2866 36.7026 31.9765 36.8642 31.7128C37.0257 31.449 37.2553 31.2435 37.5238 31.1221C37.7924 31.0007 38.0879 30.9689 38.373 31.0308C38.6581 31.0927 38.92 31.2454 39.1256 31.4697L45.0056 37.8865C45.2813 38.1873 45.4362 38.5953 45.4363 39.0207V47.3332H47.2001C47.6095 47.3332 48.002 47.5176 48.2915 47.8458C48.581 48.174 48.7436 48.6191 48.7436 49.0832V56.6667H52.0509V78.3333C52.0509 78.7754 51.8849 79.1993 51.5895 79.5119C51.2942 79.8244 50.8936 80 50.4759 80H31.5759C31.1581 80 30.7575 79.8244 30.4622 79.5119C30.1668 79.1993 30.0009 78.7754 30.0009 78.3333V56.6667H33.3086V49.0832C33.3086 48.6191 33.4712 48.174 33.7607 47.8458C34.0501 47.5176 34.4427 47.3332 34.8521 47.3332Z" fill="#FAC1C5"/>
</mask>
<g mask="url(#mask0)">
<line x1="32.3157" y1="55.6636" x2="49.68" y2="55.6636" stroke="#FFE0B7" stroke-width="2"/>
<line x1="31.1589" y1="46.3169" x2="48.5232" y2="46.3169" stroke="#FFE0B7" stroke-width="2"/>
</g>
<g clip-path="url(#clip0)">
<path fill-rule="evenodd" clip-rule="evenodd" d="M3.00085 52H52.7049V54.0131H3.00085V52ZM3.00085 56.0262H52.7049V58.0393H3.00085V56.0262ZM3.00085 60.0473H52.7049V62.0655H3.00085V60.0473ZM3.00085 64.0735H52.7049V66.0865H3.00085V64.0735ZM3.00085 68.0996H52.7049V70.1127H3.00085V68.0996ZM3.00085 72.1207H52.7049V74.1338H3.00085V72.1207Z" fill="#D54343"/>
<path fill-rule="evenodd" clip-rule="evenodd" d="M3.00085 54.0132H52.7049V56.0263H3.00085V54.0132ZM3.00085 58.0394H52.7049V60.0474H3.00085V58.0394ZM3.00085 62.0604H52.7049V64.0735H3.00085V62.0604ZM3.00085 66.0866H52.7049V68.0997H3.00085V66.0866ZM3.00085 70.1128H52.7049V72.1259H3.00085V70.1128ZM3.00085 74.1339H52.7049V76.147H3.00085V74.1339Z" fill="#FFEFD8"/>
<path fill-rule="evenodd" clip-rule="evenodd" d="M3.00085 52H22.8814V66.0865H3.00085V52Z" fill="#393E46"/>
<path fill-rule="evenodd" clip-rule="evenodd" d="M4.6563 52.603L4.84024 53.1599H5.42271L4.95264 53.5023L5.13147 54.0643L4.6563 53.7169L4.18624 54.0592L4.36506 53.5023L3.88989 53.1599H4.48258L4.6563 52.603ZM7.97228 52.603L8.15111 53.1599H8.73869L8.26352 53.5023L8.44235 54.0643L7.97228 53.7169L7.49711 54.0592L7.67594 53.5023L7.20588 53.1599H7.78835L7.97228 52.603ZM11.2832 52.603L11.4671 53.1599H12.0445L11.5744 53.5023L11.7532 54.0643L11.278 53.7169L10.808 54.0592L10.9868 53.5023L10.5116 53.1599H11.0992L11.2832 52.603ZM14.5991 52.603L14.778 53.1599H15.3656L14.8904 53.5023L15.0743 54.0643L14.5991 53.7169L14.124 54.0592L14.3079 53.5023L13.8327 53.1599H14.4152L14.5991 52.603ZM17.91 52.603L18.094 53.1599H18.6764L18.2064 53.5023L18.3852 54.0643L17.91 53.7169L17.44 54.0592L17.6188 53.5023L17.1487 53.1599H17.7312L17.91 52.603ZM21.226 52.603L21.4048 53.1599H21.9924L21.5172 53.5023L21.7012 54.0643L21.226 53.7169L20.7508 54.0592L20.9348 53.5023L20.4596 53.1599H21.0472L21.226 52.603ZM6.31685 54.0132L6.49567 54.5701H7.08325L6.60808 54.9125L6.7818 55.4694L6.32196 55.1271L5.84678 55.4694L6.01539 54.9125L5.55555 54.5701H6.13802L6.31685 54.0132ZM9.62772 54.0132L9.81166 54.5701H10.3941L9.91896 54.9125L10.1029 55.4694L9.62772 55.1271L9.15255 55.4694L9.33649 54.9125L8.86131 54.5701H9.44889L9.62772 54.0132ZM12.9437 54.0132L13.1225 54.5701H13.7101L13.2349 54.9125L13.4138 55.4694L12.9437 55.1271L12.4685 55.4694L12.6474 54.9125L12.1773 54.5701H12.7598L12.9437 54.0132ZM16.2546 54.0132L16.4385 54.5701H17.021L16.5458 54.9125L16.7298 55.4694L16.2546 55.1271L15.7845 55.4694L15.9633 54.9125L15.4882 54.5701H16.0809L16.2546 54.0132ZM19.5706 54.0132L19.7494 54.5701H20.337L19.8618 54.9125L20.0406 55.4694L19.5706 55.1271L19.0954 55.4694L19.2742 54.9125L18.8042 54.5701H19.3866L19.5706 54.0132ZM4.6563 55.4183L4.84024 55.9854H5.42271L4.95264 56.3278L5.13147 56.8847L4.6563 56.5372L4.18624 56.8847L4.36506 56.3227L3.88989 55.9803H4.48258L4.6563 55.4183ZM7.97228 55.4183L8.15111 55.9803H8.73869L8.26352 56.3227L8.44235 56.8796L7.97228 56.5321L7.49711 56.8796L7.67594 56.3175L7.20588 55.9752H7.78835L7.97228 55.4183ZM11.2832 55.4183L11.4671 55.9803H12.0445L11.5744 56.3227L11.7532 56.8796L11.278 56.5321L10.808 56.8796L10.9868 56.3175L10.5116 55.9752H11.0992L11.2832 55.4183ZM14.5991 55.4183L14.778 55.9803H15.3656L14.8904 56.3227L15.0743 56.8796L14.5991 56.5321L14.124 56.8796L14.3079 56.3175L13.8327 55.9752H14.4152L14.5991 55.4183ZM17.91 55.4183L18.094 55.9803H18.6764L18.2064 56.3227L18.3852 56.8796L17.91 56.5321L17.44 56.8796L17.6188 56.3175L17.1487 55.9752H17.7312L17.91 55.4183ZM21.226 55.4183L21.4048 55.9803H21.9924L21.5172 56.3227L21.7012 56.8796L21.226 56.5321L20.7508 56.8796L20.9348 56.3175L20.4596 55.9752H21.0472L21.226 55.4183ZM6.31685 56.8285L6.49567 57.3854H7.08325L6.60808 57.7277L6.78691 58.2898L6.31685 57.9423L5.84167 58.2846L6.0205 57.7277L5.55044 57.3854H6.13291L6.31685 56.8285ZM9.62772 56.8285L9.81166 57.3854H10.3941L9.91896 57.7277L10.1029 58.2898L9.62772 57.9423L9.15255 58.2846L9.33649 57.7277L8.86131 57.3854H9.44889L9.62772 56.8285ZM12.9437 56.8285L13.1225 57.3854H13.7101L13.2349 57.7277L13.4138 58.2898L12.9437 57.9423L12.4685 58.2846L12.6474 57.7277L12.1773 57.3854H12.7598L12.9437 56.8285ZM16.2546 56.8285L16.4385 57.3854H17.021L16.5509 57.7277L16.7298 58.2898L16.2546 57.9423L15.7845 58.2846L15.9633 57.7277L15.4882 57.3854H16.0809L16.2546 56.8285ZM19.5706 56.8285L19.7494 57.3854H20.337L19.8618 57.7277L20.0406 58.2898L19.5706 57.9423L19.0954 58.2846L19.2742 57.7277L18.8042 57.3854H19.3866L19.5706 56.8285ZM4.6563 58.2387L4.84024 58.7956H5.42271L4.95264 59.1379L5.13147 59.6999L4.6563 59.3525L4.18624 59.6948L4.36506 59.1379L3.88989 58.7956H4.48258L4.6563 58.2387ZM7.97228 58.2387L8.15111 58.7956H8.73869L8.26352 59.1379L8.44235 59.6948L7.97228 59.3525L7.49711 59.6948L7.67594 59.1379L7.20588 58.7956H7.78835L7.97228 58.2387ZM11.2832 58.2387L11.4671 58.7956H12.0445L11.5744 59.1379L11.7532 59.6999L11.278 59.3525L10.808 59.6948L10.9868 59.1379L10.5116 58.7956H11.0992L11.2832 58.2387ZM14.5991 58.2387L14.778 58.7956H15.3656L14.8904 59.1379L15.0743 59.6999L14.5991 59.3525L14.124 59.6948L14.3079 59.1379L13.8327 58.7956H14.4152L14.5991 58.2387ZM17.91 58.2387L18.094 58.7956H18.6764L18.2064 59.1379L18.3852 59.6999L17.91 59.3525L17.44 59.6948L17.6188 59.1379L17.1487 58.7956H17.7312L17.91 58.2387ZM21.226 58.2387L21.4048 58.7956H21.9924L21.5172 59.1379L21.7012 59.6999L21.226 59.3525L20.7508 59.6948L20.9348 59.1379L20.4596 58.7956H21.0472L21.226 58.2387ZM6.31685 59.6489L6.49567 60.2058H7.08325L6.60808 60.5481L6.78691 61.105L6.31685 60.7576L5.84167 61.105L6.0205 60.543L5.55044 60.2007H6.13291L6.31685 59.6489ZM9.62772 59.6489L9.81166 60.2058H10.3941L9.91896 60.5481L10.1029 61.105L9.62772 60.7576L9.15255 61.105L9.33649 60.543L8.86131 60.2007H9.44889L9.62772 59.6489ZM12.9437 59.6489L13.1225 60.2058H13.7101L13.2349 60.5481L13.4138 61.105L12.9437 60.7576L12.4685 61.105L12.6474 60.543L12.1773 60.2007H12.7598L12.9437 59.6489ZM16.2546 59.6489L16.4385 60.2058H17.021L16.5509 60.5481L16.7298 61.105L16.2546 60.7576L15.7845 61.105L15.9633 60.543L15.4882 60.2007H16.0809L16.2546 59.6489ZM19.5706 59.6489L19.7494 60.2058H20.337L19.8618 60.5481L20.0406 61.105L19.5706 60.7576L19.0954 61.105L19.2742 60.543L18.8042 60.2007H19.3866L19.5706 59.6489ZM4.6563 61.0539L4.84024 61.616H5.42271L4.95264 61.9583L5.13147 62.5101L4.6563 62.1678L4.18624 62.5101L4.36506 61.9532L3.88989 61.6109H4.48258L4.6563 61.0539ZM7.97228 61.0539L8.15111 61.616H8.73869L8.26352 61.9583L8.44746 62.5101L7.97228 62.1678L7.49711 62.5101L7.68105 61.9532L7.20588 61.6109H7.78835L7.97228 61.0539ZM11.2832 61.0539L11.4671 61.616H12.0445L11.5744 61.9583L11.7532 62.5101L11.278 62.1678L10.808 62.5101L10.9868 61.9532L10.5116 61.6109H11.0992L11.2832 61.0539ZM14.5991 61.0539L14.778 61.616H15.3656L14.8904 61.9583L15.0743 62.5101L14.5991 62.1678L14.124 62.5101L14.3079 61.9532L13.8327 61.6109H14.4152L14.5991 61.0539ZM17.91 61.0539L18.094 61.616H18.6764L18.2064 61.9583L18.3852 62.5101L17.91 62.1678L17.44 62.5101L17.6188 61.9532L17.1487 61.6109H17.7312L17.91 61.0539ZM21.226 61.0539L21.4048 61.616H21.9924L21.5172 61.9583L21.7012 62.5101L21.226 62.1678L20.7508 62.5101L20.9348 61.9532L20.4596 61.6109H21.0472L21.226 61.0539ZM6.31685 62.4641L6.49567 63.021H7.08325L6.60808 63.3634L6.78691 63.9254L6.31685 63.578L5.84167 63.9203L6.0205 63.3634L5.55044 63.021H6.13291L6.31685 62.4641ZM9.62772 62.4641L9.81166 63.021H10.3941L9.91896 63.3634L10.1029 63.9254L9.62772 63.578L9.15255 63.9203L9.33649 63.3634L8.86131 63.021H9.44889L9.62772 62.4641ZM12.9437 62.4641L13.1225 63.021H13.7101L13.2349 63.3634L13.4138 63.9254L12.9437 63.578L12.4685 63.9203L12.6474 63.3634L12.1773 63.021H12.7598L12.9437 62.4641ZM16.2546 62.4641L16.4385 63.021H17.021L16.5509 63.3634L16.7298 63.9254L16.2546 63.578L15.7845 63.9203L15.9633 63.3634L15.4882 63.021H16.0809L16.2546 62.4641ZM19.5706 62.4641L19.7494 63.021H20.337L19.8618 63.3634L20.0406 63.9254L19.5706 63.578L19.0954 63.9203L19.2742 63.3634L18.8042 63.021H19.3866L19.5706 62.4641ZM4.6563 63.8743L4.84024 64.4312H5.42271L4.95264 64.7736L5.13147 65.3305L4.6563 64.9881L4.18624 65.3305L4.36506 64.7684L3.88989 64.4261H4.48258L4.6563 63.8743ZM7.97228 63.8743L8.15111 64.4312H8.73869L8.26352 64.7736L8.44746 65.3305L7.97228 64.9881L7.49711 65.3305L7.68105 64.7684L7.20588 64.4261H7.78835L7.97228 63.8743ZM11.2832 63.8743L11.4671 64.4312H12.0445L11.5846 64.7736L11.7634 65.3305L11.2883 64.9881L10.8182 65.3305L10.997 64.7684L10.5219 64.4261H11.1094L11.2832 63.8743ZM14.5991 63.8743L14.778 64.4312H15.3656L14.8904 64.7736L15.0743 65.3305L14.5991 64.9881L14.124 65.3305L14.3079 64.7684L13.8327 64.4261H14.4152L14.5991 63.8743ZM17.91 63.8743L18.094 64.4312H18.6764L18.2064 64.7736L18.3852 65.3305L17.91 64.9881L17.44 65.3305L17.6188 64.7684L17.1487 64.4261H17.7312L17.91 63.8743ZM21.226 63.8743L21.4048 64.4312H21.9924L21.5172 64.7736L21.7012 65.3305L21.226 64.9881L20.7508 65.3305L20.9348 64.7684L20.4596 64.4261H21.0472L21.226 63.8743Z" fill="#FFEFD8"/>
</g>
<defs>
<radialGradient id="paint0_radial" cx="0" cy="0" r="1" gradientUnits="userSpaceOnUse" gradientTransform="translate(110 57) rotate(90) scale(53 116.21)">
<stop stop-color="#FFD29B"/>
<stop offset="1" stop-color="#FFD29B" stop-opacity="0"/>
</radialGradient>
<clipPath id="clip0">
<rect x="3.00085" y="52" width="35" height="24" rx="6" fill="white"/>
</clipPath>
</defs>
</svg>
