<svg width="111" height="48" viewBox="0 0 111 48" fill="none" xmlns="http://www.w3.org/2000/svg">
<rect x="62.5" width="48" height="48" rx="24" fill="#7CE6C6"/>
<mask id="mask0" mask-type="alpha" maskUnits="userSpaceOnUse" x="62" y="0" width="49" height="48">
<rect x="62.5" width="48" height="48" rx="24" fill="#FEFEFE"/>
</mask>
<g mask="url(#mask0)">
<path d="M79.4439 21.9506C78.6654 21.9506 78.1118 22.708 78.3482 23.4498L82.5303 36.5738C82.6823 37.0508 83.1254 37.3746 83.626 37.3746H85.195C85.6147 37.3746 86.0012 37.1459 86.2031 36.7779L93.4057 23.6539C93.8263 22.8875 93.2718 21.9506 92.3976 21.9506H90.1465C89.7258 21.9506 89.3388 22.1802 89.1372 22.5494L85.3094 29.5581C85.1614 29.8292 84.7604 29.7896 84.6682 29.4948L82.5615 22.7574C82.4115 22.2774 81.9669 21.9506 81.464 21.9506H79.4439ZM96.111 21.9506C95.3337 21.9506 94.7803 22.7057 95.0144 23.4469L98.5634 34.6839L91.0875 46.8997C90.6185 47.666 91.17 48.65 92.0684 48.65H94.1827C94.5852 48.65 94.9583 48.4397 95.1666 48.0954L109.932 23.696C110.396 22.9296 109.844 21.9506 108.948 21.9506H106.724C106.317 21.9506 105.94 22.166 105.733 22.517L101.84 29.1285C101.687 29.3886 101.298 29.3458 101.205 29.0586L99.1649 22.7469C99.0115 22.2722 98.5695 21.9506 98.0707 21.9506H96.111Z" fill="#393E46" stroke="#393E46" stroke-width="0.3" stroke-linecap="round" stroke-linejoin="round"/>
</g>
<path d="M16.5134 18.9084L16.5151 18.9093C17.3602 19.3369 18.1333 19.9602 18.8338 20.7826C19.2473 21.2679 19.9783 21.399 20.5025 21.0033L22.3982 19.5721C22.8825 19.2064 23.0092 18.5141 22.6244 18.0253C21.5777 16.6956 20.2833 15.6146 18.743 14.7823C16.9265 13.7824 15.0754 13.2802 13.1913 13.2802C9.98393 13.2802 7.03962 14.4952 4.3622 16.9121C1.68396 19.3286 0.35 22.6135 0.35 26.7486C0.35 30.0251 1.39188 32.6763 3.4841 34.6869L3.48441 34.6872C5.58786 36.697 8.35254 37.6964 11.7633 37.6964C14.7814 37.6964 17.4717 36.54 19.8291 34.2392C22.002 32.1186 23.1364 29.2532 23.2439 25.6593C23.2628 25.0259 22.7423 24.5249 22.1185 24.5249H13.4951C12.86 24.5249 12.3451 25.0397 12.3451 25.6749V27.8045C12.3451 28.4396 12.86 28.9545 13.4952 28.9545H17.2097C17.4666 28.9545 17.6226 29.2131 17.5117 29.4254C16.8821 30.6318 16.1095 31.5302 15.1974 32.1294C14.1134 32.8415 12.9696 33.1953 11.7633 33.1953C10.1165 33.1953 8.68492 32.5758 7.46195 31.3279C6.23873 30.0678 5.63013 28.5913 5.63013 26.8916C5.63013 24.2377 6.33614 22.1061 7.73555 20.4825C9.14545 18.8605 10.9716 18.0494 13.227 18.0494C14.3185 18.0494 15.4134 18.3341 16.5134 18.9084ZM47.5703 35.2961L47.5708 35.2957C49.2538 33.7071 50.0989 31.785 50.0989 29.5374C50.0989 27.2122 49.3234 25.3063 47.7675 23.8332C46.2241 22.3606 44.2275 21.6288 41.7915 21.6288C39.5595 21.6288 37.6061 22.4689 35.9377 24.1398C34.2691 25.8109 33.4305 27.7732 33.4305 30.0201C33.4305 32.1359 34.2157 33.9446 35.7796 35.4381L35.78 35.4385C37.3441 36.9199 39.2438 37.6606 41.4702 37.6606C43.8511 37.6606 45.8874 36.8724 47.5703 35.2961ZM44.253 27.0306L44.2548 27.0324C44.9013 27.6912 45.2293 28.557 45.2293 29.6447C45.2293 30.6432 44.887 31.5064 44.1988 32.2416C43.5114 32.976 42.6994 33.3383 41.7558 33.3383C40.783 33.3383 39.971 33.0077 39.3102 32.3462C38.6617 31.6734 38.3358 30.836 38.3358 29.8235C38.3358 28.7615 38.6688 27.8685 39.3323 27.1353C40.0079 26.39 40.8132 26.0226 41.7558 26.0226C42.7904 26.0226 43.6181 26.3606 44.253 27.0306ZM72.7514 22.5187L72.8808 22.5946L72.7514 22.5187L68.7965 29.2611C68.6388 29.53 68.2347 29.474 68.1559 29.1724L66.4958 22.8102C66.3637 22.3039 65.9064 21.9506 65.383 21.9506H63.3694C62.9633 21.9506 62.5874 22.1647 62.3803 22.514L58.3699 29.2762C58.2116 29.5431 57.8101 29.4873 57.7305 29.1874L56.0378 22.8057C55.904 22.3016 55.4478 21.9506 54.9262 21.9506H52.9736C52.2206 21.9506 51.6708 22.6622 51.8608 23.3908L55.284 36.5148C55.4161 37.0212 55.8734 37.3746 56.3968 37.3746H57.6213C58.0296 37.3746 58.4073 37.1581 58.6136 36.8057L63.1626 29.0383C63.3198 28.77 63.7226 28.8245 63.8028 29.1249L65.7769 36.5211C65.9112 37.0244 66.3671 37.3746 66.888 37.3746H67.992C68.4004 37.3746 68.7781 37.158 68.9844 36.8056L76.6672 23.6815C77.116 22.9149 76.5631 21.9506 75.6748 21.9506H73.7434C73.3354 21.9506 72.9579 22.1668 72.7514 22.5187ZM29.6896 11.85C29.1201 11.85 28.6363 12.2669 28.5522 12.8302L25.0845 36.0548C24.9807 36.7498 25.5191 37.3746 26.2219 37.3746H28.5718C29.1419 37.3746 29.626 36.9568 29.7094 36.3928L33.1442 13.1683C33.2469 12.4737 32.7087 11.85 32.0066 11.85H29.6896Z" fill="#393E46" stroke="#393E46" stroke-width="0.3" stroke-linecap="round" stroke-linejoin="round"/>
<path d="M79.3716 16.7144L79.3715 16.7144L79.3734 16.7162C79.9149 17.2284 80.5834 17.4833 81.369 17.4833C82.1425 17.4833 82.8113 17.1994 83.368 16.6377C83.9241 16.0765 84.2055 15.4089 84.2055 14.6416C84.2055 13.8223 83.9415 13.1474 83.4061 12.6315C82.8801 12.1077 82.1963 11.85 81.369 11.85C80.5946 11.85 79.9295 12.1388 79.3815 12.7099L79.3814 12.71C78.8419 13.2733 78.5722 13.9619 78.5722 14.7668C78.5722 15.5397 78.8385 16.1924 79.3716 16.7144Z" fill="#393E46" stroke="#393E46" stroke-width="0.3" stroke-linecap="round" stroke-linejoin="round"/>
<path d="M90.0381 16.7144L90.0381 16.7144L90.0399 16.7162C90.5814 17.2284 91.2499 17.4833 92.0355 17.4833C92.809 17.4833 93.4778 17.1994 94.0345 16.6377C94.5906 16.0765 94.872 15.4089 94.872 14.6416C94.872 13.8223 94.608 13.1474 94.0726 12.6315C93.5466 12.1077 92.8628 11.85 92.0355 11.85C91.2611 11.85 90.596 12.1388 90.048 12.7099L90.0479 12.71C89.5084 13.2733 89.2387 13.9619 89.2387 14.7668C89.2387 15.5397 89.505 16.1924 90.0381 16.7144Z" fill="#393E46" stroke="#393E46" stroke-width="0.3" stroke-linecap="round" stroke-linejoin="round"/>
</svg>
