<svg width="111" height="48" viewBox="0 0 111 48" fill="none" xmlns="http://www.w3.org/2000/svg">
<rect x="63" width="48" height="48" rx="24" fill="#FEFEFE"/>
<mask id="mask0" mask-type="alpha" maskUnits="userSpaceOnUse" x="63" y="0" width="48" height="48">
<rect x="63" width="48" height="48" rx="24" fill="#FEFEFE"/>
</mask>
<g mask="url(#mask0)">
<path d="M79.9439 21.9506C79.1654 21.9506 78.6118 22.708 78.8482 23.4498L83.0303 36.5738C83.1823 37.0508 83.6254 37.3746 84.126 37.3746H85.695C86.1147 37.3746 86.5012 37.1459 86.7031 36.7779L93.9057 23.6539C94.3263 22.8875 93.7718 21.9506 92.8976 21.9506H90.6465C90.2258 21.9506 89.8388 22.1802 89.6372 22.5494L85.8094 29.5581C85.6614 29.8292 85.2604 29.7896 85.1682 29.4948L83.0615 22.7574C82.9115 22.2774 82.4669 21.9506 81.964 21.9506H79.9439ZM96.611 21.9506C95.8337 21.9506 95.2803 22.7057 95.5144 23.4469L99.0634 34.6839L91.5875 46.8997C91.1185 47.666 91.67 48.65 92.5684 48.65H94.6827C95.0852 48.65 95.4583 48.4397 95.6666 48.0954L110.432 23.696C110.896 22.9296 110.344 21.9506 109.448 21.9506H107.224C106.817 21.9506 106.44 22.166 106.233 22.517L102.34 29.1285C102.187 29.3886 101.798 29.3458 101.705 29.0586L99.6649 22.7469C99.5115 22.2722 99.0695 21.9506 98.5707 21.9506H96.611Z" fill="#BDCDF6" stroke="#BDCDF6" stroke-width="0.3" stroke-linecap="round" stroke-linejoin="round"/>
</g>
<path d="M17.0134 18.9084L17.0151 18.9093C17.8602 19.3369 18.6333 19.9602 19.3338 20.7826C19.7473 21.2679 20.4783 21.399 21.0025 21.0033L22.8982 19.5721C23.3825 19.2064 23.5092 18.5141 23.1244 18.0253C22.0777 16.6956 20.7833 15.6146 19.243 14.7823C17.4265 13.7824 15.5754 13.2802 13.6913 13.2802C10.4839 13.2802 7.53962 14.4952 4.8622 16.9121C2.18396 19.3286 0.85 22.6135 0.85 26.7486C0.85 30.0251 1.89188 32.6763 3.9841 34.6869L3.98441 34.6872C6.08786 36.697 8.85254 37.6964 12.2633 37.6964C15.2814 37.6964 17.9717 36.54 20.3291 34.2392C22.502 32.1186 23.6364 29.2532 23.7439 25.6593C23.7628 25.0259 23.2423 24.5249 22.6185 24.5249H13.9951C13.36 24.5249 12.8451 25.0397 12.8451 25.6749V27.8045C12.8451 28.4396 13.36 28.9545 13.9952 28.9545H17.7097C17.9666 28.9545 18.1226 29.2131 18.0117 29.4254C17.3821 30.6318 16.6095 31.5302 15.6974 32.1294C14.6134 32.8415 13.4696 33.1953 12.2633 33.1953C10.6165 33.1953 9.18492 32.5758 7.96195 31.3279C6.73873 30.0678 6.13013 28.5913 6.13013 26.8916C6.13013 24.2377 6.83614 22.1061 8.23555 20.4825C9.64545 18.8605 11.4716 18.0494 13.727 18.0494C14.8185 18.0494 15.9134 18.3341 17.0134 18.9084ZM48.0703 35.2961L48.0708 35.2957C49.7538 33.7071 50.5989 31.785 50.5989 29.5374C50.5989 27.2122 49.8234 25.3063 48.2675 23.8332C46.7241 22.3606 44.7275 21.6288 42.2915 21.6288C40.0595 21.6288 38.1061 22.4689 36.4377 24.1398C34.7691 25.8109 33.9305 27.7732 33.9305 30.0201C33.9305 32.1359 34.7157 33.9446 36.2796 35.4381L36.28 35.4385C37.8441 36.9199 39.7438 37.6606 41.9702 37.6606C44.3511 37.6606 46.3874 36.8724 48.0703 35.2961ZM44.753 27.0306L44.7548 27.0324C45.4013 27.6912 45.7293 28.557 45.7293 29.6447C45.7293 30.6432 45.387 31.5064 44.6988 32.2416C44.0114 32.976 43.1994 33.3383 42.2558 33.3383C41.283 33.3383 40.471 33.0077 39.8102 32.3462C39.1617 31.6734 38.8358 30.836 38.8358 29.8235C38.8358 28.7615 39.1688 27.8685 39.8323 27.1353C40.5079 26.39 41.3132 26.0226 42.2558 26.0226C43.2904 26.0226 44.1181 26.3606 44.753 27.0306ZM73.2514 22.5187L73.3808 22.5946L73.2514 22.5187L69.2965 29.2611C69.1388 29.53 68.7347 29.474 68.6559 29.1724L66.9958 22.8102C66.8637 22.3039 66.4064 21.9506 65.883 21.9506H63.8694C63.4633 21.9506 63.0874 22.1647 62.8803 22.514L58.8699 29.2762C58.7116 29.5431 58.3101 29.4873 58.2305 29.1874L56.5378 22.8057C56.404 22.3016 55.9478 21.9506 55.4262 21.9506H53.4736C52.7206 21.9506 52.1708 22.6622 52.3608 23.3908L55.784 36.5148C55.9161 37.0212 56.3734 37.3746 56.8968 37.3746H58.1213C58.5296 37.3746 58.9073 37.1581 59.1136 36.8057L63.6626 29.0383C63.8198 28.77 64.2226 28.8245 64.3028 29.1249L66.2769 36.5211C66.4112 37.0244 66.8671 37.3746 67.388 37.3746H68.492C68.9004 37.3746 69.2781 37.158 69.4844 36.8056L77.1672 23.6815C77.616 22.9149 77.0631 21.9506 76.1748 21.9506H74.2434C73.8354 21.9506 73.4579 22.1668 73.2514 22.5187ZM30.1896 11.85C29.6201 11.85 29.1363 12.2669 29.0522 12.8302L25.5845 36.0548C25.4807 36.7498 26.0191 37.3746 26.7219 37.3746H29.0718C29.6419 37.3746 30.126 36.9568 30.2094 36.3928L33.6442 13.1683C33.7469 12.4737 33.2087 11.85 32.5066 11.85H30.1896Z" fill="#BDCDF6" stroke="#BDCDF6" stroke-width="0.3" stroke-linecap="round" stroke-linejoin="round"/>
<path d="M79.8716 16.7144L79.8715 16.7144L79.8734 16.7162C80.4149 17.2284 81.0834 17.4833 81.869 17.4833C82.6425 17.4833 83.3113 17.1994 83.868 16.6377C84.4241 16.0765 84.7055 15.4089 84.7055 14.6416C84.7055 13.8223 84.4415 13.1474 83.9061 12.6315C83.3801 12.1077 82.6963 11.85 81.869 11.85C81.0946 11.85 80.4295 12.1388 79.8815 12.7099L79.8814 12.71C79.3419 13.2733 79.0722 13.9619 79.0722 14.7668C79.0722 15.5397 79.3385 16.1924 79.8716 16.7144Z" fill="#BDCDF6" stroke="#BDCDF6" stroke-width="0.3" stroke-linecap="round" stroke-linejoin="round"/>
<path d="M90.5381 16.7144L90.5381 16.7144L90.5399 16.7162C91.0814 17.2284 91.7499 17.4833 92.5355 17.4833C93.309 17.4833 93.9778 17.1994 94.5345 16.6377C95.0906 16.0765 95.372 15.4089 95.372 14.6416C95.372 13.8223 95.108 13.1474 94.5726 12.6315C94.0466 12.1077 93.3628 11.85 92.5355 11.85C91.7611 11.85 91.096 12.1388 90.548 12.7099L90.5479 12.71C90.0084 13.2733 89.7387 13.9619 89.7387 14.7668C89.7387 15.5397 90.005 16.1924 90.5381 16.7144Z" fill="#BDCDF6" stroke="#BDCDF6" stroke-width="0.3" stroke-linecap="round" stroke-linejoin="round"/>
</svg>
