<svg width="24" height="24" viewBox="0 0 24 24" fill="none" xmlns="http://www.w3.org/2000/svg">
<path d="M12 20C10.8934 20 9.85591 19.7925 8.88761 19.3775C7.93468 18.9625 7.08934 18.3939 6.35158 17.6715C5.61383 16.9337 5.03746 16.0807 4.62248 15.1124C4.20749 14.1441 4 13.1066 4 12C4 10.8934 4.20749 9.86359 4.62248 8.91066C5.03746 7.94236 5.60615 7.08934 6.32853 6.35158C7.06628 5.61383 7.91931 5.03746 8.88761 4.62248C9.85591 4.20749 10.8934 4 12 4C13.1066 4 14.1441 4.20749 15.1124 4.62248C16.0807 5.03746 16.926 5.61383 17.6484 6.35158C18.3862 7.07397 18.9625 7.91931 19.3775 8.88761C19.7925 9.85591 20 10.8934 20 12C20 13.1066 19.7925 14.1441 19.3775 15.1124C18.9625 16.0807 18.3862 16.9337 17.6484 17.6715C16.926 18.3939 16.0807 18.9625 15.1124 19.3775C14.1441 19.7925 13.1066 20 12 20ZM9.23343 11.4697C9.58694 11.4697 9.88665 11.3545 10.1326 11.1239C10.3785 10.878 10.5014 10.5706 10.5014 10.2017C10.5014 9.84822 10.3785 9.54851 10.1326 9.30259C9.90202 9.04131 9.60231 8.91066 9.23343 8.91066C8.84918 8.91066 8.5341 9.04131 8.28818 9.30259C8.05764 9.54851 7.94236 9.84822 7.94236 10.2017C7.94236 10.5706 8.06532 10.878 8.31124 11.1239C8.55716 11.3545 8.86455 11.4697 9.23343 11.4697ZM14.7666 11.4697C15.1201 11.4697 15.4198 11.3545 15.6657 11.1239C15.927 10.878 16.0576 10.5706 16.0576 10.2017C16.0576 9.83285 15.9347 9.52546 15.6888 9.27954C15.4428 9.03362 15.1354 8.91066 14.7666 8.91066C14.3823 8.91066 14.0672 9.04131 13.8213 9.30259C13.5908 9.54851 13.4755 9.84822 13.4755 10.2017C13.4755 10.5706 13.5985 10.878 13.8444 11.1239C14.1057 11.3545 14.4131 11.4697 14.7666 11.4697ZM11.9769 16.6801C13.56 16.6801 14.8357 15.8655 15.804 14.2363L14.3977 13.4755C13.7522 14.4592 12.9452 14.951 11.9769 14.951C10.9933 14.951 10.1864 14.4592 9.5562 13.4755L8.17291 14.2363C9.12584 15.8655 10.3939 16.6801 11.9769 16.6801Z" fill="#BDCDF6"/>
</svg>
