<svg width="24" height="24" viewBox="0 0 24 24" fill="none" xmlns="http://www.w3.org/2000/svg">
<path d="M6.5 20C7.05228 20 7.5 19.5523 7.5 19C7.5 18.4477 7.05228 18 6.5 18C5.94772 18 5.5 18.4477 5.5 19C5.5 19.5523 5.94772 20 6.5 20Z" fill="#393E46" stroke="#393E46" stroke-linecap="round" stroke-linejoin="round"/>
<path d="M17.5 20C18.0523 20 18.5 19.5523 18.5 19C18.5 18.4477 18.0523 18 17.5 18C16.9477 18 16.5 18.4477 16.5 19C16.5 19.5523 16.9477 20 17.5 20Z" fill="#393E46" stroke="#393E46" stroke-linecap="round" stroke-linejoin="round"/>
<path d="M3.5 2.5L4.48995 2.35858C4.41957 1.86593 3.99765 1.5 3.5 1.5V2.5ZM4 6L4.99579 5.90837C4.99426 5.89173 4.99231 5.87512 4.98995 5.85858L4 6ZM4.68 13.39L3.68421 13.4816C3.68739 13.5163 3.69238 13.5507 3.69916 13.5848L4.68 13.39ZM6.68 15V14C6.67361 14 6.66722 14.0001 6.66084 14.0002L6.68 15ZM17.4 15L17.4192 14.0002C17.4128 14.0001 17.4064 14 17.4 14V15ZM19.4 13.39L18.4226 13.1784C18.4214 13.184 18.4203 13.1896 18.4192 13.1952L19.4 13.39ZM4.18253 5C3.63024 5 3.18253 5.44772 3.18253 6C3.18253 6.55228 3.63024 7 4.18253 7V5ZM2.5 1.5C1.94772 1.5 1.5 1.94772 1.5 2.5C1.5 3.05228 1.94772 3.5 2.5 3.5V1.5ZM20.7377 7.21161L19.7603 7L20.7377 7.21161ZM2.51005 2.64142L3.01005 6.14142L4.98995 5.85858L4.48995 2.35858L2.51005 2.64142ZM3.00421 6.09163L3.68421 13.4816L5.67579 13.2984L4.99579 5.90837L3.00421 6.09163ZM3.69916 13.5848C3.83633 14.2754 4.21202 14.8958 4.76048 15.3373L6.01461 13.7793C5.83179 13.6322 5.70656 13.4254 5.66084 13.1952L3.69916 13.5848ZM4.76048 15.3373C5.30893 15.7788 5.99521 16.0133 6.69916 15.9998L6.66084 14.0002C6.42619 14.0047 6.19743 13.9265 6.01461 13.7793L4.76048 15.3373ZM6.68 16H17.4V14H6.68V16ZM17.3808 15.9998C18.0848 16.0133 18.7711 15.7788 19.3195 15.3373L18.0654 13.7793C17.8826 13.9265 17.6538 14.0047 17.4192 14.0002L17.3808 15.9998ZM19.3195 15.3373C19.868 14.8958 20.2437 14.2754 20.3808 13.5848L18.4192 13.1952C18.3734 13.4254 18.2482 13.6322 18.0654 13.7793L19.3195 15.3373ZM20.3774 13.6016L21.715 7.42321L19.7603 7L18.4226 13.1784L20.3774 13.6016ZM19.7603 5H4.18253V7H19.7603V5ZM3.5 1.5H2.5V3.5H3.5V1.5ZM21.715 7.42321C21.9848 6.17706 21.0354 5 19.7603 5V7V7L21.715 7.42321Z" fill="#393E46"/>
</svg>
