<svg width="186" height="186" viewBox="0 0 186 186" fill="none" xmlns="http://www.w3.org/2000/svg">
<g clip-path="url(#clip0)">
<path d="M93 146.827C108.989 146.827 114.462 129.597 114.462 129.597H71.5385C71.5385 129.597 77.5978 146.827 93 146.827ZM186 173.463C167.021 186.008 147.24 182.641 137.053 162.571C125.092 173.587 110.541 180.775 93 180.775C74.9008 180.775 60.6861 174.114 48.7606 162.879C38.5235 182.656 18.8718 185.935 0 173.463C31.2981 160.654 -19.5228 86.9981 29.3594 31.6485C45.6845 13.1669 68.5052 5.16675 93 5.16675C117.495 5.16675 140.316 13.1669 156.641 31.6485C205.523 86.9981 154.702 160.654 186 173.463ZM145.452 128.734C146.325 127.255 147.684 126.143 149.279 125.586C166.785 119.526 167.55 93.6662 160.396 88.9012C158.715 87.7886 156.598 88.0595 155.589 88.5133C150.839 90.6725 145.531 87.0933 145.531 81.8233C145.531 78.3758 145.287 74.4965 144.844 71.0417H72.5829C66.7668 63.5686 67.0673 49.486 69.75 37.5919C63.2901 44.7796 57.6385 61.3728 56.3365 71.0417H41.1632C40.7197 74.4965 40.4765 78.3758 40.4765 81.8233C40.4765 87.0933 35.1683 90.6725 30.4182 88.5133C29.4095 88.0595 27.2991 87.7813 25.6108 88.9012C18.4569 93.6662 19.2224 119.526 36.7278 125.586C38.3303 126.143 39.6824 127.255 40.5552 128.734C52.7811 149.44 69.2778 166.143 93.0072 166.143C116.729 166.143 133.233 149.433 145.452 128.734Z" fill="#EF4623"/>
<path d="M46.5 91.755L52.3512 87.8335C52.3512 87.8335 56.2495 95.1805 65.8828 95.1805C75.237 95.1805 79.4065 87.8335 79.4065 87.8335L85.25 91.755C83.0723 97.552 75.9113 107.271 65.8828 107.271C55.8465 107.271 48.6933 97.552 46.5 91.755ZM100.75 91.755L106.601 87.8335C106.601 87.8335 110.5 95.1805 120.133 95.1805C129.487 95.1805 133.656 87.8335 133.656 87.8335L139.5 91.755C137.322 97.552 130.161 107.271 120.133 107.271C110.097 107.271 102.943 97.552 100.75 91.755Z" fill="#EF4623"/>
</g>
<defs>
<clipPath id="clip0">
<rect width="186" height="175.667" fill="white" transform="translate(0 5.16675)"/>
</clipPath>
</defs>
</svg>
