<svg width="375" height="76" viewBox="0 0 375 76" fill="none" xmlns="http://www.w3.org/2000/svg">
<rect width="375" height="51" fill="#FEFEFE"/>
<rect width="375" height="25" transform="matrix(1 0 0 -1 0 76)" fill="#EBEFFA"/>
<path d="M0 51V0C0 0 106.547 -1.41378e-10 187.5 2.10604e-10C322 7.95409e-10 375 51 375 51H0Z" fill="#EBEFFA"/>
<path fill-rule="evenodd" clip-rule="evenodd" d="M213.721 56.5188C213.721 51.9619 210.876 48.1872 206.781 46.0528C206.23 52.5171 199.1 61.5068 185.584 61.9421C187.883 65.8808 192.648 68.8206 198.786 68.8206C200.372 68.8206 202.05 68.625 203.802 68.2002C205.871 69.4704 210.44 70.751 213.656 71.3335C212.457 68.972 211.126 65.7273 211.193 63.4667C212.81 61.5384 213.721 59.0507 213.721 56.5188ZM163.046 42.4149C163.046 32.2833 172.967 24.877 184.075 24.877C195.113 24.877 205.103 32.2286 205.103 42.4149C205.103 53.0196 193.304 62.9241 177.12 58.9855C174.183 60.7876 167.7 62.6066 163.141 63.4309C164.842 60.079 166.728 55.4779 166.631 52.271C164.339 49.5331 163.046 46.0066 163.046 42.4149ZM194.096 33.9915H173.067V36.7953H194.096V33.9915ZM173.067 41.0009H194.096V43.8047H173.067V41.0009ZM181.479 48.0105H173.067V50.8144H181.479V48.0105Z" fill="#BDCDF6"/>
</svg>
