<svg width="36" height="36" viewBox="0 0 36 36" fill="none" xmlns="http://www.w3.org/2000/svg">
<path fill-rule="evenodd" clip-rule="evenodd" d="M34.2134 23.4762C34.2134 20.5468 32.3844 18.1202 29.7524 16.7481C29.3982 20.9036 24.8141 26.6828 16.1258 26.9626C17.6033 29.4946 20.6666 31.3845 24.6126 31.3845C25.6319 31.3845 26.7107 31.2588 27.8368 30.9857C29.167 31.8022 32.1046 32.6255 34.1715 32.9999C33.401 31.4818 32.5453 29.3959 32.5885 27.9427C33.6281 26.7031 34.2134 25.1038 34.2134 23.4762ZM1.63672 14.4094C1.63672 7.8962 8.01472 3.13501 15.1552 3.13501C22.251 3.13501 28.6736 7.86106 28.6736 14.4094C28.6736 21.2267 21.0884 27.5939 10.6846 25.0619C8.79608 26.2204 4.62835 27.3898 1.69755 27.9197C2.79119 25.7649 4.0038 22.807 3.94161 20.7455C2.4681 18.9854 1.63672 16.7183 1.63672 14.4094ZM21.5975 8.99432H8.0791V10.7968H21.5975V8.99432ZM8.0791 13.5005H21.5975V15.3029H8.0791V13.5005ZM13.4865 18.0066H8.0791V19.8091H13.4865V18.0066Z" fill="#5A81E8"/>
</svg>
