<svg width="25" height="24" viewBox="0 0 25 24" fill="none" xmlns="http://www.w3.org/2000/svg">
<path d="M8.61436 0.643626C5.70271 1.65782 3.18454 3.84225 1.76806 6.57278C1.2959 7.50897 0.902438 8.52316 0.745052 9.61538C0.194201 12.1899 0.587666 14.9984 1.76806 17.3389C2.55499 18.8992 3.65669 20.2255 5.07317 21.3177C6.33226 22.3319 7.82743 23.112 9.47998 23.5021C11.526 24.0482 13.6507 24.0482 15.618 23.5801C17.428 23.19 19.1592 22.3319 20.5757 21.0056C22.0709 19.6793 23.0939 17.963 23.6447 16.0126C24.2743 13.9842 24.353 11.7998 23.9595 9.69339C20.1822 9.69339 16.405 9.69339 12.6277 9.69339C12.6277 11.2537 12.6277 12.814 12.6277 14.3743C14.8311 14.3743 17.0345 14.3743 19.1592 14.3743C18.9231 15.8566 17.9788 17.2609 16.7197 18.041C15.9328 18.5871 14.9885 18.8992 14.0442 19.0552C13.0999 19.2113 12.0769 19.2113 11.1325 19.0552C10.1882 18.8992 9.2439 18.4311 8.45697 17.885C7.19788 17.0268 6.17487 15.7006 5.70271 14.2183C5.15186 12.736 5.15186 11.0977 5.70271 9.53736C6.09618 8.52316 6.64703 7.50897 7.43396 6.72881C8.37828 5.71462 9.63737 5.01248 11.0538 4.77843C12.2342 4.54439 13.4146 4.54439 14.595 4.93446C15.5393 5.24652 16.4837 5.79263 17.1919 6.41675C17.9001 5.71462 18.6871 4.93446 19.3953 4.23233C19.7888 3.84225 20.1822 3.45217 20.5757 3.0621C19.474 2.0479 18.1362 1.18973 16.7197 0.643626C14.1229 -0.214542 11.2112 -0.214542 8.61436 0.643626Z" fill="#F9F9F9"/>
</svg>
