<svg width="375" height="468" viewBox="0 0 375 468" fill="none" xmlns="http://www.w3.org/2000/svg">
<path d="M-276.231 526.494C-285.3 477.794 -286.646 427.969 -280.221 378.85L187.868 440.077L-276.231 526.494Z" fill="#FFD29B"/>
<path d="M-257.262 282.867C-240.765 236.157 -217.019 192.334 -186.895 153.008L187.869 440.077L-257.262 282.867Z" fill="#FFD29B"/>
<path d="M-119.021 81.3635C-81.3789 49.1599 -38.903 23.0817 6.84786 4.08624L187.869 440.077L-119.021 81.3635Z" fill="#FFD29B"/>
<path d="M101.452 -24.0227C150.152 -33.0909 199.977 -34.4373 249.096 -28.0124L187.869 440.077L101.452 -24.0227Z" fill="#FFD29B"/>
<path d="M345.079 -5.0539C391.789 11.443 435.612 35.1892 474.937 65.3129L187.869 440.077L345.079 -5.0539Z" fill="#FFD29B"/>
<path d="M546.582 133.187C578.786 170.829 604.864 213.305 623.86 259.056L187.869 440.077L546.582 133.187Z" fill="#FFD29B"/>
<path d="M651.968 353.659C661.037 402.36 662.383 452.184 655.958 501.303L187.869 440.077L651.968 353.659Z" fill="#FFD29B"/>
</svg>
