<svg width="30" height="42" viewBox="0 0 30 42" fill="none" xmlns="http://www.w3.org/2000/svg">
<path fill-rule="evenodd" clip-rule="evenodd" d="M6.01975 14.293C7.21532 16.6171 9.51615 19.0168 13.2653 21.2678L10.3533 23.7375C10.0909 23.96 9.96132 24.3017 10.0102 24.6422C10.0591 24.9827 10.2796 25.2742 10.5939 25.4139C11.4101 25.7767 12.6009 26.1723 13.7267 26.4151C14.0987 26.4954 14.4761 26.5617 14.8397 26.6036C14.8201 26.6507 14.8003 26.6985 14.7804 26.747C14.4333 27.5924 14.0332 28.6751 13.6291 29.8813C12.8224 32.289 11.9834 35.2365 11.516 37.822C11.4178 38.3655 11.7787 38.8857 12.3221 38.9839C12.8656 39.0822 13.3858 38.7213 13.4841 38.1778C13.9285 35.7197 14.7366 32.8711 15.5255 30.5167C15.9191 29.3419 16.304 28.302 16.6305 27.5067C16.7941 27.1084 16.9397 26.7794 17.0617 26.5292C17.1227 26.4042 17.1748 26.3049 17.2176 26.2298C17.2389 26.1925 17.2562 26.164 17.2696 26.1432C17.2822 26.1238 17.2887 26.115 17.2894 26.1141C17.2895 26.114 17.2895 26.114 17.2894 26.1141C17.5761 25.7454 17.5695 25.2273 17.2734 24.8661C16.9773 24.5049 16.4706 24.3968 16.0528 24.6057L16.0536 24.6053C16.0536 24.6053 16.0533 24.6054 16.0528 24.6056C16.0465 24.608 16.0041 24.6239 15.9077 24.6366C15.7993 24.6509 15.6541 24.6569 15.4706 24.6494C15.1022 24.6343 14.6471 24.5677 14.1484 24.4601C13.7523 24.3747 13.3467 24.2674 12.9588 24.1501L15.0365 22.3881L18.8982 25.2987C19.3392 25.6311 19.9662 25.5431 20.2986 25.102C20.631 24.661 20.543 24.034 20.1019 23.7015L16.8113 21.2213C20.5152 18.9838 22.7929 16.6012 23.9803 14.2931C25.314 11.7009 25.252 9.22781 24.3014 7.32842C23.3644 5.45627 21.5784 4.19014 19.6055 4.01965C17.9663 3.87799 16.3086 4.5 14.9997 5.96148C13.691 4.50002 12.0335 3.87798 10.3943 4.01965C8.42166 4.19015 6.63572 5.45631 5.6988 7.32844C4.74825 9.22781 4.68628 11.7008 6.01975 14.293Z" fill="#F2EAED"/>
</svg>
