<svg width="24" height="24" viewBox="0 0 24 24" fill="none" xmlns="http://www.w3.org/2000/svg">
<rect x="3" y="3" width="18" height="18" rx="2" stroke="#BFBFBF" stroke-width="2"/>
<path d="M8.43894 8.77743C8.50347 8.33116 8.88595 8 9.33686 8C9.88899 8 10.3131 8.48904 10.235 9.03562L9.58838 13.5598C9.57043 13.7269 9.56145 13.8488 9.56145 13.9255C9.56145 14.8781 10.071 15.3544 11.0901 15.3544C11.7231 15.3544 12.2034 15.158 12.5311 14.7652C12.8589 14.3679 13.0856 13.7269 13.2113 12.842L13.8049 8.77665C13.8701 8.33067 14.2525 8 14.7032 8C15.2557 8 15.6801 8.48933 15.6019 9.03624L15.0901 12.6185C14.9823 13.4041 14.8476 14.0316 14.686 14.5011C14.5289 14.9661 14.3022 15.3837 14.0059 15.754C13.7141 16.1242 13.3033 16.4244 12.7736 16.6546C12.2483 16.8849 11.6871 17 11.0901 17C10.0081 17 9.17985 16.7472 8.60522 16.2415C8.03507 15.7314 7.75 14.9955 7.75 14.0339C7.75 13.6817 7.77918 13.316 7.83754 12.9368L8.43894 8.77743Z" fill="#BFBFBF"/>
</svg>
