<svg width="24" height="24" viewBox="0 0 24 24" fill="none" xmlns="http://www.w3.org/2000/svg">
<path fill-rule="evenodd" clip-rule="evenodd" d="M2.32698 3.63803C2 4.27976 2 5.11984 2 6.8V17.2C2 18.8802 2 19.7202 2.32698 20.362C2.6146 20.9265 3.07354 21.3854 3.63803 21.673C4.27976 22 5.11984 22 6.8 22H17.2C18.8802 22 19.7202 22 20.362 21.673C20.9265 21.3854 21.3854 20.9265 21.673 20.362C22 19.7202 22 18.8802 22 17.2V6.8C22 5.11984 22 4.27976 21.673 3.63803C21.3854 3.07354 20.9265 2.6146 20.362 2.32698C19.7202 2 18.8802 2 17.2 2H6.8C5.11984 2 4.27976 2 3.63803 2.32698C3.07354 2.6146 2.6146 3.07354 2.32698 3.63803ZM9.33686 8C8.88595 8 8.50347 8.33116 8.43894 8.77743L7.83754 12.9368C7.77918 13.316 7.75 13.6817 7.75 14.0339C7.75 14.9955 8.03507 15.7314 8.60522 16.2415C9.17985 16.7472 10.0081 17 11.0901 17C11.6871 17 12.2483 16.8849 12.7736 16.6546C13.3033 16.4244 13.7141 16.1242 14.0059 15.754C14.3022 15.3837 14.5289 14.9661 14.686 14.5011C14.8476 14.0316 14.9823 13.4041 15.0901 12.6185L15.6019 9.03624C15.6801 8.48933 15.2557 8 14.7032 8C14.2525 8 13.8701 8.33067 13.8049 8.77665L13.2113 12.842C13.0856 13.7269 12.8589 14.3679 12.5311 14.7652C12.2034 15.158 11.7231 15.3544 11.0901 15.3544C10.071 15.3544 9.56145 14.8781 9.56145 13.9255C9.56145 13.8488 9.57043 13.7269 9.58838 13.5598L10.235 9.03562C10.3131 8.48904 9.88899 8 9.33686 8Z" fill="#393E46"/>
</svg>
