<svg width="57" height="56" viewBox="0 0 57 56" fill="none" xmlns="http://www.w3.org/2000/svg">
<path fill-rule="evenodd" clip-rule="evenodd" d="M53.7208 36.5188C53.7208 31.9619 50.8756 28.1872 46.7813 26.0528C46.2304 32.5171 39.0996 41.5068 25.5844 41.9421C27.8829 45.8808 32.648 48.8206 38.7862 48.8206C40.3718 48.8206 42.0499 48.625 43.8016 48.2002C45.8708 49.4704 50.4403 50.751 53.6556 51.3335C52.457 48.972 51.1259 45.7273 51.1932 43.4667C52.8103 41.5384 53.7208 39.0507 53.7208 36.5188ZM3.0459 22.4149C3.0459 12.2833 12.9672 4.87695 24.0746 4.87695C35.1125 4.87695 45.1033 12.2286 45.1033 22.4149C45.1033 33.0196 33.3041 42.9241 17.1204 38.9855C14.1827 40.7876 7.69954 42.6066 3.14053 43.4309C4.84175 40.079 6.72802 35.4779 6.63129 32.271C4.33916 29.5331 3.0459 26.0066 3.0459 22.4149ZM34.0961 13.9915H13.0674V16.7953H34.0961V13.9915ZM13.0674 21.0009H34.0961V23.8047H13.0674V21.0009ZM21.4789 28.0105H13.0674V30.8144H21.4789V28.0105Z" fill="#BDCDF6"/>
</svg>
