<svg width="74" height="36" viewBox="0 0 74 36" fill="none" xmlns="http://www.w3.org/2000/svg">
    <g clip-path="url(#clip0)">
        <rect x="40.0497" width="33.6364" height="33.75" rx="16.8182" fill="#EEEEEE" />
        <mask id="mask0" mask-type="alpha" maskUnits="userSpaceOnUse" x="40" y="0" width="34" height="34">
            <rect x="40.0497" width="33.6364" height="33.75" rx="16.8182" fill="#EF4623" />
        </mask>
        <g mask="url(#mask0)">
            <path d="M50.8676 17.3554C50.598 16.5407 51.2025 15.7003 52.058 15.7003C52.6011 15.7003 53.0825 16.051 53.2507 16.5692L54.2957 19.7883C54.4465 20.2528 55.0752 20.3169 55.316 19.8922L57.3294 16.3412C57.554 15.945 57.9733 15.7003 58.4275 15.7003C59.3977 15.7003 60.0059 16.7521 59.5244 17.5972L55.6842 24.3372C55.4301 24.7832 54.9575 25.0583 54.4456 25.0583C53.8308 25.0583 53.2851 24.6632 53.0915 24.0778L50.8676 17.3554Z" fill="#393E46" />
            <path fill-rule="evenodd" clip-rule="evenodd" d="M53.4639 16.4995L54.5089 19.7186C54.5994 19.9973 54.9766 20.0358 55.1211 19.781L57.1345 16.2299C57.3989 15.7635 57.8926 15.4753 58.4275 15.4753C59.5699 15.4753 60.286 16.7137 59.719 17.7089L55.8789 24.4489C55.5849 24.9649 55.0379 25.2833 54.4456 25.2833C53.7342 25.2833 53.1028 24.8261 52.8786 24.1486L50.6547 17.4263C50.337 16.466 51.0496 15.4753 52.058 15.4753C52.6982 15.4753 53.2657 15.8887 53.4639 16.4995ZM52.058 15.7003C51.2025 15.7003 50.598 16.5407 50.8676 17.3554L53.0915 24.0778C53.2851 24.6632 53.8308 25.0583 54.4456 25.0583C54.9575 25.0583 55.4301 24.7832 55.6842 24.3372L59.5244 17.5972C60.0059 16.7521 59.3977 15.7003 58.4275 15.7003C57.9733 15.7003 57.554 15.945 57.3294 16.3412L55.316 19.8922C55.0752 20.3169 54.4465 20.2528 54.2957 19.7883L53.2507 16.5692C53.0825 16.051 52.6011 15.7003 52.058 15.7003Z" fill="#393E46" />
            <path d="M62.2385 17.382C61.9747 16.5777 62.5718 15.7499 63.4157 15.7499C63.9478 15.7499 64.4205 16.0907 64.5902 16.5966L65.5977 19.5989C65.7495 20.0511 66.3582 20.1203 66.6069 19.7135L68.6549 16.3637C68.8881 15.9823 69.3019 15.7499 69.7478 15.7499C70.7341 15.7499 71.351 16.8206 70.8588 17.6783L62.0268 33.0678C61.8267 33.4165 61.4562 33.6314 61.0551 33.6314H58.8368L64.2603 23.5482L62.2385 17.382Z" fill="#393E46" />
            <path fill-rule="evenodd" clip-rule="evenodd" d="M58.6442 33.7467C58.6038 33.6787 58.6019 33.5943 58.6395 33.5246L58.8368 33.1577L64.0171 23.5266L62.0255 17.4523C61.714 16.5025 62.4192 15.5249 63.4157 15.5249C64.044 15.5249 64.6023 15.9273 64.8028 16.5248L65.8102 19.5271C65.9013 19.7984 66.2665 19.8399 66.4157 19.5959L68.4638 16.246C68.7377 15.798 69.2239 15.5249 69.7478 15.5249C70.9066 15.5249 71.6314 16.7829 71.0531 17.7905L62.2211 33.1801C61.981 33.5985 61.5364 33.8564 61.0551 33.8564H58.8368C58.7578 33.8564 58.6847 33.8147 58.6442 33.7467ZM64.2603 23.5482L58.8368 33.6314H61.0551C61.4562 33.6314 61.8267 33.4165 62.0268 33.0678L70.8588 17.6783C71.351 16.8206 70.7341 15.7499 69.7478 15.7499C69.3019 15.7499 68.8881 15.9823 68.6549 16.3637L66.6069 19.7135C66.3582 20.1203 65.7495 20.0511 65.5977 19.5989L64.5902 16.5966C64.4205 16.0907 63.9478 15.7499 63.4157 15.7499C62.5718 15.7499 61.9747 16.5777 62.2385 17.382L64.2603 23.5482Z" fill="#393E46" />
            <path d="M51.2199 12.3006C50.8969 11.9959 50.7353 11.6163 50.7353 11.1618C50.7353 10.6867 50.8997 10.2839 51.2284 9.95337C51.5628 9.61769 51.9652 9.44985 52.4355 9.44985C52.9456 9.44985 53.3593 9.6022 53.6767 9.9069C53.9997 10.2064 54.1613 10.5989 54.1613 11.0844C54.1613 11.5337 53.9912 11.9236 53.6512 12.2541C53.3112 12.5846 52.9059 12.7499 52.4355 12.7499C51.9538 12.7499 51.5486 12.6001 51.2199 12.3006Z" fill="#393E46" />
            <path fill-rule="evenodd" clip-rule="evenodd" d="M51.0663 12.4645C50.6971 12.1162 50.5111 11.6769 50.5111 11.1618C50.5111 10.6283 50.6982 10.168 51.0697 9.79444C51.4458 9.41681 51.9053 9.22485 52.4355 9.22485C52.9927 9.22485 53.4647 9.3927 53.8303 9.74298C54.2032 10.0894 54.3855 10.5438 54.3855 11.0844C54.3855 11.5984 54.1881 12.0455 53.8072 12.4157C53.4257 12.7866 52.9646 12.9749 52.4355 12.9749C51.9032 12.9749 51.4428 12.8076 51.0691 12.4671L51.0663 12.4645ZM53.6767 9.9069C53.3593 9.6022 52.9456 9.44985 52.4355 9.44985C51.9652 9.44985 51.5628 9.61769 51.2284 9.95337C50.8997 10.2839 50.7353 10.6867 50.7353 11.1618C50.7353 11.6163 50.8969 11.9959 51.2199 12.3006C51.5486 12.6001 51.9538 12.7499 52.4355 12.7499C52.9059 12.7499 53.3112 12.5846 53.6512 12.2541C53.9912 11.9236 54.1613 11.5337 54.1613 11.0844C54.1613 10.5989 53.9997 10.2064 53.6767 9.9069Z" fill="#393E46" />
            <path d="M58.0716 12.3006C57.7486 11.9959 57.587 11.6163 57.587 11.1618C57.587 10.6867 57.7514 10.2839 58.0801 9.95337C58.4145 9.61769 58.8169 9.44985 59.2872 9.44985C59.7973 9.44985 60.211 9.6022 60.5284 9.9069C60.8514 10.2064 61.013 10.5989 61.013 11.0844C61.013 11.5337 60.8429 11.9236 60.5029 12.2541C60.1629 12.5846 59.7576 12.7499 59.2872 12.7499C58.8055 12.7499 58.4003 12.6001 58.0716 12.3006Z" fill="#393E46" />
            <path fill-rule="evenodd" clip-rule="evenodd" d="M57.918 12.4645C57.5488 12.1162 57.3628 11.6769 57.3628 11.1618C57.3628 10.6283 57.5499 10.168 57.9214 9.79444C58.2975 9.41681 58.757 9.22485 59.2872 9.22485C59.8444 9.22485 60.3164 9.39269 60.682 9.74297C61.0549 10.0894 61.2372 10.5438 61.2372 11.0844C61.2372 11.5984 61.0398 12.0455 60.6589 12.4157C60.2774 12.7866 59.8163 12.9749 59.2872 12.9749C58.7549 12.9749 58.2945 12.8076 57.9208 12.4671L57.918 12.4645ZM60.5284 9.9069C60.211 9.6022 59.7973 9.44985 59.2872 9.44985C58.8169 9.44985 58.4145 9.61769 58.0801 9.95337C57.7514 10.2839 57.587 10.6867 57.587 11.1618C57.587 11.6163 57.7486 11.9959 58.0716 12.3006C58.4003 12.6001 58.8055 12.7499 59.2872 12.7499C59.7576 12.7499 60.1629 12.5846 60.5029 12.2541C60.8429 11.9236 61.013 11.5337 61.013 11.0844C61.013 10.5989 60.8514 10.2064 60.5284 9.9069Z" fill="#393E46" />
        </g>
    </g>
    <path d="M13.9455 12.7184C14.4426 13.2423 14.2973 14.0646 13.7219 14.5004C13.106 14.967 12.242 14.8032 11.663 14.2912C11.3721 14.034 11.0636 13.8226 10.7375 13.6571C10.0453 13.2944 9.35304 13.1131 8.66081 13.1131C7.23953 13.1131 6.08336 13.6275 5.1923 14.6561C4.3086 15.6847 3.86675 17.0316 3.86675 18.6967C3.86675 19.7771 4.25337 20.7169 5.0266 21.5162C5.79984 22.308 6.70931 22.7039 7.75502 22.7039C8.52089 22.7039 9.24626 22.4782 9.93113 22.0268C10.4374 21.6931 10.8733 21.2157 11.2388 20.5949C11.4293 20.2711 11.179 19.8844 10.8043 19.8844H9.4857C8.78 19.8844 8.20792 19.3104 8.20792 18.6023C8.20792 17.8942 8.78 17.3202 9.4857 17.3202H13.6945C14.2917 17.3202 14.7864 17.8006 14.7429 18.3983C14.5978 20.3907 13.9107 21.9887 12.6816 23.1923C11.2383 24.6058 9.59606 25.3125 7.75502 25.3125C5.6636 25.3125 3.97721 24.6983 2.69585 23.4698C1.42185 22.2414 0.78485 20.6207 0.78485 18.6078C0.78485 16.0622 1.60227 14.0493 3.23711 12.5692C4.87932 11.0818 6.67985 10.338 8.63872 10.338C9.78753 10.338 10.9179 10.6451 12.0299 11.2594C12.7591 11.6547 13.3976 12.141 13.9455 12.7184Z" fill="#393E46" />
    <path fill-rule="evenodd" clip-rule="evenodd" d="M10.6337 13.8565C9.96938 13.5085 9.3125 13.3381 8.66081 13.3381C7.30117 13.3381 6.20805 13.8267 5.36182 14.8034C4.52088 15.7825 4.09099 17.073 4.09099 18.6967C4.09099 19.7164 4.45337 20.6005 5.18715 21.3591C5.92078 22.1102 6.77344 22.4789 7.75502 22.4789C8.47404 22.4789 9.15703 22.2678 9.80801 21.8387C10.2808 21.5271 10.6944 21.0772 11.0457 20.4804C11.1355 20.3277 11.0303 20.1094 10.8043 20.1094H9.4857C8.65615 20.1094 7.98367 19.4346 7.98367 18.6023C7.98367 17.77 8.65615 17.0952 9.4857 17.0952H13.6945C14.4072 17.0952 15.0206 17.6723 14.9666 18.4147C14.8182 20.4526 14.1127 22.1053 12.8383 23.3533C11.3574 24.8035 9.66044 25.5375 7.75502 25.5375C5.617 25.5375 3.87141 24.908 2.54094 23.6325C1.21682 22.3557 0.560608 20.6729 0.560608 18.6078C0.560608 16.0092 1.39756 13.9316 3.08689 12.4022C4.76457 10.8826 6.6171 10.113 8.63872 10.113C9.82893 10.113 10.996 10.4316 12.1373 11.0618C12.8859 11.4678 13.5432 11.9682 14.1079 12.5633C14.7153 13.2034 14.5174 14.1797 13.8571 14.68C13.1303 15.2305 12.1466 15.0188 11.5147 14.46C11.2372 14.2147 10.9444 14.0143 10.6363 13.8578L10.6337 13.8565ZM12.0299 11.2594C10.9179 10.6451 9.78753 10.338 8.63872 10.338C6.67985 10.338 4.87932 11.0818 3.23711 12.5692C1.60227 14.0493 0.78485 16.0622 0.78485 18.6078C0.78485 20.6207 1.42185 22.2414 2.69585 23.4698C3.97721 24.6983 5.6636 25.3125 7.75502 25.3125C9.59606 25.3125 11.2383 24.6058 12.6816 23.1923C13.9107 21.9887 14.5978 20.3907 14.7429 18.3983C14.7864 17.8006 14.2917 17.3202 13.6945 17.3202H9.4857C8.78 17.3202 8.20792 17.8942 8.20792 18.6023C8.20792 19.3104 8.78 19.8844 9.4857 19.8844H10.8043C11.179 19.8844 11.4293 20.2711 11.2388 20.5949C10.8733 21.2157 10.4374 21.6931 9.93113 22.0268C9.24626 22.4782 8.52089 22.7039 7.75502 22.7039C6.70931 22.7039 5.79984 22.308 5.0266 21.5162C4.25337 20.7169 3.86675 19.7771 3.86675 18.6967C3.86675 17.0316 4.3086 15.6847 5.1923 14.6561C6.08336 13.6275 7.23953 13.1131 8.66081 13.1131C9.35304 13.1131 10.0453 13.2944 10.7375 13.6571C11.0636 13.8226 11.3721 14.034 11.663 14.2912C12.242 14.8032 13.106 14.967 13.7219 14.5004C14.2973 14.0646 14.4426 13.2423 13.9455 12.7184C13.3976 12.141 12.7591 11.6547 12.0299 11.2594Z" fill="#393E46" />
    <path d="M18.0605 10.586C18.1577 9.93306 18.7165 9.44985 19.3744 9.44985C20.1855 9.44985 20.8073 10.1728 20.6886 10.9778L18.774 23.9669C18.677 24.625 18.114 25.1126 17.4509 25.1126C16.6335 25.1126 16.0073 24.3834 16.128 23.5723L18.0605 10.586Z" fill="#393E46" />
    <path fill-rule="evenodd" clip-rule="evenodd" d="M20.9104 11.0107L18.9959 23.9998C18.8826 24.7683 18.2252 25.3376 17.4509 25.3376C16.4965 25.3376 15.7653 24.4862 15.9063 23.5391L17.8387 10.5527C17.9523 9.78962 18.6054 9.22485 19.3744 9.22485C20.3224 9.22485 21.0491 10.0698 20.9104 11.0107ZM19.3744 9.44985C18.7165 9.44985 18.1577 9.93306 18.0605 10.586L16.128 23.5723C16.0073 24.3834 16.6335 25.1126 17.4509 25.1126C18.114 25.1126 18.677 24.625 18.774 23.9669L20.6886 10.9778C20.8073 10.1728 20.1855 9.44985 19.3744 9.44985Z" fill="#393E46" />
    <path d="M32.1612 20.3395C32.1612 21.7085 31.6494 22.8778 30.6258 23.8472C29.6021 24.8092 28.365 25.2902 26.9142 25.2902C25.5592 25.2902 24.4067 24.8388 23.4568 23.936C22.5068 23.0258 22.0318 21.9268 22.0318 20.6392C22.0318 19.2701 22.5399 18.075 23.5562 17.0537C24.5724 16.0325 25.7581 15.5219 27.1131 15.5219C28.6006 15.5219 29.812 15.9696 30.7473 16.865C31.6899 17.7605 32.1612 18.9186 32.1612 20.3395ZM24.8817 20.5171C24.8817 21.1683 25.0916 21.7122 25.5114 22.1488C25.9385 22.578 26.465 22.7926 27.091 22.7926C27.7022 22.7926 28.2287 22.5558 28.6706 22.0822C29.1124 21.6086 29.3334 21.0499 29.3334 20.4061C29.3334 19.7104 29.1235 19.148 28.7037 18.7188C28.2913 18.2822 27.7537 18.0639 27.091 18.0639C26.4797 18.0639 25.9569 18.3044 25.5224 18.7854C25.0953 19.259 24.8817 19.8362 24.8817 20.5171Z" fill="#393E46" />
    <path fill-rule="evenodd" clip-rule="evenodd" d="M30.7791 24.0114C29.7123 25.014 28.4197 25.5152 26.9142 25.5152C25.5041 25.5152 24.2958 25.0433 23.3026 24.0993C22.3095 23.1478 21.8076 21.9899 21.8076 20.6392C21.8076 19.207 22.3418 17.9556 23.3975 16.8948C24.4529 15.8341 25.6946 15.2969 27.1131 15.2969C28.6488 15.2969 29.9185 15.7607 30.9018 16.7019C31.8932 17.6439 32.3854 18.8632 32.3854 20.3395C32.3854 21.7726 31.846 23.001 30.7791 24.0114ZM28.541 18.8736C28.1756 18.4868 27.6994 18.2889 27.091 18.2889C26.5471 18.2889 26.0833 18.4994 25.6886 18.9365C25.3014 19.3658 25.106 19.8881 25.106 20.5171C25.106 21.114 25.296 21.6001 25.6714 21.9912C26.0546 22.3756 26.5229 22.5676 27.091 22.5676C27.6362 22.5676 28.1047 22.3596 28.5069 21.9285C28.9102 21.4962 29.1091 20.9923 29.1091 20.4061C29.1091 19.7594 28.9158 19.2569 28.5437 18.8764L28.541 18.8736ZM25.5114 22.1488C25.0916 21.7122 24.8817 21.1683 24.8817 20.5171C24.8817 19.8362 25.0953 19.259 25.5224 18.7854C25.9569 18.3044 26.4797 18.0639 27.091 18.0639C27.7537 18.0639 28.2913 18.2822 28.7037 18.7188C29.1235 19.148 29.3334 19.7104 29.3334 20.4061C29.3334 21.0499 29.1124 21.6086 28.6706 22.0822C28.2287 22.5558 27.7022 22.7926 27.091 22.7926C26.465 22.7926 25.9385 22.578 25.5114 22.1488ZM30.6258 23.8472C31.6494 22.8778 32.1612 21.7085 32.1612 20.3395C32.1612 18.9186 31.6899 17.7605 30.7473 16.865C29.812 15.9696 28.6006 15.5219 27.1131 15.5219C25.7581 15.5219 24.5724 16.0325 23.5562 17.0537C22.5399 18.075 22.0318 19.2701 22.0318 20.6392C22.0318 21.9268 22.5068 23.0258 23.4568 23.936C24.4067 24.8388 25.5592 25.2902 26.9142 25.2902C28.365 25.2902 29.6021 24.8092 30.6258 23.8472Z" fill="#393E46" />
    <path d="M33.671 17.2353C33.4719 16.4696 34.0478 15.7218 34.8364 15.7218C35.3826 15.7218 35.8605 16.0907 36.0005 16.6205L36.8003 19.6458C36.9198 20.0979 37.5231 20.182 37.761 19.7796L39.7098 16.4824C39.9885 16.0109 40.4943 15.7218 41.0407 15.7218C41.7448 15.7218 42.3601 16.1988 42.5378 16.8824L43.2545 19.6381C43.3719 20.0896 43.9748 20.1734 44.2101 19.7709L46.2484 16.2843C46.4521 15.9359 46.8245 15.7218 47.2271 15.7218C48.1037 15.7218 48.6492 16.6765 48.2064 17.4356L44.054 24.5527C43.8517 24.8996 43.4811 25.1128 43.0805 25.1128C42.5695 25.1128 42.1223 24.7681 41.9905 24.2727L41.025 20.643C40.8965 20.1602 40.2513 20.0726 39.9996 20.5038L37.6518 24.5262C37.4397 24.8895 37.0516 25.1128 36.6319 25.1128C36.0941 25.1128 35.624 24.7484 35.4883 24.2262L33.671 17.2353Z" fill="#393E46" />
    <path fill-rule="evenodd" clip-rule="evenodd" d="M36.2173 16.5628L37.017 19.5881C37.0856 19.8474 37.4317 19.8957 37.5681 19.6649L39.5169 16.3677C39.836 15.8278 40.4151 15.4968 41.0407 15.4968C41.8468 15.4968 42.5513 16.0429 42.7548 16.8256L43.4715 19.5813C43.5385 19.8389 43.8824 19.8867 44.0167 19.657L46.0549 16.1705C46.2989 15.7532 46.745 15.4968 47.2271 15.4968C48.2769 15.4968 48.9302 16.6402 48.3999 17.5492L44.2476 24.6664C44.0049 25.0822 43.5607 25.3378 43.0805 25.3378C42.4679 25.3378 41.9318 24.9246 41.7738 24.3308L40.8083 20.701C40.7312 20.4113 40.3441 20.3588 40.1931 20.6175L37.8453 24.6399C37.593 25.0722 37.1312 25.3378 36.6319 25.3378C35.992 25.3378 35.4328 24.9043 35.2713 24.283L33.454 17.2921C33.2179 16.3839 33.9009 15.4968 34.8364 15.4968C35.4843 15.4968 36.0511 15.9344 36.2173 16.5628ZM34.8364 15.7218C34.0478 15.7218 33.4719 16.4696 33.671 17.2353L35.4883 24.2262C35.624 24.7484 36.0941 25.1128 36.6319 25.1128C37.0516 25.1128 37.4397 24.8895 37.6518 24.5262L39.9996 20.5038C40.2513 20.0726 40.8965 20.1602 41.025 20.643L41.9905 24.2727C42.1223 24.7681 42.5695 25.1128 43.0805 25.1128C43.4811 25.1128 43.8517 24.8996 44.054 24.5527L48.2064 17.4356C48.6492 16.6765 48.1037 15.7218 47.2271 15.7218C46.8245 15.7218 46.4521 15.9359 46.2484 16.2843L44.2101 19.7709C43.9748 20.1734 43.3719 20.0896 43.2545 19.6381L42.5378 16.8824C42.3601 16.1988 41.7448 15.7218 41.0407 15.7218C40.4943 15.7218 39.9885 16.0109 39.7098 16.4824L37.761 19.7796C37.5231 20.182 36.9198 20.0979 36.8003 19.6458L36.0005 16.6205C35.8605 16.0907 35.3826 15.7218 34.8364 15.7218Z" fill="#393E46" />
    <defs>
        <clipPath id="clip0">
            <rect width="33.6364" height="33.75" fill="white" transform="translate(40.0497)" />
        </clipPath>
    </defs>
</svg>
