<svg width="36" height="36" viewBox="0 0 36 36" fill="none" xmlns="http://www.w3.org/2000/svg">
<path d="M33.096 10.0426C32.79 8.88517 33.1286 7.63992 33.9842 6.78708L33.9885 6.78283C34.6614 6.11133 35 5.23158 35 4.3575C35 2.50875 33.5111 1 31.6425 1C30.767 1 29.8872 1.33717 29.2143 2.00867L29.2115 2.01292C28.3558 2.86858 27.1148 3.20858 25.9546 2.89975C17.5537 0.675583 10.3557 13.9767 2.989 10.2367L1 12.2285L23.7701 35L25.7605 33.0082C22.0205 25.6443 35.3244 18.4448 33.096 10.0426ZM32.8778 3.11933C33.5068 3.74692 33.5068 4.76975 32.8778 5.39733C32.2502 6.02492 31.2302 6.0235 30.6027 5.39592C29.9751 4.76833 29.9737 3.74692 30.6027 3.12075C31.2302 2.49175 32.2517 2.49175 32.8778 3.11933ZM16.2589 32.1667C15.3437 33.0818 14.0843 33.5833 12.8277 33.5833C11.5896 33.5833 10.3542 33.0932 9.46175 32.2007C7.66258 30.4015 7.60875 27.1531 9.42775 25.3355L16.2589 32.1667Z" fill="#5A81E8"/>
</svg>
