<svg width="63" height="36" viewBox="0 0 63 36" fill="none" xmlns="http://www.w3.org/2000/svg">
<path d="M30.1012 0C31.1921 0 32.0515 0.350975 32.6796 1.05293C33.3077 1.75487 33.5721 2.67409 33.473 3.81059L31.2912 32.039C31.1921 33.2089 30.7789 34.1448 30.0516 34.8468C29.3574 35.5487 28.4814 35.8997 27.4236 35.8997C26.0683 35.8997 25.0931 35.4485 24.4981 34.546L9.67223 13.4373L8.18469 32.039C8.08552 33.2089 7.68884 34.1448 6.99465 34.8468C6.30046 35.5487 5.40794 35.8997 4.31707 35.8997C3.2262 35.8997 2.36673 35.5487 1.73866 34.8468C1.14364 34.1114 0.895714 33.1588 0.994883 31.9889L3.17662 3.81059C3.27579 2.67409 3.68899 1.75487 4.41624 1.05293C5.14348 0.350975 6.05254 0 7.14341 0C8.3665 0 9.29208 0.434541 9.92016 1.30362L24.7956 22.4624L26.2336 3.81059C26.3327 2.67409 26.7294 1.75487 27.4236 1.05293C28.1509 0.350975 29.0434 0 30.1012 0Z" fill="#F1B9B9"/>
<path d="M49.9328 36C47.3214 36 45.057 35.4986 43.1397 34.4958C41.2224 33.493 39.7349 32.0891 38.6771 30.2841C37.6523 28.4457 37.1399 26.3064 37.1399 23.8663C37.1399 21.1253 37.6688 18.7354 38.7266 16.6964C39.8175 14.6574 41.3381 13.1031 43.2884 12.0334C45.2718 10.9304 47.5693 10.3788 50.1807 10.3788C52.7922 10.3788 55.0566 10.8802 56.9739 11.883C58.8911 12.8858 60.3622 14.3064 61.3869 16.1448C62.4447 17.9499 62.9736 20.0724 62.9736 22.5125C62.9736 25.2869 62.4282 27.6936 61.3373 29.7326C60.2795 31.7382 58.7589 33.2925 56.7755 34.3955C54.8252 35.4652 52.5443 36 49.9328 36ZM49.8336 30.2841C51.7509 30.2841 53.1724 29.5487 54.0979 28.078C55.0566 26.6072 55.5359 24.6852 55.5359 22.312C55.5359 18.1671 53.7839 16.0947 50.2799 16.0947C48.3626 16.0947 46.9247 16.8301 45.966 18.3008C45.0404 19.7716 44.5777 21.6769 44.5777 24.0167C44.5777 28.195 46.3296 30.2841 49.8336 30.2841Z" fill="#F1B9B9"/>
</svg>
