<svg width="375" height="232" viewBox="0 0 375 232" fill="none" xmlns="http://www.w3.org/2000/svg">
<path d="M0 51V0C0 0 106.547 -1.41378e-10 187.5 2.10604e-10C322 7.95409e-10 375 51 375 51H0Z" fill="#FEFEFE"/>
<path d="M0 51C0 51 113.861 51 187.5 51C261.139 51 375 51 375 51V232H0V51Z" fill="#FEFEFE"/>
<path d="M187.5 231.94C253.498 231.94 307 228.817 307 224.964C307 221.11 253.498 217.987 187.5 217.987C121.502 217.987 68.0005 221.11 68.0005 224.964C68.0005 228.817 121.502 231.94 187.5 231.94Z" fill="#EEEEEE"/>
<path d="M234.741 77.3396L232.707 74.5661C232.768 74.235 232.749 73.8941 232.65 73.5723C232.551 73.2504 232.376 72.9571 232.14 72.7171C231.327 71.7926 226.045 72.2795 225.231 72.3597C224.418 72.4398 223.074 75.6816 223.869 76.6246C224.664 77.5676 229.743 77.7279 230.211 77.3211L231.814 79.5522L234.741 77.3396Z" fill="#EEC1BB"/>
<path d="M265.336 70.4556C265.175 68.2368 266.568 67.374 268.343 68.1321C270.118 68.8901 271.653 66.2831 274.02 66.8994C276.386 67.5157 275.659 69.8763 276.879 70.4556C278.1 71.035 279.474 70.3385 280.004 73.3092C280.534 76.2799 278.587 74.7391 279.443 77.34C280.3 79.9409 282.852 80.6743 280.676 82.8869C278.5 85.0996 277.021 85.9686 278.728 87.8176C280.436 89.6665 278.587 91.4416 277.804 92.0517C277.021 92.6619 281.2 96.1934 280.023 99.3614C278.846 102.529 269.027 105.457 262.969 103.146C256.91 100.834 255.228 97.3337 255.573 93.3522C255.918 89.3707 258.858 88.3168 258.655 87.0718C258.451 85.8268 256.516 84.7359 257.613 82.9054C258.71 81.0749 261.755 80.9147 260.781 79.1643C259.807 77.4139 259.93 75.4663 261.027 74.6097C262.125 73.753 263.148 73.9933 262.944 72.2368C262.741 70.4803 265.336 70.4556 265.336 70.4556Z" fill="#263238"/>
<path d="M260.03 89.6605C260.03 89.6605 246.119 89.7837 243.518 86.5788C240.917 83.3739 234.341 75.7314 234.341 75.7314L230.643 78.0365C230.643 78.0365 237.115 92.4894 241.176 95.6635C245.238 98.8376 257.33 99.4909 257.33 99.4909L260.03 89.6605Z" fill="#5A81E8"/>
<path opacity="0.3" d="M260.03 89.6605C260.03 89.6605 246.119 89.7837 243.518 86.5788C240.917 83.3739 234.341 75.7314 234.341 75.7314L230.643 78.0365C230.643 78.0365 237.115 92.4894 241.176 95.6635C245.238 98.8376 257.33 99.4909 257.33 99.4909L260.03 89.6605Z" fill="white"/>
<path d="M236.289 217.184L239.987 217.838L241.503 212.796L242.883 208.174L238.624 206.682L237.386 212.241L236.289 217.184Z" fill="#EEC1BB"/>
<path d="M240.818 217.739C240.88 217.326 235.82 216.766 235.82 216.766C235.82 216.766 232.183 219.354 229.071 219.527C225.959 219.699 227.308 221.795 230.655 222.387L238.926 223.847C241.299 224.266 240.171 221.98 240.818 217.739Z" fill="#5A81E8"/>
<path d="M232.541 217.381C232.478 217.304 232.441 217.208 232.436 217.109C232.43 217.009 232.456 216.91 232.51 216.826C232.542 216.758 232.587 216.698 232.643 216.648C232.699 216.598 232.765 216.56 232.837 216.537C233.218 216.454 233.615 216.479 233.983 216.611C233.613 216.321 233.305 215.994 233.336 215.729C233.336 215.557 233.49 215.434 233.737 215.366C233.846 215.334 233.961 215.326 234.074 215.343C234.187 215.36 234.295 215.401 234.39 215.464C235.006 215.865 235.234 217.104 235.24 217.159C235.247 217.179 235.247 217.201 235.24 217.221V217.252C235.238 217.26 235.234 217.267 235.229 217.273C235.223 217.28 235.217 217.285 235.21 217.289H235.166C234.574 217.458 233.964 217.558 233.348 217.585C233.207 217.607 233.062 217.6 232.924 217.565C232.785 217.53 232.655 217.468 232.541 217.381ZM232.929 216.765C232.892 216.776 232.857 216.795 232.827 216.82C232.797 216.846 232.773 216.877 232.757 216.913C232.67 217.098 232.726 217.165 232.757 217.184C232.954 217.418 233.921 217.307 234.716 217.122C234.162 216.925 233.324 216.642 232.929 216.802V216.765ZM233.81 215.6C233.737 215.6 233.607 215.668 233.601 215.736C233.601 215.964 234.217 216.481 234.914 216.894C234.829 216.422 234.593 215.989 234.242 215.662C234.159 215.608 234.063 215.58 233.965 215.581C233.912 215.59 233.86 215.604 233.81 215.625V215.6Z" fill="#263238"/>
<path opacity="0.2" d="M237.367 212.359L241.484 212.901L242.877 208.223L238.618 206.707L237.367 212.359Z" fill="#393E46"/>
<path d="M260.96 218.769H264.713L265.33 213.542L265.884 208.747L261.428 208.02L261.182 213.709L260.96 218.769Z" fill="#EEC1BB"/>
<path d="M265.514 218.528C265.514 218.115 260.423 218.436 260.423 218.436C260.423 218.436 257.299 221.616 254.26 222.331C251.222 223.046 252.916 224.87 256.312 224.87H264.713C267.123 224.87 265.619 222.812 265.514 218.528Z" fill="#5A81E8"/>
<path d="M257.299 219.613C257.227 219.546 257.176 219.459 257.154 219.364C257.132 219.268 257.14 219.168 257.176 219.076C257.194 219.003 257.228 218.935 257.275 218.875C257.322 218.816 257.38 218.767 257.447 218.731C257.808 218.585 258.203 218.542 258.587 218.608C258.174 218.386 257.817 218.115 257.798 217.85C257.798 217.677 257.903 217.53 258.131 217.425C258.234 217.376 258.347 217.351 258.461 217.351C258.575 217.351 258.688 217.376 258.791 217.425C259.481 217.708 259.906 218.898 259.925 218.947C259.932 218.963 259.936 218.981 259.936 218.999C259.936 219.018 259.932 219.035 259.925 219.052L259.882 219.089C259.219 219.413 258.506 219.621 257.774 219.705C257.609 219.734 257.44 219.701 257.299 219.613ZM257.583 218.959C257.512 218.998 257.459 219.062 257.435 219.138C257.385 219.341 257.435 219.391 257.472 219.409C257.712 219.607 258.643 219.323 259.388 219.009C258.803 218.825 258.177 218.808 257.583 218.959ZM258.248 217.665C258.18 217.696 258.063 217.764 258.063 217.832C258.063 218.066 258.809 218.448 259.561 218.744C259.393 218.296 259.086 217.914 258.686 217.653C258.622 217.624 258.553 217.609 258.482 217.61C258.401 217.61 258.321 217.629 258.248 217.665Z" fill="#263238"/>
<path opacity="0.2" d="M261.182 213.826L265.33 213.647L265.884 208.797L261.428 208.051L261.182 213.826Z" fill="#393E46"/>
<path d="M237.016 209.406L243.093 210.479C249.219 195.2 253.57 182.454 256.652 171.872C258.31 166.165 259.598 161.092 260.596 156.587L260.319 173.228V210.996H266.482C281.484 139.435 270.852 123.077 270.852 123.077L252.898 119.996C252.189 123.31 251.687 126.665 251.395 130.042L250.587 135.983L243.586 172.229L237.016 209.406Z" fill="#263238"/>
<path opacity="0.2" d="M237.016 209.406L243.093 210.479C249.219 195.2 253.57 182.454 256.652 171.872C258.31 166.165 259.598 161.092 260.596 156.587L260.319 173.228V210.996H266.482C281.484 139.435 270.852 123.077 270.852 123.077L252.898 119.996C252.189 123.31 251.687 126.665 251.395 130.042L250.587 135.983L243.586 172.229L237.016 209.406Z" fill="white"/>
<path d="M244.041 209.746L236.51 207.25L236.608 210.448L242.839 212.439L244.041 209.746Z" fill="#263238"/>
<path d="M267.302 210.091L259.45 208.945L260.103 212.082L266.587 212.957L267.302 210.091Z" fill="#263238"/>
<path d="M270.871 120.397V123.078L252.56 121.672V118.504L270.871 120.397Z" fill="#263238"/>
<path d="M256.53 122.178L260.532 122.537L260.804 119.498L256.802 119.14L256.53 122.178Z" fill="white"/>
<path d="M264.484 123.9L265.395 123.946L265.631 119.324L264.72 119.277L264.484 123.9Z" fill="#263238"/>
<path opacity="0.2" d="M264.484 123.9L265.395 123.946L265.631 119.324L264.72 119.277L264.484 123.9Z" fill="white"/>
<path d="M253.289 122.674L254.2 122.721L254.435 118.098L253.525 118.052L253.289 122.674Z" fill="#263238"/>
<path opacity="0.2" d="M253.289 122.674L254.2 122.721L254.435 118.098L253.525 118.052L253.289 122.674Z" fill="white"/>
<path d="M280.005 94.6035C279.45 95.7314 278.945 96.8038 278.476 97.8146C278.076 98.6651 277.706 99.4725 277.354 100.243L276.738 101.55C276.59 101.882 276.442 102.215 276.307 102.536C275.82 103.639 275.388 104.668 275 105.617C274.772 106.184 274.562 106.733 274.384 107.263L274.113 107.99C273.693 109.106 273.342 110.141 273.034 111.121C272.769 111.972 272.535 112.785 272.319 113.586C272.036 114.665 271.795 115.713 271.573 116.779C271.401 117.599 271.24 118.431 271.08 119.294C271.006 119.657 270.938 120.027 270.871 120.403L252.56 118.499C252.621 117.469 252.689 116.471 252.763 115.497C252.825 114.634 252.886 113.796 252.954 112.982C253.053 111.824 253.151 110.714 253.25 109.648C253.336 108.785 253.422 107.953 253.509 107.152C253.632 105.981 253.761 104.878 253.891 103.83C253.996 102.955 254.107 102.129 254.211 101.365C254.378 100.132 254.544 99.0534 254.698 98.0611C254.852 97.0688 254.988 96.3231 255.117 95.5958C255.286 94.6836 255.434 93.9255 255.561 93.3215C256.368 89.6236 256.96 89.5435 256.96 89.5435C256.96 89.5435 261.077 89.6297 264.609 90.0735H264.701C267.088 90.4425 269.449 90.9612 271.771 91.6266C272.073 91.7068 272.387 91.7931 272.664 91.8855C275.174 92.6118 277.627 93.5202 280.005 94.6035Z" fill="#5A81E8"/>
<path opacity="0.6" d="M280.005 94.6035C279.45 95.7314 278.945 96.8038 278.476 97.8146C278.076 98.6651 277.706 99.4725 277.354 100.243L276.738 101.55C276.59 101.882 276.442 102.215 276.307 102.536C275.82 103.639 275.388 104.668 275 105.617C274.772 106.184 274.562 106.733 274.384 107.263L274.113 107.99C273.693 109.106 273.342 110.141 273.034 111.121C272.769 111.972 272.535 112.785 272.319 113.586C272.036 114.665 271.795 115.713 271.573 116.779C271.401 117.599 271.24 118.431 271.08 119.294C271.006 119.657 270.938 120.027 270.871 120.403L252.56 118.499C252.621 117.469 252.689 116.471 252.763 115.497C252.825 114.634 252.886 113.796 252.954 112.982C253.053 111.824 253.151 110.714 253.25 109.648C253.336 108.785 253.422 107.953 253.509 107.152C253.632 105.981 253.761 104.878 253.891 103.83C253.996 102.955 254.107 102.129 254.211 101.365C254.378 100.132 254.544 99.0534 254.698 98.0611C254.852 97.0688 254.988 96.3231 255.117 95.5958C255.286 94.6836 255.434 93.9255 255.561 93.3215C256.368 89.6236 256.96 89.5435 256.96 89.5435C256.96 89.5435 261.077 89.6297 264.609 90.0735H264.701C267.088 90.4425 269.449 90.9612 271.771 91.6266C272.073 91.7068 272.387 91.7931 272.664 91.8855C275.174 92.6118 277.627 93.5202 280.005 94.6035Z" fill="white"/>
<path opacity="0.2" d="M256.664 171.891C258.322 166.184 259.61 161.111 260.608 156.606C260.521 151.273 260.132 145.95 259.443 140.662C259.443 140.662 256.818 161.222 256.664 171.891Z" fill="#393E46"/>
<path d="M266.285 89.9935C264.122 89.6792 262.791 90.9118 263.789 92.9827C264.788 95.0536 265.12 95.3617 268.522 94.7516C271.925 94.1414 275.881 91.3987 266.285 89.9935Z" fill="#5A81E8"/>
<path d="M277.354 100.243L276.737 101.55C276.589 101.882 276.442 102.215 276.306 102.536C270.87 101.26 260.682 98.9487 254.673 98.0488C254.821 97.1305 254.963 96.3108 255.092 95.5835C262.601 96.6798 270.035 98.2359 277.354 100.243Z" fill="#5A81E8"/>
<path d="M275.018 105.636C274.79 106.203 274.581 106.751 274.402 107.281L274.131 108.008C268.584 106.72 259.53 104.699 253.909 103.836C254.014 102.961 254.125 102.135 254.23 101.371C261.233 102.406 268.173 103.829 275.018 105.636Z" fill="#5A81E8"/>
<path d="M273.034 111.14C272.769 111.99 272.534 112.804 272.319 113.605C266.876 112.372 258.642 110.523 253.25 109.667C253.336 108.804 253.422 107.972 253.508 107.17C260.081 108.156 266.598 109.481 273.034 111.14Z" fill="#5A81E8"/>
<path d="M271.573 116.785C271.4 117.605 271.24 118.437 271.08 119.299C265.823 118.067 258.088 116.372 252.763 115.503C252.824 114.64 252.886 113.802 252.954 112.988C257.453 113.685 264.43 114.917 271.573 116.785Z" fill="#5A81E8"/>
<g opacity="0.3">
<path opacity="0.3" d="M266.285 89.9935C264.122 89.6792 262.791 90.9118 263.789 92.9827C264.788 95.0536 265.12 95.3617 268.522 94.7516C271.925 94.1414 275.881 91.3987 266.285 89.9935Z" fill="white"/>
<path opacity="0.3" d="M277.354 100.243L276.738 101.55C276.59 101.882 276.442 102.215 276.306 102.536C270.87 101.26 260.683 98.9487 254.673 98.0488C254.821 97.1305 254.963 96.3108 255.092 95.5835C262.601 96.6798 270.036 98.2359 277.354 100.243Z" fill="white"/>
<path opacity="0.3" d="M275.018 105.636C274.79 106.203 274.58 106.752 274.402 107.282L274.13 108.009C268.583 106.721 259.53 104.699 253.909 103.836C254.013 102.961 254.124 102.135 254.229 101.371C261.232 102.406 268.173 103.83 275.018 105.636Z" fill="white"/>
<path opacity="0.3" d="M273.034 111.14C272.769 111.991 272.534 112.804 272.319 113.605C266.876 112.373 258.642 110.524 253.25 109.667C253.336 108.804 253.422 107.972 253.508 107.171C260.081 108.157 266.598 109.481 273.034 111.14Z" fill="white"/>
<path opacity="0.3" d="M271.573 116.785C271.4 117.605 271.24 118.437 271.08 119.299C265.823 118.067 258.088 116.372 252.763 115.503C252.824 114.64 252.886 113.802 252.954 112.988C257.453 113.685 264.43 114.917 271.573 116.785Z" fill="white"/>
</g>
<path d="M265.637 94.2523C270.186 94.2091 271.758 92.4526 271.758 92.4526C269.231 89.4326 272.146 85.0566 272.146 85.0566L266.63 85.4264C266.664 86.1931 266.646 86.9612 266.574 87.7253C266.223 91.0042 264.725 90.8625 264.725 90.8625C263.585 92.5265 265.637 94.2523 265.637 94.2523Z" fill="#EEC1BB"/>
<path opacity="0.2" d="M266.63 85.4323C266.664 86.199 266.646 86.9671 266.574 87.7312C270.217 88.1626 272.121 85.0625 272.121 85.0625L266.63 85.4323Z" fill="#393E46"/>
<path d="M271.394 70.733C266.735 69.9256 264.806 72.1567 263.622 76.8962C262.156 82.8253 262.741 87.3184 268.793 87.0533C277.003 86.6589 279.135 72.0519 271.394 70.733Z" fill="#EEC1BB"/>
<path d="M266.686 77.1304C266.19 77.7601 265.621 78.329 264.991 78.8253C265.094 79.0411 265.255 79.2246 265.454 79.3561C265.654 79.4875 265.886 79.5618 266.125 79.571L266.686 77.1304Z" fill="#7A5AE8"/>
<path d="M269.601 77.2477C269.527 77.6298 269.668 77.975 269.921 78.0304C270.174 78.0859 270.445 77.8086 270.538 77.4141C270.63 77.0197 270.47 76.6868 270.217 76.6375C269.964 76.5882 269.675 76.8964 269.601 77.2477Z" fill="#263238"/>
<path d="M270.297 76.6866L269.533 76.1997C269.533 76.1997 269.81 76.9763 270.297 76.6866Z" fill="#263238"/>
<path d="M264.88 76.2303C264.8 76.6062 264.948 76.9575 265.2 77.0069C265.453 77.0562 265.724 76.7911 265.817 76.3905C265.909 75.9899 265.749 75.6632 265.496 75.6078C265.243 75.5523 264.954 75.8481 264.88 76.2303Z" fill="#263238"/>
<path d="M265.576 75.6635L264.812 75.1704C264.812 75.1704 265.089 75.9593 265.576 75.6635Z" fill="#263238"/>
<path d="M270.205 74.0361C270.581 74.056 270.948 74.1618 271.277 74.3456C271.606 74.5294 271.889 74.7862 272.103 75.0962" stroke="#263238" stroke-width="0.72468" stroke-linecap="round" stroke-linejoin="round"/>
<path d="M266.858 73.2535C266.553 73.1168 266.221 73.0509 265.887 73.0605C265.553 73.0701 265.226 73.155 264.929 73.3089" stroke="#263238" stroke-width="0.72468" stroke-linecap="round" stroke-linejoin="round"/>
<path d="M266.488 81.5189C266.617 82.0828 266.703 82.6555 266.747 83.2323H267.055C268.436 83.3309 269.108 82.9241 269.434 82.4372C269.672 82.0546 269.767 81.6011 269.706 81.1553C268.826 81.4735 267.888 81.5975 266.957 81.5189C266.667 81.5374 266.488 81.5189 266.488 81.5189Z" fill="#263238"/>
<path d="M266.957 81.5433L267.049 82.0487C268.349 82.1412 269.274 82.0487 269.711 81.6604C269.732 81.5009 269.732 81.3393 269.711 81.1797C268.83 81.4988 267.89 81.6228 266.957 81.5433Z" fill="white"/>
<path d="M267.056 83.2568C268.436 83.3554 269.108 82.9486 269.435 82.4618C268.91 82.4329 268.384 82.4976 267.882 82.6528C267.549 82.7613 267.26 82.9728 267.056 83.2568Z" fill="#DE5753"/>
<path d="M275.123 79.4417C275.123 79.4417 273.607 75.2384 274.451 72.3355C274.451 72.3355 265.878 66.9611 263.789 76.2491C263.789 76.2491 264.337 67.7746 272.38 68.9826C280.423 70.1906 278.346 81.9255 273.613 84.6743C273.601 84.6743 276.053 82.0734 275.123 79.4417Z" fill="#263238"/>
<path d="M274.186 80.2926C274.326 79.7612 274.67 79.3065 275.143 79.0281C275.617 78.7498 276.181 78.6703 276.713 78.8072C278.131 79.2202 278.304 82.3018 274.587 82.3881C274.051 82.4004 273.847 81.8272 274.186 80.2926Z" fill="#EEC1BB"/>
<path d="M281.878 111.145L276.331 109.438C276.331 109.438 276.455 108.286 275.832 108.008C275.21 107.731 267.265 106.917 267.056 107.651C266.846 108.384 267.277 112.951 268.522 113.592C269.767 114.233 275.216 114.48 275.376 114.208C275.536 113.937 275.832 113.592 275.832 113.592L281.527 115.349L281.878 111.145Z" fill="#EEC1BB"/>
<path d="M280.004 94.6035C284.399 96.6004 293.989 114.006 292.528 117.981C291.067 121.956 279.037 115.651 279.037 115.651L280.004 109.685L282.753 110.375C282.753 110.375 279.314 104.736 276.331 102.536C276.359 101.003 276.708 99.4938 277.354 98.1043C278.056 96.8101 278.949 95.6298 280.004 94.6035Z" fill="#5A81E8"/>
<path opacity="0.3" d="M280.004 94.6035C284.399 96.6004 293.989 114.006 292.528 117.981C291.067 121.956 279.037 115.651 279.037 115.651L280.004 109.685L282.753 110.375C282.753 110.375 279.314 104.736 276.331 102.536C276.359 101.003 276.708 99.4938 277.354 98.1043C278.056 96.8101 278.949 95.6298 280.004 94.6035Z" fill="white"/>
<path d="M146.94 53.2849L149.578 37.4514C148.16 36.0462 151.427 28.0093 151.427 27.1403C151.427 26.2712 156.394 29.9815 156.481 30.7766C156.567 31.5717 155.248 37.2295 153.763 38.0431L152.986 54.949C152.986 54.949 149.843 56.2802 146.94 53.2849Z" fill="#E4897B"/>
<path d="M123.112 65.9508C123.112 65.9508 139.512 65.2359 142.662 62.9554C145.811 60.675 147.987 41.1128 147.987 41.1128L155.999 41.9017C155.999 41.9017 153.86 63.5779 149.663 69.0201C145.466 74.4623 128.948 77.0693 128.948 77.0693L123.112 65.9508Z" fill="#263238"/>
<path opacity="0.2" d="M156.012 41.9017C156.012 41.9017 153.873 63.5779 149.676 69.0201C147.587 71.7196 142.422 73.735 137.775 75.0724C134.871 75.8981 131.925 76.5647 128.949 77.0693L125.769 70.9985L123.119 65.9508C123.119 65.9508 139.519 65.2359 142.669 62.9554C145.818 60.675 147.994 41.1128 147.994 41.1128L156.012 41.9017Z" fill="white"/>
<path opacity="0.2" d="M137.775 75.0473C134.872 75.8813 131.925 76.5561 128.949 77.0689L125.769 70.998C128.949 71.2754 135.654 72.1876 137.775 75.0473Z" fill="#393E46"/>
<path d="M85.7195 85.5251L77.245 71.8673C78.0216 70.0183 79.1556 63.7502 78.792 62.9552C78.4284 62.1601 72.4931 60.3912 72.2466 61.137C71.5132 63.1216 71.9015 73.8334 73.6087 74.0183L80.7889 89.371C80.7889 89.371 84.1725 89.408 85.7195 85.5251Z" fill="#E4897B"/>
<path d="M126.021 220.278L131.026 220.808L131.962 210.023L126.964 209.493L126.021 220.278Z" fill="#E4897B"/>
<path d="M101.072 219.915H105.916L106.317 208.691H101.466L101.072 219.915Z" fill="#E4897B"/>
<path d="M106.588 219.354H100.702C100.606 219.354 100.512 219.386 100.437 219.447C100.361 219.508 100.309 219.593 100.289 219.687L99.3341 224.001C99.2958 224.187 99.3327 224.38 99.4367 224.538C99.5407 224.697 99.7033 224.807 99.8888 224.846C99.94 224.852 99.9917 224.852 100.043 224.846C101.947 224.815 103.334 224.698 105.725 224.698C107.198 224.698 111.642 224.852 113.676 224.852C115.71 224.852 115.975 222.843 115.143 222.658C111.408 221.844 108.597 220.716 107.402 219.644C107.178 219.447 106.887 219.343 106.588 219.354Z" fill="#BFBFBF"/>
<path d="M106.921 220.026C106.899 220.02 106.878 220.008 106.863 219.99C106.848 219.973 106.838 219.951 106.835 219.928C106.832 219.906 106.836 219.884 106.846 219.864C106.856 219.844 106.871 219.828 106.89 219.817C107.063 219.706 108.628 218.744 109.165 219.022C109.225 219.05 109.277 219.095 109.312 219.152C109.347 219.209 109.364 219.275 109.362 219.342C109.38 219.457 109.367 219.574 109.325 219.683C109.282 219.791 109.212 219.886 109.121 219.958C108.848 220.144 108.52 220.231 108.191 220.205C107.762 220.191 107.337 220.131 106.921 220.026ZM107.254 219.866C107.819 220.057 108.436 220.026 108.98 219.78C109.038 219.729 109.082 219.665 109.109 219.593C109.136 219.521 109.145 219.443 109.134 219.367C109.134 219.274 109.091 219.231 109.06 219.231C109.015 219.205 108.963 219.195 108.912 219.2C108.32 219.319 107.757 219.551 107.254 219.885V219.866Z" fill="#5A81E8"/>
<path d="M106.89 220.051C106.873 220.039 106.86 220.023 106.85 220.005C106.841 219.987 106.835 219.966 106.834 219.946C106.834 219.878 106.958 218.485 107.519 218.029C107.585 217.971 107.662 217.928 107.746 217.903C107.83 217.877 107.918 217.87 108.005 217.881C108.093 217.878 108.179 217.908 108.247 217.963C108.315 218.019 108.36 218.097 108.375 218.183C108.474 218.695 107.506 219.761 107.007 220.032H106.952C106.933 220.045 106.912 220.051 106.89 220.051ZM107.667 218.165C107.327 218.601 107.128 219.129 107.093 219.681C107.593 219.305 108.209 218.498 108.147 218.183C108.147 218.152 108.147 218.066 107.981 218.066H107.925C107.83 218.068 107.739 218.103 107.667 218.165Z" fill="#5A81E8"/>
<path d="M131.549 219.201H125.663C125.567 219.2 125.473 219.233 125.397 219.293C125.322 219.354 125.27 219.439 125.25 219.533L124.295 223.848C124.257 224.033 124.294 224.226 124.398 224.385C124.502 224.543 124.664 224.653 124.85 224.692C124.901 224.698 124.953 224.698 125.004 224.692C126.908 224.661 128.295 224.544 130.686 224.544C132.159 224.544 136.603 224.698 138.637 224.698C140.671 224.698 140.936 222.689 140.104 222.504C136.369 221.691 133.558 220.563 132.363 219.49C132.139 219.293 131.847 219.189 131.549 219.201Z" fill="#BFBFBF"/>
<path d="M131.882 219.884C131.86 219.878 131.839 219.866 131.824 219.848C131.809 219.831 131.799 219.809 131.796 219.786C131.793 219.764 131.797 219.741 131.807 219.722C131.817 219.702 131.832 219.686 131.851 219.675C132.024 219.564 133.589 218.602 134.126 218.88C134.186 218.908 134.238 218.953 134.273 219.01C134.308 219.067 134.325 219.133 134.323 219.2C134.341 219.315 134.328 219.432 134.285 219.541C134.243 219.649 134.173 219.744 134.082 219.816C133.809 220.002 133.481 220.089 133.152 220.063C132.723 220.049 132.298 219.989 131.882 219.884ZM132.215 219.724C132.78 219.915 133.397 219.884 133.941 219.638C133.999 219.587 134.043 219.523 134.07 219.451C134.097 219.379 134.105 219.301 134.095 219.225C134.095 219.132 134.052 219.089 134.021 219.089C133.976 219.063 133.924 219.052 133.873 219.058C133.283 219.168 132.72 219.389 132.215 219.712V219.724Z" fill="#5A81E8"/>
<path d="M131.852 219.885C131.835 219.873 131.822 219.857 131.812 219.839C131.802 219.82 131.797 219.8 131.796 219.78C131.796 219.712 131.92 218.319 132.481 217.863C132.546 217.805 132.624 217.762 132.708 217.737C132.792 217.711 132.88 217.704 132.967 217.715C133.055 217.712 133.141 217.742 133.209 217.797C133.277 217.853 133.322 217.931 133.337 218.017C133.436 218.529 132.468 219.595 131.969 219.866H131.913C131.895 219.879 131.874 219.885 131.852 219.885ZM132.647 218.036C132.308 218.472 132.108 219 132.074 219.552C132.573 219.176 133.189 218.369 133.128 218.054C133.128 218.023 133.128 217.937 132.961 217.937H132.906C132.811 217.939 132.719 217.974 132.647 218.036Z" fill="#5A81E8"/>
<path opacity="0.2" d="M126.964 209.493L131.963 210.023L131.476 215.582L126.471 215.058L126.964 209.493Z" fill="#393E46"/>
<path opacity="0.2" d="M101.466 208.698H106.317L106.107 214.485H101.257L101.466 208.698Z" fill="#393E46"/>
<path d="M103.47 110.246H129.183C131.648 123.596 139.284 170.85 133.793 212.945L125.084 211.872C125.084 211.872 125.892 155.984 118.206 135.324C117.325 146.381 116.271 158.129 115.359 164.409C113.121 179.817 108.333 213.487 108.333 213.487H99.4697C99.4697 213.487 101.282 181.259 102.12 166.116C103.063 149.666 103.433 113.624 103.47 110.246Z" fill="#5A81E8"/>
<path d="M134.785 214.972L124.012 213.37L124.345 210.387L135.549 211.86L134.785 214.972Z" fill="#5A81E8"/>
<path d="M109.399 213.554H98.9458V210.429L109.793 210.226L109.399 213.554Z" fill="#5A81E8"/>
<path opacity="0.2" d="M118.206 135.318C119.47 138.93 120.43 142.641 121.078 146.412C121.799 136.551 118.921 126.135 118.921 126.135L118.206 135.318Z" fill="#393E46"/>
<path d="M99.0137 68.0341C100.438 73.2645 101.468 78.5942 102.095 83.9785C102.299 85.6303 102.465 87.2512 102.601 88.8228C102.779 90.8197 102.903 92.7427 103.001 94.567C103.125 96.8782 103.162 99.6086 103.155 102.296C103.155 108.459 102.897 114.407 102.897 114.407C107.827 115.639 122.077 114.82 129.861 114.253C130.778 106.809 131.017 99.2984 130.576 91.812C130.319 86.8685 129.775 81.944 128.949 77.0633C128.531 74.4575 127.95 71.8803 127.211 69.3469C126.924 68.4489 126.387 67.6518 125.662 67.0499C124.936 66.448 124.054 66.0666 123.118 65.9509C122.175 65.8338 121.084 65.7167 119.938 65.6489C119.494 65.6489 119.05 65.6058 118.601 65.5996C114.924 65.6415 111.253 65.8966 107.605 66.3639C106.915 66.444 106.212 66.5488 105.534 66.6597C103.338 67.0027 101.162 67.4615 99.0137 68.0341Z" fill="#263238"/>
<path opacity="0.7" d="M129.861 114.258C122.077 114.825 107.827 115.645 102.896 114.412C102.896 114.412 103.143 108.477 103.155 102.301C103.155 99.6141 103.125 96.8838 103.001 94.5725C102.903 92.7235 102.779 90.8253 102.601 88.8284C102.465 87.2567 102.299 85.6358 102.095 83.984C102.046 83.5403 101.99 83.0904 101.929 82.6466C101.75 81.2229 101.534 79.8053 101.312 78.3939V78.357L103.71 74.9055L108.474 68.0396C108.474 68.0396 116.4 71.2445 119.691 66.6714C122.961 69.1141 125.939 71.9245 128.567 75.0473C128.696 75.6636 128.819 76.3662 128.942 77.075C129.771 81.9556 130.317 86.8801 130.576 91.8237C131.017 99.308 130.777 106.817 129.861 114.258Z" fill="white"/>
<path d="M111.562 76.1201C115.744 76.0092 119.93 76.1347 124.098 76.496C124.583 76.5521 125.03 76.7849 125.354 77.1498C125.678 77.5148 125.856 77.9864 125.855 78.4744C125.855 78.7361 125.804 78.9953 125.705 79.2372C125.605 79.4791 125.458 79.6989 125.273 79.8839C125.088 80.0689 124.869 80.2156 124.627 80.3153C124.385 80.4151 124.125 80.466 123.864 80.4652H111.617C111.107 80.4659 110.616 80.2706 110.246 79.9196C109.875 79.5687 109.654 79.0888 109.627 78.5792V78.2156C109.612 77.9499 109.65 77.6839 109.74 77.4334C109.83 77.183 109.97 76.9532 110.15 76.7577C110.331 76.5622 110.549 76.405 110.791 76.2954C111.034 76.1859 111.296 76.1263 111.562 76.1201Z" fill="#263238"/>
<path opacity="0.2" d="M99.0137 68.0341C100.438 73.2645 101.468 78.5942 102.095 83.9785C102.299 85.6303 102.465 87.2512 102.601 88.8228C102.779 90.8197 102.903 92.7427 103.001 94.567C103.125 96.8782 103.162 99.6086 103.155 102.296C103.155 108.459 102.897 114.407 102.897 114.407C107.827 115.639 122.077 114.82 129.861 114.253C130.778 106.809 131.017 99.2984 130.576 91.812C130.319 86.8685 129.775 81.944 128.949 77.0633C128.531 74.4575 127.95 71.8803 127.211 69.3469C126.924 68.4489 126.387 67.6518 125.662 67.0499C124.936 66.448 124.054 66.0666 123.118 65.9509C122.175 65.8338 121.084 65.7167 119.938 65.6489C119.494 65.6489 119.05 65.6058 118.601 65.5996C114.924 65.6415 111.253 65.8966 107.605 66.3639C106.915 66.444 106.212 66.5488 105.534 66.6597C103.338 67.0027 101.162 67.4615 99.0137 68.0341Z" fill="white"/>
<path d="M120.727 44.1626C120.727 44.1626 122.249 49.5061 119.063 52.5076C115.877 55.5091 114.28 43.1826 114.28 43.1826L120.727 44.1626Z" fill="#263238"/>
<path d="M107.593 66.3324C109.954 68.4773 115.741 67.6822 115.741 67.6822C115.741 67.6822 119.347 66.6961 118.589 65.5682C116.462 65.2169 115.433 64.2246 115.008 62.955C114.775 62.168 114.701 61.3424 114.792 60.5266C114.827 60.0718 114.887 59.6192 114.971 59.1707L107.821 53.8765C108.758 57.371 109.904 63.7993 107.593 66.3324Z" fill="#E4897B"/>
<path opacity="0.2" d="M109.473 57.2417C109.757 61.556 113.282 62.7147 115.02 62.955C114.787 62.168 114.714 61.3425 114.804 60.5267L109.473 57.2417Z" fill="#393E46"/>
<path d="M109.547 59.0968C110.426 60.0913 111.606 60.7699 112.908 61.0282C114.21 61.2865 115.56 61.1103 116.752 60.5267C118.305 59.8 119.525 58.5116 120.166 56.9212C120.253 56.7055 120.333 56.4775 120.4 56.2433C121.633 51.9721 121.233 44.8227 116.61 42.7272C115.029 41.9983 113.224 41.9272 111.591 42.5293C109.958 43.1315 108.631 44.3577 107.901 45.9382C107.461 46.8714 107.25 47.8962 107.285 48.9274C107.378 53.7286 107.217 56.5576 109.547 59.0968Z" fill="#E4897B"/>
<path d="M114.52 50.561C114.477 50.9493 114.699 51.2759 114.958 51.2821C115.217 51.2882 115.432 50.9801 115.451 50.5918C115.469 50.2035 115.266 49.8769 115.013 49.8707C114.76 49.8645 114.539 50.1665 114.52 50.561Z" fill="#263238"/>
<path d="M118.939 50.7336C118.896 51.1219 119.118 51.4485 119.371 51.4608C119.624 51.4732 119.845 51.1588 119.864 50.7705C119.882 50.3823 119.679 50.0556 119.426 50.0433C119.174 50.0309 118.952 50.3946 118.939 50.7336Z" fill="#263238"/>
<path d="M117.528 50.875C117.944 52.088 118.527 53.2372 119.26 54.2895C118.983 54.4689 118.671 54.586 118.344 54.6329C118.017 54.6797 117.684 54.655 117.368 54.5606L117.528 50.875Z" fill="#DE5753"/>
<path d="M113.208 49.0758C113.25 49.0852 113.293 49.0826 113.334 49.0685C113.374 49.0543 113.409 49.0291 113.436 48.9957C113.613 48.7692 113.841 48.5872 114.101 48.4642C114.361 48.3411 114.646 48.2804 114.934 48.2869C114.964 48.2903 114.994 48.2878 115.023 48.2794C115.052 48.271 115.079 48.2569 115.103 48.238C115.126 48.2191 115.146 48.1957 115.16 48.1692C115.174 48.1427 115.183 48.1135 115.187 48.0835C115.192 48.0233 115.174 47.9634 115.136 47.9163C115.098 47.8692 115.043 47.8386 114.983 47.8308C114.62 47.8148 114.258 47.8859 113.928 48.0381C113.598 48.1904 113.309 48.4194 113.085 48.706C113.043 48.7487 113.019 48.8063 113.019 48.8663C113.019 48.9263 113.043 48.9838 113.085 49.0265C113.123 49.0503 113.164 49.067 113.208 49.0758Z" fill="#263238"/>
<path d="M120.893 49.2908C120.937 49.3058 120.985 49.3058 121.029 49.2908C121.057 49.28 121.082 49.2636 121.104 49.2427C121.125 49.2218 121.142 49.1968 121.154 49.1692C121.165 49.1415 121.171 49.1118 121.171 49.0819C121.17 49.052 121.164 49.0224 121.152 48.9949C121.014 48.6575 120.797 48.3583 120.519 48.1223C120.242 47.8863 119.911 47.7206 119.556 47.639C119.496 47.6316 119.435 47.6472 119.386 47.6826C119.337 47.718 119.303 47.7707 119.291 47.8301C119.284 47.8895 119.299 47.9494 119.335 47.9975C119.37 48.0456 119.423 48.0783 119.482 48.0889C119.758 48.1639 120.013 48.3019 120.227 48.4923C120.441 48.6827 120.608 48.9202 120.714 49.186C120.734 49.2163 120.76 49.2416 120.791 49.2599C120.822 49.2781 120.857 49.2887 120.893 49.2908Z" fill="#263238"/>
<path d="M113.307 40.4224C112.734 40.4224 112.16 40.4224 111.587 40.4655C109.93 40.5277 108.327 41.0741 106.977 42.0371C103.957 44.3977 105.165 49.2851 106.003 52.4469C107.119 56.6503 109.085 58.3698 109.085 58.3698C107.803 56.4654 107.593 52.4531 108.241 52.262C108.888 52.0709 108.937 52.8475 108.937 52.8475C110.293 51.732 111.279 48.9647 110.583 47.1958C110.053 45.8337 111.489 44.5887 112.9 45.0818L113.325 45.2236L113.985 45.4331L113.307 40.4224Z" fill="#263238"/>
<path d="M105.047 52.7797C105.535 53.8852 106.442 54.7519 107.568 55.1895C109.066 55.7566 109.959 54.4561 109.67 52.9646C109.399 51.6395 108.302 49.7104 106.736 49.7905C105.171 49.8706 104.462 51.4114 105.047 52.7797Z" fill="#E4897B"/>
<path d="M116.696 55.5156C116.393 56.0068 116.127 56.5197 115.9 57.0502C115.796 57.0502 115.697 57.0071 115.598 56.9763C114.261 56.625 113.749 56.021 113.602 55.4601C113.536 55.1824 113.536 54.8934 113.602 54.6158C113.632 54.4565 113.686 54.3028 113.762 54.1597C114.486 54.742 115.327 55.1623 116.227 55.3923C116.517 55.4724 116.696 55.5156 116.696 55.5156Z" fill="#263238"/>
<path d="M116.24 55.3863L115.994 55.8362C114.761 55.5034 113.892 55.1028 113.596 54.6035C113.626 54.4443 113.68 54.2905 113.756 54.1475C114.486 54.7344 115.333 55.1569 116.24 55.3863Z" fill="white"/>
<path d="M115.599 56.9766C114.262 56.6253 113.75 56.0213 113.603 55.4604C114.11 55.6031 114.588 55.8348 115.014 56.1446C115.294 56.3516 115.499 56.6434 115.599 56.9766Z" fill="#DE5753"/>
<path d="M105.233 49.063C105.233 49.063 104.475 46.1293 104.616 44.4406C104.758 42.7518 108.37 39.0908 112.308 38.7395C116.246 38.3882 117.239 38.7395 118.471 40.0708C119.704 41.4021 120.579 44.9583 120.579 44.9583C120.579 44.9583 112.857 43.1339 105.233 49.063Z" fill="#5A81E8"/>
<path d="M105.232 49.0631C105.232 49.0631 112.45 41.1495 119.661 40.5332C126.872 39.9168 127.901 42.0617 121.041 46.0801C121.041 46.0801 116.795 42.5424 105.232 49.0631Z" fill="#5A81E8"/>
<path opacity="0.2" d="M105.232 49.0631C105.232 49.0631 112.45 41.1495 119.661 40.5332C126.872 39.9168 127.901 42.0617 121.041 46.0801C121.041 46.0801 116.795 42.5424 105.232 49.0631Z" fill="#393E46"/>
<path opacity="0.2" d="M101.929 82.6466C101.75 81.2229 101.534 79.8053 101.312 78.3939V78.3569C101.522 78.0056 103.242 75.1274 103.414 73.0688C103.559 73.6769 103.658 74.295 103.71 74.9178C103.895 76.8962 103.809 80.0642 101.929 82.6466Z" fill="#393E46"/>
<path d="M101.621 80.4219C100.456 84.5759 93.51 93.4572 87.9877 94.2153C78.0217 95.5835 73.3931 77.9751 73.3931 77.9751L80.3021 73.3095C80.3021 73.3095 83.7843 81.18 85.584 82.388C87.809 83.8856 95.1371 71.0044 99.0138 68.0337C99.0138 68.0337 104.832 69.0013 101.621 80.4219Z" fill="#263238"/>
<path opacity="0.2" d="M101.621 80.4219C100.456 84.5759 93.51 93.4572 87.9877 94.2153C78.0217 95.5835 73.3931 77.9751 73.3931 77.9751L80.3021 73.3095C80.3021 73.3095 83.7843 81.18 85.584 82.388C87.809 83.8856 95.1371 71.0044 99.0138 68.0337C99.0138 68.0337 104.832 69.0013 101.621 80.4219Z" fill="white"/>
<path d="M201.497 74.4318L205.768 71.4611C206.244 70.579 206.817 69.7522 207.475 68.9958C208.325 68.1083 211.007 66.7154 211.74 66.8017C212.473 66.888 215.851 69.3224 214.526 70.6044C213.201 71.8864 209.965 73.5011 209.423 73.3039L208.88 73.1067L203.524 77.421L201.497 74.4318Z" fill="#EBB376"/>
<path d="M207.475 75.1775C207.475 75.1775 195.697 85.5257 191.198 87.7753C188.991 88.8846 183.802 90.672 179.142 92.1882C174.335 93.7475 170.051 95.0294 170.051 95.0294L169.306 93.6427L165.047 85.7229C165.047 85.7229 187.296 82.6412 189.25 81.8215C191.204 81.0018 204.541 71.4487 204.541 71.4487L207.475 75.1775Z" fill="#263238"/>
<path opacity="0.2" d="M179.16 92.1878C174.353 93.7471 170.069 95.0291 170.069 95.0291L169.324 93.6423V89.9937C169.324 89.9937 176.134 90.2094 179.16 92.1878Z" fill="#393E46"/>
<path d="M136.788 127.929L133.854 132.243C133.715 133.232 133.471 134.203 133.127 135.14C132.64 136.274 130.631 138.524 129.916 138.702C129.201 138.881 125.17 137.803 125.959 136.139C126.748 134.474 129.195 131.824 129.774 131.824H130.348L133.83 125.901L136.788 127.929Z" fill="#EBB376"/>
<path d="M157.355 61.865C160.658 61.8218 167.407 67.6338 167.407 67.6338C167.407 67.6338 169.404 76.2624 171.271 78.0313L169.842 78.6476L168.646 76.8356L169.324 79.455C169.324 79.455 163.352 82.1237 158.427 82.3825C153.503 82.6414 151.228 81.6491 151.228 81.6491L151.721 79.455L150.766 81.341L148.745 80.4843C149.689 77.1705 150.365 73.7862 150.766 70.3641C151.228 65.5506 157.355 61.865 157.355 61.865Z" fill="#263238"/>
<path d="M164.917 196.125C161.189 200.809 157.842 205.055 154.92 208.156C152.005 211.293 150.501 213.24 150.501 213.24L147.611 211.582C147.611 211.582 150.28 207.36 153.897 201.536C156.979 196.606 160.745 190.504 164.165 184.852C168.597 177.555 172.437 171.009 173.453 168.667C174.175 167.003 172.221 160.612 170.051 154.584C167.851 148.452 165.435 142.683 165.435 142.683L173.324 129.346C173.324 129.346 176.529 138.227 179.376 147.595C181.225 153.758 182.957 160.076 183.53 164.291C184.325 170.177 174.162 184.489 164.917 196.125Z" fill="#EBB376"/>
<path opacity="0.2" d="M164.942 196.125C161.244 200.809 157.638 205.056 154.976 208.156C154.594 206.251 154.211 203.996 153.903 201.537C156.985 196.606 160.751 190.504 164.171 184.853C164.097 188.625 164.355 192.398 164.942 196.125Z" fill="#393E46"/>
<path opacity="0.2" d="M179.364 147.595L170.051 154.584C167.851 148.452 165.435 142.683 165.435 142.683L173.324 129.346C173.324 129.346 176.517 138.227 179.364 147.595Z" fill="#393E46"/>
<path d="M163.099 220.051L159.764 220.501C159.764 220.501 154.945 196.791 155.092 177.223C153.305 170.749 151.91 164.173 150.914 157.531C149.73 149.519 149.151 140.594 150.71 133.938L162.39 139.195L162.63 156.711L162.827 171.312L163.099 220.051Z" fill="#EBB376"/>
<path opacity="0.2" d="M162.606 156.699L150.896 157.519C149.712 149.507 149.133 140.582 150.692 133.926L162.372 139.183L162.606 156.699Z" fill="#393E46"/>
<path d="M147.802 209.74C148.147 209.487 151.056 213.844 151.056 213.844C151.056 213.844 150.409 218.387 151.722 221.314C153.034 224.242 150.489 223.989 148.363 221.216L143.124 214.337C141.62 212.384 144.239 212.334 147.802 209.74Z" fill="#263238"/>
<path d="M152.042 217.13C151.382 216.976 150.951 215.096 150.871 214.72V214.665C150.871 214.665 150.871 214.665 150.871 214.622V214.585H150.914C150.975 214.585 152.208 214.178 152.868 214.585C152.969 214.642 153.057 214.721 153.125 214.815C153.194 214.91 153.24 215.018 153.262 215.133C153.317 215.392 153.262 215.571 153.126 215.669C152.991 215.768 152.448 215.7 152.011 215.497C152.307 215.769 152.52 216.12 152.627 216.508C152.641 216.584 152.638 216.663 152.619 216.738C152.6 216.814 152.565 216.884 152.516 216.945C152.469 217.016 152.406 217.075 152.332 217.118C152.259 217.161 152.176 217.186 152.091 217.192L152.042 217.13ZM152.103 216.865C152.103 216.865 152.214 216.865 152.344 216.723C152.369 216.691 152.387 216.655 152.396 216.615C152.406 216.576 152.407 216.535 152.399 216.495C152.344 216.064 151.69 215.429 151.234 215.047C151.438 215.854 151.795 216.803 152.103 216.865ZM151.345 214.745C152.048 215.182 152.824 215.528 153.022 215.361C153.077 215.324 153.059 215.189 153.022 215.108C153.006 215.032 152.975 214.96 152.929 214.898C152.883 214.835 152.824 214.783 152.757 214.745C152.565 214.649 152.354 214.603 152.14 214.609C151.871 214.625 151.604 214.671 151.345 214.745Z" fill="#5A81E8"/>
<path d="M158.532 218.35C158.532 217.925 163.764 218.258 163.764 218.258C163.764 218.258 166.982 221.524 170.106 222.264C173.231 223.003 171.481 224.871 167.992 224.871H159.364C156.892 224.871 158.446 222.757 158.532 218.35Z" fill="#263238"/>
<path d="M164.369 218.93C164.352 218.923 164.337 218.912 164.326 218.899C164.324 218.886 164.324 218.874 164.326 218.862C164.323 218.847 164.323 218.833 164.326 218.819C164.326 218.819 164.326 218.775 164.326 218.763C164.326 218.751 164.782 217.487 165.491 217.191C165.596 217.143 165.71 217.118 165.826 217.118C165.942 217.118 166.057 217.143 166.162 217.191C166.403 217.309 166.52 217.457 166.508 217.635C166.495 217.814 166.119 218.184 165.694 218.412C166.089 218.344 166.495 218.389 166.865 218.541C166.934 218.576 166.996 218.626 167.045 218.686C167.093 218.747 167.129 218.817 167.148 218.893C167.186 218.987 167.194 219.091 167.171 219.19C167.148 219.289 167.095 219.379 167.019 219.447C166.885 219.543 166.721 219.589 166.557 219.577C165.795 219.493 165.054 219.274 164.369 218.93ZM164.843 218.843C165.614 219.17 166.575 219.46 166.822 219.256C166.822 219.256 166.908 219.182 166.853 218.979C166.841 218.94 166.823 218.903 166.797 218.872C166.772 218.84 166.74 218.813 166.705 218.794C166.511 218.708 166.3 218.67 166.088 218.683C165.669 218.695 165.252 218.748 164.843 218.843ZM165.571 217.45C165.157 217.715 164.843 218.11 164.677 218.572C165.447 218.276 166.193 217.869 166.212 217.635C166.212 217.561 166.095 217.493 166.021 217.463C165.946 217.427 165.863 217.408 165.78 217.407C165.708 217.407 165.637 217.421 165.571 217.45Z" fill="#5A81E8"/>
<path d="M167.777 151.299L180.418 144.692C176.449 132.625 172.868 125.777 172.868 125.777C160.456 127.904 161.59 137.716 161.59 137.716C161.59 137.716 164.751 144.249 167.777 151.299Z" fill="#5A81E8"/>
<path opacity="0.2" d="M166.982 149.438C167.253 150.054 167.518 150.671 167.789 151.287L180.417 144.692C176.448 132.625 172.867 125.777 172.867 125.777C165.207 127.096 162.704 131.324 161.909 134.406C161.618 135.49 161.507 136.614 161.583 137.734C161.583 137.734 164.208 143.139 166.982 149.438Z" fill="white"/>
<path opacity="0.2" d="M166.982 149.439C164.208 143.14 161.583 137.729 161.583 137.729C161.507 136.609 161.618 135.484 161.909 134.401C162.304 134.142 162.743 133.956 163.203 133.852C163.203 133.852 166.581 139.146 166.982 149.439Z" fill="#393E46"/>
<path d="M163.883 154.024L163.464 133.827L173.473 130.906C173.473 130.906 172.69 121.661 171.519 117.069C171.519 117.069 155.26 113.02 152.783 118.536C152.783 118.536 152.783 118.622 152.746 118.653L152.709 118.702C152.709 118.702 148.037 126.918 149.43 154.024H163.883Z" fill="#5A81E8"/>
<path opacity="0.2" d="M163.883 154.024L163.464 133.827L173.473 130.906C173.473 130.906 172.69 121.661 171.519 117.069C171.519 117.069 155.26 113.02 152.783 118.536C152.783 118.536 152.783 118.622 152.746 118.653L152.709 118.702C152.709 118.702 148.037 126.918 149.43 154.024H163.883Z" fill="white"/>
<path d="M152.585 115.738V118.493L171.272 117.051V113.791L152.585 115.738Z" fill="#5A81E8"/>
<path d="M158.925 114.567L157.989 114.615L158.233 119.373L159.168 119.325L158.925 114.567Z" fill="#5A81E8"/>
<path d="M167.078 114.455L162.958 114.824L163.238 117.943L167.357 117.574L167.078 114.455Z" fill="white"/>
<path d="M170.426 113.31L169.491 113.357L169.734 118.115L170.67 118.068L170.426 113.31Z" fill="#5A81E8"/>
<path opacity="0.2" d="M158.925 114.567L157.989 114.615L158.233 119.373L159.168 119.325L158.925 114.567Z" fill="white"/>
<path opacity="0.2" d="M170.426 113.31L169.491 113.357L169.734 118.115L170.67 118.068L170.426 113.31Z" fill="white"/>
<path d="M171.475 114.122L152.671 115.725C152.532 112.814 152.229 109.912 151.765 107.035C151.215 103.935 150.481 100.87 149.565 97.8576C149.029 96.0086 148.394 94.0241 147.636 91.7375C147.278 90.6445 146.886 89.4879 146.458 88.2676C149.014 87.4486 151.626 86.8183 154.274 86.3816C157.068 85.8961 159.894 85.6098 162.73 85.5249C166.391 85.5249 170.6 85.907 170.6 85.907C170.6 85.907 171.216 86.0549 171.574 89.9316C171.919 93.568 172.258 100.859 171.475 114.122Z" fill="#263238"/>
<path d="M148.209 153.198L164.702 153.05L164.412 155.534L148.936 155.386L148.209 153.198Z" fill="#5A81E8"/>
<path d="M166.748 151.152L180.467 143.707L181.201 145.895L167.913 152.465L166.748 151.152Z" fill="#5A81E8"/>
<path d="M161.176 89.6728C156.535 89.0565 155.136 87.0904 155.136 87.0904C157.035 85.3092 156.689 82.6652 156.209 81.0196C156.061 80.4988 155.869 79.9916 155.635 79.5034L161.226 80.545C161.094 81.3233 161.02 82.1102 161.004 82.8994C160.988 83.481 161.042 84.0624 161.164 84.6313C161.546 86.3015 162.495 86.32 162.495 86.32C163.463 88.1567 161.176 89.6728 161.176 89.6728Z" fill="#EBB376"/>
<path opacity="0.2" d="M160.997 82.8994C160.982 83.481 161.036 84.0624 161.158 84.6313C158.939 84.3354 157.256 82.5604 156.227 81.0196C156.079 80.4988 155.888 79.9916 155.654 79.5034L161.244 80.545C161.104 81.3227 161.021 82.1096 160.997 82.8994Z" fill="#393E46"/>
<path d="M160.085 65.0756C164.942 65.2543 166.408 67.9168 166.581 72.9399C166.791 79.2141 165.244 83.6085 159.216 82.0431C151.031 79.9229 152.011 64.7797 160.085 65.0756Z" fill="#EBB376"/>
<path d="M163.463 72.5825C163.825 73.3214 164.274 74.0145 164.8 74.6472C164.652 74.8435 164.451 74.9947 164.222 75.0839C163.992 75.1731 163.742 75.1969 163.5 75.1526L163.463 72.5825Z" fill="#D4827D"/>
<path d="M160.566 68.6812C160.184 68.6205 159.793 68.6484 159.423 68.7627C159.053 68.8771 158.715 69.0748 158.434 69.3407" stroke="#263238" stroke-width="0.707962" stroke-linecap="round" stroke-linejoin="round"/>
<path d="M164.079 68.6074C164.415 68.5368 164.762 68.5429 165.095 68.625C165.428 68.7072 165.738 68.8634 166.002 69.082" stroke="#263238" stroke-width="0.707962" stroke-linecap="round" stroke-linejoin="round"/>
<path d="M162.711 77.0014C162.465 77.5421 162.259 78.1004 162.095 78.6717L161.787 78.6285C160.375 78.4313 159.79 77.8766 159.562 77.3219C159.459 77.0467 159.423 76.7509 159.457 76.4591C159.47 76.2929 159.506 76.1292 159.562 75.9722C160.376 76.4841 161.294 76.8102 162.249 76.9275C162.52 76.9829 162.711 77.0014 162.711 77.0014Z" fill="#263238"/>
<path d="M162.23 76.9275L162.033 77.4144C160.701 77.2295 159.795 76.9213 159.438 76.4591C159.452 76.2929 159.487 76.1292 159.543 75.9722C160.357 76.4841 161.275 76.8102 162.23 76.9275Z" fill="white"/>
<path d="M161.768 78.6284C160.357 78.4312 159.771 77.8765 159.543 77.3218C160.077 77.4069 160.592 77.5841 161.065 77.8456C161.373 78.0296 161.618 78.3025 161.768 78.6284Z" fill="#DE5753"/>
<path d="M154.47 73.0698C154.47 73.0698 156.893 69.1623 156.658 66.0683C156.658 66.0683 166.433 62.4875 166.52 72.2809C166.52 72.2809 167.752 63.6523 159.432 63.1346C151.111 62.6169 150.668 74.8448 154.846 78.6538C154.877 78.6538 152.985 75.5166 154.47 73.0698Z" fill="#263238"/>
<path d="M155.222 74.1239C155.211 73.8445 155.144 73.5703 155.026 73.3168C154.908 73.0634 154.741 72.8357 154.535 72.6468C154.329 72.4579 154.087 72.3115 153.825 72.2159C153.562 72.1204 153.283 72.0776 153.004 72.09C151.494 72.2009 150.662 75.264 154.378 76.1454C154.908 76.281 155.235 75.7571 155.222 74.1239Z" fill="#EBB376"/>
<path d="M157.355 61.8646C159.98 61.1374 166.988 61.0387 168.646 68.2868L167.672 68.7737C166.026 67.9481 164.245 67.4222 162.415 67.2205C162.026 66.5283 161.569 65.8759 161.053 65.2729C161.106 65.8881 161.106 66.5067 161.053 67.1219C161.053 67.1219 156.48 67.7875 154.433 69.6488C151.222 72.5702 151.031 74.4192 151.031 74.4192C151.031 74.4192 148.8 64.2436 157.355 61.8646Z" fill="#263238"/>
<path d="M156.967 62.4009C156.967 62.4009 166.36 59.1405 169.293 68.0464" stroke="#263238" stroke-width="0.488465" stroke-linecap="round" stroke-linejoin="round"/>
<path d="M159.149 72.0463C159.149 72.0463 160.289 71.0787 160.825 72.3792C160.304 72.1282 159.727 72.0136 159.149 72.0463Z" fill="#263238"/>
<path d="M164.56 72.7676C164.56 72.7676 165.176 71.4487 166.026 72.3793C165.514 72.3899 165.011 72.523 164.56 72.7676Z" fill="#263238"/>
<path opacity="0.3" d="M166.409 92.4043H169.133C169.232 92.4087 169.328 92.4368 169.414 92.4863C169.499 92.5358 169.572 92.6052 169.625 92.6886C169.678 92.772 169.711 92.867 169.719 92.9656C169.728 93.0641 169.713 93.1633 169.675 93.2548L168.547 95.6831C168.498 95.7753 168.427 95.8534 168.339 95.9103C168.252 95.9671 168.151 96.0008 168.047 96.0082C167.943 96.0156 167.839 95.9964 167.744 95.9525C167.649 95.9086 167.567 95.8414 167.506 95.7571L165.903 93.3349C165.849 93.2432 165.819 93.1388 165.817 93.032C165.815 92.9253 165.841 92.8198 165.892 92.726C165.943 92.6322 166.017 92.5532 166.108 92.4968C166.198 92.4404 166.302 92.4085 166.409 92.4043Z" fill="white"/>
<path opacity="0.2" d="M151.753 107.06C151.203 103.96 150.469 100.895 149.553 97.8827L150.576 96.0337C151.86 99.5584 152.264 103.343 151.753 107.06Z" fill="#393E46"/>
<path d="M146.458 88.2925C144.696 90.5236 143.901 106.517 140.332 113.001C136.763 119.485 131.747 128.286 131.747 128.286L135.408 131.466C135.408 131.466 146.68 118.301 148.48 113.241C150.28 108.181 150.766 101.457 150.766 101.457C151.753 92.4034 146.458 88.2925 146.458 88.2925Z" fill="#263238"/>
<path opacity="0.6" d="M147.802 209.74C148.147 209.487 151.056 213.844 151.056 213.844C151.056 213.844 150.409 218.387 151.722 221.314C153.034 224.242 150.489 223.989 148.363 221.216L143.124 214.337C141.62 212.384 144.239 212.334 147.802 209.74Z" fill="#263238"/>
<path opacity="0.6" d="M158.532 218.35C158.532 217.925 163.764 218.258 163.764 218.258C163.764 218.258 166.982 221.524 170.106 222.264C173.231 223.003 171.481 224.871 167.992 224.871H159.364C156.892 224.871 158.446 222.757 158.532 218.35Z" fill="#263238"/>
<path d="M184.381 100.151C187.549 101.427 190.23 98.253 190.354 94.4749C190.354 94.4749 193.244 92.6259 196.517 90.6167C198.984 89.0665 201.529 87.643 204.141 86.3517C204.568 86.1522 204.939 85.8492 205.219 85.4703C207.746 82.1915 206.581 72.7432 206.581 72.7432C200.726 73.3965 189.028 84.0035 183.907 89.119C178.785 94.2345 181.213 98.8693 184.381 100.151Z" fill="#5A81E8"/>
<path opacity="0.2" d="M196.517 90.6165C198.984 89.0663 201.528 87.6428 204.141 86.3515C204.568 86.152 204.939 85.849 205.219 85.4701L201.114 81.8276C201.114 81.8276 197.46 86.5795 196.517 90.6165Z" fill="#393E46"/>
<path d="M203.66 220.279L198.661 220.809L197.718 210.023L202.723 209.493L203.66 220.279Z" fill="#EBB376"/>
<path d="M228.609 219.916H223.765L223.364 208.693H228.215L228.609 219.916Z" fill="#EBB376"/>
<path d="M223.093 219.354H228.979C229.076 219.354 229.17 219.386 229.245 219.447C229.32 219.508 229.372 219.593 229.392 219.687L230.347 224.001C230.386 224.187 230.349 224.38 230.245 224.538C230.141 224.697 229.978 224.807 229.793 224.846C229.741 224.852 229.69 224.852 229.639 224.846C227.734 224.815 226.347 224.698 223.956 224.698C222.483 224.698 218.039 224.852 216.005 224.852C213.972 224.852 213.706 222.843 214.539 222.658C218.273 221.844 221.084 220.716 222.28 219.644C222.504 219.447 222.795 219.343 223.093 219.354Z" fill="#263238"/>
<path d="M221.49 220.206C221.161 220.23 220.833 220.144 220.56 219.959C220.47 219.886 220.401 219.79 220.358 219.682C220.316 219.574 220.303 219.457 220.319 219.343C220.317 219.276 220.334 219.21 220.369 219.153C220.405 219.096 220.456 219.05 220.517 219.022C221.053 218.745 222.618 219.706 222.791 219.817C222.811 219.827 222.827 219.844 222.837 219.864C222.847 219.884 222.85 219.906 222.846 219.928C222.843 219.951 222.834 219.973 222.818 219.991C222.803 220.008 222.783 220.021 222.76 220.027C222.345 220.132 221.919 220.192 221.49 220.206ZM220.782 219.201C220.73 219.195 220.679 219.206 220.634 219.232C220.603 219.232 220.566 219.275 220.56 219.367C220.55 219.443 220.559 219.521 220.586 219.593C220.613 219.665 220.657 219.729 220.714 219.78C221.257 220.027 221.874 220.058 222.44 219.867C221.935 219.539 221.372 219.313 220.782 219.201Z" fill="#5A81E8"/>
<path d="M222.73 220.033H222.674C222.175 219.762 221.207 218.696 221.306 218.184C221.323 218.099 221.369 218.022 221.437 217.967C221.504 217.912 221.589 217.882 221.676 217.882C221.763 217.871 221.851 217.878 221.935 217.904C222.019 217.929 222.097 217.972 222.163 218.03C222.723 218.486 222.84 219.879 222.847 219.947C222.847 219.968 222.842 219.988 222.832 220.006C222.823 220.025 222.808 220.04 222.791 220.052C222.769 220.052 222.748 220.046 222.73 220.033ZM221.756 218.067H221.7C221.552 218.067 221.54 218.153 221.534 218.184C221.472 218.499 222.089 219.306 222.588 219.682C222.557 219.13 222.356 218.6 222.015 218.166C221.942 218.104 221.851 218.069 221.756 218.067Z" fill="#5A81E8"/>
<path d="M198.132 219.201H204.018C204.114 219.2 204.208 219.233 204.283 219.293C204.359 219.354 204.411 219.439 204.431 219.533L205.386 223.848C205.424 224.033 205.387 224.226 205.283 224.385C205.179 224.543 205.017 224.653 204.831 224.692C204.78 224.698 204.728 224.698 204.677 224.692C202.773 224.661 201.386 224.544 198.995 224.544C197.522 224.544 193.078 224.698 191.044 224.698C189.01 224.698 188.745 222.689 189.577 222.504C193.312 221.69 196.123 220.563 197.318 219.49C197.542 219.293 197.833 219.189 198.132 219.201Z" fill="#263238"/>
<path d="M196.529 220.051C196.2 220.076 195.872 219.989 195.599 219.804C195.509 219.731 195.44 219.636 195.397 219.528C195.355 219.42 195.342 219.303 195.358 219.188C195.356 219.121 195.373 219.055 195.408 218.998C195.444 218.941 195.495 218.895 195.556 218.867C196.092 218.59 197.657 219.552 197.83 219.662C197.85 219.673 197.866 219.689 197.876 219.709C197.886 219.729 197.889 219.751 197.885 219.773C197.882 219.797 197.873 219.818 197.857 219.836C197.842 219.853 197.822 219.866 197.799 219.872C197.384 219.978 196.958 220.038 196.529 220.051ZM195.808 219.046C195.757 219.041 195.705 219.051 195.66 219.077C195.63 219.077 195.593 219.12 195.586 219.213C195.577 219.289 195.586 219.366 195.613 219.438C195.639 219.51 195.683 219.574 195.741 219.625C196.284 219.872 196.901 219.903 197.466 219.712C196.962 219.384 196.399 219.158 195.808 219.046Z" fill="#5A81E8"/>
<path d="M197.769 219.885H197.713C197.214 219.614 196.246 218.547 196.345 218.036C196.362 217.95 196.408 217.874 196.476 217.819C196.543 217.763 196.628 217.733 196.715 217.734C196.802 217.722 196.89 217.73 196.974 217.755C197.058 217.781 197.136 217.824 197.202 217.882C197.762 218.338 197.88 219.731 197.886 219.798C197.886 219.819 197.881 219.84 197.871 219.858C197.862 219.876 197.848 219.892 197.83 219.903C197.808 219.904 197.787 219.897 197.769 219.885ZM196.795 217.919H196.746C196.598 217.919 196.585 218.005 196.579 218.036C196.517 218.35 197.134 219.157 197.633 219.533C197.602 218.981 197.402 218.452 197.06 218.017C196.987 217.952 196.893 217.915 196.795 217.912V217.919Z" fill="#5A81E8"/>
<path opacity="0.2" d="M202.723 209.493L197.718 210.023L198.211 215.582L203.21 215.059L202.723 209.493Z" fill="#393E46"/>
<path opacity="0.2" d="M228.215 208.699H223.364L223.574 214.486H228.424L228.215 208.699Z" fill="#393E46"/>
<path d="M226.211 115.177H200.498C198.033 128.527 190.403 170.85 195.888 212.945L204.597 211.873C204.597 211.873 203.789 160.915 211.475 140.256C212.363 151.313 213.41 158.129 214.323 164.409C216.56 179.818 221.349 213.488 221.349 213.488H230.211C230.211 213.488 228.399 181.26 227.561 166.117C226.643 149.667 226.248 118.555 226.211 115.177Z" fill="#263238"/>
<path d="M194.897 214.973L205.67 213.37L205.343 210.387L194.132 211.86L194.897 214.973Z" fill="#5A81E8"/>
<path d="M220.283 213.555H230.736V210.43L219.888 210.227L220.283 213.555Z" fill="#5A81E8"/>
<path opacity="0.2" d="M211.475 140.249C210.212 143.861 209.251 147.571 208.603 151.343C207.882 141.481 210.76 131.065 210.76 131.065L211.475 140.249Z" fill="#393E46"/>
<path d="M230.643 74.8139C229.219 80.0443 228.189 85.374 227.562 90.7583C227.358 92.41 227.192 94.031 227.056 95.6026C226.877 97.5995 226.754 99.5224 226.655 101.347C226.532 103.658 226.495 106.388 226.501 109.076C226.501 115.239 226.76 119.337 226.76 119.337C221.83 120.57 207.58 119.75 199.796 119.183C198.88 112.36 198.641 105.462 199.081 98.5918C199.34 93.6481 199.885 88.7237 200.714 83.8431C201.132 81.2373 201.713 78.6601 202.452 76.1267C202.739 75.2287 203.276 74.4315 204.001 73.8297C204.727 73.2278 205.609 72.8464 206.545 72.7307C207.488 72.6136 208.579 72.4965 209.725 72.4287C210.169 72.4287 210.612 72.3856 211.062 72.3794C214.739 72.4213 218.41 72.6764 222.058 73.1436C222.748 73.2238 223.451 73.3285 224.129 73.4395C226.323 73.7827 228.497 74.2415 230.643 74.8139Z" fill="#5A81E8"/>
<path d="M222.088 73.1127C219.728 75.2575 213.946 74.4625 213.946 74.4625C213.946 74.4625 210.335 73.4763 211.093 72.3485C213.219 71.9972 214.248 71.0049 214.674 69.7352C214.907 68.9482 214.98 68.1226 214.889 67.3069C214.854 66.8521 214.794 66.3995 214.711 65.951L215.148 65.6305L216.64 64.5211L221.86 60.6567C221.374 62.4595 221.03 64.2977 220.831 66.1544C220.597 67.9264 220.712 69.7271 221.17 71.4548C221.356 72.0658 221.669 72.6307 222.088 73.1127Z" fill="#EBB376"/>
<path opacity="0.2" d="M227.752 89.4268C227.931 88.0031 228.146 86.5856 228.368 85.1742V85.1372C228.159 84.7859 226.439 81.9077 226.267 79.8491C226.122 80.4571 226.023 81.0752 225.971 81.6981C225.786 83.6765 225.872 86.8444 227.752 89.4268Z" fill="#393E46"/>
<path d="M240.535 104.398L232.492 120.527C230.285 120.872 227.943 130.314 227.401 131.122C226.858 131.929 233.786 131.812 234.384 131.122C234.982 130.431 237.539 124.465 236.701 122.727L247.123 106.838C247.123 106.838 245.139 103.59 240.535 104.398Z" fill="#EBB376"/>
<path d="M230.643 74.8136C231.709 74.6965 249.835 90.758 249.589 99.4667C249.342 108.175 246.908 108.447 246.908 108.447L240.128 107.041C240.128 107.041 241.638 99.5962 240.011 97.9198C238.384 96.2433 228.054 87.171 228.054 87.171C228.054 87.171 224.523 75.4916 230.643 74.8136Z" fill="#5A81E8"/>
<path opacity="0.6" d="M205.207 81.6299C205.207 81.6299 216.671 82.1476 221.318 83.2693C221.318 83.2693 219.309 99.7561 219.346 104.681C219.346 104.681 206.298 104.107 202.6 103.935C202.6 103.935 204.036 86.3263 205.207 81.6299Z" fill="#FEFEFE"/>
<path d="M186.668 92.4033L202.631 94.2893C203.968 92.8101 212.153 95.6822 213.022 95.676C213.891 95.6699 210.415 100.773 209.626 100.896C208.837 101.02 203.124 99.9903 202.23 98.5173H185.281C185.281 98.5173 183.802 95.4418 186.668 92.4033Z" fill="#EBB376"/>
<path opacity="0.2" d="M221.17 71.4547C217.441 71.8614 215.796 67.9724 215.148 65.6304L216.64 64.521C218.064 64.9946 219.462 65.5398 220.831 66.1543C220.597 67.9263 220.712 69.727 221.17 71.4547Z" fill="#393E46"/>
<path d="M227.561 52.5892C227.561 52.5892 228.381 58.0869 224.837 60.6508C221.293 63.2147 221.293 50.7896 221.293 50.7896L227.561 52.5892Z" fill="#263238"/>
<path d="M214.575 65.9569C215.318 67.0562 216.401 67.8813 217.658 68.3055C218.915 68.7297 220.277 68.7295 221.534 68.3051C223.168 67.7844 224.545 66.6634 225.386 65.168C225.503 64.9681 225.61 64.7624 225.706 64.5517C227.45 60.4716 228.005 53.3345 223.691 50.6596C222.742 50.0638 221.657 49.7205 220.538 49.6622C219.419 49.604 218.304 49.8327 217.299 50.3268C216.293 50.8209 215.431 51.5638 214.794 52.485C214.156 53.4063 213.765 54.4752 213.657 55.5903C213.127 60.3545 212.591 63.1341 214.575 65.9569Z" fill="#EBB376"/>
<path d="M220.609 58.1357C220.517 58.5117 220.689 58.863 220.948 58.9061C221.207 58.9493 221.454 58.6719 221.521 58.2898C221.589 57.9077 221.435 57.5564 221.182 57.5132C220.93 57.4701 220.677 57.7474 220.609 58.1357Z" fill="#263238"/>
<path d="M224.96 58.8756C224.874 59.2577 225.053 59.609 225.299 59.6522C225.546 59.6953 225.811 59.4118 225.879 59.0359C225.947 58.6599 225.786 58.3024 225.54 58.2655C225.293 58.2285 225.028 58.512 224.96 58.8756Z" fill="#263238"/>
<path d="M223.549 58.832C223.803 60.0897 224.232 61.3055 224.825 62.4437C224.526 62.5839 224.2 62.6566 223.869 62.6566C223.539 62.6566 223.213 62.5839 222.914 62.4437L223.549 58.832Z" fill="#D58745"/>
<path d="M219.499 56.4961C219.54 56.509 219.583 56.5106 219.624 56.5008C219.665 56.491 219.703 56.4702 219.734 56.4407C219.939 56.2395 220.189 56.0891 220.463 56.0014C220.737 55.9136 221.027 55.891 221.311 55.9353C221.37 55.9482 221.432 55.9372 221.483 55.9049C221.533 55.8726 221.569 55.8215 221.583 55.7627C221.59 55.734 221.591 55.704 221.587 55.6747C221.582 55.6454 221.572 55.6173 221.557 55.592C221.541 55.5667 221.521 55.5448 221.497 55.5275C221.472 55.5103 221.445 55.498 221.416 55.4915C221.058 55.4277 220.69 55.4503 220.343 55.5575C219.996 55.6647 219.679 55.8534 219.419 56.1079C219.377 56.1505 219.354 56.2081 219.354 56.2681C219.354 56.3281 219.377 56.3857 219.419 56.4283C219.442 56.4549 219.469 56.4778 219.499 56.4961Z" fill="#263238"/>
<path d="M227.093 57.6977C227.132 57.7203 227.177 57.731 227.222 57.7285C227.281 57.7113 227.33 57.6721 227.36 57.6192C227.39 57.5663 227.398 57.5038 227.383 57.445C227.287 57.0927 227.11 56.7681 226.864 56.498C226.619 56.2279 226.313 56.0201 225.971 55.8919C225.942 55.8825 225.912 55.879 225.882 55.8818C225.852 55.8845 225.823 55.8934 225.796 55.9078C225.77 55.9222 225.746 55.9419 225.728 55.9657C225.709 55.9894 225.695 56.0167 225.688 56.0459C225.672 56.1039 225.679 56.1657 225.708 56.2185C225.737 56.2712 225.785 56.311 225.842 56.3295C226.109 56.4352 226.347 56.6016 226.539 56.8155C226.73 57.0295 226.869 57.2851 226.945 57.5621C226.958 57.594 226.979 57.6227 227.004 57.6461C227.03 57.6695 227.06 57.6871 227.093 57.6977Z" fill="#263238"/>
<path d="M220.708 47.9294C220.141 47.8492 219.574 47.7815 219 47.7568C217.349 47.602 215.689 47.9341 214.224 48.7121C210.927 50.6659 211.494 55.6705 211.919 58.9123C212.486 63.2266 214.181 65.1804 214.181 65.1804C213.152 63.1219 213.46 59.1157 214.125 59.0171C214.791 58.9185 214.742 59.6827 214.742 59.6827C216.233 58.7583 217.571 56.1389 217.108 54.2899C216.751 52.8723 218.341 51.8246 219.672 52.4902L220.079 52.6874L220.695 52.9833L220.708 47.9294Z" fill="#263238"/>
<path d="M210.921 59.1095C211.088 59.6844 211.368 60.2205 211.743 60.6869C212.119 61.1534 212.583 61.541 213.109 61.8275C214.52 62.5856 215.574 61.4084 215.481 59.8922C215.383 58.5486 214.545 56.4901 212.985 56.373C211.426 56.2559 210.526 57.6796 210.921 59.1095Z" fill="#EBB376"/>
<path d="M211.956 51.8616C211.956 51.8616 211.34 46.968 217.035 46.1482C222.729 45.3285 227.666 44.0527 227.666 44.0527C227.666 44.0527 227.58 46.931 226.532 47.7507C226.532 47.7507 228.578 47.8432 229.799 47.0296C229.799 47.0296 229.472 49.5504 228.739 50.4441L229.799 49.6305C229.681 50.5851 229.267 51.4791 228.617 52.1874C227.966 52.8957 227.11 53.3829 226.169 53.5812C222.81 54.3454 216.535 51.8616 216.535 51.8616H211.956Z" fill="#263238"/>
<path d="M222.766 64.077C222.401 64.527 222.07 65.0028 221.774 65.5007C221.681 65.4637 221.583 65.4329 221.49 65.3898C220.208 64.872 219.783 64.2064 219.703 63.6271C219.671 63.3433 219.707 63.0559 219.808 62.7889C219.86 62.6359 219.932 62.4907 220.023 62.3574C220.675 63.0274 221.46 63.5525 222.329 63.8982C222.594 64.0153 222.766 64.077 222.766 64.077Z" fill="#263238"/>
<path d="M222.328 63.8982L222.026 64.305C220.794 63.8181 220.036 63.3066 219.808 62.7889C219.859 62.6359 219.932 62.4907 220.023 62.3574C220.675 63.0274 221.46 63.5525 222.328 63.8982Z" fill="#FEFEFE"/>
<path d="M221.49 65.3901C220.209 64.8724 219.783 64.2068 219.703 63.6274C220.188 63.8324 220.633 64.1225 221.016 64.4841C221.262 64.7315 221.427 65.0472 221.49 65.3901Z" fill="#DE5753"/>
</svg>
