<svg width="375" height="350" viewBox="0 0 375 350" fill="none" xmlns="http://www.w3.org/2000/svg">
<path d="M346.164 172.305C352.269 50.2499 44.7013 22.785 29.5888 156.412C18.6163 253.402 117.751 226.35 168.864 200.812C206.281 182.122 229.029 177.412 268.006 193.545C294.751 204.615 343.554 224.55 346.164 172.305Z" fill="#EF4623"/>
<path d="M346.164 172.305C352.269 50.2499 44.7013 22.785 29.5888 156.412C18.6163 253.402 117.751 226.35 168.864 200.812C206.281 182.122 229.029 177.412 268.006 193.545C294.751 204.615 343.554 224.55 346.164 172.305Z" fill="#FEEBEC"/>
<path d="M187.5 320.67C107.188 320.67 42.0824 316.869 42.0824 312.18C42.0824 307.491 107.188 303.69 187.5 303.69C267.812 303.69 332.917 307.491 332.917 312.18C332.917 316.869 267.812 320.67 187.5 320.67Z" fill="#EEEEEE"/>
<path d="M142.69 204.99C149.665 206.242 172.42 192.082 180.122 182.76C174.593 177.977 169.531 172.681 165.002 166.942C169.997 172.665 178.022 177.742 182.785 180.442C184.937 178.582 186.197 177.442 186.197 177.442C186.197 177.442 166.697 170.91 156.332 147.937C148.435 130.455 136.96 121.072 124.832 130.057C101.252 135.832 126.25 197.797 142.69 204.99Z" fill="#393E46"/>
<path d="M135.662 167.25C135.85 167.527 135.962 167.692 136.112 167.887L136.525 168.442C136.81 168.802 137.095 169.14 137.387 169.477C137.98 170.152 138.58 170.797 139.21 171.412C140.479 172.633 141.833 173.763 143.26 174.795C144.692 175.811 146.196 176.724 147.76 177.525C148.555 177.907 149.342 178.275 150.16 178.612L151.382 179.092L151.705 179.22C151.9 179.28 152.065 179.34 152.282 179.392C152.772 179.517 153.28 179.555 153.782 179.505C154.403 179.44 154.999 179.229 155.522 178.89C155.964 178.587 156.343 178.203 156.64 177.757C157.024 177.162 157.296 176.501 157.442 175.807C157.648 174.821 157.736 173.814 157.705 172.807C157.65 171.073 157.459 169.345 157.135 167.64C156.827 165.982 156.467 164.362 156.062 162.757C155.657 161.152 155.192 159.577 154.645 157.987L151.832 158.67C152.035 160.245 152.26 161.842 152.41 163.432C152.56 165.022 152.747 166.597 152.837 168.165C152.943 169.675 152.956 171.19 152.875 172.702C152.847 173.324 152.746 173.941 152.575 174.54C152.507 174.757 152.41 174.9 152.44 174.817C152.503 174.706 152.593 174.614 152.702 174.547C152.88 174.421 153.086 174.341 153.302 174.315C153.402 174.299 153.503 174.299 153.602 174.315L153.362 174.202L152.357 173.715C151.682 173.392 151.037 173.017 150.385 172.665C149.104 171.904 147.864 171.076 146.672 170.182C145.498 169.27 144.383 168.283 143.335 167.227C142.802 166.717 142.3 166.177 141.835 165.63C141.602 165.352 141.362 165.075 141.145 164.797L140.815 164.385L140.545 164.04L135.662 167.25Z" fill="#E4897B"/>
<path d="M152.087 159.36L149.665 155.017L155.62 155.377C155.62 155.377 155.995 158.197 154.36 159.922L152.087 159.36Z" fill="#E4897B"/>
<path d="M134.125 160.042C140.005 160.275 144.475 165.862 144.475 165.862L136.975 175.312C136.975 175.312 131.35 169.642 130.84 166.53C130.292 163.282 130.585 159.9 134.125 160.042Z" fill="#EF4623"/>
<path d="M134.125 160.042C140.005 160.275 144.475 165.862 144.475 165.862L136.975 175.312C136.975 175.312 131.35 169.642 130.84 166.53C130.292 163.282 130.585 159.9 134.125 160.042Z" fill="#7CE6C6"/>
<path d="M150.775 152.407L155.14 153.495L155.62 155.377L149.665 155.017L150.775 152.407Z" fill="#E4897B"/>
<path d="M151.187 147.188L150.415 147.592L150.767 153.06L152.492 153.18L151.187 147.188Z" fill="#E4897B"/>
<path d="M152.5 146.978L153.257 147.158L153.977 153.713L152.275 153.278L152.5 146.978Z" fill="#E4897B"/>
<path d="M139.577 161.82C139.577 161.82 141.88 163.553 126.587 193.845L104.5 186.848C107.717 177.975 109.487 172.425 111.025 152.603C114.312 152.944 117.571 153.523 120.775 154.335C124.194 155.148 127.55 156.206 130.817 157.5C135.002 159.27 139.577 161.82 139.577 161.82Z" fill="#EF4623"/>
<path d="M139.577 161.82C139.577 161.82 141.88 163.553 126.587 193.845L104.5 186.848C107.717 177.975 109.487 172.425 111.025 152.603C114.312 152.944 117.571 153.523 120.775 154.335C124.194 155.148 127.55 156.206 130.817 157.5C135.002 159.27 139.577 161.82 139.577 161.82Z" fill="#7CE6C6"/>
<path d="M87.9321 305.947L93.4446 306.48L99.1821 293.355L93.6696 292.823L87.9321 305.947Z" fill="#E4897B"/>
<path d="M99.1821 293.363L96.2271 300.128H90.4746L93.6621 292.823L99.1821 293.363Z" fill="#CE6F64"/>
<path d="M38.1924 278.858L41.3349 283.628L53.3799 277.875L50.2299 273.113L38.1924 278.858Z" fill="#E4897B"/>
<path d="M50.2296 273.113L53.3721 277.875L47.1621 280.838L44.0196 276.075L50.2296 273.113Z" fill="#CE6F64"/>
<path d="M126.587 193.845C126.587 193.845 127.697 239.392 122.087 255.877C116.26 273.022 99.092 298.162 99.092 298.162L88.3895 297.645C88.3895 297.645 103.825 266.055 105.565 252.412C107.95 233.602 110.395 188.722 110.395 188.722L126.587 193.845Z" fill="#EF4623"/>
<path opacity="0.6" d="M126.587 193.845C126.587 193.845 127.697 239.392 122.087 255.877C116.26 273.022 99.092 298.162 99.092 298.162L88.3895 297.645C88.3895 297.645 103.825 266.055 105.565 252.412C107.95 233.602 110.395 188.722 110.395 188.722L126.587 193.845Z" fill="#393E46"/>
<path opacity="0.3" d="M108.564 218.055L116.439 200.055C116.439 200.055 115.532 220.807 107.979 226.147C108.182 223.447 108.377 220.725 108.564 218.055Z" fill="black"/>
<path d="M120.745 192C120.745 192 105.745 228.352 95.8296 248.37C87.8046 264.532 49.4796 281.137 49.4796 281.137L45.4596 274.387C45.4596 274.387 74.7771 255.787 80.3196 244.822C98.0571 209.73 94.2771 194.475 104.477 186.847L120.745 192Z" fill="#EF4623"/>
<path opacity="0.6" d="M120.745 192C120.745 192 105.745 228.352 95.8296 248.37C87.8046 264.532 49.4796 281.137 49.4796 281.137L45.4596 274.387C45.4596 274.387 74.7771 255.787 80.3196 244.822C98.0571 209.73 94.2771 194.475 104.477 186.847L120.745 192Z" fill="#393E46"/>
<path d="M42.6625 283.11L42.25 276.75C42.2433 276.639 42.1973 276.535 42.1203 276.455C42.0433 276.375 41.9403 276.325 41.83 276.315L36.715 275.917C36.5865 275.912 36.4582 275.933 36.3387 275.981C36.2191 276.028 36.1108 276.1 36.0209 276.192C35.931 276.284 35.8616 276.394 35.817 276.515C35.7725 276.635 35.7539 276.764 35.7625 276.892C35.95 279.142 36.1449 280.192 36.3324 283.005C36.4374 284.737 36.43 288.585 36.5875 290.97C36.745 293.355 39.115 293.34 39.265 292.327C39.94 287.827 41.2075 285.705 42.37 284.122C42.5867 283.831 42.6906 283.472 42.6625 283.11Z" fill="#393E46"/>
<path d="M94.1798 304.777H87.4299C87.3075 304.779 87.1889 304.82 87.0917 304.894C86.9944 304.969 86.9237 305.072 86.8899 305.19L85.3899 310.545C85.3517 310.671 85.3442 310.805 85.368 310.935C85.3919 311.066 85.4464 311.188 85.527 311.293C85.6077 311.398 85.7121 311.482 85.8317 311.538C85.9514 311.595 86.0827 311.622 86.2149 311.617C88.5849 311.58 89.7399 311.445 92.7174 311.445C94.5474 311.445 99.2873 311.632 101.815 311.632C104.342 311.632 104.815 309.127 103.78 308.902C99.1898 307.89 96.5424 306.487 95.1324 305.152C94.8734 304.912 94.5332 304.778 94.1798 304.777Z" fill="#393E46"/>
<path d="M125.35 143.347C124.96 146.782 123.722 152.895 120.782 154.335C120.782 154.335 120.625 157.89 126.625 159.795C133.225 161.88 130.817 157.545 130.817 157.545C127.487 155.542 128.425 152.902 129.85 150.592L125.35 143.347Z" fill="#E4897B"/>
<path d="M136.517 160.2C134.882 159.36 132.805 158.347 130.817 157.515C127.552 156.217 124.199 155.155 120.782 154.335C118.847 153.825 116.897 153.442 115.255 153.18C114.902 154.267 113.755 162.12 125.485 165.022C135.76 167.572 137.057 161.895 136.517 160.2Z" fill="#E4897B"/>
<path d="M131.245 157.732C131.344 157.732 131.441 157.694 131.515 157.627C131.583 157.554 131.621 157.457 131.62 157.357C131.62 157.259 131.583 157.165 131.515 157.095C131.442 157.027 131.347 156.99 131.248 156.99C131.149 156.99 131.054 157.027 130.982 157.095C130.912 157.164 130.872 157.259 130.87 157.357C130.871 157.458 130.912 157.555 130.982 157.627C131.053 157.695 131.147 157.733 131.245 157.732Z" fill="#7CE6C6"/>
<path d="M128.65 162.21C128.75 162.199 128.842 162.148 128.905 162.07C128.968 161.991 128.998 161.89 128.987 161.79C128.976 161.692 128.926 161.602 128.849 161.54C128.772 161.478 128.673 161.449 128.575 161.46C128.526 161.465 128.478 161.479 128.434 161.502C128.39 161.526 128.351 161.557 128.32 161.596C128.289 161.634 128.265 161.678 128.251 161.726C128.237 161.773 128.232 161.823 128.237 161.872C128.248 161.965 128.292 162.05 128.361 162.112C128.43 162.174 128.52 162.209 128.612 162.21H128.65ZM127.487 161.85C127.498 161.751 127.469 161.651 127.408 161.573C127.346 161.494 127.256 161.443 127.157 161.43C127.059 161.419 126.96 161.448 126.883 161.51C126.806 161.572 126.756 161.662 126.745 161.76C126.737 161.809 126.74 161.86 126.753 161.908C126.766 161.957 126.788 162.002 126.819 162.041C126.85 162.08 126.889 162.113 126.933 162.137C126.977 162.161 127.025 162.175 127.075 162.18C127.173 162.189 127.27 162.159 127.347 162.098C127.424 162.036 127.474 161.947 127.487 161.85ZM125.987 161.625C126.013 161.53 125.999 161.428 125.95 161.342C125.901 161.257 125.82 161.194 125.725 161.167C125.677 161.154 125.627 161.15 125.578 161.157C125.529 161.163 125.481 161.179 125.438 161.205C125.396 161.23 125.358 161.264 125.329 161.304C125.3 161.344 125.279 161.389 125.267 161.437C125.242 161.533 125.255 161.635 125.305 161.72C125.354 161.806 125.435 161.869 125.53 161.895H125.627C125.711 161.898 125.793 161.874 125.861 161.825C125.929 161.776 125.979 161.705 126.002 161.625H125.987ZM130.21 161.715C130.253 161.691 130.29 161.658 130.321 161.62C130.351 161.581 130.373 161.536 130.385 161.489C130.398 161.441 130.401 161.391 130.394 161.343C130.387 161.294 130.37 161.247 130.345 161.205C130.293 161.119 130.21 161.057 130.114 161.032C130.017 161.007 129.914 161.02 129.827 161.07C129.785 161.095 129.748 161.129 129.718 161.169C129.689 161.209 129.668 161.254 129.656 161.302C129.644 161.35 129.642 161.4 129.649 161.449C129.657 161.498 129.674 161.545 129.7 161.587C129.733 161.643 129.78 161.689 129.837 161.721C129.893 161.753 129.957 161.769 130.022 161.767C130.094 161.771 130.164 161.753 130.225 161.715H130.21ZM124.555 161.19C124.575 161.145 124.585 161.096 124.586 161.047C124.587 160.997 124.578 160.948 124.56 160.902C124.542 160.856 124.515 160.814 124.481 160.778C124.446 160.743 124.405 160.715 124.36 160.695C124.315 160.675 124.266 160.664 124.216 160.663C124.167 160.663 124.118 160.671 124.072 160.69C124.026 160.708 123.984 160.735 123.948 160.769C123.913 160.803 123.884 160.845 123.865 160.89C123.827 160.982 123.826 161.085 123.862 161.177C123.899 161.269 123.969 161.344 124.06 161.385C124.109 161.396 124.16 161.396 124.21 161.385C124.282 161.391 124.355 161.376 124.419 161.341C124.483 161.306 124.535 161.254 124.57 161.19H124.555ZM123.25 160.5C123.278 160.459 123.298 160.413 123.309 160.365C123.319 160.316 123.32 160.266 123.311 160.217C123.302 160.168 123.283 160.122 123.256 160.08C123.229 160.039 123.193 160.003 123.152 159.975C123.071 159.92 122.97 159.899 122.874 159.918C122.777 159.936 122.691 159.992 122.635 160.072C122.606 160.112 122.586 160.157 122.575 160.205C122.564 160.253 122.563 160.302 122.571 160.35C122.579 160.398 122.597 160.444 122.624 160.486C122.65 160.527 122.685 160.562 122.725 160.59C122.789 160.634 122.865 160.657 122.942 160.657C123.003 160.658 123.062 160.645 123.116 160.617C123.169 160.59 123.215 160.549 123.25 160.5ZM131.365 160.5C131.386 160.455 131.399 160.407 131.401 160.357C131.404 160.307 131.397 160.258 131.38 160.211C131.363 160.164 131.337 160.121 131.304 160.085C131.27 160.048 131.23 160.018 131.185 159.997C131.141 159.976 131.093 159.963 131.045 159.96C130.996 159.957 130.947 159.964 130.901 159.98C130.855 159.996 130.813 160.021 130.776 160.054C130.74 160.086 130.711 160.126 130.69 160.17C130.668 160.214 130.655 160.262 130.652 160.312C130.649 160.361 130.656 160.41 130.672 160.457C130.688 160.504 130.713 160.547 130.746 160.584C130.778 160.621 130.818 160.651 130.862 160.672C130.912 160.695 130.965 160.708 131.02 160.71C131.091 160.712 131.162 160.693 131.223 160.655C131.284 160.618 131.333 160.564 131.365 160.5ZM122.042 159.63C122.077 159.596 122.105 159.555 122.124 159.51C122.143 159.465 122.153 159.416 122.153 159.368C122.153 159.319 122.143 159.27 122.124 159.225C122.105 159.18 122.077 159.139 122.042 159.105C122.009 159.069 121.968 159.041 121.923 159.021C121.878 159.001 121.829 158.991 121.78 158.991C121.731 158.991 121.682 159.001 121.637 159.021C121.592 159.041 121.551 159.069 121.517 159.105C121.482 159.14 121.454 159.181 121.435 159.227C121.416 159.273 121.406 159.322 121.406 159.371C121.406 159.421 121.416 159.47 121.435 159.515C121.454 159.561 121.482 159.603 121.517 159.638C121.553 159.676 121.596 159.706 121.643 159.727C121.691 159.747 121.743 159.758 121.795 159.757C121.844 159.749 121.892 159.73 121.934 159.703C121.977 159.676 122.013 159.641 122.042 159.6V159.63ZM131.747 158.88C131.75 158.831 131.744 158.781 131.728 158.735C131.712 158.688 131.686 158.645 131.654 158.608C131.621 158.571 131.581 158.541 131.537 158.519C131.492 158.498 131.444 158.485 131.395 158.482C131.295 158.478 131.197 158.514 131.122 158.581C131.048 158.649 131.003 158.742 130.997 158.842C130.995 158.892 131.003 158.941 131.02 158.987C131.037 159.033 131.063 159.076 131.096 159.112C131.13 159.148 131.17 159.178 131.215 159.198C131.26 159.219 131.308 159.231 131.357 159.232C131.407 159.235 131.456 159.227 131.502 159.21C131.548 159.193 131.591 159.167 131.627 159.133C131.663 159.1 131.692 159.06 131.713 159.015C131.734 158.97 131.745 158.922 131.747 158.872V158.88ZM121.075 158.46C121.117 158.435 121.154 158.401 121.184 158.361C121.213 158.321 121.235 158.276 121.247 158.228C121.258 158.18 121.261 158.13 121.253 158.081C121.245 158.032 121.228 157.985 121.202 157.942C121.148 157.859 121.064 157.8 120.968 157.778C120.871 157.756 120.77 157.772 120.685 157.822C120.6 157.875 120.54 157.959 120.516 158.055C120.492 158.152 120.507 158.254 120.557 158.34C120.592 158.394 120.64 158.439 120.696 158.471C120.752 158.502 120.815 158.519 120.88 158.52C120.95 158.516 121.017 158.493 121.075 158.453V158.46ZM120.325 157.14C120.371 157.123 120.413 157.098 120.45 157.064C120.486 157.031 120.515 156.991 120.535 156.946C120.555 156.901 120.566 156.853 120.568 156.804C120.569 156.755 120.56 156.706 120.542 156.66C120.526 156.614 120.5 156.571 120.467 156.535C120.433 156.499 120.393 156.47 120.348 156.45C120.304 156.43 120.255 156.418 120.206 156.417C120.157 156.416 120.108 156.425 120.062 156.442C120.016 156.46 119.973 156.486 119.937 156.521C119.901 156.555 119.872 156.595 119.852 156.641C119.831 156.686 119.82 156.735 119.819 156.785C119.818 156.834 119.827 156.884 119.845 156.93C119.871 157.002 119.92 157.063 119.983 157.106C120.046 157.149 120.121 157.172 120.197 157.17C120.252 157.173 120.307 157.16 120.355 157.132L120.325 157.14ZM119.852 155.723C119.949 155.699 120.034 155.64 120.088 155.556C120.143 155.472 120.163 155.371 120.145 155.273C120.134 155.224 120.114 155.178 120.086 155.138C120.057 155.097 120.021 155.063 119.979 155.036C119.937 155.01 119.891 154.992 119.842 154.983C119.793 154.975 119.743 154.976 119.695 154.987C119.647 154.997 119.601 155.017 119.561 155.044C119.52 155.072 119.486 155.107 119.459 155.149C119.432 155.19 119.414 155.236 119.406 155.284C119.398 155.333 119.399 155.382 119.41 155.43C119.428 155.514 119.475 155.589 119.541 155.644C119.608 155.698 119.691 155.729 119.777 155.73H119.852V155.723Z" fill="#7CE6C6"/>
<path d="M119.582 154.207C119.632 154.21 119.682 154.201 119.728 154.183C119.775 154.165 119.817 154.138 119.852 154.102C119.887 154.067 119.915 154.025 119.933 153.978C119.951 153.932 119.959 153.882 119.957 153.832C119.958 153.735 119.92 153.64 119.852 153.57C119.817 153.536 119.777 153.508 119.732 153.487C119.663 153.461 119.587 153.455 119.514 153.47C119.441 153.484 119.374 153.519 119.32 153.57C119.25 153.64 119.209 153.734 119.207 153.832C119.21 153.933 119.25 154.029 119.32 154.102C119.355 154.134 119.396 154.16 119.44 154.177C119.485 154.197 119.533 154.208 119.582 154.207Z" fill="#7CE6C6"/>
<path d="M127.187 146.295L129.85 150.555C129.506 151.089 129.212 151.654 128.972 152.242C127.66 151.605 125.972 149.722 126.287 148.23C126.469 147.536 126.774 146.881 127.187 146.295Z" fill="#CE6F64"/>
<path d="M126.91 135.75C125.027 141.09 124.112 143.31 125.612 147.098C127.862 152.79 134.837 153.945 138.28 149.273C141.377 145.073 143.942 137.04 139.727 132.81C138.802 131.871 137.652 131.185 136.387 130.816C135.122 130.447 133.783 130.408 132.498 130.703C131.214 130.998 130.026 131.616 129.047 132.499C128.069 133.383 127.333 134.502 126.91 135.75Z" fill="#E4897B"/>
<path d="M134.695 130.065C135.872 131.88 131.08 142.38 124.052 140.287C120.535 139.237 121.72 136.89 123.79 134.805C126.286 132.332 129.528 130.75 133.015 130.305L134.695 130.065Z" fill="#393E46"/>
<path d="M134.425 130.365C136.495 130.162 143.373 131.43 143.073 138.42C143.073 138.42 140.215 135.855 132.25 135.42L134.425 130.365Z" fill="#393E46"/>
<path d="M124.112 140.062C123.955 140.582 123.902 141.128 123.956 141.669C124.01 142.209 124.17 142.734 124.427 143.212C125.117 144.487 126.505 144.112 127.18 142.92C127.787 141.84 128.155 139.875 127.045 138.997C126.797 138.813 126.507 138.692 126.201 138.647C125.895 138.602 125.582 138.634 125.292 138.74C125.001 138.845 124.741 139.021 124.535 139.252C124.329 139.483 124.184 139.762 124.112 140.062Z" fill="#E4897B"/>
<path d="M104.56 185.445L102.94 187.11C102.812 187.237 102.94 187.455 103.195 187.537L126.377 194.872C126.58 194.932 126.775 194.872 126.827 194.767L127.652 192.847C127.712 192.72 127.57 192.547 127.352 192.48L104.972 185.4C104.905 185.371 104.832 185.36 104.76 185.368C104.688 185.376 104.619 185.402 104.56 185.445Z" fill="#EF4623"/>
<path d="M134.192 140.513C134.012 140.94 134.095 141.375 134.365 141.495C134.635 141.615 135.017 141.36 135.197 140.94C135.377 140.52 135.295 140.078 135.017 139.958C134.74 139.838 134.372 140.085 134.192 140.513Z" fill="#393E46"/>
<path d="M139 142.545C138.82 142.965 138.895 143.407 139.172 143.527C139.45 143.647 139.825 143.392 140.005 142.972C140.185 142.552 140.102 142.11 139.825 141.99C139.547 141.87 139.165 142.117 139 142.545Z" fill="#393E46"/>
<path d="M139.675 141.96L140.822 142.102C140.822 142.102 139.96 142.672 139.675 141.96Z" fill="#393E46"/>
<path d="M137.41 142.732C137.378 143.861 137.499 144.989 137.77 146.085C137.488 146.148 137.197 146.148 136.916 146.086C136.634 146.024 136.37 145.901 136.142 145.725L137.41 142.732Z" fill="#DE5753"/>
<path d="M133.997 146.775C134.023 146.775 134.049 146.767 134.07 146.752C134.092 146.738 134.108 146.717 134.117 146.692C134.125 146.676 134.129 146.659 134.13 146.641C134.13 146.623 134.128 146.605 134.121 146.588C134.115 146.572 134.105 146.556 134.093 146.543C134.081 146.53 134.066 146.52 134.05 146.512C133.517 146.301 133.041 145.967 132.662 145.537C132.283 145.106 132.01 144.593 131.867 144.037C131.865 144.02 131.858 144.003 131.849 143.988C131.839 143.973 131.827 143.96 131.812 143.95C131.797 143.94 131.78 143.933 131.763 143.93C131.745 143.927 131.727 143.928 131.71 143.932C131.692 143.935 131.675 143.941 131.66 143.951C131.644 143.96 131.631 143.973 131.62 143.987C131.61 144.002 131.602 144.019 131.599 144.036C131.595 144.054 131.594 144.072 131.597 144.09C131.749 144.689 132.04 145.244 132.449 145.709C132.857 146.173 133.37 146.533 133.945 146.76L133.997 146.775Z" fill="#393E46"/>
<path d="M133.51 138.375C133.558 138.377 133.605 138.363 133.645 138.337C133.933 138.16 134.26 138.053 134.598 138.027C134.936 138.001 135.275 138.056 135.587 138.187C135.619 138.204 135.654 138.213 135.69 138.216C135.726 138.219 135.762 138.215 135.796 138.203C135.83 138.192 135.862 138.175 135.889 138.151C135.916 138.128 135.939 138.099 135.955 138.067C135.971 138.035 135.981 138 135.984 137.965C135.986 137.929 135.982 137.893 135.971 137.859C135.96 137.825 135.942 137.793 135.919 137.766C135.895 137.739 135.867 137.716 135.835 137.7C135.441 137.529 135.012 137.456 134.584 137.486C134.156 137.516 133.741 137.649 133.375 137.872C133.313 137.908 133.269 137.967 133.25 138.036C133.232 138.105 133.242 138.178 133.277 138.24C133.299 138.282 133.332 138.318 133.374 138.342C133.415 138.366 133.462 138.377 133.51 138.375Z" fill="#393E46"/>
<path d="M142.202 141.277H142.247C142.282 141.271 142.316 141.258 142.346 141.239C142.375 141.219 142.401 141.194 142.421 141.165C142.442 141.136 142.456 141.103 142.463 141.068C142.471 141.033 142.471 140.997 142.465 140.962C142.393 140.536 142.219 140.133 141.958 139.788C141.697 139.443 141.356 139.167 140.965 138.982C140.932 138.965 140.895 138.954 140.858 138.951C140.82 138.948 140.783 138.953 140.747 138.965C140.712 138.978 140.679 138.998 140.652 139.023C140.625 139.049 140.603 139.08 140.588 139.115C140.574 139.149 140.566 139.187 140.567 139.224C140.567 139.262 140.576 139.299 140.591 139.333C140.607 139.367 140.63 139.397 140.658 139.422C140.686 139.447 140.719 139.466 140.755 139.477C141.058 139.631 141.32 139.855 141.519 140.13C141.719 140.406 141.85 140.724 141.902 141.06C141.917 141.127 141.955 141.186 142.011 141.226C142.066 141.266 142.134 141.285 142.202 141.277Z" fill="#393E46"/>
<path d="M106.75 157.71C106.21 158.347 105.55 159.067 104.935 159.75C104.32 160.432 103.652 161.107 102.992 161.767C101.68 163.102 100.33 164.4 98.9122 165.607C97.4947 166.815 96.0622 167.992 94.5622 169.042C94.1947 169.32 93.8123 169.552 93.4223 169.792C93.0323 170.032 92.6723 170.295 92.2748 170.542C91.8773 170.79 91.4722 171.03 91.1197 171.217L90.6397 171.465L90.1148 171.675C89.3573 171.95 88.5766 172.155 87.7822 172.29C86.9254 172.423 86.0614 172.506 85.1948 172.537C83.3677 172.579 81.5401 172.484 79.7273 172.252C77.8541 172.031 75.994 171.711 74.1548 171.292C72.3023 170.91 70.4047 170.407 68.6348 169.89L67.5623 172.575C69.3861 173.423 71.2537 174.175 73.1572 174.825C75.0747 175.474 77.0249 176.022 78.9998 176.467C81.0288 176.928 83.0941 177.212 85.1723 177.315C87.4062 177.44 89.6452 177.186 91.7947 176.565L92.6422 176.265L93.4822 175.89C94.0072 175.642 94.4273 175.402 94.8998 175.14C95.3723 174.877 95.8222 174.645 96.2647 174.39C96.7072 174.135 97.1722 173.872 97.5997 173.587C99.3395 172.491 101.01 171.289 102.602 169.987C104.185 168.697 105.7 167.332 107.147 165.907C107.867 165.187 108.572 164.452 109.262 163.702C109.96 162.952 110.605 162.202 111.302 161.34L106.75 157.71Z" fill="#E4897B"/>
<path d="M42.6696 286.395C42.7419 286.402 42.8147 286.402 42.8871 286.395C42.9683 286.384 43.0449 286.351 43.1085 286.299C43.172 286.248 43.22 286.18 43.2471 286.102C43.5096 285.42 42.2796 283.762 42.1371 283.575C42.1216 283.555 42.1005 283.54 42.0764 283.532C42.0524 283.524 42.0265 283.523 42.0021 283.53C41.9758 283.534 41.9515 283.547 41.9327 283.565C41.9139 283.584 41.9014 283.608 41.8971 283.635C41.7696 284.385 41.6346 285.72 42.1596 286.222C42.2289 286.283 42.3097 286.33 42.3973 286.36C42.4848 286.389 42.5774 286.401 42.6696 286.395ZM42.1146 283.98C42.5871 284.655 43.1346 285.622 42.9996 285.982C42.9996 286.027 42.9471 286.08 42.8346 286.102C42.7511 286.128 42.6625 286.132 42.5771 286.113C42.4918 286.095 42.4126 286.055 42.3471 285.997C42.0621 285.75 41.9796 285 42.1146 283.98Z" fill="#EF4623"/>
<path d="M44.0274 285C44.0822 285.008 44.1377 285.008 44.1924 285C44.2952 284.97 44.3851 284.906 44.4476 284.819C44.5101 284.732 44.5417 284.627 44.5374 284.52C44.5456 284.416 44.5303 284.311 44.4926 284.214C44.455 284.117 44.396 284.029 44.3199 283.957C43.7349 283.38 42.0699 283.477 42.0249 283.477C42.0018 283.481 41.9797 283.489 41.9602 283.502C41.9407 283.515 41.9244 283.532 41.9124 283.552C41.8998 283.573 41.8931 283.596 41.8931 283.62C41.8931 283.644 41.8998 283.667 41.9124 283.687C42.4385 284.363 43.1885 284.828 44.0274 285ZM42.3474 283.725C42.9709 283.673 43.595 283.817 44.1324 284.137C44.1791 284.183 44.2154 284.238 44.2387 284.299C44.262 284.36 44.2718 284.425 44.2674 284.49C44.2674 284.662 44.1849 284.707 44.1249 284.722C43.7349 284.827 42.7674 284.242 42.3024 283.725H42.3474Z" fill="#EF4623"/>
<path d="M97.1798 305.895C97.6417 305.928 98.1027 305.818 98.4998 305.58C98.6044 305.506 98.6902 305.408 98.7501 305.295C98.8101 305.182 98.8425 305.056 98.8448 304.927C98.8542 304.857 98.8437 304.785 98.8146 304.72C98.7854 304.655 98.7388 304.6 98.6798 304.56C98.0573 304.147 95.7548 305.19 95.2973 305.407C95.2718 305.419 95.2506 305.438 95.2371 305.462C95.2235 305.487 95.2183 305.515 95.2223 305.542C95.2259 305.571 95.2378 305.597 95.2565 305.619C95.2752 305.64 95.2998 305.655 95.3273 305.662C95.9349 305.805 96.5558 305.883 97.1798 305.895ZM98.2598 304.725C98.3512 304.72 98.4422 304.741 98.5223 304.785C98.5431 304.798 98.5593 304.818 98.5687 304.84C98.5781 304.863 98.5802 304.888 98.5748 304.912C98.5752 305.001 98.5542 305.088 98.5137 305.166C98.4732 305.244 98.4144 305.312 98.3423 305.362C97.8098 305.767 96.5348 305.617 95.7998 305.482C96.5751 305.103 97.4052 304.847 98.2598 304.725Z" fill="#EF4623"/>
<path d="M95.3573 305.662H95.4098C96.1598 305.347 97.7123 304.117 97.6598 303.472C97.6598 303.337 97.5473 303.157 97.1948 303.12C95.8523 302.947 95.2824 305.37 95.2524 305.505C95.2478 305.525 95.2478 305.546 95.2525 305.566C95.2572 305.586 95.2664 305.604 95.2795 305.62C95.2925 305.636 95.309 305.649 95.3277 305.658C95.3464 305.666 95.3668 305.67 95.3873 305.67L95.3573 305.662ZM97.0448 303.375H97.1348C97.2773 303.375 97.3523 303.427 97.3598 303.495C97.4123 303.87 96.3473 304.845 95.5673 305.272C95.7473 304.687 96.2498 303.375 97.0448 303.375Z" fill="#EF4623"/>
<path d="M67.247 168.832L68.867 164.827L71.582 169.957C71.582 169.957 69.917 172.785 67.5545 172.575L67.187 171.532C66.8801 170.655 66.9014 169.696 67.247 168.832Z" fill="#E4897B"/>
<path d="M134.89 139.927L136.03 140.07C136.03 140.07 135.167 140.64 134.89 139.927Z" fill="#393E46"/>
<path d="M87.6325 297.96L100.405 298.635L102.25 295.095L88.39 294.637L87.6325 297.96Z" fill="#EF4623"/>
<path opacity="0.7" d="M87.6325 297.96L100.405 298.635L102.25 295.095L88.39 294.637L87.6325 297.96Z" fill="#FEFEFE"/>
<path d="M44.5372 273.502L49.6898 281.955L52.4048 281.392L47.5748 271.47L44.5372 273.502Z" fill="#EF4623"/>
<path d="M44.5372 273.502L49.6898 281.955L52.4048 281.392L47.5748 271.47L44.5372 273.502Z" fill="#FAC1C5"/>
<path d="M106.75 188.902L106.15 188.715C106.03 188.677 105.962 188.587 105.992 188.512L107.11 186C107.11 185.925 107.267 185.902 107.387 185.94L107.987 186.127C108.107 186.127 108.175 186.255 108.145 186.33L107.05 188.812C107.02 188.91 106.892 188.94 106.75 188.902Z" fill="#EF4623"/>
<path d="M124.63 194.55L124.03 194.362C123.91 194.362 123.835 194.235 123.865 194.16L124.96 191.677C124.997 191.602 125.117 191.58 125.237 191.617L125.837 191.805C125.957 191.805 126.025 191.932 125.995 192.007L124.9 194.49C124.87 194.557 124.75 194.587 124.63 194.55Z" fill="#EF4623"/>
<path d="M115.698 191.73L115.098 191.535C114.985 191.535 114.91 191.407 114.94 191.332L116.035 188.857C116.035 188.782 116.193 188.752 116.313 188.79L116.913 188.977C117.033 189.015 117.1 189.112 117.07 189.18L115.975 191.662C115.945 191.737 115.818 191.767 115.698 191.73Z" fill="#EF4623"/>
<path d="M106.75 188.902L106.15 188.715C106.03 188.677 105.962 188.587 105.992 188.512L107.11 186C107.11 185.925 107.267 185.902 107.387 185.94L107.987 186.127C108.107 186.127 108.175 186.255 108.145 186.33L107.05 188.812C107.02 188.91 106.892 188.94 106.75 188.902Z" fill="#393E46"/>
<path d="M124.63 194.55L124.03 194.362C123.91 194.362 123.835 194.235 123.865 194.16L124.96 191.677C124.997 191.602 125.117 191.58 125.237 191.617L125.837 191.805C125.957 191.805 126.025 191.932 125.995 192.007L124.9 194.49C124.87 194.557 124.75 194.587 124.63 194.55Z" fill="#393E46"/>
<path d="M115.698 191.73L115.098 191.535C114.985 191.535 114.91 191.407 114.94 191.332L116.035 188.857C116.035 188.782 116.193 188.752 116.313 188.79L116.913 188.977C117.033 189.015 117.1 189.112 117.07 189.18L115.975 191.662C115.945 191.737 115.818 191.767 115.698 191.73Z" fill="#393E46"/>
<path d="M111.002 152.603C108.58 152.603 103.502 159.353 103.502 159.353L110.155 168.218C110.155 168.218 114.4 162.683 114.377 159.525C114.347 156.248 113.777 152.633 111.002 152.603Z" fill="#EF4623"/>
<path d="M111.002 152.603C108.58 152.603 103.502 159.353 103.502 159.353L110.155 168.218C110.155 168.218 114.4 162.683 114.377 159.525C114.347 156.248 113.777 152.633 111.002 152.603Z" fill="#7CE6C6"/>
<path d="M71.0948 164.617L71.1548 168.652C71.1544 168.838 71.0968 169.018 70.9898 169.17L69.5273 171.217L68.8672 164.827L69.6173 164.04C69.737 163.923 69.888 163.842 70.0521 163.809C70.2163 163.776 70.3866 163.79 70.5426 163.851C70.6986 163.912 70.8337 164.017 70.9317 164.153C71.0296 164.289 71.0863 164.45 71.0948 164.617Z" fill="#E4897B"/>
<path d="M198.998 107.19V288.69H87.3226V107.19H198.998ZM96.9976 281.415H195.885V114.457H97.0126L96.9976 281.415Z" fill="#EF4623"/>
<path opacity="0.6" d="M198.998 107.19V288.69H87.3226V107.19H198.998ZM96.9976 281.415H195.885V114.457H97.0126L96.9976 281.415Z" fill="#FEFEFE"/>
<path d="M195.885 114.457H196.928V281.415H195.885V114.457Z" fill="#FEFEFE"/>
<path d="M195.885 114.457H196.928V281.415H195.885V114.457Z" fill="#F0F0F0"/>
<path d="M77.3624 64.7024H278.925C280.663 64.7063 282.329 65.3964 283.561 66.6226C284.793 67.8488 285.491 69.5119 285.502 71.2499V305.062C285.497 306.804 284.801 308.473 283.569 309.704C282.336 310.935 280.667 311.628 278.925 311.632H77.3624C75.6218 311.626 73.9541 310.932 72.7233 309.702C71.4925 308.471 70.7984 306.803 70.7924 305.062V71.2499C70.8043 69.5132 71.501 67.8512 72.7312 66.6253C73.9614 65.3993 75.6256 64.7083 77.3624 64.7024ZM195.862 114.457H97.0124V281.415H195.885L195.862 114.457Z" fill="#EF4623"/>
<path d="M77.3624 64.7024H278.925C280.663 64.7063 282.329 65.3964 283.561 66.6226C284.793 67.8488 285.491 69.5119 285.502 71.2499V305.062C285.497 306.804 284.801 308.473 283.569 309.704C282.336 310.935 280.667 311.628 278.925 311.632H77.3624C75.6218 311.626 73.9541 310.932 72.7233 309.702C71.4925 308.471 70.7984 306.803 70.7924 305.062V71.2499C70.8043 69.5132 71.501 67.8512 72.7312 66.6253C73.9614 65.3993 75.6256 64.7083 77.3624 64.7024ZM195.862 114.457H97.0124V281.415H195.885L195.862 114.457Z" fill="#EF4623"/>
<path d="M285.502 81.6975V305.062C285.497 306.804 284.801 308.473 283.569 309.704C282.336 310.935 280.667 311.629 278.925 311.633H77.3624C75.6218 311.627 73.9541 310.932 72.7233 309.702C71.4925 308.471 70.7984 306.803 70.7924 305.062V81.6975H285.502ZM195.885 114.458H97.0124V281.415H195.885V114.458Z" fill="#EF4623"/>
<path d="M285.502 81.6975V305.062C285.497 306.804 284.801 308.473 283.569 309.704C282.336 310.935 280.667 311.629 278.925 311.633H77.3624C75.6218 311.627 73.9541 310.932 72.7233 309.702C71.4925 308.471 70.7984 306.803 70.7924 305.062V81.6975H285.502ZM195.885 114.458H97.0124V281.415H195.885V114.458Z" fill="#FAC1C5"/>
<path d="M284.25 90.4348V302.895H72V90.4348H284.25ZM96.975 281.415H195.885V114.457H97.0125L96.975 281.415Z" fill="#FEFEFE"/>
<path d="M85.2149 76.74C83.2847 76.74 81.7199 75.1752 81.7199 73.245C81.7199 71.3148 83.2847 69.75 85.2149 69.75C87.1452 69.75 88.71 71.3148 88.71 73.245C88.71 75.1752 87.1452 76.74 85.2149 76.74Z" fill="#F9F9F9"/>
<path d="M97.5978 76.74C95.6675 76.74 94.1028 75.1752 94.1028 73.245C94.1028 71.3148 95.6675 69.75 97.5978 69.75C99.528 69.75 101.093 71.3148 101.093 73.245C101.093 75.1752 99.528 76.74 97.5978 76.74Z" fill="#F9F9F9"/>
<path d="M113.475 73.245C113.475 73.9362 113.27 74.612 112.886 75.1867C112.502 75.7615 111.956 76.2094 111.318 76.4739C110.679 76.7385 109.976 76.8077 109.298 76.6728C108.62 76.538 107.998 76.2051 107.509 75.7163C107.02 75.2275 106.687 74.6048 106.552 73.9268C106.417 73.2489 106.487 72.5461 106.751 71.9075C107.016 71.2689 107.464 70.723 108.038 70.339C108.613 69.955 109.289 69.75 109.98 69.75C110.907 69.75 111.796 70.1182 112.451 70.7737C113.107 71.4291 113.475 72.3181 113.475 73.245Z" fill="#F9F9F9"/>
<path d="M285.495 82.1323L70.7925 82.1323V81.2548L285.495 81.2548V82.1323Z" fill="#EF4623"/>
<path d="M220.965 266.172C219.327 256.408 225.915 247.166 235.678 245.529C245.442 243.892 254.684 250.479 256.321 260.243C257.958 270.006 251.371 279.248 241.607 280.885C231.844 282.523 222.602 275.935 220.965 266.172Z" fill="#FAC1C5"/>
<path d="M236.817 260.092C241.077 258.787 243.717 254.152 243.717 254.152C243.717 254.152 245.059 254.077 245.127 255.292C245.153 256.112 245.009 256.928 244.705 257.69C244.4 258.451 243.941 259.142 243.357 259.717L245.404 259.605C246.135 259.565 246.867 259.644 247.572 259.837L248.254 260.017C248.817 260.174 249.297 260.543 249.592 261.047C249.887 261.551 249.975 262.15 249.837 262.717L248.817 266.7C248.53 267.902 247.804 268.954 246.781 269.648C245.758 270.342 244.513 270.628 243.289 270.45C241.204 270.142 237.957 269.7 237.394 269.565L235.894 269.445L235.392 260.512L236.817 260.092Z" fill="#F9F9F9"/>
<path d="M230.142 258.855H235.879C236.327 258.855 236.689 259.218 236.689 259.665V269.805C236.689 270.252 236.327 270.615 235.879 270.615H230.142C229.695 270.615 229.332 270.252 229.332 269.805V259.665C229.332 259.218 229.695 258.855 230.142 258.855Z" fill="#EF4623"/>
<path d="M271.703 275.883C264.703 268.883 264.703 257.534 271.703 250.534C278.703 243.533 290.052 243.533 297.053 250.534C304.053 257.534 304.053 268.883 297.053 275.883C290.052 282.884 278.703 282.884 271.703 275.883Z" fill="#FAC1C5"/>
<path d="M275.448 256.8C276.034 256.214 276.73 255.748 277.497 255.431C278.263 255.113 279.084 254.95 279.914 254.95C280.743 254.95 281.565 255.113 282.331 255.431C283.097 255.748 283.794 256.214 284.38 256.8C285.565 255.616 287.171 254.95 288.846 254.95C290.522 254.95 292.128 255.616 293.313 256.8C294.497 257.985 295.163 259.591 295.163 261.266C295.163 262.942 294.497 264.548 293.313 265.733L284.38 274.665L275.448 265.733C274.266 264.546 273.603 262.941 273.603 261.266C273.603 259.592 274.266 257.987 275.448 256.8Z" fill="#EF4623"/>
<path d="M204.188 107.19V288.69H89.7525V107.19H204.188ZM97.0125 281.415H195.885V114.457H97.0125V281.415Z" fill="#EF4623"/>
<path d="M204.188 107.19V288.69H89.7525V107.19H204.188ZM97.0125 281.415H195.885V114.457H97.0125V281.415Z" fill="#FAC1C5"/>
<path d="M241 230H282C293.046 230 302 221.046 302 210V119C302 107.954 293.046 99 282 99H241C229.954 99 221 107.954 221 119V210C221 221.046 229.954 230 241 230Z" fill="#FAC1C5"/>
<circle cx="262" cy="101" r="7" transform="rotate(90 262 101)" fill="#FEEBEC"/>
<path d="M265.267 102.4L262 98.6667L258.733 102.4" stroke="#FAC1C5" stroke-width="1.5" stroke-linecap="round" stroke-linejoin="round"/>
<circle r="7" transform="matrix(1.19249e-08 -1 -1 -1.19249e-08 262 229)" fill="#FEEBEC"/>
<path d="M265.267 227.6L262 231.333L258.733 227.6" stroke="#FAC1C5" stroke-width="1.5" stroke-linecap="round" stroke-linejoin="round"/>
<path d="M271.771 145.372V128.586C271.771 128.205 271.614 127.839 271.335 127.569C271.056 127.299 270.678 127.148 270.283 127.148H245.872C245.478 127.148 245.099 127.299 244.82 127.569C244.541 127.839 244.384 128.205 244.384 128.586C244.384 128.968 244.541 129.334 244.82 129.603C245.099 129.873 245.478 130.025 245.872 130.025H252.227V145.372C249.048 145.843 246.155 147.417 244.089 149.799C242.024 152.182 240.927 155.209 241.004 158.317V194.074C241.004 201.265 246.63 207.148 253.552 207.148H270.432C277.353 207.148 282.995 201.28 282.995 194.074V158.374C283.086 155.257 281.996 152.215 279.929 149.821C277.862 147.426 274.961 145.844 271.771 145.372Z" fill="#EF4623"/>
<line x1="252.027" y1="144.438" x2="271.898" y2="144.438" stroke="#FEEBEC" stroke-width="2"/>
<rect x="191.292" width="25" height="25" rx="12.5" fill="#7CE6C6"/>
<mask id="mask0" mask-type="alpha" maskUnits="userSpaceOnUse" x="191" y="0" width="26" height="25">
<rect x="191.292" width="25" height="25" rx="12.5" fill="#FEFEFE"/>
</mask>
<g mask="url(#mask0)">
<path d="M200.772 11.3607C199.993 11.3607 199.44 12.1181 199.676 12.8599L201.549 18.737C201.701 19.214 202.144 19.5378 202.645 19.5378H202.828C203.248 19.5378 203.634 19.3091 203.836 18.9411L207.062 13.064C207.482 12.2976 206.928 11.3607 206.054 11.3607H205.975C205.554 11.3607 205.167 11.5904 204.966 11.9595L203.379 14.8651C203.231 15.1362 202.83 15.0966 202.738 14.8018L201.914 12.1676C201.764 11.6875 201.319 11.3607 200.816 11.3607H200.772ZM209.463 11.3607C208.688 11.3607 208.12 12.1134 208.354 12.8571L209.996 18.055L206.556 23.6756C206.092 24.4351 206.638 25.4104 207.529 25.4104C207.927 25.4104 208.297 25.202 208.504 24.8607L215.617 13.1061C216.081 12.3397 215.529 11.3607 214.633 11.3607H214.599C214.191 11.3607 213.815 11.5762 213.608 11.9272L211.989 14.6754C211.836 14.9355 211.448 14.8927 211.355 14.6054L210.563 12.157C210.41 11.6813 209.961 11.3607 209.463 11.3607Z" fill="#393E46" stroke="#393E46" stroke-width="0.3" stroke-linecap="round" stroke-linejoin="round"/>
</g>
<path d="M181.736 14.1279L181.736 14.1279C181.42 13.7948 181.009 13.6253 180.487 13.6253C180.018 13.6253 179.618 13.8071 179.278 14.1812L181.736 14.1279ZM181.736 14.1279L181.738 14.1297M181.736 14.1279L181.738 14.1297M181.738 14.1297C182.059 14.4573 182.225 14.8891 182.225 15.4399C182.225 15.9416 182.053 16.3737 181.707 16.7434C181.362 17.1123 180.958 17.2918 180.487 17.2918C179.999 17.2918 179.595 17.1268 179.265 16.7967M181.738 14.1297L179.265 16.7967M179.265 16.7967C178.941 16.4608 178.778 16.0431 178.778 15.5331C178.778 14.9965 178.946 14.549 179.278 14.1813L179.265 16.7967ZM167.307 9.91183L167.307 9.91184L167.309 9.9127C167.611 10.0656 167.896 10.2679 168.163 10.5206C168.613 10.9472 169.333 11.0938 169.859 10.6961L170.087 10.5241C170.568 10.1607 170.707 9.45838 170.28 8.9899C169.787 8.4489 169.205 7.99764 168.536 7.63601C167.581 7.11009 166.605 6.84488 165.61 6.84488C163.919 6.84488 162.369 7.48595 160.963 8.75504C159.551 10.0294 158.85 11.7609 158.85 13.9316C158.85 15.6547 159.399 17.0553 160.504 18.1179L160.505 18.1182C161.616 19.18 163.075 19.7054 164.866 19.7054C166.459 19.7054 167.878 19.0944 169.117 17.8843C170.166 16.8607 170.755 15.5094 170.891 13.8426C170.944 13.2023 170.411 12.7015 169.79 12.7015H166.247C165.612 12.7015 165.097 13.2164 165.097 13.8515V14.0023C165.097 14.6375 165.612 15.1523 166.247 15.1523H167.336C167.6 15.1523 167.739 15.4115 167.621 15.6019C167.333 16.0672 166.998 16.4229 166.615 16.674C166.062 17.0377 165.48 17.2173 164.866 17.2173C164.029 17.2173 163.302 16.9033 162.677 16.2663C162.053 15.623 161.744 14.8719 161.744 14.0061C161.744 12.637 162.108 11.5448 162.823 10.715C163.543 9.88683 164.474 9.47263 165.629 9.47263C166.184 9.47263 166.743 9.61741 167.307 9.91183ZM177.325 18.5093L177.326 18.5097C178.154 19.2944 179.161 19.6868 180.339 19.6868C181.596 19.6868 182.675 19.2698 183.565 18.4358L183.565 18.4354C184.456 17.5949 184.905 16.5752 184.905 15.3841C184.905 14.1553 184.494 13.1431 183.668 12.361C182.849 11.5794 181.79 11.1931 180.506 11.1931C179.323 11.1931 178.288 11.6392 177.406 12.522C176.525 13.4051 176.079 14.445 176.079 15.6355C176.079 16.7576 176.497 17.7183 177.325 18.5093ZM174.616 6.1C174.046 6.1 173.563 6.51688 173.478 7.08017L171.815 18.218C171.712 18.913 172.25 19.5378 172.953 19.5378H173.207C173.777 19.5378 174.261 19.1201 174.345 18.5561L175.992 7.41825C176.095 6.72369 175.557 6.1 174.854 6.1H174.616ZM186.95 11.3607C186.197 11.3607 185.647 12.0723 185.837 12.801L187.371 18.682C187.503 19.1861 187.958 19.5378 188.479 19.5378C188.885 19.5378 189.261 19.3223 189.467 18.9716L191.409 15.6559C191.566 15.3876 191.969 15.4421 192.049 15.7425L192.844 18.7219C192.972 19.203 193.408 19.5378 193.906 19.5378C194.297 19.5378 194.658 19.3307 194.855 18.9938L198.35 13.024C198.781 12.2873 198.25 11.3607 197.396 11.3607C197.004 11.3607 196.642 11.5685 196.443 11.9066L194.802 14.7051C194.644 14.974 194.24 14.9181 194.161 14.6164L193.536 12.2203C193.404 11.714 192.946 11.3607 192.423 11.3607H192.017C191.611 11.3607 191.235 11.5748 191.028 11.9241L189.37 14.7203C189.212 14.9871 188.81 14.9314 188.731 14.6315L188.09 12.2159C187.956 11.7117 187.5 11.3607 186.978 11.3607H186.95Z" fill="#393E46" stroke="#393E46" stroke-width="0.3" stroke-linecap="round" stroke-linejoin="round"/>
<path d="M200.029 8.75676L200.029 8.75677L200.031 8.75855C200.327 9.03884 200.694 9.17778 201.12 9.17778C201.542 9.17778 201.909 9.02182 202.212 8.71604C202.514 8.41086 202.669 8.04514 202.669 7.62585C202.669 7.18247 202.526 6.81148 202.231 6.52755C201.942 6.23973 201.567 6.1 201.12 6.1C200.696 6.1 200.331 6.25883 200.033 6.56999L200.033 6.57007C199.738 6.87737 199.591 7.25409 199.591 7.69105C199.591 8.11196 199.737 8.47072 200.029 8.75676Z" fill="#393E46" stroke="#393E46" stroke-width="0.3" stroke-linecap="round" stroke-linejoin="round"/>
<path d="M205.584 8.75676L205.584 8.75677L205.586 8.75855C205.882 9.03884 206.249 9.17778 206.675 9.17778C207.098 9.17778 207.464 9.02182 207.767 8.71604C208.07 8.41086 208.224 8.04514 208.224 7.62585C208.224 7.18247 208.081 6.81148 207.786 6.52755C207.497 6.23973 207.122 6.1 206.675 6.1C206.251 6.1 205.886 6.25883 205.588 6.56999L205.588 6.57007C205.293 6.87737 205.146 7.25409 205.146 7.69105C205.146 8.11196 205.292 8.47072 205.584 8.75676Z" fill="#393E46" stroke="#393E46" stroke-width="0.3" stroke-linecap="round" stroke-linejoin="round"/>
</svg>
