<svg width="59" height="25" viewBox="0 0 59 25" fill="none" xmlns="http://www.w3.org/2000/svg">
<rect x="33.292" width="25" height="25" rx="12.5" fill="#7CE6C6"/>
<mask id="mask0" mask-type="alpha" maskUnits="userSpaceOnUse" x="33" y="0" width="26" height="25">
<rect x="33.292" width="25" height="25" rx="12.5" fill="#FEFEFE"/>
</mask>
<g mask="url(#mask0)">
<path d="M42.772 11.3607C41.9935 11.3607 41.4399 12.1181 41.6763 12.8599L43.5491 18.737C43.7011 19.214 44.1442 19.5378 44.6448 19.5378H44.8282C45.2479 19.5378 45.6343 19.3091 45.8363 18.9411L49.0617 13.064C49.4823 12.2976 48.9278 11.3607 48.0536 11.3607H47.9749C47.5543 11.3607 47.1673 11.5904 46.9657 11.9595L45.3788 14.8651C45.2308 15.1362 44.8297 15.0966 44.7376 14.8018L43.9139 12.1676C43.7638 11.6875 43.3192 11.3607 42.8163 11.3607H42.772ZM51.4629 11.3607C50.6882 11.3607 50.1195 12.1134 50.3544 12.8571L51.9961 18.055L48.5563 23.6756C48.0915 24.4351 48.6381 25.4104 49.5285 25.4104C49.9274 25.4104 50.2972 25.202 50.5037 24.8607L57.617 13.1061C58.0808 12.3397 57.529 11.3607 56.6332 11.3607H56.5988C56.1915 11.3607 55.8145 11.5762 55.6079 11.9272L53.9894 14.6754C53.8363 14.9355 53.4477 14.8927 53.3548 14.6054L52.5634 12.157C52.4097 11.6813 51.9606 11.3607 51.4629 11.3607Z" fill="#393E46" stroke="#393E46" stroke-width="0.3" stroke-linecap="round" stroke-linejoin="round"/>
</g>
<path d="M23.7359 14.1279L23.7359 14.1279C23.4203 13.7948 23.0088 13.6253 22.4874 13.6253C22.0181 13.6253 21.6176 13.8071 21.2785 14.1812L23.7359 14.1279ZM23.7359 14.1279L23.7377 14.1297M23.7359 14.1279L23.7377 14.1297M23.7377 14.1297C24.0591 14.4573 24.2247 14.8891 24.2247 15.4399C24.2247 15.9416 24.0534 16.3737 23.7073 16.7434C23.362 17.1123 22.9577 17.2918 22.4874 17.2918C21.9993 17.2918 21.5951 17.1268 21.265 16.7967M23.7377 14.1297L21.265 16.7967M21.265 16.7967C20.9414 16.4608 20.778 16.0431 20.778 15.5331C20.778 14.9965 20.9457 14.549 21.2784 14.1813L21.265 16.7967ZM9.30703 9.91183L9.30702 9.91184L9.30872 9.9127C9.61093 10.0656 9.8956 10.2679 10.1627 10.5206C10.6135 10.9472 11.3325 11.0938 11.8593 10.6961L12.0871 10.5241C12.5683 10.1607 12.7068 9.45838 12.2799 8.9899C11.7868 8.4489 11.2052 7.99764 10.536 7.63601C9.58051 7.11009 8.60462 6.84488 7.61005 6.84488C5.91942 6.84488 4.36925 7.48595 2.96339 8.75504C1.55102 10.0294 0.85 11.7609 0.85 13.9316C0.85 15.6547 1.39865 17.0553 2.50442 18.1179L2.50473 18.1182C3.61602 19.18 5.07493 19.7054 6.8663 19.7054C8.45884 19.7054 9.87759 19.0944 11.1175 17.8843C12.1663 16.8607 12.7551 15.5094 12.8913 13.8426C12.9436 13.2023 12.4112 12.7015 11.7903 12.7015H8.24747C7.61235 12.7015 7.09747 13.2164 7.09747 13.8515V14.0023C7.09747 14.6375 7.61235 15.1523 8.24748 15.1523H9.33624C9.59953 15.1523 9.73857 15.4115 9.62088 15.6019C9.33331 16.0672 8.9976 16.4229 8.61542 16.674C8.06169 17.0377 7.47954 17.2173 6.8663 17.2173C6.02907 17.2173 5.30162 16.9033 4.67732 16.2663C4.05298 15.623 3.74382 14.8719 3.74382 14.0061C3.74382 12.637 4.10769 11.5448 4.82284 10.715C5.5428 9.88683 6.47369 9.47263 7.62864 9.47263C8.18412 9.47263 8.74308 9.61741 9.30703 9.91183ZM19.3252 18.5093L19.3256 18.5097C20.1541 19.2944 21.1614 19.6868 22.3387 19.6868C23.5963 19.6868 24.6746 19.2698 25.5649 18.4358L25.5654 18.4354C26.4558 17.5949 26.9047 16.5752 26.9047 15.3841C26.9047 14.1553 26.494 13.1431 25.668 12.361C24.8488 11.5794 23.7902 11.1931 22.506 11.1931C21.3231 11.1931 20.2878 11.6392 19.4063 12.522C18.5246 13.4051 18.0795 14.445 18.0795 15.6355C18.0795 16.7576 18.4968 17.7183 19.3252 18.5093ZM16.6159 6.1C16.0463 6.1 15.5626 6.51688 15.4785 7.08017L13.8155 18.218C13.7117 18.913 14.2501 19.5378 14.9528 19.5378H15.2072C15.7773 19.5378 16.2614 19.1201 16.3448 18.5561L17.9921 7.41825C18.0948 6.72369 17.5566 6.1 16.8544 6.1H16.6159ZM28.9502 11.3607C28.1972 11.3607 27.6474 12.0723 27.8374 12.801L29.3714 18.682C29.5029 19.1861 29.9581 19.5378 30.479 19.5378C30.8855 19.5378 31.2614 19.3223 31.4668 18.9716L33.4087 15.6559C33.5658 15.3876 33.9687 15.4421 34.0488 15.7425L34.844 18.7219C34.9725 19.203 35.4083 19.5378 35.9063 19.5378C36.2968 19.5378 36.6579 19.3307 36.8552 18.9938L40.3499 13.024C40.7811 12.2873 40.2499 11.3607 39.3963 11.3607C39.0042 11.3607 38.6415 11.5685 38.4431 11.9066L36.8016 14.7051C36.6439 14.974 36.2398 14.9181 36.1611 14.6164L35.5358 12.2203C35.4037 11.714 34.9464 11.3607 34.4231 11.3607H34.0174C33.6113 11.3607 33.2354 11.5748 33.0283 11.9241L31.37 14.7203C31.2117 14.9871 30.8102 14.9314 30.7307 14.6315L30.0899 12.2159C29.9562 11.7117 29.4999 11.3607 28.9784 11.3607H28.9502Z" fill="#393E46" stroke="#393E46" stroke-width="0.3" stroke-linecap="round" stroke-linejoin="round"/>
<path d="M42.0292 8.75676L42.0291 8.75677L42.031 8.75855C42.3273 9.03884 42.6936 9.17778 43.1198 9.17778C43.5424 9.17778 43.9089 9.02182 44.212 8.71604C44.5144 8.41086 44.669 8.04514 44.669 7.62585C44.669 7.18247 44.5255 6.81148 44.2311 6.52755C43.9418 6.23973 43.5666 6.1 43.1198 6.1C42.6963 6.1 42.3313 6.25883 42.0328 6.56999L42.0327 6.57007C41.7383 6.87737 41.5912 7.25409 41.5912 7.69105C41.5912 8.11196 41.737 8.47072 42.0292 8.75676Z" fill="#393E46" stroke="#393E46" stroke-width="0.3" stroke-linecap="round" stroke-linejoin="round"/>
<path d="M47.5843 8.75676L47.5843 8.75677L47.5862 8.75855C47.8825 9.03884 48.2487 9.17778 48.6749 9.17778C49.0975 9.17778 49.4641 9.02182 49.7671 8.71604C50.0696 8.41086 50.2242 8.04514 50.2242 7.62585C50.2242 7.18247 50.0807 6.81148 49.7862 6.52755C49.497 6.23973 49.1218 6.1 48.6749 6.1C48.2515 6.1 47.8865 6.25883 47.5879 6.56999L47.5878 6.57007C47.2935 6.87737 47.1464 7.25409 47.1464 7.69105C47.1464 8.11196 47.2922 8.47072 47.5843 8.75676Z" fill="#393E46" stroke="#393E46" stroke-width="0.3" stroke-linecap="round" stroke-linejoin="round"/>
</svg>
