<svg width="319" height="257" viewBox="0 0 319 257" fill="none" xmlns="http://www.w3.org/2000/svg">
<path d="M318.164 108.305C324.269 -13.7501 16.7013 -41.215 1.58882 92.4124C-9.38368 189.402 89.7513 162.35 140.864 136.812C178.281 118.122 201.029 113.412 240.006 129.545C266.751 140.615 315.554 160.55 318.164 108.305Z" fill="#EF4623"/>
<path d="M318.164 108.305C324.269 -13.7501 16.7013 -41.215 1.58882 92.4124C-9.38368 189.402 89.7513 162.35 140.864 136.812C178.281 118.122 201.029 113.412 240.006 129.545C266.751 140.615 315.554 160.55 318.164 108.305Z" fill="#FEEBEC"/>
<path d="M159.5 256.67C79.1881 256.67 14.0824 252.869 14.0824 248.18C14.0824 243.491 79.1881 239.69 159.5 239.69C239.812 239.69 304.917 243.491 304.917 248.18C304.917 252.869 239.812 256.67 159.5 256.67Z" fill="#EEEEEE"/>
<path d="M114.69 140.99C121.665 142.242 144.42 128.082 152.122 118.76C146.593 113.977 141.531 108.681 137.002 102.942C141.997 108.665 150.022 113.742 154.785 116.442C156.937 114.582 158.197 113.442 158.197 113.442C158.197 113.442 138.697 106.91 128.332 83.9374C120.435 66.4549 108.96 57.0724 96.8323 66.0574C73.2523 71.8324 98.2498 133.797 114.69 140.99Z" fill="#393E46"/>
<path d="M107.662 103.25C107.85 103.527 107.962 103.692 108.112 103.887L108.525 104.442C108.81 104.802 109.095 105.14 109.387 105.477C109.98 106.152 110.58 106.797 111.21 107.412C112.479 108.633 113.833 109.763 115.26 110.795C116.692 111.811 118.196 112.724 119.76 113.525C120.555 113.907 121.342 114.275 122.16 114.612L123.382 115.092L123.705 115.22C123.9 115.28 124.065 115.34 124.282 115.392C124.772 115.517 125.28 115.555 125.782 115.505C126.403 115.44 126.999 115.229 127.522 114.89C127.964 114.587 128.343 114.203 128.64 113.757C129.024 113.162 129.296 112.501 129.442 111.807C129.648 110.821 129.736 109.814 129.705 108.807C129.65 107.073 129.459 105.345 129.135 103.64C128.827 101.982 128.467 100.362 128.062 98.7573C127.657 97.1523 127.192 95.5773 126.645 93.9873L123.832 94.6698C124.035 96.2448 124.26 97.8423 124.41 99.4323C124.56 101.022 124.747 102.597 124.837 104.165C124.943 105.675 124.956 107.19 124.875 108.702C124.847 109.324 124.746 109.941 124.575 110.54C124.507 110.757 124.41 110.9 124.44 110.817C124.503 110.706 124.593 110.614 124.702 110.547C124.88 110.421 125.086 110.341 125.302 110.315C125.402 110.299 125.503 110.299 125.602 110.315L125.362 110.202L124.357 109.715C123.682 109.392 123.037 109.017 122.385 108.665C121.104 107.904 119.864 107.076 118.672 106.182C117.498 105.27 116.383 104.283 115.335 103.227C114.802 102.717 114.3 102.177 113.835 101.63C113.602 101.352 113.362 101.075 113.145 100.797L112.815 100.385L112.545 100.04L107.662 103.25Z" fill="#E4897B"/>
<path d="M124.087 95.3598L121.665 91.0173L127.62 91.3773C127.62 91.3773 127.995 94.1973 126.36 95.9223L124.087 95.3598Z" fill="#E4897B"/>
<path d="M106.125 96.0424C112.005 96.2749 116.475 101.862 116.475 101.862L108.975 111.312C108.975 111.312 103.35 105.642 102.84 102.53C102.292 99.2824 102.585 95.8999 106.125 96.0424Z" fill="#EF4623"/>
<path d="M106.125 96.0424C112.005 96.2749 116.475 101.862 116.475 101.862L108.975 111.312C108.975 111.312 103.35 105.642 102.84 102.53C102.292 99.2824 102.585 95.8999 106.125 96.0424Z" fill="#7CE6C6"/>
<path d="M122.775 88.4075L127.14 89.495L127.62 91.3774L121.665 91.0174L122.775 88.4075Z" fill="#E4897B"/>
<path d="M123.187 83.1875L122.415 83.5925L122.767 89.06L124.492 89.18L123.187 83.1875Z" fill="#E4897B"/>
<path d="M124.5 82.9775L125.257 83.1575L125.977 89.7125L124.275 89.2775L124.5 82.9775Z" fill="#E4897B"/>
<path d="M111.577 97.82C111.577 97.82 113.88 99.5525 98.5874 129.845L76.4998 122.848C79.7173 113.975 81.4873 108.425 83.0248 88.6025C86.3124 88.944 89.5709 89.523 92.7749 90.335C96.1938 91.1484 99.5499 92.2061 102.817 93.5C107.002 95.27 111.577 97.82 111.577 97.82Z" fill="#EF4623"/>
<path d="M111.577 97.82C111.577 97.82 113.88 99.5525 98.5874 129.845L76.4998 122.848C79.7173 113.975 81.4873 108.425 83.0248 88.6025C86.3124 88.944 89.5709 89.523 92.7749 90.335C96.1938 91.1484 99.5499 92.2061 102.817 93.5C107.002 95.27 111.577 97.82 111.577 97.82Z" fill="#7CE6C6"/>
<path d="M59.9321 241.947L65.4446 242.48L71.1821 229.355L65.6696 228.823L59.9321 241.947Z" fill="#E4897B"/>
<path d="M71.1821 229.363L68.2271 236.128H62.4746L65.6621 228.823L71.1821 229.363Z" fill="#CE6F64"/>
<path d="M10.1924 214.858L13.3349 219.628L25.3799 213.875L22.2299 209.113L10.1924 214.858Z" fill="#E4897B"/>
<path d="M22.2296 209.113L25.3721 213.875L19.1621 216.838L16.0196 212.075L22.2296 209.113Z" fill="#CE6F64"/>
<path d="M98.587 129.845C98.587 129.845 99.697 175.392 94.087 191.877C88.2595 209.022 71.092 234.162 71.092 234.162L60.3895 233.645C60.3895 233.645 75.8245 202.055 77.5645 188.412C79.9495 169.602 82.3945 124.722 82.3945 124.722L98.587 129.845Z" fill="#EF4623"/>
<path opacity="0.6" d="M98.587 129.845C98.587 129.845 99.697 175.392 94.087 191.877C88.2595 209.022 71.092 234.162 71.092 234.162L60.3895 233.645C60.3895 233.645 75.8245 202.055 77.5645 188.412C79.9495 169.602 82.3945 124.722 82.3945 124.722L98.587 129.845Z" fill="#393E46"/>
<path opacity="0.3" d="M80.5645 154.055L88.4395 136.055C88.4395 136.055 87.532 156.807 79.9795 162.147C80.182 159.447 80.377 156.725 80.5645 154.055Z" fill="black"/>
<path d="M92.7446 128C92.7446 128 77.7446 164.352 67.8296 184.37C59.8046 200.532 21.4796 217.137 21.4796 217.137L17.4596 210.387C17.4596 210.387 46.7771 191.787 52.3196 180.822C70.0571 145.73 66.2771 130.475 76.4771 122.847L92.7446 128Z" fill="#EF4623"/>
<path opacity="0.6" d="M92.7446 128C92.7446 128 77.7446 164.352 67.8296 184.37C59.8046 200.532 21.4796 217.137 21.4796 217.137L17.4596 210.387C17.4596 210.387 46.7771 191.787 52.3196 180.822C70.0571 145.73 66.2771 130.475 76.4771 122.847L92.7446 128Z" fill="#393E46"/>
<path d="M14.6625 219.11L14.25 212.75C14.2433 212.639 14.1973 212.535 14.1203 212.455C14.0433 212.375 13.9403 212.325 13.83 212.315L8.71496 211.917C8.58646 211.912 8.45824 211.933 8.33865 211.981C8.21906 212.028 8.11079 212.1 8.02092 212.192C7.93104 212.284 7.86156 212.394 7.81703 212.515C7.77249 212.635 7.75391 212.764 7.76246 212.892C7.94996 215.142 8.14495 216.192 8.33245 219.005C8.43745 220.737 8.42997 224.585 8.58747 226.97C8.74497 229.355 11.115 229.34 11.265 228.327C11.94 223.827 13.2075 221.705 14.37 220.122C14.5867 219.831 14.6906 219.472 14.6625 219.11Z" fill="#393E46"/>
<path d="M66.1798 240.777H59.4299C59.3075 240.779 59.1889 240.82 59.0917 240.894C58.9944 240.969 58.9237 241.072 58.8899 241.19L57.3899 246.545C57.3517 246.671 57.3442 246.805 57.368 246.935C57.3919 247.066 57.4464 247.188 57.527 247.293C57.6077 247.398 57.7121 247.482 57.8317 247.538C57.9514 247.595 58.0827 247.622 58.2149 247.617C60.5849 247.58 61.7399 247.445 64.7174 247.445C66.5474 247.445 71.2873 247.632 73.8148 247.632C76.3423 247.632 76.8148 245.127 75.7798 244.902C71.1898 243.89 68.5424 242.487 67.1324 241.152C66.8734 240.912 66.5332 240.778 66.1798 240.777Z" fill="#393E46"/>
<path d="M97.3497 79.3474C96.9597 82.7824 95.7222 88.8949 92.7823 90.3349C92.7823 90.3349 92.6248 93.8899 98.6248 95.7949C105.225 97.8799 102.817 93.5449 102.817 93.5449C99.4872 91.5424 100.425 88.9024 101.85 86.5924L97.3497 79.3474Z" fill="#E4897B"/>
<path d="M108.517 96.1999C106.882 95.3599 104.805 94.3474 102.817 93.5149C99.5524 92.2174 96.1989 91.1547 92.7824 90.3349C90.8474 89.8249 88.8974 89.4424 87.2549 89.1799C86.9024 90.2674 85.755 98.1199 97.4849 101.022C107.76 103.572 109.057 97.8949 108.517 96.1999Z" fill="#E4897B"/>
<path d="M103.245 93.7323C103.344 93.7318 103.441 93.6944 103.515 93.6273C103.583 93.5541 103.621 93.4574 103.62 93.3573C103.62 93.2594 103.583 93.1652 103.515 93.0948C103.442 93.0273 103.347 92.9897 103.248 92.9897C103.149 92.9897 103.054 93.0273 102.982 93.0948C102.912 93.1645 102.872 93.2585 102.87 93.3573C102.871 93.4583 102.912 93.5549 102.982 93.6273C103.053 93.6952 103.147 93.7329 103.245 93.7323Z" fill="#7CE6C6"/>
<path d="M100.65 98.21C100.75 98.1987 100.842 98.1482 100.905 98.0695C100.968 97.9908 100.998 97.8904 100.987 97.79C100.976 97.6917 100.926 97.6018 100.849 97.54C100.772 97.4782 100.673 97.4494 100.575 97.46C100.526 97.4647 100.478 97.4791 100.434 97.5024C100.39 97.5257 100.351 97.5575 100.32 97.5958C100.289 97.6342 100.265 97.6784 100.251 97.7259C100.237 97.7734 100.232 97.8232 100.237 97.8725C100.248 97.9647 100.292 98.0497 100.361 98.1118C100.43 98.1739 100.52 98.2088 100.612 98.21H100.65ZM99.4873 97.85C99.498 97.7508 99.4695 97.6513 99.4078 97.5729C99.3461 97.4944 99.2563 97.4431 99.1573 97.43C99.059 97.4195 98.9604 97.4482 98.8831 97.51C98.8058 97.5719 98.7562 97.6617 98.7448 97.76C98.7375 97.8094 98.7403 97.8599 98.7531 97.9082C98.7659 97.9566 98.7885 98.0018 98.8194 98.0411C98.8503 98.0804 98.8889 98.113 98.9328 98.1369C98.9767 98.1608 99.0251 98.1754 99.0748 98.18C99.1728 98.1886 99.2704 98.1591 99.3472 98.0976C99.424 98.0362 99.4742 97.9475 99.4873 97.85ZM97.9873 97.625C98.0126 97.5295 97.9993 97.4279 97.9501 97.3423C97.901 97.2566 97.82 97.1938 97.7248 97.1675C97.677 97.154 97.627 97.1504 97.5778 97.1568C97.5286 97.1632 97.4811 97.1795 97.4384 97.2047C97.3956 97.23 97.3585 97.2636 97.3291 97.3036C97.2997 97.3436 97.2787 97.3892 97.2673 97.4375C97.242 97.533 97.2554 97.6345 97.3046 97.7202C97.3537 97.8059 97.4347 97.8687 97.5299 97.895H97.6274C97.711 97.8983 97.7934 97.8735 97.8614 97.8246C97.9293 97.7757 97.979 97.7054 98.0024 97.625H97.9873ZM102.21 97.715C102.253 97.6909 102.29 97.6585 102.321 97.6196C102.351 97.5807 102.373 97.5361 102.385 97.4886C102.398 97.441 102.401 97.3914 102.394 97.3427C102.387 97.294 102.37 97.2471 102.345 97.205C102.293 97.1193 102.21 97.0572 102.114 97.032C102.017 97.0068 101.914 97.0204 101.827 97.07C101.785 97.0954 101.748 97.129 101.718 97.1689C101.689 97.2087 101.668 97.254 101.656 97.3022C101.644 97.3503 101.642 97.4003 101.649 97.4492C101.657 97.4982 101.674 97.5452 101.7 97.5875C101.733 97.6433 101.78 97.6893 101.837 97.721C101.893 97.7526 101.957 97.7686 102.022 97.7675C102.094 97.7709 102.164 97.7526 102.225 97.715H102.21ZM96.5548 97.19C96.5747 97.1447 96.5854 97.0959 96.5864 97.0465C96.5873 96.9971 96.5785 96.9479 96.5603 96.9019C96.5422 96.8559 96.5152 96.814 96.4807 96.7784C96.4463 96.7429 96.4053 96.7146 96.3599 96.695C96.3146 96.6751 96.2658 96.6644 96.2164 96.6635C96.1669 96.6625 96.1178 96.6714 96.0718 96.6895C96.0258 96.7076 95.9838 96.7347 95.9483 96.7691C95.9128 96.8035 95.8844 96.8446 95.8649 96.89C95.8268 96.9817 95.8258 97.0846 95.8622 97.1769C95.8986 97.2693 95.9694 97.3439 96.0598 97.385C96.1092 97.3962 96.1605 97.3962 96.2098 97.385C96.2823 97.3909 96.3549 97.3756 96.4188 97.341C96.4827 97.3063 96.5352 97.2539 96.5699 97.19H96.5548ZM95.2498 96.5C95.2783 96.4592 95.2983 96.4132 95.3088 96.3647C95.3192 96.3161 95.32 96.266 95.3109 96.2171C95.3018 96.1683 95.2831 96.1217 95.2559 96.0801C95.2287 96.0386 95.1935 96.0028 95.1523 95.975C95.0706 95.92 94.9705 95.8994 94.8736 95.9176C94.7768 95.9359 94.691 95.9915 94.6348 96.0725C94.6063 96.1122 94.5859 96.1572 94.5749 96.2049C94.564 96.2526 94.5626 96.302 94.571 96.3502C94.5794 96.3984 94.5974 96.4444 94.6238 96.4856C94.6502 96.5268 94.6845 96.5623 94.7248 96.59C94.789 96.6336 94.8647 96.6571 94.9423 96.6575C95.0026 96.6585 95.0621 96.6446 95.1158 96.6171C95.1694 96.5897 95.2154 96.5494 95.2498 96.5ZM103.365 96.5C103.386 96.4552 103.399 96.4067 103.401 96.3571C103.404 96.3075 103.397 96.2579 103.38 96.2111C103.363 96.1644 103.337 96.1214 103.304 96.0847C103.27 96.0481 103.23 96.0184 103.185 95.9975C103.141 95.9759 103.093 95.9632 103.045 95.9602C102.996 95.9572 102.947 95.9639 102.901 95.98C102.855 95.996 102.813 96.0211 102.776 96.0537C102.74 96.0864 102.711 96.1259 102.69 96.17C102.668 96.2143 102.655 96.2625 102.652 96.3117C102.649 96.361 102.656 96.4104 102.672 96.4571C102.688 96.5037 102.713 96.5468 102.746 96.5838C102.778 96.6207 102.818 96.6509 102.862 96.6725C102.912 96.6955 102.965 96.7082 103.02 96.71C103.091 96.7116 103.162 96.6926 103.223 96.6554C103.284 96.6182 103.333 96.5643 103.365 96.5ZM94.0424 95.63C94.0773 95.5958 94.105 95.5549 94.124 95.5099C94.1429 95.4648 94.1527 95.4164 94.1527 95.3675C94.1527 95.3186 94.1429 95.2702 94.124 95.2251C94.105 95.1801 94.0773 95.1392 94.0424 95.105C94.0087 95.0691 93.968 95.0405 93.9229 95.021C93.8777 95.0014 93.8291 94.9914 93.7799 94.9914C93.7307 94.9914 93.682 95.0014 93.6368 95.021C93.5917 95.0405 93.551 95.0691 93.5173 95.105C93.4822 95.1399 93.4543 95.1813 93.4353 95.227C93.4162 95.2727 93.4064 95.3217 93.4064 95.3712C93.4064 95.4207 93.4162 95.4698 93.4353 95.5155C93.4543 95.5612 93.4822 95.6026 93.5173 95.6375C93.5527 95.6757 93.5957 95.706 93.6435 95.7267C93.6912 95.7474 93.7428 95.7578 93.7948 95.7575C93.8444 95.7488 93.8918 95.7304 93.9343 95.7034C93.9768 95.6764 94.0135 95.6412 94.0424 95.6V95.63ZM103.747 94.88C103.75 94.8307 103.744 94.7814 103.728 94.7347C103.712 94.688 103.686 94.645 103.654 94.6081C103.621 94.5711 103.581 94.541 103.537 94.5195C103.492 94.4979 103.444 94.4854 103.395 94.4825C103.295 94.4784 103.197 94.5138 103.122 94.5812C103.048 94.6485 103.003 94.7423 102.997 94.8425C102.995 94.8917 103.003 94.9409 103.02 94.9872C103.037 95.0335 103.063 95.0759 103.096 95.1121C103.13 95.1484 103.17 95.1776 103.215 95.1983C103.26 95.2189 103.308 95.2306 103.357 95.2325C103.407 95.2345 103.456 95.2268 103.502 95.2098C103.548 95.1928 103.591 95.1668 103.627 95.1334C103.663 95.0999 103.692 95.0597 103.713 95.0149C103.734 94.9701 103.745 94.9218 103.747 94.8725V94.88ZM93.0749 94.46C93.1174 94.4346 93.1545 94.401 93.1839 94.3611C93.2134 94.3213 93.2347 94.276 93.2465 94.2278C93.2584 94.1797 93.2606 94.1297 93.253 94.0808C93.2454 94.0318 93.2282 93.9848 93.2023 93.9425C93.1484 93.8594 93.0644 93.8004 92.9678 93.778C92.8713 93.7556 92.7698 93.7716 92.6848 93.8225C92.6004 93.8752 92.5399 93.9588 92.5161 94.0554C92.4923 94.152 92.5071 94.2541 92.5574 94.34C92.592 94.3943 92.6397 94.4392 92.6959 94.4706C92.7522 94.502 92.8154 94.519 92.8798 94.52C92.9499 94.5162 93.0174 94.4928 93.0749 94.4525V94.46ZM92.3249 93.14C92.3711 93.1233 92.4135 93.0976 92.4496 93.0643C92.4857 93.0309 92.5147 92.9907 92.535 92.9459C92.5553 92.9012 92.5664 92.8528 92.5676 92.8037C92.5689 92.7546 92.5603 92.7057 92.5424 92.66C92.5257 92.6138 92.4999 92.5714 92.4666 92.5353C92.4333 92.4992 92.393 92.4701 92.3483 92.4499C92.3035 92.4296 92.2552 92.4185 92.2061 92.4172C92.1569 92.416 92.1081 92.4245 92.0623 92.4425C92.0159 92.46 91.9733 92.4865 91.9371 92.5205C91.901 92.5546 91.8719 92.5954 91.8517 92.6408C91.8315 92.6861 91.8204 92.7351 91.8193 92.7847C91.8181 92.8344 91.8268 92.8837 91.8448 92.93C91.8713 93.0017 91.9195 93.0633 91.9827 93.1064C92.0459 93.1494 92.1209 93.1716 92.1973 93.17C92.2524 93.173 92.3071 93.16 92.3549 93.1325L92.3249 93.14ZM91.8523 91.7225C91.9494 91.6992 92.0339 91.6395 92.0883 91.5558C92.1427 91.4721 92.163 91.3707 92.1448 91.2725C92.1342 91.2241 92.1141 91.1783 92.0857 91.1378C92.0572 91.0972 92.0211 91.0627 91.9792 91.0362C91.9374 91.0097 91.8907 90.9918 91.8419 90.9834C91.7931 90.9751 91.7431 90.9764 91.6949 90.9875C91.6468 90.9973 91.6011 91.0166 91.5606 91.0442C91.5201 91.0719 91.4856 91.1074 91.459 91.1487C91.4325 91.1899 91.4144 91.236 91.406 91.2844C91.3975 91.3327 91.3989 91.3822 91.4099 91.43C91.4284 91.5141 91.4748 91.5894 91.5415 91.6439C91.6082 91.6983 91.6913 91.7286 91.7773 91.73H91.8523V91.7225Z" fill="#7CE6C6"/>
<path d="M91.5822 90.2074C91.632 90.2095 91.6817 90.2013 91.7282 90.1832C91.7746 90.1651 91.8168 90.1376 91.8521 90.1023C91.8873 90.0671 91.9149 90.0249 91.933 89.9784C91.9511 89.9319 91.9593 89.8822 91.9572 89.8324C91.9578 89.7346 91.9201 89.6404 91.8522 89.5699C91.8172 89.5358 91.7766 89.5079 91.7322 89.4874C91.6626 89.4612 91.5871 89.4551 91.5141 89.4696C91.4412 89.4842 91.3739 89.519 91.3197 89.5699C91.2497 89.6396 91.2094 89.7337 91.2072 89.8324C91.2104 89.9331 91.2505 90.0292 91.3197 90.1024C91.355 90.1343 91.3956 90.1597 91.4397 90.1774C91.4845 90.1975 91.5331 90.2077 91.5822 90.2074Z" fill="#7CE6C6"/>
<path d="M99.1871 82.2949L101.85 86.5549C101.506 87.0893 101.212 87.6542 100.972 88.2424C99.6596 87.6049 97.9721 85.7224 98.2871 84.2299C98.4691 83.5363 98.7739 82.881 99.1871 82.2949Z" fill="#CE6F64"/>
<path d="M98.91 71.75C97.0275 77.09 96.1125 79.31 97.6125 83.0975C99.8625 88.79 106.837 89.945 110.28 85.2725C113.377 81.0725 115.942 73.04 111.727 68.81C110.802 67.8712 109.652 67.1848 108.387 66.8159C107.122 66.4471 105.783 66.4082 104.498 66.7029C103.214 66.9975 102.026 67.616 101.047 68.4994C100.069 69.3829 99.3335 70.5019 98.91 71.75Z" fill="#E4897B"/>
<path d="M106.695 66.0649C107.872 67.8799 103.08 78.38 96.0521 76.2875C92.5346 75.2375 93.7196 72.89 95.7896 70.805C98.2862 68.3315 101.528 66.7499 105.015 66.3049L106.695 66.0649Z" fill="#393E46"/>
<path d="M106.425 66.3649C108.495 66.1624 115.373 67.4299 115.073 74.4199C115.073 74.4199 112.215 71.8549 104.25 71.4199L106.425 66.3649Z" fill="#393E46"/>
<path d="M96.1123 76.0624C95.9548 76.5823 95.9015 77.1283 95.9556 77.6688C96.0097 78.2094 96.17 78.734 96.4273 79.2124C97.1173 80.4874 98.5048 80.1124 99.1798 78.9199C99.7873 77.8399 100.155 75.8749 99.0448 74.9974C98.7968 74.8126 98.5067 74.6923 98.2007 74.6473C97.8947 74.6023 97.5823 74.634 97.2915 74.7396C97.0008 74.8452 96.7408 75.0213 96.535 75.2522C96.3292 75.4831 96.1839 75.7615 96.1123 76.0624Z" fill="#E4897B"/>
<path d="M76.5597 121.445L74.9397 123.11C74.8122 123.237 74.9397 123.455 75.1947 123.537L98.3772 130.872C98.5797 130.932 98.7747 130.872 98.8272 130.767L99.6522 128.847C99.7122 128.72 99.5697 128.547 99.3522 128.48L76.9722 121.4C76.9055 121.371 76.8324 121.36 76.76 121.368C76.6877 121.376 76.6187 121.402 76.5597 121.445Z" fill="#EF4623"/>
<path d="M106.192 76.5125C106.012 76.94 106.095 77.375 106.365 77.495C106.635 77.615 107.017 77.36 107.197 76.94C107.377 76.52 107.295 76.0775 107.017 75.9575C106.74 75.8375 106.372 76.085 106.192 76.5125Z" fill="#393E46"/>
<path d="M111 78.545C110.82 78.965 110.895 79.4075 111.172 79.5275C111.45 79.6475 111.825 79.3925 112.005 78.9725C112.185 78.5525 112.102 78.11 111.825 77.99C111.547 77.87 111.165 78.1175 111 78.545Z" fill="#393E46"/>
<path d="M111.675 77.96L112.822 78.1025C112.822 78.1025 111.96 78.6724 111.675 77.96Z" fill="#393E46"/>
<path d="M109.41 78.7324C109.378 79.861 109.499 80.9887 109.77 82.0849C109.488 82.1479 109.197 82.1483 108.916 82.086C108.634 82.0238 108.37 81.9005 108.142 81.7249L109.41 78.7324Z" fill="#DE5753"/>
<path d="M105.997 82.7749C106.023 82.775 106.049 82.7672 106.07 82.7524C106.092 82.7377 106.108 82.7167 106.117 82.6924C106.125 82.6761 106.129 82.6586 106.13 82.6407C106.13 82.6228 106.128 82.605 106.121 82.5883C106.115 82.5715 106.105 82.5562 106.093 82.5432C106.081 82.5301 106.066 82.5197 106.05 82.5124C105.517 82.3011 105.041 81.9667 104.662 81.5366C104.283 81.1065 104.01 80.5928 103.867 80.0374C103.865 80.0197 103.858 80.0028 103.849 79.9877C103.839 79.9727 103.827 79.9598 103.812 79.9499C103.797 79.94 103.78 79.9333 103.763 79.9303C103.745 79.9273 103.727 79.928 103.71 79.9324C103.692 79.9351 103.675 79.9414 103.66 79.9508C103.644 79.9603 103.631 79.9727 103.62 79.9874C103.61 80.0021 103.602 80.0187 103.599 80.0363C103.595 80.0539 103.594 80.0721 103.597 80.0899C103.749 80.6894 104.04 81.2442 104.449 81.7085C104.857 82.1729 105.37 82.5332 105.945 82.7599L105.997 82.7749Z" fill="#393E46"/>
<path d="M105.51 74.3749C105.558 74.3765 105.605 74.3634 105.645 74.3374C105.933 74.1597 106.26 74.0533 106.598 74.0273C106.936 74.0012 107.275 74.0561 107.587 74.1874C107.619 74.2036 107.654 74.2134 107.69 74.2162C107.726 74.2189 107.762 74.2146 107.796 74.2035C107.83 74.1923 107.862 74.1746 107.889 74.1512C107.916 74.1279 107.939 74.0994 107.955 74.0674C107.971 74.0354 107.981 74.0005 107.984 73.9647C107.986 73.9289 107.982 73.8929 107.971 73.8588C107.96 73.8246 107.942 73.793 107.919 73.7658C107.895 73.7385 107.867 73.7161 107.835 73.6999C107.441 73.5294 107.012 73.456 106.584 73.4861C106.156 73.5161 105.741 73.6486 105.375 73.8724C105.313 73.9084 105.269 73.9672 105.25 74.036C105.232 74.1049 105.242 74.1781 105.277 74.2399C105.299 74.2824 105.332 74.3177 105.374 74.3417C105.415 74.3656 105.462 74.3772 105.51 74.3749Z" fill="#393E46"/>
<path d="M114.202 77.2774H114.247C114.282 77.2711 114.316 77.2579 114.346 77.2387C114.375 77.2194 114.401 77.1944 114.421 77.1651C114.442 77.1359 114.456 77.1029 114.463 77.0681C114.471 77.0333 114.471 76.9974 114.465 76.9624C114.393 76.5358 114.219 76.1328 113.958 75.7879C113.697 75.4431 113.356 75.1667 112.965 74.9824C112.932 74.9646 112.895 74.9539 112.858 74.951C112.82 74.9481 112.783 74.953 112.747 74.9655C112.712 74.9779 112.679 74.9976 112.652 75.0233C112.625 75.0491 112.603 75.0802 112.588 75.1148C112.574 75.1493 112.566 75.1866 112.567 75.2241C112.567 75.2617 112.576 75.2987 112.591 75.3328C112.607 75.367 112.63 75.3975 112.658 75.4223C112.686 75.4472 112.719 75.466 112.755 75.4774C113.058 75.6314 113.32 75.8552 113.519 76.1304C113.719 76.4055 113.85 76.7241 113.902 77.0599C113.917 77.1268 113.955 77.1859 114.011 77.2261C114.066 77.2662 114.134 77.2845 114.202 77.2774Z" fill="#393E46"/>
<path d="M78.7497 93.71C78.2097 94.3475 77.5497 95.0675 76.9347 95.75C76.3197 96.4325 75.6522 97.1075 74.9922 97.7675C73.6797 99.1025 72.3297 100.4 70.9122 101.607C69.4947 102.815 68.0622 103.992 66.5622 105.042C66.1947 105.32 65.8123 105.552 65.4223 105.792C65.0323 106.032 64.6723 106.295 64.2748 106.542C63.8773 106.79 63.4722 107.03 63.1197 107.217L62.6397 107.465L62.1148 107.675C61.3573 107.95 60.5766 108.155 59.7822 108.29C58.9254 108.423 58.0614 108.506 57.1948 108.537C55.3677 108.579 53.5401 108.484 51.7273 108.252C49.8541 108.031 47.994 107.711 46.1548 107.292C44.3023 106.91 42.4047 106.407 40.6348 105.89L39.5623 108.575C41.3861 109.423 43.2537 110.175 45.1572 110.825C47.0747 111.474 49.0249 112.022 50.9998 112.467C53.0288 112.928 55.0941 113.212 57.1723 113.315C59.4062 113.44 61.6452 113.186 63.7947 112.565L64.6422 112.265L65.4822 111.89C66.0072 111.642 66.4273 111.402 66.8998 111.14C67.3723 110.877 67.8222 110.645 68.2647 110.39C68.7072 110.135 69.1722 109.872 69.5997 109.587C71.3395 108.491 73.0102 107.289 74.6022 105.987C76.1847 104.697 77.6997 103.332 79.1472 101.907C79.8672 101.187 80.5722 100.452 81.2622 99.7025C81.9597 98.9525 82.6047 98.2025 83.3022 97.34L78.7497 93.71Z" fill="#E4897B"/>
<path d="M14.6696 222.395C14.7419 222.402 14.8147 222.402 14.8871 222.395C14.9683 222.384 15.0449 222.351 15.1085 222.299C15.172 222.248 15.22 222.18 15.2471 222.102C15.5096 221.42 14.2796 219.762 14.1371 219.575C14.1216 219.555 14.1005 219.54 14.0764 219.532C14.0524 219.524 14.0265 219.523 14.0021 219.53C13.9758 219.534 13.9515 219.547 13.9327 219.565C13.9139 219.584 13.9014 219.608 13.8971 219.635C13.7696 220.385 13.6346 221.72 14.1596 222.222C14.2289 222.283 14.3097 222.33 14.3973 222.36C14.4848 222.389 14.5774 222.401 14.6696 222.395ZM14.1146 219.98C14.5871 220.655 15.1346 221.622 14.9996 221.982C14.9996 222.027 14.9471 222.08 14.8346 222.102C14.7511 222.128 14.6625 222.132 14.5771 222.113C14.4918 222.095 14.4126 222.055 14.3471 221.997C14.0621 221.75 13.9796 221 14.1146 219.98Z" fill="#EF4623"/>
<path d="M16.0274 221C16.0822 221.008 16.1377 221.008 16.1924 221C16.2952 220.97 16.3851 220.906 16.4476 220.819C16.5101 220.732 16.5417 220.627 16.5374 220.52C16.5456 220.416 16.5303 220.311 16.4926 220.214C16.455 220.117 16.396 220.029 16.3199 219.957C15.7349 219.38 14.0699 219.477 14.0249 219.477C14.0018 219.481 13.9797 219.489 13.9602 219.502C13.9407 219.515 13.9244 219.532 13.9124 219.552C13.8998 219.573 13.8931 219.596 13.8931 219.62C13.8931 219.644 13.8998 219.667 13.9124 219.687C14.4385 220.363 15.1885 220.828 16.0274 221ZM14.3474 219.725C14.9709 219.673 15.595 219.817 16.1324 220.137C16.1791 220.183 16.2154 220.238 16.2387 220.299C16.262 220.36 16.2718 220.425 16.2674 220.49C16.2674 220.662 16.1849 220.707 16.1249 220.722C15.7349 220.827 14.7674 220.242 14.3024 219.725H14.3474Z" fill="#EF4623"/>
<path d="M69.1798 241.895C69.6417 241.928 70.1027 241.818 70.4998 241.58C70.6044 241.506 70.6902 241.408 70.7501 241.295C70.8101 241.182 70.8425 241.056 70.8448 240.927C70.8542 240.857 70.8437 240.785 70.8146 240.72C70.7854 240.655 70.7388 240.6 70.6798 240.56C70.0573 240.147 67.7548 241.19 67.2973 241.407C67.2718 241.419 67.2506 241.438 67.2371 241.462C67.2235 241.487 67.2183 241.515 67.2223 241.542C67.2259 241.571 67.2378 241.597 67.2565 241.619C67.2752 241.64 67.2998 241.655 67.3273 241.662C67.9349 241.805 68.5558 241.883 69.1798 241.895ZM70.2598 240.725C70.3512 240.72 70.4422 240.741 70.5223 240.785C70.5431 240.798 70.5593 240.818 70.5687 240.84C70.5781 240.863 70.5802 240.888 70.5748 240.912C70.5752 241.001 70.5542 241.088 70.5137 241.166C70.4732 241.244 70.4144 241.312 70.3423 241.362C69.8098 241.767 68.5348 241.617 67.7998 241.482C68.5751 241.103 69.4052 240.847 70.2598 240.725Z" fill="#EF4623"/>
<path d="M67.3573 241.662H67.4098C68.1598 241.347 69.7123 240.117 69.6598 239.472C69.6598 239.337 69.5473 239.157 69.1948 239.12C67.8523 238.947 67.2824 241.37 67.2524 241.505C67.2478 241.525 67.2478 241.546 67.2525 241.566C67.2572 241.586 67.2664 241.604 67.2795 241.62C67.2925 241.636 67.309 241.649 67.3277 241.658C67.3464 241.666 67.3668 241.67 67.3873 241.67L67.3573 241.662ZM69.0448 239.375H69.1348C69.2773 239.375 69.3523 239.427 69.3598 239.495C69.4123 239.87 68.3473 240.845 67.5673 241.272C67.7473 240.687 68.2498 239.375 69.0448 239.375Z" fill="#EF4623"/>
<path d="M39.247 104.832L40.867 100.827L43.582 105.957C43.582 105.957 41.917 108.785 39.5545 108.575L39.187 107.532C38.8801 106.655 38.9014 105.696 39.247 104.832Z" fill="#E4897B"/>
<path d="M106.89 75.9272L108.03 76.0697C108.03 76.0697 107.167 76.6398 106.89 75.9272Z" fill="#393E46"/>
<path d="M59.6325 233.96L72.405 234.635L74.25 231.095L60.39 230.637L59.6325 233.96Z" fill="#EF4623"/>
<path opacity="0.7" d="M59.6325 233.96L72.405 234.635L74.25 231.095L60.39 230.637L59.6325 233.96Z" fill="#FEFEFE"/>
<path d="M16.5372 209.502L21.6898 217.955L24.4048 217.392L19.5748 207.47L16.5372 209.502Z" fill="#EF4623"/>
<path d="M16.5372 209.502L21.6898 217.955L24.4048 217.392L19.5748 207.47L16.5372 209.502Z" fill="#FAC1C5"/>
<path d="M78.7498 124.902L78.1498 124.715C78.0298 124.677 77.9623 124.587 77.9923 124.512L79.1098 122C79.1098 121.925 79.2673 121.902 79.3873 121.94L79.9873 122.127C80.1073 122.127 80.1748 122.255 80.1448 122.33L79.0498 124.812C79.0198 124.91 78.8923 124.94 78.7498 124.902Z" fill="#EF4623"/>
<path d="M96.6299 130.55L96.0299 130.362C95.9099 130.362 95.8349 130.235 95.8649 130.16L96.9599 127.677C96.9974 127.602 97.1173 127.58 97.2373 127.617L97.8374 127.805C97.9574 127.805 98.0249 127.932 97.9949 128.007L96.8999 130.49C96.8699 130.557 96.7499 130.587 96.6299 130.55Z" fill="#EF4623"/>
<path d="M87.6975 127.73L87.0976 127.535C86.9851 127.535 86.9101 127.407 86.9401 127.332L88.0351 124.857C88.0351 124.782 88.1926 124.752 88.3125 124.79L88.9125 124.977C89.0325 125.015 89.1001 125.112 89.0701 125.18L87.975 127.662C87.945 127.737 87.8175 127.767 87.6975 127.73Z" fill="#EF4623"/>
<path d="M78.7498 124.902L78.1498 124.715C78.0298 124.677 77.9623 124.587 77.9923 124.512L79.1098 122C79.1098 121.925 79.2673 121.902 79.3873 121.94L79.9873 122.127C80.1073 122.127 80.1748 122.255 80.1448 122.33L79.0498 124.812C79.0198 124.91 78.8923 124.94 78.7498 124.902Z" fill="#393E46"/>
<path d="M96.6299 130.55L96.0299 130.362C95.9099 130.362 95.8349 130.235 95.8649 130.16L96.9599 127.677C96.9974 127.602 97.1173 127.58 97.2373 127.617L97.8374 127.805C97.9574 127.805 98.0249 127.932 97.9949 128.007L96.8999 130.49C96.8699 130.557 96.7499 130.587 96.6299 130.55Z" fill="#393E46"/>
<path d="M87.6975 127.73L87.0976 127.535C86.9851 127.535 86.9101 127.407 86.9401 127.332L88.0351 124.857C88.0351 124.782 88.1926 124.752 88.3125 124.79L88.9125 124.977C89.0325 125.015 89.1001 125.112 89.0701 125.18L87.975 127.662C87.945 127.737 87.8175 127.767 87.6975 127.73Z" fill="#393E46"/>
<path d="M83.0024 88.6025C80.5799 88.6025 75.5024 95.3525 75.5024 95.3525L82.1549 104.218C82.1549 104.218 86.3999 98.6825 86.3774 95.525C86.3474 92.2475 85.7774 88.6325 83.0024 88.6025Z" fill="#EF4623"/>
<path d="M83.0024 88.6025C80.5799 88.6025 75.5024 95.3525 75.5024 95.3525L82.1549 104.218C82.1549 104.218 86.3999 98.6825 86.3774 95.525C86.3474 92.2475 85.7774 88.6325 83.0024 88.6025Z" fill="#7CE6C6"/>
<path d="M43.0948 100.617L43.1548 104.652C43.1544 104.838 43.0968 105.018 42.9898 105.17L41.5273 107.217L40.8672 100.827L41.6173 100.04C41.737 99.9226 41.888 99.8425 42.0521 99.809C42.2163 99.7756 42.3866 99.7902 42.5426 99.8512C42.6986 99.9122 42.8337 100.017 42.9317 100.153C43.0296 100.289 43.0863 100.45 43.0948 100.617Z" fill="#E4897B"/>
<path d="M170.998 43.1899V224.69H59.3226V43.1899H170.998ZM68.9976 217.415H167.885V50.4574H69.0126L68.9976 217.415Z" fill="#EF4623"/>
<path opacity="0.6" d="M170.998 43.1899V224.69H59.3226V43.1899H170.998ZM68.9976 217.415H167.885V50.4574H69.0126L68.9976 217.415Z" fill="#FEFEFE"/>
<path d="M167.885 50.4573H168.928V217.415H167.885V50.4573Z" fill="#FEFEFE"/>
<path d="M167.885 50.4573H168.928V217.415H167.885V50.4573Z" fill="#F0F0F0"/>
<path d="M49.3624 0.702393H250.925C252.663 0.706307 254.329 1.39644 255.561 2.62264C256.793 3.84883 257.491 5.51186 257.502 7.2499V241.062C257.497 242.804 256.801 244.473 255.569 245.704C254.336 246.935 252.667 247.628 250.925 247.632H49.3624C47.6218 247.626 45.9541 246.932 44.7233 245.702C43.4925 244.471 42.7984 242.803 42.7924 241.062V7.2499C42.8043 5.51315 43.501 3.85125 44.7312 2.62527C45.9614 1.39929 47.6256 0.70828 49.3624 0.702393ZM167.862 50.4574H69.0124V217.415H167.885L167.862 50.4574Z" fill="#EF4623"/>
<path d="M49.3624 0.702393H250.925C252.663 0.706307 254.329 1.39644 255.561 2.62264C256.793 3.84883 257.491 5.51186 257.502 7.2499V241.062C257.497 242.804 256.801 244.473 255.569 245.704C254.336 246.935 252.667 247.628 250.925 247.632H49.3624C47.6218 247.626 45.9541 246.932 44.7233 245.702C43.4925 244.471 42.7984 242.803 42.7924 241.062V7.2499C42.8043 5.51315 43.501 3.85125 44.7312 2.62527C45.9614 1.39929 47.6256 0.70828 49.3624 0.702393ZM167.862 50.4574H69.0124V217.415H167.885L167.862 50.4574Z" fill="#EF4623"/>
<path d="M257.502 17.6975V241.062C257.497 242.804 256.801 244.473 255.569 245.704C254.336 246.935 252.667 247.629 250.925 247.633H49.3624C47.6218 247.627 45.9541 246.932 44.7233 245.702C43.4925 244.471 42.7984 242.803 42.7924 241.062V17.6975H257.502ZM167.885 50.4575H69.0124V217.415H167.885V50.4575Z" fill="#EF4623"/>
<path d="M257.502 17.6975V241.062C257.497 242.804 256.801 244.473 255.569 245.704C254.336 246.935 252.667 247.629 250.925 247.633H49.3624C47.6218 247.627 45.9541 246.932 44.7233 245.702C43.4925 244.471 42.7984 242.803 42.7924 241.062V17.6975H257.502ZM167.885 50.4575H69.0124V217.415H167.885V50.4575Z" fill="#FAC1C5"/>
<path d="M256.25 26.4348V238.895H44V26.4348H256.25ZM68.975 217.415H167.885V50.4573H69.0125L68.975 217.415Z" fill="#FEFEFE"/>
<path d="M57.2149 12.74C55.2847 12.74 53.7199 11.1752 53.7199 9.245C53.7199 7.31477 55.2847 5.75 57.2149 5.75C59.1452 5.75 60.71 7.31477 60.71 9.245C60.71 11.1752 59.1452 12.74 57.2149 12.74Z" fill="#F9F9F9"/>
<path d="M69.5978 12.74C67.6675 12.74 66.1028 11.1752 66.1028 9.245C66.1028 7.31477 67.6675 5.75 69.5978 5.75C71.528 5.75 73.0928 7.31477 73.0928 9.245C73.0928 11.1752 71.528 12.74 69.5978 12.74Z" fill="#F9F9F9"/>
<path d="M85.4751 9.245C85.4751 9.93624 85.2701 10.612 84.8861 11.1867C84.5021 11.7615 83.9562 12.2094 83.3176 12.4739C82.679 12.7385 81.9762 12.8077 81.2982 12.6728C80.6203 12.538 79.9975 12.2051 79.5088 11.7163C79.02 11.2275 78.6871 10.6048 78.5523 9.92683C78.4174 9.24887 78.4866 8.54614 78.7511 7.90752C79.0157 7.26889 79.4636 6.72305 80.0384 6.33901C80.6131 5.95498 81.2889 5.75 81.9801 5.75C82.907 5.75 83.796 6.11822 84.4514 6.77366C85.1069 7.4291 85.4751 8.31807 85.4751 9.245Z" fill="#F9F9F9"/>
<path d="M257.495 18.1323L42.7925 18.1323V17.2548L257.495 17.2548V18.1323Z" fill="#EF4623"/>
<path d="M192.965 202.172C191.327 192.408 197.915 183.166 207.678 181.529C217.442 179.892 226.684 186.479 228.321 196.243C229.958 206.006 223.371 215.248 213.607 216.885C203.844 218.523 194.602 211.935 192.965 202.172Z" fill="#FAC1C5"/>
<path d="M208.817 196.092C213.077 194.787 215.717 190.152 215.717 190.152C215.717 190.152 217.059 190.077 217.127 191.292C217.153 192.112 217.009 192.928 216.705 193.69C216.4 194.451 215.941 195.142 215.357 195.717L217.404 195.605C218.135 195.565 218.867 195.644 219.572 195.837L220.254 196.017C220.817 196.174 221.297 196.543 221.592 197.047C221.887 197.551 221.975 198.15 221.837 198.717L220.817 202.7C220.53 203.902 219.804 204.954 218.781 205.648C217.758 206.342 216.513 206.628 215.289 206.45C213.204 206.142 209.957 205.7 209.394 205.565L207.894 205.445L207.392 196.512L208.817 196.092Z" fill="#F9F9F9"/>
<path d="M202.142 194.855H207.879C208.327 194.855 208.689 195.218 208.689 195.665V205.805C208.689 206.252 208.327 206.615 207.879 206.615H202.142C201.695 206.615 201.332 206.252 201.332 205.805V195.665C201.332 195.218 201.695 194.855 202.142 194.855Z" fill="#EF4623"/>
<path d="M243.703 211.883C236.703 204.883 236.703 193.534 243.703 186.534C250.703 179.533 262.052 179.533 269.053 186.534C276.053 193.534 276.053 204.883 269.053 211.883C262.052 218.884 250.703 218.884 243.703 211.883Z" fill="#FAC1C5"/>
<path d="M247.448 192.8C248.034 192.214 248.73 191.748 249.497 191.431C250.263 191.113 251.084 190.95 251.914 190.95C252.743 190.95 253.565 191.113 254.331 191.431C255.097 191.748 255.794 192.214 256.38 192.8C257.565 191.616 259.171 190.95 260.846 190.95C262.522 190.95 264.128 191.616 265.313 192.8C266.497 193.985 267.163 195.591 267.163 197.266C267.163 198.942 266.497 200.548 265.313 201.733L256.38 210.665L247.448 201.733C246.266 200.546 245.603 198.941 245.603 197.266C245.603 195.592 246.266 193.987 247.448 192.8Z" fill="#EF4623"/>
<path d="M176.188 43.1899V224.69H61.7525V43.1899H176.188ZM69.0125 217.415H167.885V50.4574H69.0125V217.415Z" fill="#EF4623"/>
<path d="M176.188 43.1899V224.69H61.7525V43.1899H176.188ZM69.0125 217.415H167.885V50.4574H69.0125V217.415Z" fill="#FAC1C5"/>
<path d="M213 166H254C265.046 166 274 157.046 274 146V55C274 43.9543 265.046 35 254 35H213C201.954 35 193 43.9543 193 55V146C193 157.046 201.954 166 213 166Z" fill="#FAC1C5"/>
<circle cx="234" cy="37" r="7" transform="rotate(90 234 37)" fill="#FEEBEC"/>
<path d="M237.267 38.4001L234 34.6667L230.733 38.4001" stroke="#FAC1C5" stroke-width="1.5" stroke-linecap="round" stroke-linejoin="round"/>
<circle r="7" transform="matrix(1.19249e-08 -1 -1 -1.19249e-08 234 165)" fill="#FEEBEC"/>
<path d="M237.267 163.6L234 167.333L230.733 163.6" stroke="#FAC1C5" stroke-width="1.5" stroke-linecap="round" stroke-linejoin="round"/>
<path d="M243.771 81.3716V64.5863C243.771 64.2048 243.614 63.839 243.335 63.5692C243.056 63.2995 242.678 63.1479 242.283 63.1479H217.872C217.478 63.1479 217.099 63.2995 216.82 63.5692C216.541 63.839 216.384 64.2048 216.384 64.5863C216.384 64.9677 216.541 65.3336 216.82 65.6033C217.099 65.8731 217.478 66.0246 217.872 66.0246H224.227V81.3716C221.048 81.8427 218.155 83.4166 216.089 85.7991C214.024 88.1815 212.927 91.2094 213.004 94.3166V130.074C213.004 137.265 218.63 143.148 225.552 143.148H242.432C249.353 143.148 254.995 137.28 254.995 130.074V94.3741C255.086 91.2572 253.996 88.2153 251.929 85.8207C249.862 83.4261 246.961 81.8439 243.771 81.3716Z" fill="#EF4623"/>
<line x1="224.027" y1="80.438" x2="243.898" y2="80.438" stroke="#FEEBEC" stroke-width="2"/>
</svg>
