<svg width="111" height="48" viewBox="0 0 111 48" fill="none" xmlns="http://www.w3.org/2000/svg">
    <rect x="62.5" width="48" height="48" rx="24" fill="#FEEBEC" />
    <mask id="mask0" mask-type="alpha" maskUnits="userSpaceOnUse" x="62" y="0" width="49" height="48">
        <rect x="62.5" width="48" height="48" rx="24" fill="#FEFEFE" />
    </mask>
    <g mask="url(#mask0)">
        <path d="M80.758 21.9506C79.3292 21.9506 78.3134 23.3405 78.7472 24.7018L82.2671 35.7478C82.5759 36.7167 83.476 37.3746 84.4929 37.3746C85.3456 37.3746 86.1306 36.91 86.5409 36.1625L92.6041 25.1144C93.3854 23.6908 92.3554 21.9506 90.7315 21.9506C89.9502 21.9506 89.2312 22.3771 88.8568 23.0628L84.9142 30.2817L82.7722 23.4312C82.4968 22.5503 81.6809 21.9506 80.758 21.9506ZM84.9365 30.3531L84.9365 30.353L84.9365 30.3531ZM97.3891 21.9506C95.9787 21.9506 94.9745 23.3208 95.3993 24.6657L98.5634 34.6839L91.0875 46.8997C90.6185 47.666 91.17 48.65 92.0684 48.65H94.5516C94.725 48.65 94.8859 48.5594 94.9757 48.411L109.061 25.135C109.907 23.7367 108.901 21.9506 107.266 21.9506C106.523 21.9506 105.835 22.3437 105.458 22.984L101.445 29.7995L99.3746 23.3955C99.0962 22.5342 98.2942 21.9506 97.3891 21.9506Z" fill="#FAC1C5" stroke="#FAC1C5" stroke-width="0.3" stroke-linecap="round" stroke-linejoin="round" />
    </g>
    <path d="M16.5134 18.9084L16.5151 18.9093C17.03 19.1698 17.518 19.5029 17.9791 19.9093C18.9501 20.765 20.4264 21.0607 21.4958 20.2533C22.4824 19.5085 22.7524 18.0815 21.8753 17.1603C20.9787 16.2186 19.9343 15.426 18.743 14.7823C16.9265 13.7824 15.0754 13.2802 13.1913 13.2802C9.98393 13.2802 7.03962 14.4952 4.3622 16.9121C1.68396 19.3286 0.35 22.6135 0.35 26.7486C0.35 30.0251 1.39188 32.6763 3.4841 34.6869L3.48441 34.6872C5.58786 36.697 8.35254 37.6964 11.7633 37.6964C14.7814 37.6964 17.4717 36.54 19.8291 34.2392C21.5784 32.532 22.6557 30.3408 23.0645 27.6737C23.3326 25.9251 21.8437 24.5249 20.1132 24.5249H14.56C13.3368 24.5249 12.3451 25.5165 12.3451 26.7397C12.3451 27.9629 13.3368 28.9545 14.56 28.9545H17.743C17.0748 30.4004 16.2244 31.4547 15.1974 32.1294C14.1134 32.8415 12.9696 33.1953 11.7633 33.1953C10.1165 33.1953 8.68492 32.5758 7.46195 31.3279C6.23873 30.0678 5.63013 28.5913 5.63013 26.8916C5.63013 24.2377 6.33614 22.1061 7.73555 20.4825C9.14545 18.8605 10.9716 18.0494 13.227 18.0494C14.3185 18.0494 15.4134 18.3341 16.5134 18.9084ZM47.5703 35.2961L47.5708 35.2957C49.2538 33.7071 50.0989 31.785 50.0989 29.5374C50.0989 27.2122 49.3234 25.3063 47.7675 23.8332C46.2241 22.3606 44.2275 21.6288 41.7915 21.6288C39.5595 21.6288 37.6061 22.4689 35.9377 24.1398C34.2691 25.8109 33.4305 27.7732 33.4305 30.0201C33.4305 32.1359 34.2157 33.9446 35.7796 35.4381L35.78 35.4385C37.3441 36.9199 39.2438 37.6606 41.4702 37.6606C43.8511 37.6606 45.8874 36.8724 47.5703 35.2961ZM44.253 27.0306L44.2548 27.0324C44.9013 27.6912 45.2293 28.557 45.2293 29.6447C45.2293 30.6432 44.887 31.5064 44.1988 32.2416C43.5114 32.976 42.6994 33.3383 41.7558 33.3383C40.783 33.3383 39.971 33.0077 39.3102 32.3462C38.6617 31.6734 38.3358 30.836 38.3358 29.8235C38.3358 28.7615 38.6688 27.8685 39.3323 27.1353C40.0079 26.39 40.8132 26.0226 41.7558 26.0226C42.7904 26.0226 43.6181 26.3606 44.253 27.0306ZM30.6778 11.85C29.5404 11.85 28.5743 12.6826 28.4063 13.8075L25.2835 34.7219C25.0749 36.1189 26.1571 37.3746 27.5695 37.3746C28.7154 37.3746 29.6884 36.535 29.856 35.4014L32.9498 14.4827C33.155 13.0956 32.08 11.85 30.6778 11.85ZM54.1983 21.9506C52.8257 21.9506 51.8235 23.2477 52.1699 24.5758L55.1066 35.8346C55.3432 36.7417 56.1623 37.3746 57.0997 37.3746C57.8311 37.3746 58.5076 36.9868 58.8772 36.3557L63.5865 28.3145L65.6139 35.9104C65.8443 36.7739 66.6264 37.3746 67.5201 37.3746C68.2208 37.3746 68.8689 37.003 69.2228 36.3983L75.9327 24.9363C76.7068 23.6139 75.7531 21.9506 74.2208 21.9506C73.517 21.9506 72.866 22.3235 72.5099 22.9305L68.3692 29.9896L66.7885 23.9317C66.4839 22.7648 65.43 21.9506 64.224 21.9506C63.2881 21.9506 62.4217 22.4441 61.9443 23.249L57.9444 29.9937L56.2244 23.5093C55.9807 22.5904 55.149 21.9506 54.1983 21.9506Z" fill="#FAC1C5" stroke="#FAC1C5" stroke-width="0.3" stroke-linecap="round" stroke-linejoin="round" />
    <path d="M79.3716 16.7144L79.3716 16.7144L79.3735 16.7162C79.915 17.2284 80.5835 17.4833 81.369 17.4833C82.1425 17.4833 82.8114 17.1994 83.3681 16.6377C83.9242 16.0765 84.2056 15.4089 84.2056 14.6416C84.2056 13.8223 83.9416 13.1474 83.4062 12.6315C82.8802 12.1077 82.1963 11.85 81.369 11.85C80.5947 11.85 79.9295 12.1388 79.3816 12.7099L79.3815 12.71C78.8419 13.2733 78.5722 13.9619 78.5722 14.7668C78.5722 15.5397 78.8385 16.1924 79.3716 16.7144Z" fill="#FAC1C5" stroke="#FAC1C5" stroke-width="0.3" stroke-linecap="round" stroke-linejoin="round" />
    <path d="M90.0383 16.7144L90.0383 16.7144L90.0401 16.7162C90.5816 17.2284 91.2502 17.4833 92.0357 17.4833C92.8092 17.4833 93.478 17.1994 94.0347 16.6377C94.5908 16.0765 94.8722 15.4089 94.8722 14.6416C94.8722 13.8223 94.6083 13.1474 94.0728 12.6315C93.5468 12.1077 92.863 11.85 92.0357 11.85C91.2613 11.85 90.5962 12.1388 90.0482 12.7099L90.0481 12.71C89.5086 13.2733 89.2389 13.9619 89.2389 14.7668C89.2389 15.5397 89.5052 16.1924 90.0383 16.7144Z" fill="#FAC1C5" stroke="#FAC1C5" stroke-width="0.3" stroke-linecap="round" stroke-linejoin="round" />
</svg>
