<svg width="48" height="48" viewBox="0 0 48 48" fill="none" xmlns="http://www.w3.org/2000/svg">
<path fill-rule="evenodd" clip-rule="evenodd" d="M23.9989 6C20.3915 6 17.4614 8.94075 17.4435 12.5677C14.3145 10.77 10.3182 11.8545 8.51456 15C6.71089 18.1455 7.77476 22.1707 10.8882 24C7.77476 25.8293 6.71089 29.8545 8.51456 33C10.3182 36.1455 14.3145 37.23 17.4435 35.4323C17.4614 39.0592 20.3915 42 23.9989 42C27.6084 42 30.5386 39.0592 30.5565 35.4323C33.6855 37.23 37.6795 36.1455 39.4854 33C41.2891 29.8545 40.2252 25.8293 37.1118 24C40.2252 22.1707 41.2891 18.1455 39.4854 15C37.6795 11.8545 33.6855 10.77 30.5565 12.5677C30.5386 8.94075 27.6084 6 23.9989 6ZM24 28.9091C26.7112 28.9091 28.9091 26.7112 28.9091 24C28.9091 21.2888 26.7112 19.0909 24 19.0909C21.2888 19.0909 19.0909 21.2888 19.0909 24C19.0909 26.7112 21.2888 28.9091 24 28.9091Z" fill="#D9D9D9"/>
</svg>
