<svg width="24" height="24" viewBox="0 0 24 24" fill="none" xmlns="http://www.w3.org/2000/svg">
<path fill-rule="evenodd" clip-rule="evenodd" d="M11.9995 3C10.1958 3 8.73076 4.47037 8.72182 6.28387C7.1573 5.385 5.15918 5.92725 4.25734 7.5C3.3555 9.07275 3.88744 11.0854 5.44414 12C3.88744 12.9146 3.3555 14.9272 4.25734 16.5C5.15918 18.0728 7.1573 18.615 8.72182 17.7161C8.73076 19.5296 10.1958 21 11.9995 21C13.8043 21 15.2694 19.5296 15.2783 17.7161C16.8428 18.615 18.8398 18.0728 19.7428 16.5C20.6446 14.9272 20.1127 12.9146 18.556 12C20.1127 11.0854 20.6446 9.07275 19.7428 7.5C18.8398 5.92725 16.8428 5.385 15.2783 6.28387C15.2694 4.47037 13.8043 3 11.9995 3ZM12.0001 14.4545C13.3557 14.4545 14.4546 13.3556 14.4546 12C14.4546 10.6444 13.3557 9.54545 12.0001 9.54545C10.6444 9.54545 9.54551 10.6444 9.54551 12C9.54551 13.3556 10.6444 14.4545 12.0001 14.4545Z" fill="#FDD13C"/>
</svg>
