<svg width="24" height="24" viewBox="0 0 24 24" fill="none" xmlns="http://www.w3.org/2000/svg" xmlns:xlink="http://www.w3.org/1999/xlink">
    <mask id="mask0" mask-type="alpha" maskUnits="userSpaceOnUse" x="0" y="0" width="24" height="24">
        <rect width="24" height="24" fill="url(#pattern0)" />
    </mask>
    <g mask="url(#mask0)"></g>
    <g clip-path="url(#clip0)">
        <g clip-path="url(#clip1)">
            <path d="M11.5231 18.0291C13.3322 18.0291 13.9515 16.0795 13.9515 16.0795H9.09468C9.09468 16.0795 9.78029 18.0291 11.5231 18.0291ZM22.0462 21.0429C19.8986 22.4625 17.6605 22.0815 16.5078 19.8106C15.1544 21.057 13.5079 21.8703 11.5231 21.8703C9.47512 21.8703 7.86671 21.1166 6.51733 19.8453C5.35898 22.0832 3.13538 22.4542 1 21.0429C4.54142 19.5936 -1.20904 11.2593 4.32205 4.99645C6.16926 2.90523 8.75146 2 11.5231 2C14.2947 2 16.8769 2.90523 18.7241 4.99645C24.2552 11.2593 18.5047 19.5936 22.0462 21.0429ZM17.4581 15.9818C17.5568 15.8145 17.7106 15.6886 17.8912 15.6256C19.8719 14.9399 19.9585 12.0138 19.1491 11.4747C18.9588 11.3488 18.7192 11.3794 18.6051 11.4308C18.0676 11.6751 17.467 11.2701 17.467 10.6738C17.467 10.2837 17.4395 9.84476 17.3893 9.45385H9.21286C8.55476 8.60825 8.58876 7.01478 8.89231 5.66895C8.16136 6.48225 7.52188 8.35979 7.37456 9.45385H5.65768C5.60749 9.84476 5.57997 10.2837 5.57997 10.6738C5.57997 11.2701 4.97934 11.6751 4.44186 11.4308C4.32772 11.3794 4.08893 11.348 3.89789 11.4747C3.08843 12.0138 3.17504 14.9399 5.15581 15.6256C5.33713 15.6886 5.49012 15.8145 5.58887 15.9818C6.97225 18.3248 8.83888 20.2147 11.5239 20.2147C14.2081 20.2147 16.0755 18.3239 17.4581 15.9818Z" fill="#EF4623" />
            <path d="M17.2616 13.1711L16.5995 13.6148C16.5995 13.6148 16.1584 12.7835 15.0684 12.7835C14.01 12.7835 13.5382 13.6148 13.5382 13.6148L12.877 13.1711C13.1234 12.5152 13.9337 11.4155 15.0684 11.4155C16.204 11.4155 17.0134 12.5152 17.2616 13.1711ZM11.1231 13.1711L10.4611 13.6148C10.4611 13.6148 10.02 12.7835 8.92996 12.7835C7.87151 12.7835 7.39973 13.6148 7.39973 13.6148L6.73853 13.1711C6.98494 12.5152 7.79522 11.4155 8.92996 11.4155C10.0656 11.4155 10.875 12.5152 11.1231 13.1711Z" fill="#EF4623" />
        </g>
    </g>

</svg>
