<svg width="280" height="230" viewBox="0 0 280 230" fill="none" xmlns="http://www.w3.org/2000/svg">
<g style="mix-blend-mode:multiply">
<path fill-rule="evenodd" clip-rule="evenodd" d="M0 222.463C0 205.639 23.1919 186.124 52.6711 178.664C68.9036 174.547 87.1128 166.822 98.3538 156.505L139.995 168.307L181.637 156.505C192.872 166.819 211.076 174.542 227.329 178.664C256.808 186.124 280 205.628 280 222.441L279.95 230H0.0494954L0 222.463Z" fill="#FFEFD8"/>
</g>
<g clip-path="url(#clip0)">
<path d="M140 146.827C155.989 146.827 161.462 129.597 161.462 129.597H118.538C118.538 129.597 124.598 146.827 140 146.827ZM233 173.463C214.021 186.008 194.24 182.641 184.053 162.571C172.092 173.587 157.541 180.775 140 180.775C121.901 180.775 107.686 174.114 95.7606 162.879C85.5235 182.656 65.8718 185.935 47 173.463C78.2981 160.654 27.4772 86.9981 76.3594 31.6485C92.6845 13.1669 115.505 5.16675 140 5.16675C164.495 5.16675 187.316 13.1669 203.641 31.6485C252.523 86.9981 201.702 160.654 233 173.463ZM192.452 128.734C193.325 127.255 194.684 126.143 196.279 125.586C213.785 119.526 214.55 93.6662 207.396 88.9012C205.715 87.7886 203.598 88.0595 202.589 88.5133C197.839 90.6725 192.531 87.0933 192.531 81.8233C192.531 78.3758 192.287 74.4965 191.844 71.0417H119.583C113.767 63.5686 114.067 49.486 116.75 37.5919C110.29 44.7796 104.639 61.3728 103.337 71.0417H88.1632C87.7197 74.4965 87.4765 78.3758 87.4765 81.8233C87.4765 87.0933 82.1683 90.6725 77.4182 88.5133C76.4095 88.0595 74.2991 87.7813 72.6108 88.9012C65.4569 93.6662 66.2224 119.526 83.7278 125.586C85.3303 126.143 86.6824 127.255 87.5552 128.734C99.7811 149.44 116.278 166.143 140.007 166.143C163.729 166.143 180.233 149.433 192.452 128.734Z" fill="#EF4623"/>
<path d="M186.5 103.349L180.649 107.271C180.649 107.271 176.75 99.9235 167.117 99.9235C157.763 99.9235 153.594 107.271 153.594 107.271L147.75 103.349C149.928 97.552 157.089 87.8335 167.117 87.8335C177.153 87.8335 184.307 97.552 186.5 103.349ZM132.25 103.349L126.399 107.271C126.399 107.271 122.5 99.9235 112.867 99.9235C103.513 99.9235 99.3435 107.271 99.3435 107.271L93.5 103.349C95.6777 97.552 102.839 87.8335 112.867 87.8335C122.903 87.8335 130.057 97.552 132.25 103.349Z" fill="#EF4623"/>
</g>
<path d="M67.0516 49.5269L47.4999 16L36.7758 45.5089L0 49.5269L37.0547 68.3518L47.4999 114L61.9119 75.6196L95 56.0912L67.0516 49.5269Z" fill="#7CE6C6"/>
<path d="M217.425 159.664L225.414 129.849L243.69 156.18L273.139 169.114L243.448 175.99L230.645 214.183L221.884 182.293L193.913 173.239L217.425 159.664Z" fill="#7CE6C6"/>
<defs>
<clipPath id="clip0">
<rect width="186" height="175.667" fill="white" transform="translate(47 5.16675)"/>
</clipPath>
</defs>
</svg>
