<svg width="92" height="74" viewBox="0 0 92 74" fill="none" xmlns="http://www.w3.org/2000/svg">
<path d="M65.396 73.123C66.4702 73.123 67.4956 72.6836 68.3256 71.8047L90.0542 49.5391C90.8351 48.7578 91.2751 47.5859 91.2751 46.6582C91.2751 44.3145 89.6635 42.752 87.4174 42.752C86.2456 42.752 85.4155 43.1426 84.7319 43.8262L74.6733 54.2266L68.8628 61.1602L69.3022 52.127V4.37297C69.3022 2.07807 67.6909 0.417969 65.396 0.417969C63.101 0.417969 61.4409 2.07807 61.4409 4.37297V52.127L61.8803 61.1602L56.0698 54.2266L46.0112 43.8262C45.3276 43.1426 44.4975 42.752 43.3745 42.752C41.0796 42.752 39.4682 44.3145 39.4682 46.6582C39.4682 47.5859 39.9565 48.7578 40.6889 49.5391L62.4174 71.8047C63.2475 72.6836 64.2729 73.123 65.396 73.123ZM26.3335 73.123C28.6284 73.123 30.2397 71.4629 30.2397 69.1679V21.4141L29.8003 12.3809L35.6108 19.3145L45.6694 29.7148C46.353 30.3984 47.1831 30.7891 48.3549 30.7891C50.601 30.7891 52.2124 29.2266 52.2124 26.8828C52.2124 25.9551 51.7729 24.7832 50.9917 24.002L29.2631 1.73627C28.4331 0.857367 27.4077 0.417969 26.3335 0.417969C25.2104 0.417969 24.185 0.857367 23.3549 1.73627L1.62644 24.002C0.894042 24.7832 0.405762 25.9551 0.405762 26.8828C0.405762 29.2266 2.01714 30.7891 4.31204 30.7891C5.43504 30.7891 6.26514 30.3984 6.94874 29.7148L17.0073 19.3145L22.8178 12.3809L22.3784 21.4141V69.1679C22.3784 71.4629 24.0385 73.123 26.3335 73.123Z" fill="black"/>
</svg>
