<svg xmlns="http://www.w3.org/2000/svg" width="24" height="24" fill="none" viewBox="0 0 24 24">
    <path fill="#E85A81" d="M8.114.644c-2.911 1.014-5.43 3.198-6.846 5.929-.472.936-.866 1.95-1.023 3.042-.55 2.575-.157 5.383 1.023 7.724a11.53 11.53 0 0 0 3.305 3.979c1.26 1.014 2.754 1.794 4.407 2.184 2.046.546 4.17.546 6.138.078a10.465 10.465 0 0 0 4.958-2.574c1.495-1.327 2.518-3.043 3.069-4.993.63-2.029.708-4.213.314-6.32H12.128v4.681h6.531c-.236 1.483-1.18 2.887-2.44 3.667-.786.546-1.73.858-2.675 1.014a9.11 9.11 0 0 1-2.912 0c-.944-.156-1.888-.624-2.675-1.17-1.26-.858-2.282-2.184-2.754-3.667-.551-1.482-.551-3.12 0-4.68.393-1.015.944-2.029 1.731-2.81a6.359 6.359 0 0 1 3.62-1.95c1.18-.234 2.36-.234 3.541.156a7.752 7.752 0 0 1 2.597 1.483l2.203-2.185 1.18-1.17A12.354 12.354 0 0 0 16.22.644a13.08 13.08 0 0 0-8.106 0z"/>
</svg>
