<svg width="79" height="35" viewBox="0 0 79 35" fill="none" xmlns="http://www.w3.org/2000/svg">
    <rect x="44.5275" width="34.4726" height="34.4726" rx="17.2363" fill="#7CE6C6" />
    <mask id="mask0" mask-type="alpha" maskUnits="userSpaceOnUse" x="44" y="0" width="35" height="35">
        <rect x="44.5275" width="34.4726" height="34.4726" rx="17.2363" fill="#FEFEFE" />
    </mask>
    <g mask="url(#mask0)">
        <path d="M57.0812 15.7221C56.3027 15.7221 55.7491 16.4794 55.9855 17.2212L58.8094 26.083C58.9614 26.56 59.4045 26.8838 59.9051 26.8838H60.6591C61.0789 26.8838 61.4653 26.6551 61.6673 26.2871L66.5307 17.4254C66.9513 16.659 66.3968 15.7221 65.5226 15.7221H64.5492C64.1286 15.7221 63.7415 15.9517 63.5399 16.3209L61.0301 20.9163C60.8821 21.1874 60.4811 21.1478 60.3889 20.853L59.0368 16.5289C58.8868 16.0489 58.4422 15.7221 57.9392 15.7221H57.0812ZM69.0501 15.7221C68.2728 15.7221 67.7194 16.4772 67.9535 17.2184L70.3807 24.9035L65.2843 33.2313C64.8153 33.9976 65.3667 34.9816 66.2651 34.9816H67.1219C67.5243 34.9816 67.8975 34.7713 68.1058 34.427L78.3689 17.4675C78.8327 16.701 78.2809 15.7221 77.385 15.7221H76.4489C76.0416 15.7221 75.6646 15.9375 75.4579 16.2885L72.9025 20.6278C72.7493 20.8879 72.3607 20.8451 72.2679 20.5578L70.9622 16.5184C70.8087 16.0437 70.3668 15.7221 69.8679 15.7221H69.0501Z" fill="#393E46" stroke="#393E46" stroke-width="0.3" stroke-linecap="round" stroke-linejoin="round" />
    </g>
    <path d="M11.4809 13.6171L11.4809 13.6171L11.4826 13.618C12.0086 13.8841 12.4959 14.257 12.9442 14.7389C13.3738 15.2006 14.0996 15.3377 14.6249 14.9411L15.5397 14.2505C16.0227 13.8858 16.1544 13.1895 15.7517 12.7089C15.0276 11.845 14.1506 11.1351 13.122 10.5792C11.8119 9.8581 10.4756 9.49528 9.11463 9.49528C6.79933 9.49528 4.67497 10.3727 2.74541 12.1146C0.811696 13.8593 -0.15 16.2306 -0.15 19.2103C-0.15 21.5732 0.601792 23.4889 2.11383 24.9419L2.11414 24.9422C3.63405 26.3945 5.63075 27.115 8.08908 27.115C10.2687 27.115 12.2112 26.2795 13.9113 24.6202C15.4241 23.1437 16.2388 21.1682 16.3651 18.7083C16.3978 18.0718 15.8726 17.571 15.2499 17.571H9.61467C8.97954 17.571 8.46467 18.0859 8.46467 18.721V19.6868C8.46467 20.3219 8.97955 20.8368 9.61467 20.8368H11.7849C12.0442 20.8368 12.1936 21.0955 12.0795 21.299C11.6492 22.0671 11.1325 22.6449 10.5322 23.0393C9.76001 23.5466 8.94655 23.7979 8.08908 23.7979C6.91837 23.7979 5.90089 23.3581 5.03 22.4693C4.15908 21.572 3.72663 20.5222 3.72663 19.313C3.72663 17.4148 4.2314 15.8946 5.22834 14.7379C6.23246 13.5827 7.53205 13.005 9.14027 13.005C9.9165 13.005 10.6962 13.2074 11.4809 13.6171ZM33.8339 25.3798L33.8343 25.3794C35.0512 24.2308 35.6632 22.8394 35.6632 21.2132C35.6632 19.5329 35.1023 18.1526 33.9757 17.0859C32.8582 16.0197 31.4133 15.4911 29.6547 15.4911C28.0397 15.4911 26.6263 16.0994 25.4207 17.3069C24.2149 18.5145 23.6078 19.9343 23.6078 21.5598C23.6078 23.0912 24.1766 24.4012 25.3079 25.4815L25.3083 25.4819C26.4397 26.5536 27.8146 27.0894 29.424 27.0894C31.1442 27.0894 32.6171 26.5195 33.8339 25.3798ZM31.3919 19.4419L31.3918 19.4419L31.3937 19.4438C31.8489 19.9077 32.0814 20.5183 32.0814 21.2902C32.0814 21.9965 31.8397 22.6062 31.3528 23.1264C30.8665 23.6459 30.2943 23.9006 29.6291 23.9006C28.9414 23.9006 28.3693 23.6674 27.903 23.2009C27.4455 22.7262 27.2152 22.1357 27.2152 21.4186C27.2152 20.6657 27.451 20.0347 27.9199 19.5164C28.3976 18.9894 28.9648 18.7312 29.6291 18.7312C30.3619 18.7312 30.9447 18.9701 31.3919 19.4419ZM21.2062 8.46816C20.6367 8.46816 20.153 8.88505 20.0689 9.44834L17.6626 25.5641C17.5588 26.2592 18.0972 26.8839 18.8 26.8839H19.9174C20.4875 26.8839 20.9716 26.4662 21.055 25.9022L23.4384 9.78642C23.5412 9.09185 23.0029 8.46816 22.3008 8.46816H21.2062ZM38.0502 15.7222C37.2972 15.7222 36.7474 16.4338 36.9375 17.1624L39.2489 26.0242C39.381 26.5306 39.8383 26.8839 40.3617 26.8839H40.8618C41.2701 26.8839 41.6478 26.6674 41.8542 26.3151L44.8689 21.1675C45.026 20.8992 45.4289 20.9537 45.509 21.2541L46.7839 26.0305C46.9182 26.5338 47.3741 26.8839 47.895 26.8839H48.3098C48.7182 26.8839 49.0959 26.6674 49.3022 26.3149L54.4899 17.4532C54.9387 16.6865 54.3858 15.7222 53.4974 15.7222H52.7633C52.3553 15.7222 51.9778 15.9384 51.7714 16.2903L49.1847 20.7C49.027 20.9689 48.6229 20.913 48.5442 20.6113L47.4927 16.5818C47.3606 16.0755 46.9033 15.7222 46.38 15.7222H45.312C44.906 15.7222 44.53 15.9363 44.3229 16.2856L41.6959 20.7152C41.5377 20.9821 41.1361 20.9263 41.0566 20.6264L39.9825 16.5773C39.8488 16.0732 39.3926 15.7222 38.871 15.7222H38.0502Z" fill="#393E46" stroke="#393E46" stroke-width="0.3" stroke-linecap="round" stroke-linejoin="round" />
    <path d="M56.6149 12.0341L56.6149 12.0342L56.6168 12.0359C57.014 12.4118 57.5048 12.5985 58.079 12.5985C58.6461 12.5985 59.1372 12.3898 59.5447 11.9786C59.9516 11.568 60.1584 11.0779 60.1584 10.5153C60.1584 9.91713 59.9653 9.42095 59.5716 9.04149C59.1848 8.65648 58.6825 8.46816 58.079 8.46816C57.511 8.46816 57.0224 8.68053 56.6211 9.09875L56.621 9.09883C56.2257 9.51154 56.0281 10.0167 56.0281 10.6052C56.0281 11.1711 56.2236 11.6509 56.6149 12.0341Z" fill="#393E46" stroke="#393E46" stroke-width="0.3" stroke-linecap="round" stroke-linejoin="round" />
    <path d="M64.2752 12.0341L64.2752 12.0342L64.277 12.0359C64.6743 12.4118 65.1651 12.5985 65.7393 12.5985C66.3064 12.5985 66.7975 12.3898 67.2049 11.9786C67.6119 11.568 67.8187 11.0779 67.8187 10.5153C67.8187 9.91713 67.6256 9.42095 67.2319 9.04149C66.8451 8.65648 66.3428 8.46816 65.7393 8.46816C65.1713 8.46816 64.6827 8.68053 64.2814 9.09875L64.2813 9.09883C63.886 9.51154 63.6884 10.0167 63.6884 10.6052C63.6884 11.1711 63.8838 11.6509 64.2752 12.0341Z" fill="#393E46" stroke="#393E46" stroke-width="0.3" stroke-linecap="round" stroke-linejoin="round" />
</svg>
