<svg width="24" height="24" viewBox="0 0 24 24" fill="none" xmlns="http://www.w3.org/2000/svg">
<rect width="24" height="24" rx="12" fill="#F9F9F9"/>
<path opacity="0.3" d="M13.0607 12.0001L14.8751 13.8146C15.1422 14.0817 15.1213 14.5356 14.8284 14.8285C14.5355 15.1214 14.0816 15.1424 13.8145 14.8753L12 13.0608L10.1855 14.8753C9.91843 15.1424 9.46447 15.1214 9.17157 14.8285C8.87868 14.5356 8.85777 14.0817 9.12486 13.8146L10.9393 12.0001L9.12486 10.1856C8.85777 9.91854 8.87868 9.46458 9.17157 9.17169C9.46447 8.8788 9.91843 8.85788 10.1855 9.12498L12 10.9395L13.8145 9.12498C14.0816 8.85788 14.5355 8.8788 14.8284 9.17169C15.1213 9.46458 15.1422 9.91854 14.8751 10.1856L13.0607 12.0001Z" fill="#808080"/>
</svg>
