<svg width="16" height="16" viewBox="0 0 16 16" fill="none" xmlns="http://www.w3.org/2000/svg">
<g opacity="0.3">
<path fill-rule="evenodd" clip-rule="evenodd" d="M9.72904 10.5379L8.75027 11.4829V4.5603L9.72004 5.53007C9.86629 5.67707 10.0583 5.74982 10.2503 5.74982C10.4423 5.74982 10.6343 5.67707 10.7806 5.53007C11.0731 5.23756 11.0731 4.7628 10.7806 4.46954L8.53051 2.21949C8.24176 1.92924 7.7745 1.92774 7.47899 2.20974L5.22894 4.38254C4.93119 4.67055 4.92294 5.14531 5.21094 5.44306C5.49895 5.74082 5.97371 5.74982 6.27147 5.46181L7.25024 4.51754V11.4394L6.28047 10.4697C5.98721 10.1772 5.51245 10.1772 5.21994 10.4697C4.92669 10.7629 4.92669 11.2377 5.21994 11.5302L7.46999 13.7802C7.61624 13.9272 7.80825 14 8.00025 14C8.18776 14 8.37526 13.9295 8.52151 13.79L10.7716 11.6172C11.0693 11.3299 11.0776 10.8552 10.7896 10.5567C10.5023 10.2589 10.0275 10.2507 9.72904 10.5379Z" fill="#808080"/>
</g>
</svg>
