<svg width="16" height="16" viewBox="0 0 16 16" fill="none" xmlns="http://www.w3.org/2000/svg">
<path d="M12.6667 7.33337H3.33333C2.59695 7.33337 2 7.93033 2 8.66671V13.3334C2 14.0698 2.59695 14.6667 3.33333 14.6667H12.6667C13.403 14.6667 14 14.0698 14 13.3334V8.66671C14 7.93033 13.403 7.33337 12.6667 7.33337Z" stroke="#393E46" stroke-width="1.5" stroke-linecap="round" stroke-linejoin="round"/>
<path d="M4.66669 7.33337V4.66671C4.66669 3.78265 5.01788 2.93481 5.643 2.30968C6.26812 1.68456 7.11597 1.33337 8.00002 1.33337C8.88408 1.33337 9.73192 1.68456 10.357 2.30968C10.9822 2.93481 11.3334 3.78265 11.3334 4.66671V7.33337" stroke="#393E46" stroke-width="1.5" stroke-linecap="round" stroke-linejoin="round"/>
</svg>
