<svg width="25" height="24" viewBox="0 0 25 24" fill="none" xmlns="http://www.w3.org/2000/svg">
<rect x="0.0727539" width="23.93" height="24" rx="6" fill="#F9F9F9"/>
<path opacity="0.3" d="M12.8228 11.25H15.3888C15.7665 11.25 16.0728 11.5858 16.0728 12C16.0728 12.4142 15.7665 12.75 15.3888 12.75H12.8228V15.3161C12.8228 15.6938 12.487 16 12.0728 16C11.6585 16 11.3228 15.6938 11.3228 15.3161V12.75H8.75669C8.37896 12.75 8.07275 12.4142 8.07275 12C8.07275 11.5858 8.37896 11.25 8.75669 11.25H11.3228V8.68394C11.3228 8.30621 11.6585 8 12.0728 8C12.487 8 12.8228 8.30621 12.8228 8.68394V11.25Z" fill="#808080"/>
</svg>
